<svg xmlns="http://www.w3.org/2000/svg" viewBox="0 0 167 382"><defs><style>.cls-1{fill:#fff;}</style></defs><title>arrow</title><g id="Layer_4" data-name="Layer 4"><path class="cls-1" d="M192.5,424.5l83,15s9-110,9-128-9-92-9-92l53,11s-32-54-41-73-30-74-30-74-18,48-34,77-41,64-41,64l56-8s-4,58-14,104S192.5,424.5,192.5,424.5Z" transform="translate(-172.5 -65)"/></g><g id="arrow"><path class="cls-1" d="M257.7487,83.5s-14.8639,40-34.0995,77a439.803,439.803,0,0,1-38.4712,61h47.2147s.8743,57-9.6178,108a523.2008,523.2008,0,0,1-28.8534,93l82.1884,16s6.12-32,7.8692-103c1.8466-74.9769-5.2461-113-5.2461-113l46.34,4a667.1756,667.1756,0,0,1-39.3456-72A757.7438,757.7438,0,0,1,257.7487,83.5Z" transform="translate(-172.5 -65)"/><path d="M281.7932,447l-97.0524-20s24.3831-48.61,34.63-98.416C228.0662,286.3164,232.5972,235.7935,232.83,222l-60.33,8s30.3075-37.2378,48.1432-71.5444C239.54,122.1079,258.1859,65,258.1859,65s14.5795,52.7441,30.6371,87.6372C305.9888,189.94,339.5,239,339.5,239l-59.4555-16c2.0894,12.8955,8.9006,52.9268,7.43,112.6123C285.7354,406.2354,281.7932,447,281.7932,447Zm-82.46-27.543L271,434c1.7854-10.1494,5.6074-42.4756,7-99,1.8085-73.44-8-121-8-121l47.9018,7.87a672.67,672.67,0,0,1-35.2693-65.5068c-11.3673-24.7026-20.54-49.5991-25.0755-62.4795-5.5074,13.9385-17.1428,42.1953-30.9018,68.6611A461.0746,461.0746,0,0,1,192.7282,217.5L244,212s-5.5356,66.1367-16,117C219.6049,369.8076,205.1817,406.707,199.3328,419.457Z" transform="translate(-172.5 -65)"/></g><g id="dashes"><path d="M206,395s19-3,41-9,36-14,36-14v-7s-24,11-40,16-38,9-38,9Z" transform="translate(-172.5 -65)"/><path d="M220,350s22-7,34-11,29-13,29-13v-5s-22,10-32,14-31,8-31,8Z" transform="translate(-172.5 -65)"/><path d="M229,300s14-6,26-11,27-17,27-17l-1-4s-15,11-26,16a147.5561,147.5561,0,0,1-24,8Z" transform="translate(-172.5 -65)"/><path d="M235,256s15-4,22-6,23-9,23-9l-1-3s-14,5-22,8-20,4-20,4Z" transform="translate(-172.5 -65)"/><path d="M240,219s22-7,39-14,26-15,26-15l-4-5a198.2857,198.2857,0,0,1-25,15c-14,7-38,14-38,14Z" transform="translate(-172.5 -65)"/><path d="M198,204s36-12,55-19,38-18,38-18l-2-5s-18,12-38,19-49,17-49,17Z" transform="translate(-172.5 -65)"/><path d="M224,160s20-7,31-11,23-14,23-14l-2-3s-12,10-21,14-29,10-29,10Z" transform="translate(-172.5 -65)"/><path d="M242,122s9-3,14-5a122.19,122.19,0,0,0,12-6l-2-4-10,6a59.3984,59.3984,0,0,1-12,5Z" transform="translate(-172.5 -65)"/></g></svg>