<svg xmlns="http://www.w3.org/2000/svg" xmlns:xlink="http://www.w3.org/1999/xlink" viewBox="0 0 424.0658 180.472"><defs><style>.cls-1{fill:url(#linear-gradient);}.cls-2{fill:url(#radial-gradient);}.cls-3{fill:url(#radial-gradient-2);}.cls-4{fill:#e8c580;}.cls-5{fill:url(#linear-gradient-2);}.cls-6{fill:url(#linear-gradient-3);}.cls-7{fill:url(#radial-gradient-3);}.cls-8{fill:url(#radial-gradient-4);}.cls-9{fill:url(#linear-gradient-4);}.cls-10{fill:url(#linear-gradient-5);}.cls-11{fill:url(#radial-gradient-5);}.cls-12{fill:url(#radial-gradient-6);}.cls-13{fill:url(#linear-gradient-6);}.cls-14{fill:url(#linear-gradient-7);}.cls-15{fill:url(#radial-gradient-7);}.cls-16{fill:url(#radial-gradient-8);}.cls-17{fill:url(#linear-gradient-8);}.cls-18{fill:url(#linear-gradient-9);}.cls-19{fill:url(#radial-gradient-9);}.cls-20{fill:url(#radial-gradient-10);}.cls-21{fill:url(#linear-gradient-10);}.cls-22{fill:url(#linear-gradient-11);}.cls-23{fill:url(#radial-gradient-11);}.cls-24{fill:url(#radial-gradient-12);}.cls-25{fill:url(#linear-gradient-12);}.cls-26{fill:url(#linear-gradient-13);}.cls-27{fill:url(#radial-gradient-13);}.cls-28{fill:url(#radial-gradient-14);}.cls-29{fill:url(#linear-gradient-14);}.cls-30{fill:url(#linear-gradient-15);}.cls-31{fill:url(#radial-gradient-15);}.cls-32{fill:url(#radial-gradient-16);}.cls-33{fill:url(#linear-gradient-16);}.cls-34{fill:url(#linear-gradient-17);}.cls-35{fill:url(#radial-gradient-17);}.cls-36{fill:url(#radial-gradient-18);}.cls-37{fill:url(#linear-gradient-18);}.cls-38{fill:url(#linear-gradient-19);}.cls-39{fill:url(#radial-gradient-19);}.cls-40{fill:url(#radial-gradient-20);}.cls-41{fill:url(#linear-gradient-20);}.cls-42{fill:url(#linear-gradient-21);}.cls-43{fill:url(#radial-gradient-21);}.cls-44{fill:url(#radial-gradient-22);}.cls-45{fill:url(#linear-gradient-22);}</style><linearGradient id="linear-gradient" x1="183.9342" y1="191.3363" x2="263.9457" y2="191.3363" gradientUnits="userSpaceOnUse"><stop offset="0" stop-color="#efa573"/><stop offset="0.1977" stop-color="#e8ab81"/><stop offset="0.4456" stop-color="#ddb499"/><stop offset="0.5401" stop-color="#dcb194"/><stop offset="0.6523" stop-color="#daa886"/><stop offset="0.7736" stop-color="#d69a6e"/><stop offset="0.9003" stop-color="#d1864c"/><stop offset="1" stop-color="#cc732d"/></linearGradient><radialGradient id="radial-gradient" cx="238.1585" cy="201.5709" r="45.301" gradientTransform="translate(0 43.79) scale(1 0.7905)" gradientUnits="userSpaceOnUse"><stop offset="0" stop-color="#ddb499"/><stop offset="0.1705" stop-color="#dcb194"/><stop offset="0.3729" stop-color="#daa886"/><stop offset="0.5916" stop-color="#d69a6e"/><stop offset="0.8202" stop-color="#d1864c"/><stop offset="1" stop-color="#cc732d"/></radialGradient><radialGradient id="radial-gradient-2" cx="232.9055" cy="192.0891" r="25.7607" gradientTransform="translate(0 43.79) scale(1 0.7905)" gradientUnits="userSpaceOnUse"><stop offset="0" stop-color="#d8bb82"/><stop offset="1" stop-color="#d6af55"/></radialGradient><linearGradient id="linear-gradient-2" x1="222.1034" y1="193.8152" x2="222.1034" y2="161.7229" gradientUnits="userSpaceOnUse"><stop offset="0" stop-color="#d18574"/><stop offset="0.2327" stop-color="#ce8170"/><stop offset="0.4706" stop-color="#c57764"/><stop offset="0.711" stop-color="#b6654f"/><stop offset="0.9517" stop-color="#a14c33"/><stop offset="1" stop-color="#9c462c"/></linearGradient><linearGradient id="linear-gradient-3" x1="72.9342" y1="218.3363" x2="152.9457" y2="218.3363" xlink:href="#linear-gradient"/><radialGradient id="radial-gradient-3" cx="127.1585" cy="235.7274" r="45.301" xlink:href="#radial-gradient"/><radialGradient id="radial-gradient-4" cx="121.9055" cy="226.2456" r="25.7607" xlink:href="#radial-gradient-2"/><linearGradient id="linear-gradient-4" x1="111.1034" y1="220.8152" x2="111.1034" y2="188.7229" xlink:href="#linear-gradient-2"/><linearGradient id="linear-gradient-5" x1="126.9342" y1="291.3363" x2="206.9457" y2="291.3363" xlink:href="#linear-gradient"/><radialGradient id="radial-gradient-5" cx="181.1585" cy="328.0765" r="45.301" xlink:href="#radial-gradient"/><radialGradient id="radial-gradient-6" cx="175.9055" cy="318.5947" r="25.7607" xlink:href="#radial-gradient-2"/><linearGradient id="linear-gradient-6" x1="165.1034" y1="293.8152" x2="165.1034" y2="261.7229" xlink:href="#linear-gradient-2"/><linearGradient id="linear-gradient-7" x1="161.9342" y1="228.3363" x2="241.9457" y2="228.3363" xlink:href="#linear-gradient"/><radialGradient id="radial-gradient-7" cx="216.1585" cy="248.378" r="45.301" xlink:href="#radial-gradient"/><radialGradient id="radial-gradient-8" cx="210.9055" cy="238.8962" r="25.7607" xlink:href="#radial-gradient-2"/><linearGradient id="linear-gradient-8" x1="200.1034" y1="230.8152" x2="200.1034" y2="198.7229" xlink:href="#linear-gradient-2"/><linearGradient id="linear-gradient-9" x1="290.9342" y1="194.3363" x2="370.9457" y2="194.3363" gradientTransform="translate(56.6317 -74.8789) rotate(14.1039)" xlink:href="#linear-gradient"/><radialGradient id="radial-gradient-9" cx="345.1585" cy="205.366" r="45.301" gradientTransform="matrix(0.9699, 0.2437, -0.1926, 0.7666, 45.9609, -32.4089)" xlink:href="#radial-gradient"/><radialGradient id="radial-gradient-10" cx="339.9055" cy="195.8842" r="25.7607" gradientTransform="matrix(0.9699, 0.2437, -0.1926, 0.7666, 45.9609, -32.4089)" xlink:href="#radial-gradient-2"/><linearGradient id="linear-gradient-10" x1="329.1034" y1="196.8152" x2="329.1034" y2="164.7229" gradientTransform="translate(56.6317 -74.8789) rotate(14.1039)" xlink:href="#linear-gradient-2"/><linearGradient id="linear-gradient-11" x1="230.9342" y1="254.3363" x2="310.9457" y2="254.3363" gradientTransform="translate(32.393 -30.9188) rotate(6.9449)" xlink:href="#linear-gradient"/><radialGradient id="radial-gradient-11" cx="285.1585" cy="281.2694" r="45.301" gradientTransform="matrix(0.9927, 0.1209, -0.0956, 0.7847, 27.0982, 12.55)" xlink:href="#radial-gradient"/><radialGradient id="radial-gradient-12" cx="279.9055" cy="271.7876" r="25.7607" gradientTransform="matrix(0.9927, 0.1209, -0.0956, 0.7847, 27.0982, 12.55)" xlink:href="#radial-gradient-2"/><linearGradient id="linear-gradient-12" x1="269.1034" y1="256.8152" x2="269.1034" y2="224.7229" gradientTransform="translate(32.393 -30.9188) rotate(6.9449)" xlink:href="#linear-gradient-2"/><linearGradient id="linear-gradient-13" x1="328.7495" y1="230.333" x2="408.761" y2="230.333" gradientTransform="translate(32.393 -30.9188) rotate(6.9449)" xlink:href="#linear-gradient"/><radialGradient id="radial-gradient-13" cx="382.9738" cy="250.9038" r="45.301" gradientTransform="matrix(0.9927, 0.1209, -0.0956, 0.7847, 27.0982, 12.55)" xlink:href="#radial-gradient"/><radialGradient id="radial-gradient-14" cx="377.7208" cy="241.422" r="25.7607" gradientTransform="matrix(0.9927, 0.1209, -0.0956, 0.7847, 27.0982, 12.55)" xlink:href="#radial-gradient-2"/><linearGradient id="linear-gradient-14" x1="366.9188" y1="232.8119" x2="366.9188" y2="200.7196" gradientTransform="translate(32.393 -30.9188) rotate(6.9449)" xlink:href="#linear-gradient-2"/><linearGradient id="linear-gradient-15" x1="210.9342" y1="318.3363" x2="290.9457" y2="318.3363" xlink:href="#linear-gradient"/><radialGradient id="radial-gradient-15" cx="265.1585" cy="362.2331" r="45.301" xlink:href="#radial-gradient"/><radialGradient id="radial-gradient-16" cx="259.9055" cy="352.7513" r="25.7607" xlink:href="#radial-gradient-2"/><linearGradient id="linear-gradient-16" x1="249.1034" y1="320.8152" x2="249.1034" y2="288.7229" xlink:href="#linear-gradient-2"/><linearGradient id="linear-gradient-17" x1="312.9342" y1="300.3363" x2="392.9457" y2="300.3363" xlink:href="#linear-gradient"/><radialGradient id="radial-gradient-17" cx="367.1585" cy="339.4621" r="45.301" xlink:href="#radial-gradient"/><radialGradient id="radial-gradient-18" cx="361.9055" cy="329.9803" r="25.7607" xlink:href="#radial-gradient-2"/><linearGradient id="linear-gradient-18" x1="351.1034" y1="302.8152" x2="351.1034" y2="270.7229" xlink:href="#linear-gradient-2"/><linearGradient id="linear-gradient-19" x1="396.9342" y1="266.3363" x2="476.9457" y2="266.3363" xlink:href="#linear-gradient"/><radialGradient id="radial-gradient-19" cx="451.1585" cy="296.4501" r="45.301" xlink:href="#radial-gradient"/><radialGradient id="radial-gradient-20" cx="445.9055" cy="286.9683" r="25.7607" xlink:href="#radial-gradient-2"/><linearGradient id="linear-gradient-20" x1="435.1034" y1="268.8152" x2="435.1034" y2="236.7229" xlink:href="#linear-gradient-2"/><linearGradient id="linear-gradient-21" x1="52.9342" y1="270.3363" x2="132.9457" y2="270.3363" xlink:href="#linear-gradient"/><radialGradient id="radial-gradient-21" cx="107.1585" cy="301.5103" r="45.301" xlink:href="#radial-gradient"/><radialGradient id="radial-gradient-22" cx="101.9055" cy="292.0286" r="25.7607" xlink:href="#radial-gradient-2"/><linearGradient id="linear-gradient-22" x1="91.1034" y1="272.8152" x2="91.1034" y2="240.7229" xlink:href="#linear-gradient-2"/></defs><title>bacon</title><g id="bacon"><g id="multiple"><path class="cls-1" d="M252.1843,167.4777A101.5805,101.5805,0,0,0,234.92,170.662c-6.33,1.82-11.51,3.6392-15.5379,4.0941s-16.1133,5.0039-21.2926,7.7333c-4.37,2.3028-11.3487,1.2131-13.8114,2.8281-.4563.2991-.4611,4.1019,0,5.36.9,2.4574,2.8774,4.0941,5.1793,9.098s12.085,13.5263,13.8114,14.891,4.0283-.2411,6.33-1.1509,10.9341-7.5086,12.6605-9.7831,6.33-7.4812,10.934-7.4812a43.72,43.72,0,0,0,11.51-1.151c3.4528-.91,6.33-2.9979,10.3585-3.4528s7.5793-1.5912,8.6322-3.4529c.5665-1.0018,0-2.3019,0-3.4528,0-1.8063-2.28-3.7964-3.4529-6.3467C257.9391,173.3914,253.3353,167.4777,252.1843,167.4777Z" transform="translate(-52.9342 -161.7229)"/><path class="cls-2" d="M252.1843,161.7229a101.5732,101.5732,0,0,0-17.2642,3.1844c-6.33,1.82-11.51,3.6392-15.5379,4.0941s-16.1133,5.0039-21.2926,7.7333-12.66,7.2784-13.8114,8.1882,2.8774,4.0941,5.1793,9.098,12.085,14.5569,13.8114,15.9216,2.8774.4549,5.1793-.4549,12.66-8.6432,14.3869-10.9177,6.9057-6.8235,11.51-6.8235,8.0567,0,11.5095-.91,6.9057-3.1843,10.9341-3.6392a18.2178,18.2178,0,0,0,6.9057-2.2745c1.1509-.4549-1.151-7.2784-3.4529-12.2823S253.3353,161.7229,252.1843,161.7229Z" transform="translate(-52.9342 -161.7229)"/><path class="cls-3" d="M234.3446,191.7464c4.6038,0,8.0567,0,11.5095-.91s6.9057-3.1843,10.9341-3.6392a18.2178,18.2178,0,0,0,6.9057-2.2745c.5641-.223.2975-1.9777-.3909-4.2967a32.7424,32.7424,0,0,1-7.6658,3.3869c-4.0283.91-6.33,3.1843-12.085,4.0941s-6.9057,0-13.8114,1.3647-12.085,8.1882-17.84,12.7372a74.5375,74.5375,0,0,1-10.09,6.4319c.6593.6192,1.1711,1.075,1.4576,1.3015,1.7264,1.3647,2.8774.4549,5.1793-.4549s12.66-8.6432,14.3869-10.9177S229.7408,191.7464,234.3446,191.7464Z" transform="translate(-52.9342 -161.7229)"/><path class="cls-4" d="M219.3822,180.8288c6.9057-1.82,18.4153-1.82,27.0474-3.1843a113.8471,113.8471,0,0,0,14.5188-3.408c-.2334-.5451-.47-1.0805-.7074-1.5959-.3982-.8656-.8662-1.7582-1.3723-2.6429l-51.5715,9.0115-19.1636,12.57a22.6538,22.6538,0,0,1,1.3239,2.4417,19.446,19.446,0,0,0,1.8727,3.0581,63.4362,63.4362,0,0,0,11.9387-5.7875C209.0237,187.6523,212.4765,182.6484,219.3822,180.8288Z" transform="translate(-52.9342 -161.7229)"/><path class="cls-5" d="M196.9387,190.8366c6.33-2.7294,13.8114-9.5529,21.2926-11.8274s17.84-2.2745,27.0473-3.6392c4.886-.7242,10.582-1.9607,14.8527-2.962-2.3349-4.9528-6.8137-10.6851-7.947-10.6851a101.5732,101.5732,0,0,0-17.2642,3.1844c-6.33,1.82-11.51,3.6392-15.5379,4.0941s-16.1133,5.0039-21.2926,7.7333-12.66,7.2784-13.8114,8.1882c-1.1348.8971,2.7623,4.009,5.0783,8.8923C191.28,193.1341,193.9074,192.1436,196.9387,190.8366Z" transform="translate(-52.9342 -161.7229)"/><path class="cls-6" d="M141.1843,194.4777A101.5805,101.5805,0,0,0,123.92,197.662c-6.33,1.82-11.51,3.6392-15.5379,4.0941S92.2689,206.76,87.09,209.4894c-4.37,2.3028-11.3487,1.2131-13.8114,2.8281-.4563.2991-.4611,4.1019,0,5.36.9005,2.4574,2.8774,4.0941,5.1793,9.098s12.085,13.5263,13.8114,14.891,4.0283-.2411,6.33-1.1509,10.9341-7.5086,12.66-9.7831,6.33-7.4812,10.934-7.4812a43.72,43.72,0,0,0,11.51-1.151c3.4528-.91,6.33-2.9979,10.3585-3.4528s7.5793-1.5912,8.6322-3.4529c.5665-1.0018,0-2.3019,0-3.4528,0-1.8063-2.28-3.7964-3.4529-6.3467C146.9391,200.3914,142.3353,194.4777,141.1843,194.4777Z" transform="translate(-52.9342 -161.7229)"/><path class="cls-7" d="M141.1843,188.7229a101.5732,101.5732,0,0,0-17.2642,3.1844c-6.33,1.82-11.51,3.6392-15.5379,4.0941s-16.1133,5.0039-21.2926,7.7333-12.66,7.2784-13.8114,8.1882,2.8774,4.0941,5.1793,9.098,12.085,14.5569,13.8114,15.9216,2.8774.4549,5.1793-.4549,12.66-8.6432,14.3869-10.9177,6.9057-6.8235,11.51-6.8235,8.0567,0,11.5095-.91,6.9057-3.1843,10.9341-3.6392a18.2178,18.2178,0,0,0,6.9057-2.2745c1.1509-.4549-1.151-7.2784-3.4529-12.2823S142.3353,188.7229,141.1843,188.7229Z" transform="translate(-52.9342 -161.7229)"/><path class="cls-8" d="M123.3446,218.7464c4.6038,0,8.0567,0,11.5095-.91s6.9057-3.1843,10.9341-3.6392a18.2178,18.2178,0,0,0,6.9057-2.2745c.5641-.223.2975-1.9777-.3909-4.2967a32.7424,32.7424,0,0,1-7.6658,3.3869c-4.0283.91-6.33,3.1843-12.085,4.0941s-6.9057,0-13.8114,1.3647-12.085,8.1882-17.84,12.7372a74.5375,74.5375,0,0,1-10.09,6.4319c.6593.6192,1.1711,1.075,1.4576,1.3015,1.7264,1.3647,2.8774.4549,5.1793-.4549s12.66-8.6432,14.3869-10.9177S118.7408,218.7464,123.3446,218.7464Z" transform="translate(-52.9342 -161.7229)"/><path class="cls-4" d="M108.3822,207.8288c6.9057-1.82,18.4153-1.82,27.0474-3.1843a113.8471,113.8471,0,0,0,14.5188-3.408c-.2334-.5451-.47-1.0805-.7074-1.5959-.3982-.8656-.8662-1.7582-1.3723-2.6429l-51.5715,9.0115-19.1636,12.57a22.6538,22.6538,0,0,1,1.3239,2.4417A19.446,19.446,0,0,0,80.33,224.079a63.4362,63.4362,0,0,0,11.9387-5.7875C98.0237,214.6523,101.4765,209.6484,108.3822,207.8288Z" transform="translate(-52.9342 -161.7229)"/><path class="cls-9" d="M85.9387,217.8366c6.33-2.7294,13.8114-9.5529,21.2926-11.8274s17.84-2.2745,27.0473-3.6392c4.886-.7242,10.582-1.9607,14.8527-2.962-2.3349-4.9528-6.8137-10.6851-7.947-10.6851a101.5732,101.5732,0,0,0-17.2642,3.1844c-6.33,1.82-11.51,3.6392-15.5379,4.0941s-16.1133,5.0039-21.2926,7.7333-12.66,7.2784-13.8114,8.1882c-1.1348.8971,2.7623,4.009,5.0783,8.8923C80.28,220.1341,82.9074,219.1436,85.9387,217.8366Z" transform="translate(-52.9342 -161.7229)"/><path class="cls-10" d="M195.1843,267.4777A101.5805,101.5805,0,0,0,177.92,270.662c-6.33,1.82-11.51,3.6392-15.5379,4.0941s-16.1133,5.0039-21.2926,7.7333c-4.37,2.3028-11.3487,1.2131-13.8114,2.8281-.4563.2991-.4611,4.1019,0,5.36.9,2.4574,2.8774,4.0941,5.1793,9.098s12.085,13.5263,13.8114,14.891,4.0283-.2411,6.33-1.1509,10.9341-7.5086,12.6605-9.7831,6.33-7.4812,10.934-7.4812a43.72,43.72,0,0,0,11.51-1.151c3.4528-.91,6.33-2.9979,10.3585-3.4528s7.5793-1.5912,8.6322-3.4529c.5665-1.0018,0-2.3019,0-3.4528,0-1.8063-2.28-3.7964-3.4529-6.3467C200.9391,273.3914,196.3353,267.4777,195.1843,267.4777Z" transform="translate(-52.9342 -161.7229)"/><path class="cls-11" d="M195.1843,261.7229a101.5732,101.5732,0,0,0-17.2642,3.1844c-6.33,1.82-11.51,3.6392-15.5379,4.0941s-16.1133,5.0039-21.2926,7.7333-12.66,7.2784-13.8114,8.1882,2.8774,4.0941,5.1793,9.098,12.085,14.5569,13.8114,15.9216,2.8774.4549,5.1793-.4549,12.66-8.6432,14.3869-10.9177,6.9057-6.8235,11.51-6.8235,8.0567,0,11.5095-.91,6.9057-3.1843,10.9341-3.6392a18.2178,18.2178,0,0,0,6.9057-2.2745c1.1509-.4549-1.151-7.2784-3.4529-12.2823S196.3353,261.7229,195.1843,261.7229Z" transform="translate(-52.9342 -161.7229)"/><path class="cls-12" d="M177.3446,291.7464c4.6038,0,8.0567,0,11.5095-.91s6.9057-3.1843,10.9341-3.6392a18.2178,18.2178,0,0,0,6.9057-2.2745c.5641-.223.2975-1.9777-.3909-4.2967a32.7424,32.7424,0,0,1-7.6658,3.3869c-4.0283.91-6.33,3.1843-12.085,4.0941s-6.9057,0-13.8114,1.3647-12.085,8.1882-17.84,12.7372a74.5375,74.5375,0,0,1-10.09,6.4319c.6593.6192,1.1711,1.075,1.4576,1.3015,1.7264,1.3647,2.8774.4549,5.1793-.4549s12.66-8.6432,14.3869-10.9177S172.7408,291.7464,177.3446,291.7464Z" transform="translate(-52.9342 -161.7229)"/><path class="cls-4" d="M162.3822,280.8288c6.9057-1.82,18.4153-1.82,27.0474-3.1843a113.8471,113.8471,0,0,0,14.5188-3.408c-.2334-.5451-.47-1.08-.7074-1.5959-.3982-.8656-.8662-1.7582-1.3723-2.6429l-51.5715,9.0115-19.1636,12.57a22.6538,22.6538,0,0,1,1.3239,2.4417,19.446,19.446,0,0,0,1.8727,3.0581,63.4362,63.4362,0,0,0,11.9387-5.7875C152.0237,287.6523,155.4765,282.6484,162.3822,280.8288Z" transform="translate(-52.9342 -161.7229)"/><path class="cls-13" d="M139.9387,290.8366c6.33-2.7294,13.8114-9.5529,21.2926-11.8274s17.84-2.2745,27.0473-3.6392c4.886-.7242,10.582-1.9607,14.8527-2.962-2.3349-4.9528-6.8137-10.6851-7.947-10.6851a101.5732,101.5732,0,0,0-17.2642,3.1844c-6.33,1.82-11.51,3.6392-15.5379,4.0941s-16.1133,5.0039-21.2926,7.7333-12.66,7.2784-13.8114,8.1882c-1.1348.8971,2.7623,4.009,5.0783,8.8923C134.28,293.1341,136.9074,292.1436,139.9387,290.8366Z" transform="translate(-52.9342 -161.7229)"/><path class="cls-14" d="M230.1843,204.4777A101.5805,101.5805,0,0,0,212.92,207.662c-6.33,1.82-11.51,3.6392-15.5379,4.0941s-16.1133,5.0039-21.2926,7.7333c-4.37,2.3028-11.3487,1.2131-13.8114,2.8281-.4563.2991-.4611,4.1019,0,5.36.9,2.4574,2.8774,4.0941,5.1793,9.098s12.085,13.5263,13.8114,14.891,4.0283-.2411,6.33-1.1509,10.9341-7.5086,12.6605-9.7831,6.33-7.4812,10.934-7.4812a43.72,43.72,0,0,0,11.51-1.151c3.4528-.91,6.33-2.9979,10.3585-3.4528s7.5793-1.5912,8.6322-3.4529c.5665-1.0018,0-2.3019,0-3.4528,0-1.8063-2.28-3.7964-3.4529-6.3467C235.9391,210.3914,231.3353,204.4777,230.1843,204.4777Z" transform="translate(-52.9342 -161.7229)"/><path class="cls-15" d="M230.1843,198.7229a101.5732,101.5732,0,0,0-17.2642,3.1844c-6.33,1.82-11.51,3.6392-15.5379,4.0941s-16.1133,5.0039-21.2926,7.7333-12.66,7.2784-13.8114,8.1882,2.8774,4.0941,5.1793,9.098,12.085,14.5569,13.8114,15.9216,2.8774.4549,5.1793-.4549,12.66-8.6432,14.3869-10.9177,6.9057-6.8235,11.51-6.8235,8.0567,0,11.5095-.91,6.9057-3.1843,10.9341-3.6392a18.2178,18.2178,0,0,0,6.9057-2.2745c1.1509-.4549-1.151-7.2784-3.4529-12.2823S231.3353,198.7229,230.1843,198.7229Z" transform="translate(-52.9342 -161.7229)"/><path class="cls-16" d="M212.3446,228.7464c4.6038,0,8.0567,0,11.5095-.91s6.9057-3.1843,10.9341-3.6392a18.2178,18.2178,0,0,0,6.9057-2.2745c.5641-.223.2975-1.9777-.3909-4.2967a32.7424,32.7424,0,0,1-7.6658,3.3869c-4.0283.91-6.33,3.1843-12.085,4.0941s-6.9057,0-13.8114,1.3647-12.085,8.1882-17.84,12.7372a74.5375,74.5375,0,0,1-10.09,6.4319c.6593.6192,1.1711,1.075,1.4576,1.3015,1.7264,1.3647,2.8774.4549,5.1793-.4549s12.66-8.6432,14.3869-10.9177S207.7408,228.7464,212.3446,228.7464Z" transform="translate(-52.9342 -161.7229)"/><path class="cls-4" d="M197.3822,217.8288c6.9057-1.82,18.4153-1.82,27.0474-3.1843a113.8471,113.8471,0,0,0,14.5188-3.408c-.2334-.5451-.47-1.0805-.7074-1.5959-.3982-.8656-.8662-1.7582-1.3723-2.6429l-51.5715,9.0115-19.1636,12.57a22.6538,22.6538,0,0,1,1.3239,2.4417,19.446,19.446,0,0,0,1.8727,3.0581,63.4362,63.4362,0,0,0,11.9387-5.7875C187.0237,224.6523,190.4765,219.6484,197.3822,217.8288Z" transform="translate(-52.9342 -161.7229)"/><path class="cls-17" d="M174.9387,227.8366c6.33-2.7294,13.8114-9.5529,21.2926-11.8274s17.84-2.2745,27.0473-3.6392c4.886-.7242,10.582-1.9607,14.8527-2.962-2.3349-4.9528-6.8137-10.6851-7.947-10.6851a101.5732,101.5732,0,0,0-17.2642,3.1844c-6.33,1.82-11.51,3.6392-15.5379,4.0941s-16.1133,5.0039-21.2926,7.7333-12.66,7.2784-13.8114,8.1882c-1.1348.8971,2.7623,4.009,5.0783,8.8923C169.28,230.1341,171.9074,229.1436,174.9387,227.8366Z" transform="translate(-52.9342 -161.7229)"/><path class="cls-18" d="M363.4465,177.9862a101.5751,101.5751,0,0,0-17.52-1.1187c-6.5828.2222-12.0494.7249-16.0672.1844s-16.8469.9266-22.5352,2.3116c-4.7991,1.1686-11.3022-1.5889-14.0842-.6228-.5154.179-1.4467,3.866-1.3062,5.1987.2746,2.6028,1.793,4.6718,2.8062,10.0858s8.4246,16.0635,9.7664,17.8077,3.9657.7478,6.42.4263,12.4341-4.6178,14.6628-6.403,7.9624-5.7131,12.4274-4.5913a43.7177,43.7177,0,0,0,11.4431,1.6884c3.57-.041,6.87-1.365,10.8877-.8246s7.7385.3037,9.2133-1.2453c.7936-.8335.5609-2.2325.8414-3.3487.44-1.7519-1.2859-4.2374-1.8022-6.9968C367.5867,185.1239,364.5627,178.2666,363.4465,177.9862Z" transform="translate(-52.9342 -161.7229)"/><path class="cls-19" d="M364.8488,172.4049a101.5751,101.5751,0,0,0-17.52-1.1187c-6.5828.2222-12.0494.7249-16.0671.1845s-16.847.9265-22.5352,2.3116-14.0525,3.9739-15.39,4.5758,1.793,4.6718,2.8061,10.0858,8.1735,17.0629,9.5153,18.8072,2.68,1.1424,5.134.8209,14.385-5.2975,16.6136-7.0827,8.36-4.935,12.8254-3.8132,7.8138,1.9633,11.3842,1.9223,7.4735-1.4055,11.4913-.8651a18.2164,18.2164,0,0,0,7.2518-.5232c1.2271-.1607.6573-7.3394-.3558-12.7534S365.9651,172.6854,364.8488,172.4049Z" transform="translate(-52.9342 -161.7229)"/><path class="cls-20" d="M340.2307,197.1761c4.465,1.1219,7.8138,1.9633,11.3842,1.9223s7.4735-1.4055,11.4913-.8651a18.2164,18.2164,0,0,0,7.2518-.5232c.6015-.0787.77-1.8455.668-4.2624a32.7431,32.7431,0,0,1-8.26,1.4168c-4.1286-.0992-6.9154,1.5458-12.7184,1.0258s-6.6975-1.6828-13.7276-2.042-13.716,4.9965-20.4058,8.0061a74.54,74.54,0,0,1-11.3528,3.7793c.4884.7612.8737,1.3279,1.0964,1.6174,1.3418,1.7443,2.68,1.1424,5.134.8209s14.385-5.2975,16.6136-7.0827S335.7656,196.0543,340.2307,197.1761Z" transform="translate(-52.9342 -161.7229)"/><path class="cls-4" d="M328.38,182.9416c7.1409-.082,18.3035,2.7226,27.0079,3.5026a113.8539,113.8539,0,0,0,14.9116.2327c-.0935-.5856-.1928-1.1625-.2971-1.72-.1753-.9365-.4116-1.9163-.6869-2.8976l-52.2128-3.8272-21.6491,7.5213a22.6368,22.6368,0,0,1,.689,2.6907,19.4531,19.4531,0,0,0,1.0711,3.4223,63.4386,63.4386,0,0,0,12.9891-2.7038C316.6707,187.0352,321.2388,183.0235,328.38,182.9416Z" transform="translate(-52.9342 -161.7229)"/><path class="cls-21" d="M304.174,187.1786c6.8045-1.1045,15.723-5.8993,23.5329-6.2823s17.8562,2.1413,27.1188,3.0615c4.9152.4882,10.7408.677,15.1268.7466-1.0577-5.3725-4.0046-12.0234-5.1037-12.2995a101.5751,101.5751,0,0,0-17.52-1.1187c-6.5828.2222-12.0494.7249-16.0671.1845s-16.847.9265-22.5352,2.3116-14.0525,3.9739-15.39,4.5758c-1.3193.5935,1.7021,4.5612,2.7583,9.8617C298.1262,188.028,300.9156,187.7076,304.174,187.1786Z" transform="translate(-52.9342 -161.7229)"/><path class="cls-22" d="M301.5142,234.0435a101.58,101.58,0,0,0-17.5226,1.0735c-6.5038,1.0408-11.8651,2.2208-15.9189,2.1853s-16.6,3.0189-22.0714,5.102c-4.6161,1.7575-11.4121-.168-14.0521,1.1373-.489.2418-.9536,4.0161-.6481,5.3208.5968,2.5483,2.3613,4.412,4.0412,9.6576s10.3608,14.8883,11.91,16.4517,4.0279.2477,6.4229-.3771,11.7617-6.1314,13.75-8.18,7.1884-6.6609,11.7584-6.1043a43.72,43.72,0,0,0,11.5643.2492c3.5375-.4856,6.6462-2.2106,10.7-2.175s7.7161-.6631,8.9863-2.3838c.6836-.926.2784-2.285.4175-3.4275.2184-1.7931-1.8039-4.0442-2.66-6.7176C306.5117,240.61,302.6567,234.1827,301.5142,234.0435Z" transform="translate(-52.9342 -161.7229)"/><path class="cls-23" d="M302.21,228.331a101.5781,101.5781,0,0,0-17.5227,1.0734c-6.5038,1.0409-11.8651,2.2209-15.9188,2.1853s-16.6,3.0189-22.0715,5.1021-13.4476,5.6941-14.7,6.4581,2.3612,4.412,4.0412,9.6575,10.2362,15.9113,11.7849,17.4747,2.8013.7995,5.1963.1747,13.6126-7.0489,15.6014-9.0979,7.68-5.9385,12.25-5.3818,7.9975.9742,11.535.4885,7.24-2.3259,11.2939-2.29a18.2172,18.2172,0,0,0,7.13-1.4228c1.1976-.3124-.2624-7.3642-1.9424-12.61S303.3526,228.47,302.21,228.331Z" transform="translate(-52.9342 -161.7229)"/><path class="cls-24" d="M280.871,255.9771c4.57.5567,7.9975.9742,11.535.4885s7.24-2.3259,11.2939-2.29a18.2172,18.2172,0,0,0,7.13-1.4228c.587-.1532.5346-1.9272.1316-4.3125a32.7386,32.7386,0,0,1-8.0191,2.4352c-4.1088.416-6.6688,2.3955-12.4914,2.6028s-6.855-.835-13.8751-.3153S263.59,259.83,257.327,263.6493a74.5383,74.5383,0,0,1-10.7934,5.1646c.5795.6945,1.0325,1.2088,1.29,1.4682,1.5488,1.5635,2.8013.7995,5.1963.1747s13.6126-7.0489,15.6014-9.0979S276.3009,255.42,280.871,255.9771Z" transform="translate(-52.9342 -161.7229)"/><path class="cls-4" d="M267.3385,243.33c7.075-.9713,18.5.42,27.2339.1095a113.8322,113.8322,0,0,0,14.8243-1.6275c-.1657-.5693-.3361-1.1294-.5092-1.67-.2906-.9074-.6472-1.85-1.0427-2.7894l-52.2827,2.71-20.5429,10.1606a22.6512,22.6512,0,0,1,1.019,2.5839,19.4448,19.4448,0,0,0,1.4892,3.2621,63.4385,63.4385,0,0,0,12.5509-4.3015C256.2308,248.8514,260.2634,244.3017,267.3385,243.33Z" transform="translate(-52.9342 -161.7229)"/><path class="cls-25" d="M243.85,250.5511c6.6138-1.944,14.8651-7.8129,22.5665-9.1661s17.9838-.1008,27.2889-.3421c4.9377-.1281,10.7414-.6668,15.1019-1.1443-1.719-5.1988-5.4718-11.4306-6.5967-11.5676a101.5781,101.5781,0,0,0-17.5227,1.0734c-6.5038,1.0409-11.8651,2.2209-15.9188,2.1853s-16.6,3.0189-22.0715,5.1021-13.4476,5.6941-14.7,6.4581c-1.235.7533,2.2573,4.3136,3.9658,9.4411C237.9546,252.1475,240.6824,251.4819,243.85,250.5511Z" transform="translate(-52.9342 -161.7229)"/><path class="cls-26" d="M401.5142,222.0435a101.58,101.58,0,0,0-17.5226,1.0735c-6.5038,1.0408-11.8651,2.2208-15.9189,2.1853s-16.6,3.0189-22.0714,5.102c-4.6161,1.7575-11.4121-.168-14.0521,1.1373-.489.2418-.9536,4.0161-.6481,5.3208.5968,2.5483,2.3613,4.412,4.0412,9.6576s10.3608,14.8883,11.91,16.4517,4.0279.2477,6.4229-.3771,11.7617-6.1314,13.75-8.18,7.1884-6.6609,11.7584-6.1043a43.72,43.72,0,0,0,11.5643.2492c3.5375-.4856,6.6462-2.2106,10.7-2.175s7.7161-.6631,8.9863-2.3838c.6836-.926.2784-2.285.4175-3.4275.2184-1.7931-1.8039-4.0442-2.66-6.7176C406.5117,228.61,402.6567,222.1827,401.5142,222.0435Z" transform="translate(-52.9342 -161.7229)"/><path class="cls-27" d="M402.21,216.331a101.5781,101.5781,0,0,0-17.5227,1.0734c-6.5038,1.0409-11.8651,2.2209-15.9188,2.1853s-16.6,3.0189-22.0715,5.1021-13.4476,5.6941-14.7,6.4581,2.3612,4.412,4.0412,9.6575,10.2362,15.9113,11.7849,17.4747,2.8013.7995,5.1963.1747,13.6126-7.0489,15.6014-9.0979,7.68-5.9385,12.25-5.3818,7.9975.9742,11.535.4885,7.24-2.3259,11.2939-2.29a18.2172,18.2172,0,0,0,7.13-1.4228c1.1976-.3124-.2624-7.3642-1.9424-12.61S403.3526,216.47,402.21,216.331Z" transform="translate(-52.9342 -161.7229)"/><path class="cls-28" d="M380.871,243.9771c4.57.5567,7.9975.9742,11.535.4885s7.24-2.3259,11.2939-2.29a18.2172,18.2172,0,0,0,7.13-1.4228c.587-.1532.5346-1.9272.1316-4.3125a32.7386,32.7386,0,0,1-8.0191,2.4352c-4.1088.416-6.6688,2.3955-12.4914,2.6028s-6.855-.835-13.8751-.3153S363.59,247.83,357.327,251.6493a74.5383,74.5383,0,0,1-10.7934,5.1646c.5795.6945,1.0325,1.2088,1.29,1.4682,1.5488,1.5635,2.8013.7995,5.1963.1747s13.6126-7.0489,15.6014-9.0979S376.3009,243.42,380.871,243.9771Z" transform="translate(-52.9342 -161.7229)"/><path class="cls-4" d="M367.3385,231.33c7.075-.9713,18.5.42,27.2339.1095a113.8322,113.8322,0,0,0,14.8243-1.6275c-.1657-.5693-.3361-1.1294-.5092-1.67-.2906-.9074-.6472-1.85-1.0427-2.7894l-52.2827,2.71-20.5429,10.1606a22.6512,22.6512,0,0,1,1.019,2.5839,19.4448,19.4448,0,0,0,1.4892,3.2621,63.4385,63.4385,0,0,0,12.5509-4.3015C356.2308,236.8514,360.2634,232.3017,367.3385,231.33Z" transform="translate(-52.9342 -161.7229)"/><path class="cls-29" d="M343.85,238.5511c6.6138-1.944,14.8651-7.8129,22.5665-9.1661s17.9838-.1008,27.2889-.3421c4.9377-.1281,10.7414-.6668,15.1019-1.1443-1.719-5.1988-5.4718-11.4306-6.5967-11.5676a101.5781,101.5781,0,0,0-17.5227,1.0734c-6.5038,1.0409-11.8651,2.2209-15.9188,2.1853s-16.6,3.0189-22.0715,5.1021-13.4476,5.6941-14.7,6.4581c-1.235.7533,2.2573,4.3136,3.9658,9.4411C337.9546,240.1475,340.6824,239.4819,343.85,238.5511Z" transform="translate(-52.9342 -161.7229)"/><path class="cls-30" d="M279.1843,294.4777A101.5805,101.5805,0,0,0,261.92,297.662c-6.33,1.82-11.51,3.6392-15.5379,4.0941s-16.1133,5.0039-21.2926,7.7333c-4.37,2.3028-11.3487,1.2131-13.8114,2.8281-.4563.2991-.4611,4.1019,0,5.36.9,2.4574,2.8774,4.0941,5.1793,9.098s12.085,13.5263,13.8114,14.891,4.0283-.2411,6.33-1.1509,10.9341-7.5086,12.6605-9.7831,6.33-7.4812,10.934-7.4812a43.72,43.72,0,0,0,11.51-1.151c3.4528-.91,6.33-2.9979,10.3585-3.4528s7.5793-1.5912,8.6322-3.4529c.5665-1.0018,0-2.3019,0-3.4528,0-1.8063-2.28-3.7964-3.4529-6.3467C284.9391,300.3914,280.3353,294.4777,279.1843,294.4777Z" transform="translate(-52.9342 -161.7229)"/><path class="cls-31" d="M279.1843,288.7229a101.5732,101.5732,0,0,0-17.2642,3.1844c-6.33,1.82-11.51,3.6392-15.5379,4.0941s-16.1133,5.0039-21.2926,7.7333-12.66,7.2784-13.8114,8.1882,2.8774,4.0941,5.1793,9.098,12.085,14.5569,13.8114,15.9216,2.8774.4549,5.1793-.4549,12.66-8.6432,14.3869-10.9177,6.9057-6.8235,11.51-6.8235,8.0567,0,11.51-.91,6.9057-3.1843,10.9341-3.6392a18.2178,18.2178,0,0,0,6.9057-2.2745c1.1509-.4549-1.151-7.2784-3.4529-12.2823S280.3353,288.7229,279.1843,288.7229Z" transform="translate(-52.9342 -161.7229)"/><path class="cls-32" d="M261.3446,318.7464c4.6038,0,8.0567,0,11.51-.91s6.9057-3.1843,10.9341-3.6392a18.2178,18.2178,0,0,0,6.9057-2.2745c.5641-.223.2975-1.9777-.3909-4.2967a32.7424,32.7424,0,0,1-7.6658,3.3869c-4.0283.91-6.33,3.1843-12.085,4.0941s-6.9057,0-13.8114,1.3647-12.085,8.1882-17.84,12.7372a74.5375,74.5375,0,0,1-10.09,6.4319c.6593.6192,1.1711,1.075,1.4576,1.3015,1.7264,1.3647,2.8774.4549,5.1793-.4549s12.66-8.6432,14.3869-10.9177S256.7408,318.7464,261.3446,318.7464Z" transform="translate(-52.9342 -161.7229)"/><path class="cls-4" d="M246.3822,307.8288c6.9057-1.82,18.4153-1.82,27.0474-3.1843a113.8471,113.8471,0,0,0,14.5188-3.408c-.2334-.5451-.47-1.08-.7074-1.5959-.3982-.8656-.8662-1.7582-1.3723-2.6429l-51.5715,9.0115-19.1636,12.57a22.6538,22.6538,0,0,1,1.3239,2.4417,19.446,19.446,0,0,0,1.8727,3.0581,63.4362,63.4362,0,0,0,11.9387-5.7875C236.0237,314.6523,239.4765,309.6484,246.3822,307.8288Z" transform="translate(-52.9342 -161.7229)"/><path class="cls-33" d="M223.9387,317.8366c6.33-2.7294,13.8114-9.5529,21.2926-11.8274s17.84-2.2745,27.0473-3.6392c4.886-.7242,10.582-1.9607,14.8527-2.962-2.3349-4.9528-6.8137-10.6851-7.947-10.6851a101.5732,101.5732,0,0,0-17.2642,3.1844c-6.33,1.82-11.51,3.6392-15.5379,4.0941s-16.1133,5.0039-21.2926,7.7333-12.66,7.2784-13.8114,8.1882c-1.1348.8971,2.7623,4.009,5.0783,8.8923C218.28,320.1341,220.9074,319.1436,223.9387,317.8366Z" transform="translate(-52.9342 -161.7229)"/><path class="cls-34" d="M381.1843,276.4777A101.5805,101.5805,0,0,0,363.92,279.662c-6.33,1.82-11.51,3.6392-15.5379,4.0941s-16.1133,5.0039-21.2926,7.7333c-4.37,2.3028-11.3487,1.2131-13.8114,2.8281-.4563.2991-.4611,4.1019,0,5.36.9,2.4574,2.8774,4.0941,5.1793,9.098s12.085,13.5263,13.8114,14.891,4.0283-.2411,6.33-1.1509,10.9341-7.5086,12.66-9.7831,6.33-7.4812,10.934-7.4812a43.72,43.72,0,0,0,11.51-1.151c3.4528-.91,6.33-2.9979,10.3585-3.4528s7.5793-1.5912,8.6322-3.4529c.5665-1.0018,0-2.3019,0-3.4528,0-1.8063-2.28-3.7964-3.4529-6.3467C386.9391,282.3914,382.3353,276.4777,381.1843,276.4777Z" transform="translate(-52.9342 -161.7229)"/><path class="cls-35" d="M381.1843,270.7229a101.5732,101.5732,0,0,0-17.2642,3.1844c-6.33,1.82-11.51,3.6392-15.5379,4.0941s-16.1133,5.0039-21.2926,7.7333-12.66,7.2784-13.8114,8.1882,2.8774,4.0941,5.1793,9.098,12.085,14.5569,13.8114,15.9216,2.8774.4549,5.1793-.4549,12.6605-8.6432,14.3869-10.9177,6.9057-6.8235,11.51-6.8235,8.0567,0,11.51-.91,6.9057-3.1843,10.9341-3.6392a18.2178,18.2178,0,0,0,6.9057-2.2745c1.1509-.4549-1.151-7.2784-3.4529-12.2823S382.3353,270.7229,381.1843,270.7229Z" transform="translate(-52.9342 -161.7229)"/><path class="cls-36" d="M363.3446,300.7464c4.6038,0,8.0567,0,11.51-.91s6.9057-3.1843,10.9341-3.6392a18.2178,18.2178,0,0,0,6.9057-2.2745c.5641-.223.2975-1.9777-.3909-4.2967a32.7424,32.7424,0,0,1-7.6658,3.3869c-4.0283.91-6.33,3.1843-12.085,4.0941s-6.9057,0-13.8114,1.3647-12.085,8.1882-17.84,12.7372a74.5375,74.5375,0,0,1-10.09,6.4319c.6593.6192,1.1711,1.075,1.4576,1.3015,1.7264,1.3647,2.8774.4549,5.1793-.4549s12.6605-8.6432,14.3869-10.9177S358.7408,300.7464,363.3446,300.7464Z" transform="translate(-52.9342 -161.7229)"/><path class="cls-4" d="M348.3822,289.8288c6.9057-1.82,18.4153-1.82,27.0474-3.1843a113.8471,113.8471,0,0,0,14.5188-3.408c-.2334-.5451-.47-1.08-.7074-1.5959-.3982-.8656-.8662-1.7582-1.3723-2.6429l-51.5715,9.0115-19.1636,12.57a22.6538,22.6538,0,0,1,1.3239,2.4417,19.446,19.446,0,0,0,1.8727,3.0581,63.4362,63.4362,0,0,0,11.9387-5.7875C338.0237,296.6523,341.4765,291.6484,348.3822,289.8288Z" transform="translate(-52.9342 -161.7229)"/><path class="cls-37" d="M325.9387,299.8366c6.33-2.7294,13.8114-9.5529,21.2926-11.8274s17.84-2.2745,27.0473-3.6392c4.886-.7242,10.582-1.9607,14.8527-2.962-2.3349-4.9528-6.8137-10.6851-7.947-10.6851a101.5732,101.5732,0,0,0-17.2642,3.1844c-6.33,1.82-11.51,3.6392-15.5379,4.0941s-16.1133,5.0039-21.2926,7.7333-12.66,7.2784-13.8114,8.1882c-1.1348.8971,2.7623,4.009,5.0783,8.8923C320.28,302.1341,322.9074,301.1436,325.9387,299.8366Z" transform="translate(-52.9342 -161.7229)"/><path class="cls-38" d="M465.1843,242.4777A101.5805,101.5805,0,0,0,447.92,245.662c-6.33,1.82-11.51,3.6392-15.5379,4.0941s-16.1133,5.0039-21.2926,7.7333c-4.37,2.3028-11.3487,1.2131-13.8114,2.8281-.4563.2991-.4611,4.1019,0,5.36.9,2.4574,2.8774,4.0941,5.1793,9.098s12.085,13.5263,13.8114,14.891,4.0283-.2411,6.33-1.1509,10.9341-7.5086,12.66-9.7831,6.33-7.4812,10.934-7.4812a43.72,43.72,0,0,0,11.51-1.151c3.4528-.91,6.33-2.9979,10.3585-3.4528s7.5793-1.5912,8.6322-3.4529c.5665-1.0018,0-2.3019,0-3.4528,0-1.8063-2.28-3.7964-3.4529-6.3467C470.9391,248.3914,466.3353,242.4777,465.1843,242.4777Z" transform="translate(-52.9342 -161.7229)"/><path class="cls-39" d="M465.1843,236.7229a101.5732,101.5732,0,0,0-17.2642,3.1844c-6.33,1.82-11.51,3.6392-15.5379,4.0941s-16.1133,5.0039-21.2926,7.7333-12.66,7.2784-13.8114,8.1882,2.8774,4.0941,5.1793,9.098,12.085,14.5569,13.8114,15.9216,2.8774.4549,5.1793-.4549,12.6605-8.6432,14.3869-10.9177,6.9057-6.8235,11.51-6.8235,8.0567,0,11.51-.91,6.9057-3.1843,10.9341-3.6392a18.2178,18.2178,0,0,0,6.9057-2.2745c1.1509-.4549-1.151-7.2784-3.4529-12.2823S466.3353,236.7229,465.1843,236.7229Z" transform="translate(-52.9342 -161.7229)"/><path class="cls-40" d="M447.3446,266.7464c4.6038,0,8.0567,0,11.51-.91s6.9057-3.1843,10.9341-3.6392a18.2178,18.2178,0,0,0,6.9057-2.2745c.5641-.223.2975-1.9777-.3909-4.2967a32.7424,32.7424,0,0,1-7.6658,3.3869c-4.0283.91-6.33,3.1843-12.085,4.0941s-6.9057,0-13.8114,1.3647-12.085,8.1882-17.84,12.7372a74.5375,74.5375,0,0,1-10.09,6.4319c.6593.6192,1.1711,1.075,1.4576,1.3015,1.7264,1.3647,2.8774.4549,5.1793-.4549s12.6605-8.6432,14.3869-10.9177S442.7408,266.7464,447.3446,266.7464Z" transform="translate(-52.9342 -161.7229)"/><path class="cls-4" d="M432.3822,255.8288c6.9057-1.82,18.4153-1.82,27.0474-3.1843a113.8471,113.8471,0,0,0,14.5188-3.408c-.2334-.5451-.47-1.0805-.7074-1.5959-.3982-.8656-.8662-1.7582-1.3723-2.6429l-51.5715,9.0115-19.1636,12.57a22.6538,22.6538,0,0,1,1.3239,2.4417,19.446,19.446,0,0,0,1.8727,3.0581,63.4362,63.4362,0,0,0,11.9387-5.7875C422.0237,262.6523,425.4765,257.6484,432.3822,255.8288Z" transform="translate(-52.9342 -161.7229)"/><path class="cls-41" d="M409.9387,265.8366c6.33-2.7294,13.8114-9.5529,21.2926-11.8274s17.84-2.2745,27.0473-3.6392c4.886-.7242,10.582-1.9607,14.8527-2.962-2.3349-4.9528-6.8137-10.6851-7.947-10.6851a101.5732,101.5732,0,0,0-17.2642,3.1844c-6.33,1.82-11.51,3.6392-15.5379,4.0941s-16.1133,5.0039-21.2926,7.7333-12.66,7.2784-13.8114,8.1882c-1.1348.8971,2.7623,4.009,5.0783,8.8923C404.28,268.1341,406.9074,267.1436,409.9387,265.8366Z" transform="translate(-52.9342 -161.7229)"/><path class="cls-42" d="M121.1843,246.4777A101.5805,101.5805,0,0,0,103.92,249.662c-6.33,1.82-11.51,3.6392-15.5379,4.0941S72.2689,258.76,67.09,261.4894c-4.37,2.3028-11.3487,1.2131-13.8114,2.8281-.4563.2991-.4611,4.1019,0,5.36.9005,2.4574,2.8774,4.0941,5.1793,9.098s12.085,13.5263,13.8114,14.891,4.0283-.2411,6.33-1.1509,10.9341-7.5086,12.66-9.7831,6.33-7.4812,10.934-7.4812a43.72,43.72,0,0,0,11.51-1.151c3.4528-.91,6.33-2.9979,10.3585-3.4528s7.5793-1.5912,8.6322-3.4529c.5665-1.0018,0-2.3019,0-3.4528,0-1.8063-2.28-3.7964-3.4529-6.3467C126.9391,252.3914,122.3353,246.4777,121.1843,246.4777Z" transform="translate(-52.9342 -161.7229)"/><path class="cls-43" d="M121.1843,240.7229a101.5732,101.5732,0,0,0-17.2642,3.1844c-6.33,1.82-11.51,3.6392-15.5379,4.0941s-16.1133,5.0039-21.2926,7.7333-12.66,7.2784-13.8114,8.1882,2.8774,4.0941,5.1793,9.098,12.085,14.5569,13.8114,15.9216,2.8774.4549,5.1793-.4549,12.66-8.6432,14.3869-10.9177,6.9057-6.8235,11.51-6.8235,8.0567,0,11.51-.91,6.9057-3.1843,10.9341-3.6392a18.2178,18.2178,0,0,0,6.9057-2.2745c1.1509-.4549-1.151-7.2784-3.4529-12.2823S122.3353,240.7229,121.1843,240.7229Z" transform="translate(-52.9342 -161.7229)"/><path class="cls-44" d="M103.3446,270.7464c4.6038,0,8.0567,0,11.51-.91s6.9057-3.1843,10.9341-3.6392a18.2178,18.2178,0,0,0,6.9057-2.2745c.5641-.223.2975-1.9777-.3909-4.2967a32.7424,32.7424,0,0,1-7.6658,3.3869c-4.0283.91-6.33,3.1843-12.085,4.0941s-6.9057,0-13.8114,1.3647-12.085,8.1882-17.84,12.7372a74.5375,74.5375,0,0,1-10.09,6.4319c.6593.6192,1.1711,1.075,1.4576,1.3015,1.7264,1.3647,2.8774.4549,5.1793-.4549s12.66-8.6432,14.3869-10.9177S98.7408,270.7464,103.3446,270.7464Z" transform="translate(-52.9342 -161.7229)"/><path class="cls-4" d="M88.3822,259.8288c6.9057-1.82,18.4153-1.82,27.0474-3.1843a113.8471,113.8471,0,0,0,14.5188-3.408c-.2334-.5451-.47-1.0805-.7074-1.5959-.3982-.8656-.8662-1.7582-1.3723-2.6429l-51.5715,9.0115-19.1636,12.57a22.6538,22.6538,0,0,1,1.3239,2.4417A19.446,19.446,0,0,0,60.33,276.079a63.4362,63.4362,0,0,0,11.9387-5.7875C78.0237,266.6523,81.4765,261.6484,88.3822,259.8288Z" transform="translate(-52.9342 -161.7229)"/><path class="cls-45" d="M65.9387,269.8366c6.33-2.7294,13.8114-9.5529,21.2926-11.8274s17.84-2.2745,27.0473-3.6392c4.886-.7242,10.582-1.9607,14.8527-2.962-2.3349-4.9528-6.8137-10.6851-7.947-10.6851a101.5732,101.5732,0,0,0-17.2642,3.1844c-6.33,1.82-11.51,3.6392-15.5379,4.0941s-16.1133,5.0039-21.2926,7.7333-12.66,7.2784-13.8114,8.1882c-1.1348.8971,2.7623,4.009,5.0783,8.8923C60.28,272.1341,62.9074,271.1436,65.9387,269.8366Z" transform="translate(-52.9342 -161.7229)"/></g></g></svg>