<svg xmlns="http://www.w3.org/2000/svg" xmlns:xlink="http://www.w3.org/1999/xlink" viewBox="0 0 386.2549 147.5948"><defs><style>.cls-1{fill:url(#radial-gradient);}.cls-2{fill:url(#radial-gradient-2);}.cls-3{fill:url(#radial-gradient-3);}.cls-4{fill:url(#radial-gradient-4);}.cls-5{fill:url(#radial-gradient-5);}.cls-6{fill:url(#radial-gradient-6);}.cls-7{fill:url(#radial-gradient-7);}.cls-8{fill:url(#radial-gradient-8);}.cls-9{fill:url(#radial-gradient-9);}.cls-10{fill:url(#radial-gradient-10);}.cls-11{fill:url(#radial-gradient-11);}.cls-12{fill:url(#radial-gradient-12);}.cls-13{fill:url(#radial-gradient-13);}.cls-14{fill:url(#radial-gradient-14);}</style><radialGradient id="radial-gradient" cx="144.8453" cy="254.4969" r="153.5799" gradientTransform="matrix(0.3339, 0.0563, -0.0322, 0.1457, 68.0469, 219.0062)" gradientUnits="userSpaceOnUse"><stop offset="0" stop-color="#bfdd7a"/><stop offset="0.6884" stop-color="#76b40f"/><stop offset="0.7389" stop-color="#7cb818"/><stop offset="0.8222" stop-color="#8dc131"/><stop offset="0.9276" stop-color="#a9d15a"/><stop offset="1" stop-color="#bfdd7a"/></radialGradient><radialGradient id="radial-gradient-2" cx="157.5631" cy="257.4588" r="124.3539" gradientTransform="translate(58.955 188.6926) scale(0.3401 0.2969)" gradientUnits="userSpaceOnUse"><stop offset="0" stop-color="#f8fce9"/><stop offset="0.1116" stop-color="#f5fae4" stop-opacity="0.9889"/><stop offset="0.2444" stop-color="#edf6d6" stop-opacity="0.9569"/><stop offset="0.3878" stop-color="#dfeebf" stop-opacity="0.9037"/><stop offset="0.5388" stop-color="#cce39f" stop-opacity="0.8294"/><stop offset="0.6957" stop-color="#b3d675" stop-opacity="0.7339"/><stop offset="0.8552" stop-color="#95c543" stop-opacity="0.6191"/><stop offset="1" stop-color="#76b40f" stop-opacity="0.5"/></radialGradient><radialGradient id="radial-gradient-3" cx="419.4573" cy="91.9631" r="153.5799" gradientTransform="matrix(-0.3259, 0.0828, -0.0539, -0.1412, 309.201, 188.8299)" xlink:href="#radial-gradient"/><radialGradient id="radial-gradient-4" cx="432.1751" cy="94.9249" r="124.3539" gradientTransform="matrix(-0.2996, 0.1348, -0.1677, -0.2615, 308.6108, 178.0883)" xlink:href="#radial-gradient-2"/><radialGradient id="radial-gradient-5" cx="809.399" cy="347.6192" r="153.5799" gradientTransform="matrix(0.3339, 0.0563, -0.0322, 0.1457, 75.1412, 195.6972)" xlink:href="#radial-gradient"/><radialGradient id="radial-gradient-6" cx="822.1169" cy="350.581" r="124.3539" xlink:href="#radial-gradient-2"/><radialGradient id="radial-gradient-7" cx="-120.0822" cy="-291.8354" r="153.5799" gradientTransform="matrix(-0.3259, 0.0828, -0.0539, -0.1412, 338.6411, 206.9717)" xlink:href="#radial-gradient"/><radialGradient id="radial-gradient-8" cx="-107.3643" cy="-288.8736" r="124.3539" gradientTransform="matrix(-0.2996, 0.1348, -0.1677, -0.2615, 308.6108, 178.0883)" xlink:href="#radial-gradient-2"/><radialGradient id="radial-gradient-9" cx="555.4434" cy="212.8003" r="153.5799" gradientTransform="matrix(0.3406, 0.0038, 0.0003, 0.1482, 60.8573, 219.5087)" xlink:href="#radial-gradient"/><radialGradient id="radial-gradient-10" cx="568.1612" cy="215.7622" r="124.3539" gradientTransform="matrix(0.3343, -0.0524, 0.0652, 0.2918, 50.5538, 220.1933)" xlink:href="#radial-gradient-2"/><radialGradient id="radial-gradient-11" cx="155.6562" cy="-15.1795" r="153.5799" gradientTransform="matrix(-0.3259, 0.0828, -0.0539, -0.1412, 314.4379, 188.0092)" xlink:href="#radial-gradient"/><radialGradient id="radial-gradient-12" cx="168.3741" cy="-12.2176" r="124.3539" gradientTransform="matrix(-0.2996, 0.1348, -0.1677, -0.2615, 308.6108, 178.0883)" xlink:href="#radial-gradient-2"/><radialGradient id="radial-gradient-13" cx="473.0589" cy="-234.3156" r="153.5799" gradientTransform="matrix(-0.3246, -0.0865, 0.0511, -0.1419, 367.9028, 313.3803)" xlink:href="#radial-gradient"/><radialGradient id="radial-gradient-14" cx="485.7767" cy="-231.3538" r="124.3539" gradientTransform="matrix(-0.338, -0.0312, 0.0388, -0.2951, 371.3992, 251.3062)" xlink:href="#radial-gradient-2"/></defs><title>basil</title><g id="basil"><g id="multiple"><path class="cls-1" d="M165.64,275.1258l-9.5222-2.375c-2.3805-.5938-5.5421-1.6236-8.842.2969-2.04,1.1875-5.4413,4.1562-8.842,6.2343a71.6061,71.6061,0,0,1-8.8421,4.4532c-2.04.8906-5.1011,2.375-5.7813,2.375s-2.7206-.5938-4.7611,0a16.6358,16.6358,0,0,1-6.1214,1.1875h-7.4817c-1.02,0-.68-1.1875-2.38-1.4844a18.6679,18.6679,0,0,1-4.421-1.1875c-1.36-.5937-1.02-.8906-3.0607-1.1875a29.7532,29.7532,0,0,1-5.7814-1.7812c-.68-.2969-.68-1.1875-1.36-1.4844s-4.421-2.0782-5.1011-2.375-.68-1.1875-1.36-2.0782-1.36-.5937-3.4007-1.1875a5.7182,5.7182,0,0,1-3.4008-2.0781c-.34-.5937,0-1.1875-1.02-1.7812s-3.7409-2.3751-4.7611-2.9688-.68-1.1875-2.04-2.6719-3.0607-2.375-3.4008-3.2656,0-1.7813-1.02-3.2656a10.0618,10.0618,0,0,0-3.7409-3.5626c-1.7-.8906-2.3805-1.7812.68-2.0781a21.2912,21.2912,0,0,0,6.4615-1.4844c1.36-.5937,3.4007-.8906,4.0809-1.4843A13.4618,13.4618,0,0,1,75.179,248.11a20.7523,20.7523,0,0,0,5.7813-1.4844,18.6126,18.6126,0,0,1,5.4413-1.4844c1.7-.2968,2.7206,0,3.7408-1.1875s3.4008-.2968,5.1012-.2968,3.7408,0,4.421-.5938,3.0607.5938,4.421.5938,3.4008-1.1875,6.1214-.2969,4.421,1.4844,6.8016,1.4844,3.7408,2.0781,6.1214,2.375a39.4707,39.4707,0,0,1,16.6638,7.125c2.38,2.0781,4.421,2.9687,6.1214,5.3438s3.0607,5.3437,5.4412,7.4218a13.52,13.52,0,0,0,6.4615,3.5626c3.0607.8906,6.8016,1.4843,8.1619,1.7812A1.363,1.363,0,0,1,165.64,275.1258Z" transform="translate(-57.75 -180.4052)"/><path class="cls-2" d="M154.5367,270.6915c-1.8893-.6185-4.1124-1.2626-6.4478-1.8777-1.09-1.519-7.4265-10.2054-12.1635-13.5136a55.2012,55.2012,0,0,0-8.2067-4.8139c-1.0345-.5149-2.1039-1.0474-3.39-1.7384-4.3575-2.3409-5.8082-2.4689-5.8082-2.4689.0419.0243,1.0757.6237,5.4516,2.9745,1.2962.6963,2.37,1.2312,3.41,1.7485a54.6021,54.6021,0,0,1,8.1187,4.7618c4.172,2.9136,9.8064,10.3556,11.5946,12.7922-.7828-.2007-1.5736-.3972-2.3662-.5879-.7519-1.1159-4.8951-7.0664-9.8322-10.2985A69.7684,69.7684,0,0,0,121.44,251.35c-1.0434-.3974-2.0295-.7728-2.9282-1.1348-4.2994-1.7324-9.9258-6.6655-9.9258-6.6655.21.22,5.2013,5.4158,9.6409,7.2045.9053.3648,1.8943.7413,2.9411,1.14a69.214,69.214,0,0,1,13.3212,6.25c4.3051,2.8189,8.0107,7.7743,9.2916,9.5989-2.5542-.5985-5.0845-1.1275-7.3206-1.518-2.5519-.4456-4.8-.8231-6.9742-1.1881-2.1726-.3647-4.42-.7419-6.9689-1.1869-.1019-.0178-.2083-.0385-.3117-.0573a36.2806,36.2806,0,0,0-6.9808-9.9409c-4.951-4.9394-7.386-6.3546-10.6721-7.5021a74.0412,74.0412,0,0,0-8.07-2.1191c.0442.0149,4.4578,1.4972,7.8175,2.6705,3.1834,1.1116,5.5533,2.4936,10.4127,7.3418a35.9565,35.9565,0,0,1,6.687,9.3975c-1.96-.3858-4.1332-.9094-6.2482-1.42-1.7989-.4345-3.6278-.8742-5.3616-1.24-.4275-.5664-6.0163-7.8416-12.7057-10.47-6.7654-2.6577-15.8348-3.2952-15.8348-3.2952a79.873,79.873,0,0,1,15.5558,3.8368c5.5786,2.1915,10.5327,7.9185,11.9987,9.7264-1.0465-.2061-2.0493-.38-2.9691-.4943a125.1242,125.1242,0,0,1-15.2516-2.9585,44.2912,44.2912,0,0,0-6.2228-1.3086c-.0131-.6533-.1607-4.016-1.7986-5.4457-1.74-1.519-6.4618-2.1783-6.4618-2.1783.0433.0117,4.36,1.1833,5.9809,2.5981,1.369,1.1951,1.5673,4.1422,1.5958,4.9341-.307-.04-.6286-.0815-.9738-.1257-.5979-.0767-1.2628-.1618-2.03-.2648-1.8515-.2487-3.56-.4423-5.165-.5855-.0605-.8515-.4219-3.3386-2.5745-4.144-2.4971-.9346-3.7227.2415-3.7227.2415a4.9874,4.9874,0,0,1,3.4547.3042c1.7126.6407,2.0763,2.7143,2.1535,3.54-2.0623-.1681-3.9561-.25-5.76-.25-3.2339,0-10.98-.9031-10.98-.9031a46.0968,46.0968,0,0,0,10.98,1.4968,78.3,78.3,0,0,1,8.9568.5688c-.49.3583-.98.72-1.4578,1.0759-2.9648,2.2076-5.7649,4.2928-7.8391,4.2928a40.0027,40.0027,0,0,0-4.817.2928,36.7311,36.7311,0,0,0,4.817.301c2.3248,0,5.2177-2.1543,8.28-4.4349.6325-.471,1.2842-.9542,1.9308-1.42q.8014.0979,1.64.21c.7692.1033,1.4355.1887,2.0348.2654a46.2259,46.2259,0,0,1,7.7791,1.5061c.9181.2466,1.9142.4933,2.9546.7352a60.0473,60.0473,0,0,1-14.16,5.8183c-3.9929.8712-11.14,1.4753-11.14,1.4753a68.4814,68.4814,0,0,0,11.3051-.9c3.8006-.8292,9.089-3.0256,14.9046-6.1863,3.76.8418,8.0022,1.6011,11.4907,2.0362a85.6669,85.6669,0,0,1,8.6643,1.7831c-1.9512.686-3.9377,1.4626-6.029,2.285a91.5012,91.5012,0,0,1-12.5359,4.2571,77.7483,77.7483,0,0,1-12.53,2.07,60.48,60.48,0,0,1-8.8907-.3074,43.2372,43.2372,0,0,0,7.7157.9478c.4321,0,.85-.0154,1.2427-.05A78.4262,78.4262,0,0,0,96.01,269.7722a92.0818,92.0818,0,0,0,12.6424-4.29c2.3624-.9294,4.5938-1.807,6.7788-2.5489,0,0,4.8306,1.1285,6.9517,1.4989,2.0586.3594,3.9182.6743,5.7021.9743-5.6988,1.9363-11.5281,3.9436-16.67,6.1878a109.7631,109.7631,0,0,1-13.9043,5.3293,43.9038,43.9038,0,0,1-12.52,1.4643,35.0339,35.0339,0,0,0,4.1845.2314,29.9037,29.9037,0,0,0,8.5621-1.1356,110.46,110.46,0,0,0,13.982-5.3583c5.4164-2.3643,11.6189-4.4709,17.62-6.5082.006.001,4.4378.7449,6.987,1.19,1.68.2934,3.5283.6656,5.4264,1.0864a109.59,109.59,0,0,0-19.4466,6.0722,28.9731,28.9731,0,0,0-5.0065,2.7447,23.0338,23.0338,0,0,1-8.5353,3.7677c-6.6995,1.4621-12.8029,2.6612-12.8029,2.6612a126.3288,126.3288,0,0,0,12.9679-2.0854,23.9306,23.9306,0,0,0,8.7741-3.8657,28.442,28.442,0,0,1,4.89-2.6844c4.3871-1.7873,12.8612-4.9709,20.3246-6.2118,0,0,1.5551.2279,2.3478.4224a65.5437,65.5437,0,0,0-7.0514,4.1551,56.5053,56.5053,0,0,1-8.768,4.9559c-1.8242.7494-3.8215,1.6638-5.7534,2.5478-4.247,1.9436-8.6384,3.9536-11.8572,4.5558a61.1547,61.1547,0,0,0-7.3681,1.7722c.0274-.0029,2.79-.3087,7.5109-1.1918,3.3094-.619,7.7431-2.6481,12.03-4.61,1.9253-.8813,3.9163-1.7923,5.7272-2.5362a57.02,57.02,0,0,0,8.8826-5.0159,58.81,58.81,0,0,1,7.5929-4.3971c.482.1213,6.1556,1.6653,8.0859,2.2973,5.397,1.7667,12.2115,3.2607,12.28,3.2755l.4224-.5848C166.9323,273.9235,159.8976,272.4467,154.5367,270.6915Z" transform="translate(-57.75 -180.4052)"/><path class="cls-3" d="M110.7861,223.76l9.73-1.6822c2.4326-.4206,5.7995-.7666,7.6219-3.7665,1.1269-1.855,2.4461-5.8184,4.2684-8.9973a55.8444,55.8444,0,0,1,5.2744-7.428c1.2946-1.5934,3.1526-4.1144,3.7518-4.384s2.7321-.5554,4.1944-1.8873,2.0256-2.2594,4.722-3.4726l6.5912-2.9657c.8988-.4044,1.27.7765,2.9356.364a19.2034,19.2034,0,0,1,4.5655-.7063c1.5338-.0161,1.4018.38,3.3671-.1671a31.2047,31.2047,0,0,1,6.0993-.7224c.7668-.0081,1.27.7765,2.0367.7685s5.0686.0783,5.8355.07,1.27.7765,2.3721,1.2916,1.5337-.0162,3.6667-.3019a6.7116,6.7116,0,0,1,4.17.4827c.635.3883.6707,1.0461,1.9049,1.1648s4.637.6095,5.8712.7281,1.27.7766,3.3067,1.5451,4.0378.879,4.84,1.5288,1.0061,1.5693,2.7432,2.4726a12.494,12.494,0,0,0,5.3078,1.6556c2.001.1106,3.1032.6256.5745,2.1a17.4527,17.4527,0,0,0-4.854,3.869c-.863,1.0623-2.4929,2.1326-2.7568,2.9253a10.6736,10.6736,0,0,1-3.1883,3.4565c-1.33.9356-3.26,2.1408-4.2548,3.5994a15.1117,15.1117,0,0,1-3.9552,3.4646c-1.33.9356-2.3968,1.0784-2.6249,2.529s-2.8283,1.61-4.3263,2.2836-3.2956,1.4829-3.5595,2.2756-3.0317.69-4.23,1.2294-2.3253,2.3942-5.2251,2.688-4.7332.4448-6.83,1.3884-4.4693-.3479-6.7342.3342a36.3458,36.3458,0,0,1-7.7649,1.1349,40.4348,40.4348,0,0,1-10.94-.8064c-3.271-.8872-5.5716-.8629-8.411-2.2812s-5.7146-3.4945-8.9855-4.3816a15.4674,15.4674,0,0,0-7.7045-.5772c-3.2.4286-6.83,1.3884-8.1965,1.6661S109.2881,224.4344,110.7861,223.76Z" transform="translate(-57.75 -180.4052)"/><path class="cls-4" d="M123.0721,223.2657c2.0137-.204,4.3359-.5178,6.7408-.9016,1.8179.9062,12.3067,6.0468,18.3483,7.0835a63.9323,63.9323,0,0,0,9.9489.9879c1.2021.0435,2.445.0887,3.9684.1876,5.1611.3349,6.5114-.1273,6.5114-.1273-.0506-.0049-1.3-.1231-6.4827-.46-1.5352-.1-2.7838-.1449-3.9915-.1887a63.2414,63.2414,0,0,1-9.8418-.9768c-5.3211-.9131-14.4881-5.2358-17.44-6.6736.803-.1334,1.6107-.2738,2.4166-.42,1.2927.6851,8.3036,4.285,14.4786,5.1753a77.8582,77.8582,0,0,0,15.4244.2328c1.1437-.0636,2.2244-.1237,3.2205-.1611,4.7662-.178,12.5092,1.9376,12.5092,1.9376-.31-.1108-7.6411-2.7094-12.5625-2.5253-1.0037.0374-2.0876.0978-3.235.1614a77.2218,77.2218,0,0,1-15.2655-.2254c-5.3848-.7768-11.4482-3.6735-13.6072-4.7732,2.5882-.4852,5.1162-1.0221,7.3066-1.5645,2.5-.619,4.6935-1.1776,6.8152-1.7179,2.12-.54,4.3126-1.0983,6.81-1.7168.1-.0247.2052-.0486.3069-.0731a46.5275,46.5275,0,0,0,11.7646,5.9906c7.1515,2.3889,10.096,2.67,13.639,2.3788a75.6922,75.6922,0,0,0,8.3066-1.3321c-.0474.0043-4.7728.4479-8.3954.7461-3.4323.2826-6.3007.0045-13.32-2.34a46.0953,46.0953,0,0,1-11.1988-5.6284c1.9451-.4372,4.1549-.8372,6.3066-1.2257,1.83-.33,3.69-.6679,5.4237-1.0329.6966.3295,9.7292,4.5234,17.1067,4.1868,7.4612-.34,15.8111-3.3738,15.8111-3.3738a80.7984,80.7984,0,0,1-15.8712,2.7862c-6.1524.2807-13.7515-2.8009-16.0642-3.8126,1.0384-.2332,2.02-.4779,2.8949-.7414a124.1487,124.1487,0,0,1,15.1073-3.4394,44.2015,44.2015,0,0,0,6.2212-1.3137c.3805.57,2.41,3.4742,4.66,4.0845,2.3909.6485,6.923-.6424,6.923-.6424-.0448.0068-4.51.6859-6.7364.0819-1.8811-.51-3.72-3.0279-4.1927-3.7142.2931-.0862.6-.1774.9288-.2753.57-.1694,1.2039-.358,1.9383-.5715,1.7715-.5148,3.3858-1.0214,4.8809-1.5316.5342.7262,2.2574,2.774,4.6085,2.63,2.7278-.1664,3.1433-1.6884,3.1433-1.6884-.0076.01-.8016.9535-3.2153,1.1015-1.8706.1144-3.3622-1.5681-3.8963-2.2646,1.9117-.6694,3.6263-1.348,5.2158-2.0632,2.8489-1.2819,10.1832-3.5569,10.1832-3.5569a44.42,44.42,0,0,0-10.5186,3.0338,72.7611,72.7611,0,0,1-8.212,3.0493c.23-.51.4566-1.0226.6767-1.5257,1.365-3.12,2.6541-6.067,4.4814-6.8892a34.9451,34.9451,0,0,0,4.0783-2.1674,34.28,34.28,0,0,0-4.4137,1.6443c-2.048.9215-3.38,3.9661-4.79,7.1893-.2911.6657-.5923,1.35-.8991,2.0161q-.7612.2315-1.5635.4646c-.736.2139-1.3713.4028-1.9426.5728a45.7884,45.7884,0,0,1-7.7038,1.7567c-.9481.1467-1.9649.3242-3.0182.5236,3.2022-4.8109,6.45-8.6108,9.1882-10.7386a97.8969,97.8969,0,0,1,8.9807-5.7157c-.2583.1163-6.3639,2.875-9.4514,5.2739-2.88,2.2371-6.2983,6.2683-9.6365,11.3581-3.7875.7486-7.954,1.7615-11.273,2.7611a85.44,85.44,0,0,1-8.64,1.8635c1.3314-1.3778,2.6429-2.8493,4.0208-4.4028a72.955,72.955,0,0,1,8.6393-8.72,65.4035,65.4035,0,0,1,9.87-6.79,55.6339,55.6339,0,0,1,8.006-3.2535,41.6025,41.6025,0,0,0-7.3326,2.2235c-.3806.1713-.74.3505-1.0668.5363a65.9846,65.9846,0,0,0-9.9531,6.8468,73.4358,73.4358,0,0,0-8.7147,8.79c-1.5563,1.7553-3.0265,3.413-4.5323,4.9327,0,0-4.893.9206-6.9708,1.4351-2.0167.4994-3.8327.9591-5.5738,1.402,3.9269-3.9648,7.9286-8.0439,11.191-12.0592A86.7772,86.7772,0,0,1,169.79,195.17c3.981-3.7608,10.2028-6.253,10.2028-6.253a32.6008,32.6008,0,0,0-3.8172,1.455,25.4719,25.4719,0,0,0-6.9015,4.3944,87.3109,87.3109,0,0,0-9.2914,10.2629c-3.4363,4.23-7.7108,8.5444-11.8467,12.7179-.0059.0015-4.33,1.1029-6.8275,1.7213-1.646.4076-3.4843.8122-5.3941,1.1939a87.8786,87.8786,0,0,0,13.7023-13.058,22.5509,22.5509,0,0,0,2.86-4.4025,18.1057,18.1057,0,0,1,5.3913-6.7027c5.0763-3.9437,9.776-7.4194,9.776-7.4194a106.4874,106.4874,0,0,0-10.2466,6.9776,18.8083,18.8083,0,0,0-5.5463,6.8836,22.1317,22.1317,0,0,1-2.7921,4.3034c-2.8554,3.3136-8.5227,9.4773-14.397,13.5289,0,0-1.4987.4157-2.3068.5585a50.95,50.95,0,0,0,3.8652-6.4556,43.956,43.956,0,0,1,4.9252-7.8416c1.1839-1.3833,2.427-2.9806,3.63-4.5251,2.6437-3.3958,5.3772-6.9073,7.8728-8.7137a49.871,49.871,0,0,0,5.49-4.482c-.0225.0134-2.2834,1.3779-5.9437,4.0273-2.566,1.8571-5.3258,5.4022-7.9945,8.83-1.1982,1.54-2.4377,3.1314-3.613,4.5046a44.3609,44.3609,0,0,0-4.9923,7.94A45.7153,45.7153,0,0,1,131.39,221.5c-.4931.0842-6.3635.973-8.4209,1.1814-5.7526.5829-12.6,1.968-12.6684,1.9821l-.0419.6826C110.3265,225.332,117.358,223.8445,123.0721,223.2657Z" transform="translate(-57.75 -180.4052)"/><path class="cls-5" d="M391.64,302.7715l-9.5222-2.375c-2.38-.5937-5.5421-1.6235-8.842.2969-2.0405,1.1875-5.4413,4.1563-8.842,6.2344a71.6172,71.6172,0,0,1-8.8421,4.4531c-2.04.8907-5.1011,2.375-5.7813,2.375s-2.7206-.5937-4.7611,0a16.6337,16.6337,0,0,1-6.1214,1.1875h-7.4817c-1.02,0-.68-1.1875-2.38-1.4843a18.6726,18.6726,0,0,1-4.421-1.1875c-1.36-.5938-1.02-.8907-3.0607-1.1876a29.7391,29.7391,0,0,1-5.7814-1.7812c-.68-.2969-.68-1.1875-1.36-1.4844s-4.421-2.0781-5.1011-2.375-.68-1.1875-1.36-2.0781-1.36-.5938-3.4007-1.1875A5.7187,5.7187,0,0,1,301.179,300.1c-.34-.5937,0-1.1875-1.02-1.7812s-3.7409-2.375-4.7611-2.9688-.68-1.1875-2.0405-2.6718-3.0607-2.3751-3.4008-3.2657,0-1.7812-1.02-3.2656a10.0608,10.0608,0,0,0-3.7409-3.5625c-1.7-.8906-2.38-1.7813.68-2.0782a21.2918,21.2918,0,0,0,6.4615-1.4843c1.36-.5938,3.4007-.8907,4.0809-1.4844a13.4618,13.4618,0,0,1,4.7611-1.7813,20.7486,20.7486,0,0,0,5.7813-1.4843,18.61,18.61,0,0,1,5.4413-1.4844c1.7-.2969,2.7206,0,3.7408-1.1875s3.4008-.2969,5.1012-.2969,3.7408,0,4.421-.5937,3.0607.5937,4.421.5937,3.4008-1.1875,6.1214-.2969,4.421,1.4844,6.8016,1.4844,3.7408,2.0781,6.1214,2.375a39.4707,39.4707,0,0,1,16.6638,7.125c2.3805,2.0782,4.421,2.9688,6.1214,5.3438s3.0607,5.3438,5.4412,7.4219a13.5194,13.5194,0,0,0,6.4615,3.5625c3.0607.8906,6.8016,1.4844,8.1619,1.7812A1.363,1.363,0,0,1,391.64,302.7715Z" transform="translate(-57.75 -180.4052)"/><path class="cls-6" d="M380.5367,298.3372c-1.8893-.6184-4.1124-1.2625-6.4478-1.8777-1.09-1.519-7.4265-10.2054-12.1635-13.5136a55.2012,55.2012,0,0,0-8.2067-4.8139c-1.0345-.5149-2.1039-1.0473-3.39-1.7383-4.3575-2.341-5.8082-2.469-5.8082-2.469.0419.0244,1.0757.6238,5.4516,2.9746,1.2962.6962,2.37,1.2311,3.41,1.7485A54.5911,54.5911,0,0,1,361.5,283.41c4.172,2.9137,9.8064,10.3556,11.5946,12.7923-.7828-.2008-1.5736-.3972-2.3662-.5879-.7519-1.116-4.8951-7.0665-9.8322-10.2986a69.7684,69.7684,0,0,0-13.457-6.3192c-1.0434-.3973-2.0295-.7728-2.9282-1.1347-4.2994-1.7324-9.9258-6.6655-9.9258-6.6655.21.22,5.2013,5.4158,9.6409,7.2044.9053.3649,1.8943.7413,2.9411,1.14a69.2207,69.2207,0,0,1,13.3212,6.25c4.3051,2.8188,8.0107,7.7743,9.2916,9.5989-2.5542-.5986-5.0845-1.1276-7.3206-1.518-2.5519-.4456-4.8-.8231-6.9742-1.1881-2.1726-.3647-4.42-.7419-6.9689-1.187-.1019-.0177-.2083-.0385-.3117-.0572a36.2805,36.2805,0,0,0-6.9808-9.941c-4.951-4.9393-7.386-6.3546-10.6721-7.5021a74.0412,74.0412,0,0,0-8.07-2.1191c.0442.0149,4.4578,1.4973,7.8175,2.6706,3.1834,1.1115,5.5533,2.4936,10.4127,7.3417a35.9565,35.9565,0,0,1,6.687,9.3976c-1.9605-.3859-4.1332-.9094-6.2482-1.42-1.7989-.4345-3.6278-.8742-5.3616-1.24-.4275-.5665-6.0163-7.8417-12.7057-10.47-6.7654-2.6576-15.8348-3.2952-15.8348-3.2952a79.873,79.873,0,0,1,15.5558,3.8368c5.5786,2.1915,10.5327,7.9185,11.9987,9.7265-1.0465-.2062-2.0493-.38-2.9691-.4944a125.1242,125.1242,0,0,1-15.2516-2.9584,44.294,44.294,0,0,0-6.2228-1.3087c-.0131-.6533-.1607-4.0159-1.7986-5.4457-1.74-1.519-6.4618-2.1783-6.4618-2.1783.0433.0118,4.36,1.1833,5.9809,2.5981,1.369,1.1952,1.5673,4.1423,1.5958,4.9341-.307-.04-.6286-.0815-.9738-.1256-.5979-.0767-1.2628-.1618-2.03-.2649-1.8515-.2486-3.56-.4423-5.165-.5855-.06-.8514-.4219-3.3386-2.5745-4.1439-2.4971-.9347-3.7227.2415-3.7227.2415a4.9869,4.9869,0,0,1,3.4547.3041c1.7126.6407,2.0763,2.7143,2.1535,3.5395-2.0623-.168-3.9561-.25-5.76-.25-3.2339,0-10.98-.9031-10.98-.9031a46.0971,46.0971,0,0,0,10.98,1.4969,78.2979,78.2979,0,0,1,8.9568.5687c-.49.3584-.98.72-1.4578,1.076-2.9648,2.2075-5.7649,4.2928-7.8391,4.2928a40.0027,40.0027,0,0,0-4.817.2928,36.7422,36.7422,0,0,0,4.817.3009c2.3248,0,5.2177-2.1542,8.28-4.4348.6325-.4711,1.2842-.9543,1.9308-1.42q.8015.0978,1.64.21c.7692.1034,1.4355.1887,2.0348.2654a46.2359,46.2359,0,0,1,7.7791,1.5061c.9181.2466,1.9142.4933,2.9546.7352a60.0387,60.0387,0,0,1-14.16,5.8183c-3.9929.8712-11.14,1.4754-11.14,1.4754a68.493,68.493,0,0,0,11.3051-.9c3.8006-.8293,9.089-3.0257,14.9046-6.1864,3.76.8419,8.0022,1.6011,11.4907,2.0362a85.6692,85.6692,0,0,1,8.6643,1.7832c-1.9512.686-3.9377,1.4625-6.029,2.2849a91.5019,91.5019,0,0,1-12.5359,4.2572,77.7567,77.7567,0,0,1-12.53,2.07,60.4859,60.4859,0,0,1-8.8907-.3073,43.241,43.241,0,0,0,7.7157.9477c.4321,0,.85-.0153,1.2427-.05a78.4147,78.4147,0,0,0,12.6355-2.0865,92.0812,92.0812,0,0,0,12.6424-4.29c2.3624-.93,4.5938-1.8071,6.7788-2.549,0,0,4.8306,1.1285,6.9517,1.4989,2.0586.36,3.9182.6743,5.7021.9744-5.6988,1.9362-11.5281,3.9435-16.67,6.1877a109.7631,109.7631,0,0,1-13.9043,5.3293,43.9016,43.9016,0,0,1-12.52,1.4644,35.0717,35.0717,0,0,0,4.1845.2313,29.9,29.9,0,0,0,8.5621-1.1356,110.4444,110.4444,0,0,0,13.982-5.3582c5.4164-2.3643,11.6189-4.4709,17.62-6.5083.006.0011,4.4378.745,6.987,1.19,1.68.2934,3.5283.6657,5.4264,1.0864a109.5813,109.5813,0,0,0-19.4466,6.0723,28.98,28.98,0,0,0-5.0065,2.7446,23.0337,23.0337,0,0,1-8.5353,3.7678c-6.6995,1.462-12.8029,2.6611-12.8029,2.6611A126.3116,126.3116,0,0,0,334.9292,308.7a23.9305,23.9305,0,0,0,8.7741-3.8658,28.4488,28.4488,0,0,1,4.89-2.6844c4.3871-1.7873,12.8612-4.9709,20.3246-6.2117,0,0,1.5551.2279,2.3478.4224a65.5272,65.5272,0,0,0-7.0514,4.1551,56.5128,56.5128,0,0,1-8.768,4.9558c-1.8242.75-3.8215,1.6639-5.7534,2.5478-4.247,1.9436-8.6384,3.9536-11.8572,4.5558a61.14,61.14,0,0,0-7.3681,1.7723c.0274-.0029,2.79-.3088,7.5109-1.1919,3.3094-.619,7.7431-2.6481,12.03-4.61,1.9253-.8813,3.9163-1.7922,5.7272-2.5362a57.0279,57.0279,0,0,0,8.8826-5.0158,58.8,58.8,0,0,1,7.5929-4.3972c.482.1214,6.1556,1.6654,8.0859,2.2973,5.397,1.7668,12.2115,3.2607,12.28,3.2755L393,301.584C392.9323,301.5692,385.8976,300.0924,380.5367,298.3372Z" transform="translate(-57.75 -180.4052)"/><path class="cls-7" d="M336.7861,251.4062l9.73-1.6823c2.4326-.42,5.8-.7665,7.6219-3.7665,1.1269-1.8549,2.4461-5.8184,4.2684-8.9972a55.8377,55.8377,0,0,1,5.2744-7.428c1.2946-1.5935,3.1526-4.1144,3.7518-4.384s2.7321-.5554,4.1944-1.8873,2.0256-2.2594,4.722-3.4727l6.5912-2.9657c.8988-.4044,1.27.7766,2.9356.3641a19.1983,19.1983,0,0,1,4.5655-.7063c1.5338-.0162,1.4018.38,3.3671-.1671a31.2065,31.2065,0,0,1,6.0993-.7225c.7668-.008,1.27.7766,2.0367.7685s5.0686.0783,5.8355.07,1.27.7766,2.3721,1.2916,1.5337-.0161,3.6667-.3019a6.7116,6.7116,0,0,1,4.17.4827c.635.3883.6707,1.0462,1.9049,1.1648s4.637.6095,5.8712.7282,1.27.7765,3.3067,1.545,4.0378.8791,4.84,1.5289,1.0061,1.5692,2.7432,2.4725a12.4926,12.4926,0,0,0,5.3078,1.6556c2.001.1106,3.1032.6256.5745,2.1a17.4546,17.4546,0,0,0-4.854,3.869c-.863,1.0623-2.4929,2.1327-2.7568,2.9253a10.6748,10.6748,0,0,1-3.1883,3.4566c-1.33.9355-3.26,2.1407-4.2548,3.5993a15.11,15.11,0,0,1-3.9552,3.4646c-1.33.9356-2.3968,1.0785-2.6249,2.529s-2.8283,1.61-4.3263,2.2837-3.2956,1.4828-3.56,2.2755-3.0317.69-4.23,1.2294-2.3253,2.3942-5.2251,2.688-4.7332.4448-6.83,1.3884-4.4693-.3479-6.7342.3342a36.3458,36.3458,0,0,1-7.7649,1.1349,40.4268,40.4268,0,0,1-10.94-.8064c-3.271-.8871-5.5716-.8629-8.411-2.2812s-5.7146-3.4945-8.9855-4.3816a15.4686,15.4686,0,0,0-7.7045-.5772c-3.2.4287-6.83,1.3884-8.1965,1.6661S335.2881,252.08,336.7861,251.4062Z" transform="translate(-57.75 -180.4052)"/><path class="cls-8" d="M349.0721,250.9115c2.0137-.2041,4.3359-.5179,6.7408-.9017,1.8179.9063,12.3067,6.0469,18.3483,7.0836a63.9423,63.9423,0,0,0,9.9489.9878c1.2021.0435,2.445.0887,3.9684.1876,5.1611.335,6.5114-.1273,6.5114-.1273-.0506-.0048-1.3-.1231-6.4827-.4595-1.5352-.1-2.7838-.1449-3.9915-.1888a63.2166,63.2166,0,0,1-9.8418-.9768c-5.3211-.913-14.4881-5.2358-17.44-6.6735.803-.1335,1.6107-.2739,2.4166-.42,1.2927.6851,8.3036,4.285,14.4786,5.1754a77.8653,77.8653,0,0,0,15.4244.2327c1.1437-.0636,2.2244-.1237,3.2205-.161,4.7662-.1781,12.5092,1.9375,12.5092,1.9375-.31-.1107-7.6411-2.7094-12.5625-2.5253-1.0037.0375-2.0876.0978-3.235.1615a77.2371,77.2371,0,0,1-15.2655-.2254c-5.3848-.7768-11.4482-3.6736-13.6072-4.7732,2.5882-.4852,5.1162-1.0222,7.3066-1.5646,2.5-.619,4.6935-1.1775,6.8152-1.7179,2.12-.54,4.3126-1.0983,6.81-1.7168.1-.0247.2052-.0486.3069-.073a46.5275,46.5275,0,0,0,11.7646,5.9906c7.1515,2.3888,10.096,2.67,13.639,2.3787a75.6656,75.6656,0,0,0,8.3066-1.3321c-.0474.0044-4.7728.448-8.3954.7461-3.4323.2827-6.3007.0046-13.32-2.34a46.0962,46.0962,0,0,1-11.1988-5.6283c1.9451-.4373,4.1549-.8372,6.3066-1.2258,1.83-.33,3.69-.6679,5.4237-1.0329.6966.33,9.7292,4.5235,17.1067,4.1869,7.4612-.34,15.8111-3.3738,15.8111-3.3738a80.81,80.81,0,0,1-15.8712,2.7861c-6.1524.2807-13.7515-2.8009-16.0642-3.8125,1.0384-.2332,2.02-.4779,2.8949-.7415a124.13,124.13,0,0,1,15.1073-3.4393,44.2136,44.2136,0,0,0,6.2212-1.3138c.38.57,2.41,3.4742,4.66,4.0845,2.3909.6485,6.923-.6424,6.923-.6424-.0448.0069-4.51.686-6.7364.082-1.8811-.51-3.72-3.028-4.1927-3.7142.2931-.0863.6-.1775.9288-.2753.57-.1695,1.2039-.3581,1.9383-.5715,1.7715-.5149,3.3858-1.0214,4.8809-1.5316.5342.7261,2.2574,2.774,4.6085,2.63,2.7278-.1664,3.1433-1.6885,3.1433-1.6885-.0076.01-.8016.9536-3.2153,1.1016-1.8706.1144-3.3622-1.5682-3.8963-2.2646,1.9117-.6694,3.6263-1.3481,5.2158-2.0633,2.8489-1.2819,10.1832-3.5569,10.1832-3.5569a44.4243,44.4243,0,0,0-10.5186,3.0338,72.7406,72.7406,0,0,1-8.212,3.0494c.23-.51.4566-1.0227.6767-1.5258,1.365-3.12,2.6541-6.067,4.4814-6.8892a34.9451,34.9451,0,0,0,4.0783-2.1674,34.3154,34.3154,0,0,0-4.4137,1.6443c-2.048.9216-3.38,3.9662-4.79,7.1894-.2911.6656-.5923,1.35-.8991,2.016q-.7612.2316-1.5635.4647c-.736.2138-1.3713.4027-1.9426.5727a45.7875,45.7875,0,0,1-7.7038,1.7568c-.9481.1466-1.9649.3242-3.0182.5235,3.2022-4.8109,6.45-8.6108,9.1882-10.7386a97.8876,97.8876,0,0,1,8.9807-5.7156c-.2583.1162-6.3639,2.875-9.4514,5.2738-2.88,2.2371-6.2983,6.2684-9.6365,11.3581-3.7875.7487-7.954,1.7615-11.273,2.7611a85.4127,85.4127,0,0,1-8.64,1.8635c1.3314-1.3777,2.6429-2.8493,4.0208-4.4028a72.9624,72.9624,0,0,1,8.6393-8.72,65.4111,65.4111,0,0,1,9.87-6.79,55.6339,55.6339,0,0,1,8.006-3.2535,41.6025,41.6025,0,0,0-7.3326,2.2235c-.3806.1713-.74.3505-1.0668.5363a65.987,65.987,0,0,0-9.9531,6.8469,73.421,73.421,0,0,0-8.7147,8.79c-1.5563,1.7553-3.0265,3.4129-4.5323,4.9326,0,0-4.893.9207-6.9708,1.4352-2.0167.4993-3.8327.959-5.5738,1.4019,3.9269-3.9648,7.9286-8.0439,11.191-12.0592a86.7763,86.7763,0,0,1,9.2393-10.2065c3.981-3.7609,10.2028-6.253,10.2028-6.253a32.5891,32.5891,0,0,0-3.8172,1.4549,25.4767,25.4767,0,0,0-6.9015,4.3944,87.3109,87.3109,0,0,0-9.2914,10.2629c-3.4363,4.23-7.7108,8.5444-11.8467,12.7179-.0059.0015-4.33,1.1029-6.8275,1.7214-1.646.4075-3.4843.8121-5.3941,1.1939a87.8786,87.8786,0,0,0,13.7023-13.0581,22.5479,22.5479,0,0,0,2.86-4.4025,18.1064,18.1064,0,0,1,5.3913-6.7027c5.0763-3.9436,9.776-7.4194,9.776-7.4194a106.5092,106.5092,0,0,0-10.2466,6.9776,18.8077,18.8077,0,0,0-5.5463,6.8837,22.1342,22.1342,0,0,1-2.7921,4.3033c-2.8554,3.3136-8.5227,9.4774-14.397,13.529,0,0-1.4987.4156-2.3068.5585a50.9511,50.9511,0,0,0,3.8652-6.4557,43.9551,43.9551,0,0,1,4.9252-7.8415c1.1839-1.3834,2.427-2.9807,3.63-4.5252,2.6437-3.3957,5.3772-6.9073,7.8728-8.7137a49.871,49.871,0,0,0,5.49-4.482c-.0225.0135-2.2834,1.3779-5.9437,4.0273-2.566,1.8572-5.3258,5.4023-7.9945,8.83-1.1982,1.54-2.4377,3.1313-3.613,4.5045a44.3617,44.3617,0,0,0-4.9923,7.94,45.72,45.72,0,0,1-4.2056,6.8836c-.4931.0841-6.3635.9729-8.4209,1.1813-5.7526.5829-12.6,1.968-12.6684,1.9821l-.0419.6826C336.3265,252.9777,343.358,251.49,349.0721,250.9115Z" transform="translate(-57.75 -180.4052)"/><path class="cls-9" d="M308.9329,255.0159l-9.8813-.8667c-2.47-.2167-5.8041-.7416-8.6258,1.6547-1.7449,1.4817-4.4356,4.924-7.3219,7.4909a65.64,65.64,0,0,1-7.713,5.74c-1.81,1.19-4.4925,3.1207-5.161,3.2256s-2.8046-.1643-4.68.7338a15.8035,15.8035,0,0,1-5.7561,2.1108l-7.354,1.1532c-1.0028.1573-.9293-1.0624-2.6659-1.0921a19.3441,19.3441,0,0,1-4.6064-.4857c-1.4674-.374-1.1984-.7182-3.2692-.6955a31.0363,31.0363,0,0,1-6.0738-.86c-.7338-.187-.9294-1.0624-1.6631-1.2494s-4.802-1.3612-5.5357-1.5481-.9294-1.0624-1.7935-1.833-1.4675-.374-3.6036-.6431a6.1865,6.1865,0,0,1-3.7991-1.5184c-.4647-.5312-.2608-1.1672-1.394-1.5936s-4.1986-1.7578-5.3318-2.1842-.9294-1.0624-2.5925-2.3117-3.53-1.8627-4.06-2.6857-.3912-1.7509-1.72-3.0527a11.0494,11.0494,0,0,0-4.4594-2.925c-1.8669-.6134-2.7311-1.3839.2122-2.1475a20.1023,20.1023,0,0,0,6.0251-2.455c1.2067-.7933,3.1471-1.4,3.6853-2.0881a12.4761,12.4761,0,0,1,4.2886-2.4847,19.5435,19.5435,0,0,0,5.3566-2.35,17.4869,17.4869,0,0,1,5.0223-2.2977c1.6062-.5539,2.6742-.4194,3.4162-1.7439s3.2775-.816,4.9489-1.0781,3.677-.5766,4.2151-1.265,3.1389.1118,4.4759-.0979,3.082-1.6914,5.9517-1.2353,4.6716.7776,7.0115.4106,4.1334,1.4661,6.5385,1.3909a36.5435,36.5435,0,0,1,7.81.8895,37.943,37.943,0,0,1,10.1338,3.5454c2.7963,1.6757,4.9975,2.2366,7.1905,4.3089s4.1821,4.7808,6.9784,6.4565a14.52,14.52,0,0,0,7.1336,2.5057c3.204.4037,7.0114.4107,8.4137.4928S310.6042,254.7538,308.9329,255.0159Z" transform="translate(-57.75 -180.4052)"/><path class="cls-10" d="M297.0455,252.3687c-1.9928-.3167-4.3194-.6071-6.75-.8518-1.4046-1.3251-9.5411-8.8865-14.9238-11.408a59.5578,59.5578,0,0,0-9.1238-3.4668c-1.13-.3466-2.298-.7051-3.7141-1.1861-4.7973-1.6293-6.2513-1.5315-6.2513-1.5315.0465.0175,1.1943.4473,6.0117,2.0835,1.427.4846,2.6005.8447,3.7356,1.1931a58.892,58.892,0,0,1,9.0259,3.429c4.7407,2.2208,11.9133,8.6673,14.2062,10.7867-.8135-.0767-1.634-.1479-2.4549-.2132-.9842-.9809-6.3635-6.1913-11.9262-8.6072a74.3792,74.3792,0,0,0-14.6151-4.137c-1.1129-.23-2.1646-.4468-3.1274-.6641-4.6066-1.04-11.22-5.0217-11.22-5.0217.2551.1842,6.302,4.5216,11.0587,5.5954.97.2191,2.0248.4367,3.1413.6673a73.7787,73.7787,0,0,1,14.4663,4.09c4.8507,2.1071,9.5814,6.4068,11.2412,8.0028-2.642-.1947-5.2454-.3246-7.529-.3637-2.6062-.0447-4.8988-.0692-7.1161-.0928-2.2157-.0236-4.5072-.048-7.1107-.0925-.1039-.0018-.2132-.0058-.3189-.0083a39.923,39.923,0,0,0-9.0449-8.6952c-5.9513-4.0919-8.6556-5.1076-12.1375-5.729a76.5453,76.5453,0,0,0-8.3979-.839c.0467.0078,4.71.7846,8.2706,1.42,3.3732.6018,6.0062,1.595,11.8474,5.6113a39.58,39.58,0,0,1,8.6367,8.2065c-2.0118-.0771-4.2623-.2568-6.4534-.4328-1.8636-.15-3.7579-.3-5.5424-.3923-.5446-.4909-7.6358-6.78-14.7882-8.3323-7.2335-1.57-16.2881-.7982-16.2881-.7982a82.248,82.248,0,0,1,16.1328,1.3735c5.9647,1.2942,12.092,6.16,13.93,7.7109-1.074-.0413-2.0977-.0572-3.027-.0282a127.9445,127.9445,0,0,1-15.6411-.5571,45.3729,45.3729,0,0,0-6.4039-.3271c-.1564-.64-1.04-3.9227-2.964-5.0755-2.044-1.2249-6.83-1.1451-6.83-1.1451.0452.0048,4.5457.491,6.4494,1.6318,1.6082.9637,2.45,3.83,2.6523,4.6039-.3106.0078-.6358.0168-.9848.0266-.6046.0168-1.2768.0356-2.0538.0526-1.8745.041-3.596.114-5.2054.2207-.2465-.8277-1.148-3.2166-3.4406-3.6764-2.66-.5338-3.6062.8112-3.6062.8112a4.9442,4.9442,0,0,1,3.4626-.2336c1.824.3658,2.6369,2.3479,2.894,3.1472-2.0639.1526-3.9433.3642-5.7168.6423-3.1787.4985-10.991.8048-10.991.8048a46.6126,46.6126,0,0,0,11.1214-.2212,78.0365,78.0365,0,0,1,8.9288-.8215c-.4033.4278-.8049.8587-1.1966,1.2822-2.4293,2.6269-4.7237,5.1082-6.7624,5.4279a38.8688,38.8688,0,0,0-4.6705,1.03,36.7032,36.7032,0,0,0,4.8009-.4467c2.285-.3583,4.6555-2.9217,7.165-5.6355.5183-.5605,1.0527-1.1359,1.5861-1.6931q.8091-.0273,1.658-.0459c.7788-.017,1.4525-.0357,2.0584-.0527a47.23,47.23,0,0,1,7.9771.2813c.9565.1009,1.99.19,3.0656.2672-4.7916,3.7719-9.2608,6.5689-12.64,7.9015a110.4872,110.4872,0,0,1-10.6258,3.1673,66.5183,66.5183,0,0,0,10.9145-2.6268c3.5536-1.4009,8.2694-4.375,13.2915-8.3781,3.88.248,8.2172.34,11.7417.23a87.7854,87.7854,0,0,1,8.908.4172c-1.7672.9751-3.5492,2.0446-5.4242,3.1753a85.19,85.19,0,0,1-11.3869,6.1168,74.3364,74.3364,0,0,1-11.8617,3.9657,60.0526,60.0526,0,0,1-8.8064,1.0684,43.6962,43.6962,0,0,0,7.7921-.2577c.4247-.0666.8321-.1462,1.2106-.24a74.9884,74.9884,0,0,0,11.9616-3.9986,85.7089,85.7089,0,0,0,11.4843-6.1651c2.118-1.2777,4.1186-2.4843,6.1033-3.55,0,0,4.996.3647,7.1622.4018,2.1024.036,3.9994.0589,5.8188.0788-5.1763,2.7816-10.4652,5.6532-15.0264,8.6516a101.65,101.65,0,0,1-12.4965,7.3815,42.4288,42.4288,0,0,1-11.9848,3.3692,34.9236,34.9236,0,0,0,4.1639-.4176,28.7439,28.7439,0,0,0,8.1665-2.4359,102.2857,102.2857,0,0,0,12.5665-7.422c4.8047-3.1588,10.4387-6.1855,15.89-9.113.0061,0,4.5257.0482,7.1291.0927,1.716.0293,3.6143.11,5.5724.2314a102.3115,102.3115,0,0,0-17.781,8.9661,26.475,26.475,0,0,0-4.3183,3.4694,21.213,21.213,0,0,1-7.5621,5.0191c-6.2639,2.47-12,4.5892-12,4.5892a120.903,120.903,0,0,0,12.2885-4.0487,22.0378,22.0378,0,0,0,7.7753-5.1522,25.9777,25.9777,0,0,1,4.2173-3.3923c3.92-2.433,11.55-6.8685,18.6133-9.2385,0,0,1.5786-.0157,2.4.0533a59.7237,59.7237,0,0,0-6.0184,5.171,51.58,51.58,0,0,1-7.53,6.2228c-1.6285,1.0178-3.3909,2.2245-5.0956,3.3911-3.7477,2.5651-7.6227,5.2176-10.6543,6.3057a57.6125,57.6125,0,0,0-6.8531,2.8777c.0263-.0071,2.6745-.7335,7.121-2.3292,3.117-1.1186,7.0293-3.7965,10.8123-6.3859,1.6988-1.1631,3.4557-2.3654,5.0724-3.3757a52.0546,52.0546,0,0,0,7.6293-6.2994A53.6318,53.6318,0,0,1,288.48,251.94c.5.045,6.4162.6881,8.4523,1.0117,5.693.9047,12.7192,1.3228,12.79,1.3268l.2868-.64C309.9393,253.6349,302.7,253.2676,297.0455,252.3687Z" transform="translate(-57.75 -180.4052)"/><path class="cls-11" d="M207.7861,216.2207l9.73-1.6823c2.4326-.4205,5.7995-.7665,7.6219-3.7664,1.1269-1.855,2.4461-5.8185,4.2684-8.9973a55.8377,55.8377,0,0,1,5.2744-7.428c1.2946-1.5935,3.1526-4.1144,3.7518-4.384s2.7321-.5554,4.1944-1.8873,2.0256-2.2594,4.722-3.4727l6.5912-2.9657c.8988-.4044,1.27.7766,2.9356.3641a19.1983,19.1983,0,0,1,4.5655-.7063c1.5338-.0162,1.4018.38,3.3671-.1671a31.2065,31.2065,0,0,1,6.0993-.7225c.7668-.008,1.27.7766,2.0367.7685s5.0686.0783,5.8355.07,1.27.7765,2.3721,1.2915,1.5337-.0161,3.6667-.3019a6.7131,6.7131,0,0,1,4.17.4827c.635.3883.6707,1.0462,1.9049,1.1649s4.637.6094,5.8712.7281,1.27.7765,3.3067,1.545,4.0378.8791,4.84,1.5289,1.0061,1.5692,2.7432,2.4725a12.4926,12.4926,0,0,0,5.3078,1.6556c2.001.1106,3.1032.6256.5745,2.1a17.4546,17.4546,0,0,0-4.854,3.869c-.863,1.0623-2.4929,2.1327-2.7568,2.9254a10.6746,10.6746,0,0,1-3.1883,3.4565c-1.33.9355-3.26,2.1407-4.2548,3.5994a15.1112,15.1112,0,0,1-3.9552,3.4645c-1.33.9356-2.3968,1.0785-2.6249,2.5291s-2.8283,1.61-4.3263,2.2836-3.2956,1.4828-3.56,2.2755-3.0317.69-4.23,1.2294-2.3253,2.3942-5.2251,2.688-4.7332.4448-6.83,1.3884-4.4693-.3479-6.7342.3342a36.3521,36.3521,0,0,1-7.7649,1.135,40.4311,40.4311,0,0,1-10.94-.8065c-3.271-.8871-5.5716-.8629-8.411-2.2812s-5.7146-3.4944-8.9855-4.3816a15.4686,15.4686,0,0,0-7.7045-.5772c-3.2.4287-6.83,1.3884-8.1965,1.6661S206.2881,216.8947,207.7861,216.2207Z" transform="translate(-57.75 -180.4052)"/><path class="cls-12" d="M220.0721,215.726c2.0137-.204,4.3359-.5178,6.7408-.9016,1.8179.9062,12.3067,6.0468,18.3483,7.0835a63.9175,63.9175,0,0,0,9.9489.9878c1.2021.0436,2.445.0887,3.9684.1876,5.1611.335,6.5114-.1273,6.5114-.1273-.0506-.0048-1.3-.1231-6.4827-.4595-1.5352-.1-2.7838-.1449-3.9915-.1888a63.2266,63.2266,0,0,1-9.8418-.9767c-5.3211-.9131-14.4881-5.2359-17.44-6.6736.803-.1334,1.6107-.2739,2.4166-.42,1.2927.685,8.3036,4.2849,14.4786,5.1753a77.8577,77.8577,0,0,0,15.4244.2327c1.1437-.0635,2.2244-.1236,3.2205-.161,4.7662-.1781,12.5092,1.9376,12.5092,1.9376-.31-.1108-7.6411-2.7095-12.5625-2.5254-1.0037.0375-2.0876.0979-3.235.1615a77.2294,77.2294,0,0,1-15.2655-.2254c-5.3848-.7768-11.4482-3.6736-13.6072-4.7732,2.5882-.4852,5.1162-1.0222,7.3066-1.5645,2.5-.619,4.6935-1.1776,6.8152-1.7179,2.12-.54,4.3126-1.0984,6.81-1.7168.1-.0247.2052-.0487.3069-.0731a46.5275,46.5275,0,0,0,11.7646,5.9906c7.1515,2.3888,10.096,2.67,13.639,2.3787a75.6656,75.6656,0,0,0,8.3066-1.3321c-.0474.0044-4.7728.448-8.3954.7461-3.4323.2827-6.3007.0046-13.32-2.34a46.0962,46.0962,0,0,1-11.1988-5.6283c1.9451-.4372,4.1549-.8372,6.3066-1.2258,1.83-.33,3.69-.6678,5.4237-1.0329.6966.33,9.7292,4.5235,17.1067,4.1869,7.4612-.34,15.8111-3.3738,15.8111-3.3738a80.81,80.81,0,0,1-15.8712,2.7861c-6.1524.2807-13.7515-2.8009-16.0642-3.8125,1.0384-.2332,2.02-.4779,2.8949-.7414a124.1112,124.1112,0,0,1,15.1073-3.4394,44.2136,44.2136,0,0,0,6.2212-1.3138c.38.57,2.41,3.4743,4.66,4.0846,2.3909.6484,6.923-.6425,6.923-.6425-.0448.0069-4.51.686-6.7364.082-1.8811-.51-3.72-3.028-4.1927-3.7142.2931-.0863.6-.1774.9288-.2753.57-.1695,1.2039-.3581,1.9383-.5715,1.7715-.5149,3.3858-1.0214,4.8809-1.5316.5342.7261,2.2574,2.774,4.6085,2.63,2.7278-.1664,3.1433-1.6884,3.1433-1.6884-.0076.01-.8016.9535-3.2153,1.1015-1.8706.1144-3.3622-1.5682-3.8963-2.2646,1.9117-.6694,3.6263-1.3481,5.2158-2.0633,2.8489-1.2819,10.1832-3.5569,10.1832-3.5569a44.4243,44.4243,0,0,0-10.5186,3.0338,72.7406,72.7406,0,0,1-8.212,3.0494c.23-.51.4566-1.0227.6767-1.5257,1.365-3.12,2.6541-6.0671,4.4814-6.8893a34.9451,34.9451,0,0,0,4.0783-2.1674,34.3076,34.3076,0,0,0-4.4137,1.6444c-2.048.9215-3.38,3.9661-4.79,7.1893-.2911.6657-.5923,1.35-.8991,2.0161q-.7612.2315-1.5635.4646c-.736.2138-1.3713.4028-1.9426.5728a45.7982,45.7982,0,0,1-7.7038,1.7567c-.9481.1467-1.9649.3242-3.0182.5235,3.2022-4.8109,6.45-8.6108,9.1882-10.7386a97.9108,97.9108,0,0,1,8.9807-5.7156c-.2583.1162-6.3639,2.875-9.4514,5.2738-2.88,2.2371-6.2983,6.2684-9.6365,11.3581-3.7875.7487-7.954,1.7616-11.273,2.7611a85.4384,85.4384,0,0,1-8.64,1.8636c1.3314-1.3778,2.6429-2.8494,4.0208-4.4029a72.9624,72.9624,0,0,1,8.6393-8.72,65.4188,65.4188,0,0,1,9.87-6.79,55.6339,55.6339,0,0,1,8.006-3.2535,41.5972,41.5972,0,0,0-7.3326,2.2236c-.3806.1712-.74.35-1.0668.5362a65.987,65.987,0,0,0-9.9531,6.8469,73.4284,73.4284,0,0,0-8.7147,8.79c-1.5563,1.7553-3.0265,3.4129-4.5323,4.9326,0,0-4.893.9207-6.9708,1.4352-2.0167.4993-3.8327.9591-5.5738,1.4019,3.9269-3.9647,7.9286-8.0439,11.191-12.0592a86.7763,86.7763,0,0,1,9.2393-10.2065c3.981-3.7609,10.2028-6.253,10.2028-6.253a32.5891,32.5891,0,0,0-3.8172,1.4549,25.4767,25.4767,0,0,0-6.9015,4.3944,87.3188,87.3188,0,0,0-9.2914,10.2629c-3.4363,4.23-7.7108,8.5444-11.8467,12.718-.0059.0015-4.33,1.1028-6.8275,1.7213-1.646.4075-3.4843.8121-5.3941,1.1939a87.8786,87.8786,0,0,0,13.7023-13.0581,22.5479,22.5479,0,0,0,2.86-4.4025,18.1054,18.1054,0,0,1,5.3913-6.7026c5.0763-3.9437,9.776-7.4195,9.776-7.4195a106.531,106.531,0,0,0-10.2466,6.9776,18.8085,18.8085,0,0,0-5.5463,6.8837,22.1342,22.1342,0,0,1-2.7921,4.3033c-2.8554,3.3136-8.5227,9.4774-14.397,13.529,0,0-1.4987.4156-2.3068.5585a50.944,50.944,0,0,0,3.8652-6.4557,43.9587,43.9587,0,0,1,4.9252-7.8415c1.1839-1.3834,2.427-2.9807,3.63-4.5252,2.6437-3.3957,5.3772-6.9072,7.8728-8.7136a49.8854,49.8854,0,0,0,5.49-4.482c-.0225.0134-2.2834,1.3779-5.9437,4.0272-2.566,1.8572-5.3258,5.4023-7.9945,8.83-1.1982,1.54-2.4377,3.1313-3.613,4.5046a44.3573,44.3573,0,0,0-4.9923,7.94A45.72,45.72,0,0,1,228.39,213.96c-.4931.0841-6.3635.9729-8.4209,1.1813-5.7526.5829-12.6,1.968-12.6684,1.9821l-.0419.6826C207.3265,217.7922,214.358,216.3048,220.0721,215.726Z" transform="translate(-57.75 -180.4052)"/><path class="cls-13" d="M146.7406,289.6191l9.1547,3.2339c2.2887.8085,5.2967,2.122,8.8277.5157,2.1833-.9933,5.9516-3.6323,9.6034-5.3861a74.756,74.756,0,0,1,9.3708-3.6156c2.1445-.6982,5.3808-1.893,6.0569-1.8306a12.1815,12.1815,0,0,0,4.7324.4366,16.9255,16.9255,0,0,1,6.24-.6191l7.4368.6861c1.0141.0935.5209,1.2427,2.1723,1.6937a18.0468,18.0468,0,0,1,4.2393,1.5858c1.2745.7149.8977.9788,2.8871,1.461a28.6415,28.6415,0,0,1,5.5139,2.3007c.6373.3575.5209,1.2427,1.1582,1.6s4.1229,2.471,4.76,2.8285.5209,1.2427,1.0806,2.19,1.2745.7149,3.2252,1.4922,2.8483,1.7561,3.1088,2.3775-.1552,1.18.7814,1.8641,3.408,2.7038,4.3446,3.3875.5209,1.2427,1.6791,2.8429,2.732,2.6414,2.9536,3.5579-.2327,1.7705.5875,3.3395a9.5035,9.5035,0,0,0,3.2529,3.8842c1.5738,1.0412,2.1335,1.9888-.9476,2.0032a21.7543,21.7543,0,0,0-6.6166.883c-1.43.4655-3.4967.5734-4.25,1.1013a13.93,13.93,0,0,1-4.9652,1.3339,21.2361,21.2361,0,0,0-5.94.9453,19.072,19.072,0,0,1-5.6025.9766c-1.729.1391-2.7043-.2495-3.8735.8373s-3.4192-.0168-5.1093-.1727-3.7184-.343-4.4721.1848-2.9647-.8708-4.3168-.9956-3.5355.8685-6.1234-.2662-4.2005-1.8809-6.5668-2.0992-3.4468-2.4086-5.7743-2.922a34.0286,34.0286,0,0,1-7.1652-2.7517c-2.25-1.1036-6.3728-3.5746-8.4676-5.8586s-4.0065-3.3563-5.3864-5.8729-2.3441-5.5923-4.4388-7.8763a12.8471,12.8471,0,0,0-5.9572-4.1336c-2.9259-1.1659-6.5667-2.0991-7.88-2.519A1.3758,1.3758,0,0,1,146.7406,289.6191Z" transform="translate(-57.75 -180.4052)"/><path class="cls-14" d="M157.1976,295.0449c1.7971.788,3.9226,1.632,6.1636,2.4577.8847,1.61,6.0485,10.825,10.3249,14.5477a52.3208,52.3208,0,0,0,7.5284,5.5375c.961.6067,1.9544,1.234,3.1426,2.0388,4.0256,2.7265,5.4508,2.9867,5.4508,2.9867-.0384-.028-.9878-.7186-5.03-3.4566-1.1974-.8109-2.1955-1.4411-3.1608-2.0506a51.7609,51.7609,0,0,1-7.4477-5.4776c-3.7663-3.2787-8.3944-11.1926-9.8536-13.7786.7518.2713,1.5123.5391,2.2752.8013.6015,1.1782,3.9423,7.4729,8.4275,11.1383a66.4813,66.4813,0,0,0,12.5505,7.5152c.9853.4907,1.9163.9543,2.7623,1.3965,4.0473,2.1162,8.9954,7.5356,8.9954,7.5356-.18-.2383-4.4625-5.86-8.6417-8.0452-.8522-.4457-1.7861-.9106-2.7745-1.403a65.9621,65.9621,0,0,1-12.4246-7.4337c-3.9109-3.1967-6.9468-8.4621-7.9816-10.3932,2.4606.8291,4.9067,1.587,7.0782,2.18,2.4784.677,4.6636,1.2583,6.7772,1.8205,2.1119.5617,4.2962,1.1427,6.7719,1.8188.0989.027.2021.0574.3023.0855a34.4876,34.4876,0,0,0,5.64,10.5214c4.276,5.3636,6.5114,6.9937,9.6278,8.4356a71.6635,71.6635,0,0,0,7.7448,2.8464c-.0419-.0189-4.2353-1.897-7.4216-3.3714-3.019-1.3967-5.1941-2.9878-9.3909-8.2524a34.1552,34.1552,0,0,1-5.4189-9.9543c1.8983.5633,3.99,1.283,6.0252,1.9845,1.7312.5969,3.4917,1.2016,5.1673,1.7241.3509.6023,4.9556,8.3462,11.2615,11.5718,6.3775,3.262,15.309,4.7274,15.309,4.7274a77.4563,77.4563,0,0,1-14.961-5.24c-5.2587-2.69-9.4347-8.8367-10.6558-10.7683,1.0133.3009,1.9874.5652,2.8867.7637a121.8193,121.8193,0,0,1,14.7735,4.3392,43.0622,43.0622,0,0,0,6.0143,1.8714c-.0723.6506-.365,4.0065,1.0764,5.5779,1.5311,1.67,6.1383,2.7578,6.1383,2.7578-.0415-.0157-4.1794-1.5761-5.6055-3.131-1.2046-1.3135-1.0166-4.2611-.9416-5.0507.3.0681.6143.1386.9516.2142.5843.131,1.2341.2766,1.9835.4494,1.8079.4169,3.4805.766,5.0575,1.0555-.0511.852-.0169,3.3573,2.0175,4.3552,2.36,1.158,3.7319.1013,3.7319.1013a4.9433,4.9433,0,0,1-3.3942-.6191c-1.6186-.7939-1.7092-2.8884-1.6781-3.7157,2.028.3561,3.9.6111,5.6931.7765,3.2145.2966,10.7962,1.9045,10.7962,1.9045a45.1614,45.1614,0,0,0-10.7186-2.4947,77.2819,77.2819,0,0,1-8.8287-1.3867c.5343-.3112,1.068-.6257,1.59-.9357,3.2354-1.9225,6.2912-3.7384,8.3529-3.5482a40.1021,40.1021,0,0,0,4.8263.1506,36.2648,36.2648,0,0,0-4.7487-.7408c-2.3108-.2132-5.4679,1.6628-8.81,3.6489-.69.41-1.4011.8308-2.1047,1.2341q-.7837-.1707-1.6025-.3595c-.751-.1733-1.4022-.3193-1.9879-.45a45.0345,45.0345,0,0,1-7.5356-2.21c-.88-.3293-1.8381-.6659-2.8408-1.0017a62.2574,62.2574,0,0,1,14.8349-4.4849c4.0828-.5,11.2659-.445,11.2659-.445a68.7018,68.7018,0,0,0-11.3547-.1425c-3.8862.4758-9.43,2.1741-15.6234,4.7825-3.627-1.1816-7.7449-2.3253-11.1557-3.0776a83.3215,83.3215,0,0,1-8.3792-2.567c2.0291-.503,4.1051-1.0927,6.2913-1.7184a94.3857,94.3857,0,0,1,13.0168-3.082,78.7634,78.7634,0,0,1,12.7254-.9083,59.8648,59.8648,0,0,1,8.7971,1.1207,42.3777,42.3777,0,0,0-7.5455-1.6495c-.4295-.04-.8469-.0627-1.2418-.0647a79.46,79.46,0,0,0-12.8322.9153,94.9781,94.9781,0,0,0-13.1268,3.1046c-2.47.7073-4.8024,1.3749-7.0711,1.912,0,0-4.6542-1.5646-6.7141-2.1273-1.9993-.5461-3.8065-1.03-5.5406-1.4914,5.9176-1.402,11.9741-2.8627,17.3783-4.622a113.64,113.64,0,0,1,14.5171-4.0222,44.1794,44.1794,0,0,1,12.6362-.3075,34.6023,34.6023,0,0,0-4.1291-.6137,30.19,30.19,0,0,0-8.659.3437,114.3311,114.3311,0,0,0-14.5982,4.0439c-5.6927,1.8534-12.1332,3.3786-18.3642,4.8534-.0058-.0015-4.3138-1.1474-6.79-1.8235-1.6318-.4457-3.42-.9852-5.2518-1.5774a112.7917,112.7917,0,0,0,20.1231-4.2526,30.3406,30.3406,0,0,0,5.3351-2.2691,23.9559,23.9559,0,0,1,8.9763-2.9624c6.85-.839,13.0737-1.4712,13.0737-1.4712a127.8746,127.8746,0,0,0-13.1625.8837,24.8885,24.8885,0,0,0-9.2265,3.038,29.7833,29.7833,0,0,1-5.2116,2.22c-4.5943,1.3743-13.4334,3.7617-21.0142,4.3107,0,0-1.5159-.3691-2.2784-.6351a68.756,68.756,0,0,0,7.5519-3.4836,59.2211,59.2211,0,0,1,9.3628-4.1221c1.9112-.5776,4.016-1.3034,6.0517-2.0049,4.4754-1.5425,9.1031-3.1377,12.3813-3.4411a62.5406,62.5406,0,0,0,7.5554-1.086c-.0276,0-2.8135.0511-7.6216.496-3.37.3118-8.0425,1.9222-12.56,3.4794-2.0288.7-4.1268,1.4224-6.0241,1.9958a59.7588,59.7588,0,0,0-9.4846,4.1712,61.655,61.655,0,0,1-8.1218,3.6745c-.4632-.1648-5.901-2.22-7.7371-3.0249-5.1338-2.2511-11.7122-4.3609-11.7783-4.3819l-.4963.5425C145.2988,290.6956,152.0982,292.8087,157.1976,295.0449Z" transform="translate(-57.75 -180.4052)"/></g></g></svg>