<svg xmlns="http://www.w3.org/2000/svg" xmlns:xlink="http://www.w3.org/1999/xlink" viewBox="0 0 389.7889 168.1682"><defs><style>.cls-1{fill:#e6a642;}.cls-2{fill:url(#linear-gradient);}.cls-3{fill:url(#linear-gradient-2);}.cls-4{fill:url(#linear-gradient-3);}.cls-5{fill:url(#linear-gradient-4);}.cls-6{fill:url(#linear-gradient-5);}</style><linearGradient id="linear-gradient" x1="42.0925" y1="260.5913" x2="182.8814" y2="260.5913" gradientUnits="userSpaceOnUse"><stop offset="0" stop-color="#efc265"/><stop offset="0.1425" stop-color="#f1c773"/><stop offset="0.412" stop-color="#f5d398"/><stop offset="0.5" stop-color="#f7d8a6"/><stop offset="0.6027" stop-color="#f7d6a1"/><stop offset="0.7247" stop-color="#f7d193"/><stop offset="0.8565" stop-color="#f8c77b"/><stop offset="0.9944" stop-color="#f8bb5a"/><stop offset="1" stop-color="#f8ba58"/></linearGradient><linearGradient id="linear-gradient-2" x1="137.0925" y1="203.5913" x2="277.8814" y2="203.5913" xlink:href="#linear-gradient"/><linearGradient id="linear-gradient-3" x1="291.0925" y1="214.5913" x2="431.8814" y2="214.5913" xlink:href="#linear-gradient"/><linearGradient id="linear-gradient-4" x1="282.0925" y1="293.5913" x2="422.8814" y2="293.5913" xlink:href="#linear-gradient"/><linearGradient id="linear-gradient-5" x1="147.0925" y1="302.5913" x2="287.8814" y2="302.5913" xlink:href="#linear-gradient"/></defs><title>cheddar</title><g id="cheddar"><g id="multiple"><path class="cls-1" d="M42.8758,252.2306a1.0512,1.0512,0,0,0-.1541,1.9784c4.9728,2.9695,19.221,11.6219,27.4189,18.0794,8.7,6.853,24.5727,19.8858,28.68,23.2631a2.4116,2.4116,0,0,0,2.3168.2731c5.6356-2.3,27.9038-11.3231,40.7877-15.62,12.2688-4.0917,33.0473-10.4392,39.87-12.5131,1.119-.34,1.4437-1.3275.6454-1.9661-5.1949-4.1558-21.8206-17.2782-31.4224-22.7932-10.3758-5.9595-28.953-12.9957-32.4461-14.3a2.5371,2.5371,0,0,0-1.2164-.1275c-3.8147.52-23.7938,3.3712-37.1645,7.83C67.8623,240.4468,48.9249,249.3415,42.8758,252.2306Z" transform="translate(-42.0925 -169.8318)"/><path class="cls-2" d="M42.8758,250.5814a1.0512,1.0512,0,0,0-.1541,1.9784c4.9728,2.97,19.221,11.6218,27.4189,18.0794,8.7,6.853,24.5727,19.8858,28.68,23.263a2.4113,2.4113,0,0,0,2.3168.2732c5.6356-2.3,27.9038-11.3232,40.7877-15.62,12.2688-4.0917,33.0473-10.4392,39.87-12.5131,1.119-.34,1.4437-1.3275.6454-1.9661-5.1949-4.1558-21.8206-17.2782-31.4224-22.7932-10.3758-5.9595-28.953-12.9957-32.4461-14.3a2.5371,2.5371,0,0,0-1.2164-.1275c-3.8147.52-23.7938,3.3712-37.1645,7.83C67.8623,238.7976,48.9249,247.6922,42.8758,250.5814Z" transform="translate(-42.0925 -169.8318)"/><path class="cls-1" d="M137.8758,195.2306a1.0512,1.0512,0,0,0-.1541,1.9784c4.9728,2.97,19.221,11.6219,27.4189,18.0794,8.7,6.853,24.5727,19.8858,28.68,23.2631a2.4116,2.4116,0,0,0,2.3168.2731c5.6356-2.3,27.9038-11.3231,40.7877-15.62,12.2688-4.0917,33.0473-10.4392,39.87-12.5131,1.119-.34,1.4437-1.3275.6454-1.9661-5.1949-4.1558-21.8206-17.2782-31.4224-22.7932-10.3758-5.9595-28.953-12.9957-32.4461-14.3a2.5371,2.5371,0,0,0-1.2164-.1275c-3.8147.52-23.7938,3.3712-37.1645,7.83C162.8623,183.4468,143.9249,192.3415,137.8758,195.2306Z" transform="translate(-42.0925 -169.8318)"/><path class="cls-3" d="M137.8758,193.5814a1.0512,1.0512,0,0,0-.1541,1.9784c4.9728,2.97,19.221,11.6218,27.4189,18.0794,8.7,6.853,24.5727,19.8858,28.68,23.263a2.4113,2.4113,0,0,0,2.3168.2732c5.6356-2.3,27.9038-11.3232,40.7877-15.62,12.2688-4.0917,33.0473-10.4392,39.87-12.5131,1.119-.34,1.4437-1.3275.6454-1.9661-5.1949-4.1558-21.8206-17.2782-31.4224-22.7932-10.3758-5.9595-28.953-12.9957-32.4461-14.3a2.5371,2.5371,0,0,0-1.2164-.1275c-3.8147.52-23.7938,3.3712-37.1645,7.83C162.8623,181.7976,143.9249,190.6922,137.8758,193.5814Z" transform="translate(-42.0925 -169.8318)"/><path class="cls-1" d="M291.8758,206.2306a1.0512,1.0512,0,0,0-.1541,1.9784c4.9728,2.97,19.221,11.6219,27.4189,18.0794,8.7,6.853,24.5727,19.8858,28.68,23.2631a2.4116,2.4116,0,0,0,2.3168.2731c5.6356-2.3,27.9038-11.3231,40.7877-15.62,12.2688-4.0917,33.0473-10.4392,39.87-12.5131,1.119-.34,1.4437-1.3275.6454-1.9661-5.1949-4.1558-21.8206-17.2782-31.4224-22.7932-10.3758-5.9595-28.953-12.9957-32.4461-14.3a2.5371,2.5371,0,0,0-1.2164-.1275c-3.8147.52-23.7938,3.3712-37.1645,7.83C316.8623,194.4468,297.9249,203.3415,291.8758,206.2306Z" transform="translate(-42.0925 -169.8318)"/><path class="cls-4" d="M291.8758,204.5814a1.0512,1.0512,0,0,0-.1541,1.9784c4.9728,2.97,19.221,11.6218,27.4189,18.0794,8.7,6.853,24.5727,19.8858,28.68,23.263a2.4113,2.4113,0,0,0,2.3168.2732c5.6356-2.3,27.9038-11.3232,40.7877-15.62,12.2688-4.0917,33.0473-10.4392,39.87-12.5131,1.119-.34,1.4437-1.3275.6454-1.9661-5.1949-4.1558-21.8206-17.2782-31.4224-22.7932-10.3758-5.9595-28.953-12.9957-32.4461-14.3a2.5371,2.5371,0,0,0-1.2164-.1275c-3.8147.52-23.7938,3.3712-37.1645,7.83C316.8623,192.7976,297.9249,201.6922,291.8758,204.5814Z" transform="translate(-42.0925 -169.8318)"/><path class="cls-1" d="M282.8758,285.2306a1.0512,1.0512,0,0,0-.1541,1.9784c4.9728,2.9695,19.221,11.6219,27.4189,18.0794,8.7,6.853,24.5727,19.8858,28.68,23.2631a2.4116,2.4116,0,0,0,2.3168.2731c5.6356-2.3,27.9038-11.3231,40.7877-15.62,12.2688-4.0917,33.0473-10.4392,39.87-12.5131,1.119-.34,1.4437-1.3275.6454-1.9661-5.1949-4.1558-21.8206-17.2782-31.4224-22.7932-10.3758-5.96-28.953-12.9957-32.4461-14.3a2.5371,2.5371,0,0,0-1.2164-.1275c-3.8147.52-23.7938,3.3712-37.1645,7.83C307.8623,273.4468,288.9249,282.3415,282.8758,285.2306Z" transform="translate(-42.0925 -169.8318)"/><path class="cls-5" d="M282.8758,283.5814a1.0512,1.0512,0,0,0-.1541,1.9784c4.9728,2.9695,19.221,11.6218,27.4189,18.0794,8.7,6.853,24.5727,19.8858,28.68,23.263a2.4113,2.4113,0,0,0,2.3168.2732c5.6356-2.3,27.9038-11.3232,40.7877-15.62,12.2688-4.0917,33.0473-10.4392,39.87-12.5131,1.119-.34,1.4437-1.3275.6454-1.9661-5.1949-4.1558-21.8206-17.2782-31.4224-22.7932-10.3758-5.9595-28.953-12.9957-32.4461-14.3a2.5371,2.5371,0,0,0-1.2164-.1275c-3.8147.52-23.7938,3.3712-37.1645,7.83C307.8623,271.7976,288.9249,280.6922,282.8758,283.5814Z" transform="translate(-42.0925 -169.8318)"/><path class="cls-1" d="M147.8758,294.2306a1.0512,1.0512,0,0,0-.1541,1.9784c4.9728,2.9695,19.221,11.6219,27.4189,18.0794,8.7,6.853,24.5727,19.8858,28.68,23.2631a2.4116,2.4116,0,0,0,2.3168.2731c5.6356-2.3,27.9038-11.3231,40.7877-15.62,12.2688-4.0917,33.0473-10.4392,39.87-12.5131,1.119-.34,1.4437-1.3275.6454-1.9661-5.1949-4.1558-21.8206-17.2782-31.4224-22.7932-10.3758-5.96-28.953-12.9957-32.4461-14.3a2.5371,2.5371,0,0,0-1.2164-.1275c-3.8147.52-23.7938,3.3712-37.1645,7.83C172.8623,282.4468,153.9249,291.3415,147.8758,294.2306Z" transform="translate(-42.0925 -169.8318)"/><path class="cls-6" d="M147.8758,292.5814a1.0512,1.0512,0,0,0-.1541,1.9784c4.9728,2.9695,19.221,11.6218,27.4189,18.0794,8.7,6.853,24.5727,19.8858,28.68,23.263a2.4113,2.4113,0,0,0,2.3168.2732c5.6356-2.3,27.9038-11.3232,40.7877-15.62,12.2688-4.0917,33.0473-10.4392,39.87-12.5131,1.119-.34,1.4437-1.3275.6454-1.9661-5.1949-4.1558-21.8206-17.2782-31.4224-22.7932-10.3758-5.9595-28.953-12.9957-32.4461-14.3a2.5371,2.5371,0,0,0-1.2164-.1275c-3.8147.52-23.7938,3.3712-37.1645,7.83C172.8623,280.7976,153.9249,289.6922,147.8758,292.5814Z" transform="translate(-42.0925 -169.8318)"/></g></g></svg>