<svg xmlns="http://www.w3.org/2000/svg" xmlns:xlink="http://www.w3.org/1999/xlink" viewBox="0 0 410 164.9922"><defs><style>.cls-1{fill:url(#linear-gradient);}.cls-2{fill:url(#radial-gradient);}.cls-3{fill:#345c15;}.cls-4{fill:url(#linear-gradient-2);}.cls-5{fill:url(#linear-gradient-3);}.cls-6{fill:url(#linear-gradient-4);}.cls-7{fill:url(#linear-gradient-5);}.cls-8{fill:url(#linear-gradient-6);}.cls-9{fill:url(#linear-gradient-7);}.cls-10{fill:url(#radial-gradient-2);}.cls-11{fill:url(#linear-gradient-8);}.cls-12{fill:url(#linear-gradient-9);}.cls-13{fill:url(#linear-gradient-10);}.cls-14{fill:url(#linear-gradient-11);}.cls-15{fill:url(#linear-gradient-12);}.cls-16{fill:url(#linear-gradient-13);}.cls-17{fill:url(#radial-gradient-3);}.cls-18{fill:url(#linear-gradient-14);}.cls-19{fill:url(#linear-gradient-15);}.cls-20{fill:url(#linear-gradient-16);}.cls-21{fill:url(#linear-gradient-17);}.cls-22{fill:url(#linear-gradient-18);}.cls-23{fill:url(#linear-gradient-19);}.cls-24{fill:url(#radial-gradient-4);}.cls-25{fill:url(#linear-gradient-20);}.cls-26{fill:url(#linear-gradient-21);}.cls-27{fill:url(#linear-gradient-22);}.cls-28{fill:url(#linear-gradient-23);}.cls-29{fill:url(#linear-gradient-24);}.cls-30{fill:url(#linear-gradient-25);}.cls-31{fill:url(#radial-gradient-5);}.cls-32{fill:url(#linear-gradient-26);}.cls-33{fill:url(#linear-gradient-27);}.cls-34{fill:url(#linear-gradient-28);}.cls-35{fill:url(#linear-gradient-29);}.cls-36{fill:url(#linear-gradient-30);}.cls-37{fill:url(#linear-gradient-31);}.cls-38{fill:url(#radial-gradient-6);}.cls-39{fill:url(#linear-gradient-32);}.cls-40{fill:url(#linear-gradient-33);}.cls-41{fill:url(#linear-gradient-34);}.cls-42{fill:url(#linear-gradient-35);}.cls-43{fill:url(#linear-gradient-36);}.cls-44{fill:url(#linear-gradient-37);}.cls-45{fill:url(#radial-gradient-7);}.cls-46{fill:url(#linear-gradient-38);}.cls-47{fill:url(#linear-gradient-39);}.cls-48{fill:url(#linear-gradient-40);}.cls-49{fill:url(#linear-gradient-41);}.cls-50{fill:url(#linear-gradient-42);}.cls-51{fill:url(#linear-gradient-43);}.cls-52{fill:url(#radial-gradient-8);}.cls-53{fill:url(#linear-gradient-44);}.cls-54{fill:url(#linear-gradient-45);}.cls-55{fill:url(#linear-gradient-46);}.cls-56{fill:url(#linear-gradient-47);}.cls-57{fill:url(#linear-gradient-48);}.cls-58{fill:url(#linear-gradient-49);}.cls-59{fill:url(#radial-gradient-9);}.cls-60{fill:url(#linear-gradient-50);}.cls-61{fill:url(#linear-gradient-51);}.cls-62{fill:url(#linear-gradient-52);}.cls-63{fill:url(#linear-gradient-53);}.cls-64{fill:url(#linear-gradient-54);}</style><linearGradient id="linear-gradient" x1="74" y1="242.4084" x2="74" y2="283.4006" gradientUnits="userSpaceOnUse"><stop offset="0" stop-color="#7ea528"/><stop offset="0.518" stop-color="#153202"/></linearGradient><radialGradient id="radial-gradient" cx="94" cy="242.0039" r="38.5799" gradientTransform="translate(18.3673 80.5049) scale(0.5918 0.6307)" gradientUnits="userSpaceOnUse"><stop offset="0" stop-color="#dadba2"/><stop offset="1" stop-color="#3a6f13"/></radialGradient><linearGradient id="linear-gradient-2" x1="88.5296" y1="228.744" x2="88.5296" y2="236.9947" gradientUnits="userSpaceOnUse"><stop offset="0" stop-color="#efdeb3"/><stop offset="1" stop-color="#bfa939"/></linearGradient><linearGradient id="linear-gradient-3" x1="76.6144" y1="230.4175" x2="76.6144" y2="237.6254" xlink:href="#linear-gradient-2"/><linearGradient id="linear-gradient-4" x1="68.3216" y1="223.1644" x2="68.3216" y2="231.8788" xlink:href="#linear-gradient-2"/><linearGradient id="linear-gradient-5" x1="63.0826" y1="231.9489" x2="63.0826" y2="237.8476" xlink:href="#linear-gradient-2"/><linearGradient id="linear-gradient-6" x1="80.8767" y1="233.5759" x2="80.8767" y2="242.3847" xlink:href="#linear-gradient-2"/><linearGradient id="linear-gradient-7" x1="140" y1="302.853" x2="140" y2="343.8452" xlink:href="#linear-gradient"/><radialGradient id="radial-gradient-2" cx="205.5172" cy="337.8375" r="38.5799" xlink:href="#radial-gradient"/><linearGradient id="linear-gradient-8" x1="154.5296" y1="289.1886" x2="154.5296" y2="297.4393" xlink:href="#linear-gradient-2"/><linearGradient id="linear-gradient-9" x1="142.6144" y1="290.8622" x2="142.6144" y2="298.0701" xlink:href="#linear-gradient-2"/><linearGradient id="linear-gradient-10" x1="134.3216" y1="283.6091" x2="134.3216" y2="292.3235" xlink:href="#linear-gradient-2"/><linearGradient id="linear-gradient-11" x1="129.0826" y1="292.3936" x2="129.0826" y2="298.2923" xlink:href="#linear-gradient-2"/><linearGradient id="linear-gradient-12" x1="146.8767" y1="294.0205" x2="146.8767" y2="302.8294" xlink:href="#linear-gradient-2"/><linearGradient id="linear-gradient-13" x1="195" y1="238.853" x2="195" y2="279.8452" xlink:href="#linear-gradient"/><radialGradient id="radial-gradient-3" cx="298.4483" cy="236.367" r="38.5799" xlink:href="#radial-gradient"/><linearGradient id="linear-gradient-14" x1="209.5296" y1="225.1886" x2="209.5296" y2="233.4393" xlink:href="#linear-gradient-2"/><linearGradient id="linear-gradient-15" x1="197.6144" y1="226.8622" x2="197.6144" y2="234.0701" xlink:href="#linear-gradient-2"/><linearGradient id="linear-gradient-16" x1="189.3216" y1="219.6091" x2="189.3216" y2="228.3235" xlink:href="#linear-gradient-2"/><linearGradient id="linear-gradient-17" x1="184.0826" y1="228.3936" x2="184.0826" y2="234.2923" xlink:href="#linear-gradient-2"/><linearGradient id="linear-gradient-18" x1="201.8767" y1="230.0205" x2="201.8767" y2="238.8294" xlink:href="#linear-gradient-2"/><linearGradient id="linear-gradient-19" x1="166" y1="188.853" x2="166" y2="229.8452" xlink:href="#linear-gradient"/><radialGradient id="radial-gradient-4" cx="249.4483" cy="157.0931" r="38.5799" xlink:href="#radial-gradient"/><linearGradient id="linear-gradient-20" x1="180.5296" y1="175.1886" x2="180.5296" y2="183.4393" xlink:href="#linear-gradient-2"/><linearGradient id="linear-gradient-21" x1="168.6144" y1="176.8622" x2="168.6144" y2="184.0701" xlink:href="#linear-gradient-2"/><linearGradient id="linear-gradient-22" x1="160.3216" y1="169.6091" x2="160.3216" y2="178.3235" xlink:href="#linear-gradient-2"/><linearGradient id="linear-gradient-23" x1="155.0826" y1="178.3936" x2="155.0826" y2="184.2923" xlink:href="#linear-gradient-2"/><linearGradient id="linear-gradient-24" x1="172.8767" y1="180.0205" x2="172.8767" y2="188.8294" xlink:href="#linear-gradient-2"/><linearGradient id="linear-gradient-25" x1="280" y1="312.853" x2="280" y2="353.8452" xlink:href="#linear-gradient"/><radialGradient id="radial-gradient-5" cx="442.069" cy="353.6923" r="38.5799" xlink:href="#radial-gradient"/><linearGradient id="linear-gradient-26" x1="294.5296" y1="299.1886" x2="294.5296" y2="307.4393" xlink:href="#linear-gradient-2"/><linearGradient id="linear-gradient-27" x1="282.6144" y1="300.8622" x2="282.6144" y2="308.0701" xlink:href="#linear-gradient-2"/><linearGradient id="linear-gradient-28" x1="274.3216" y1="293.6091" x2="274.3216" y2="302.3235" xlink:href="#linear-gradient-2"/><linearGradient id="linear-gradient-29" x1="269.0826" y1="302.3936" x2="269.0826" y2="308.2923" xlink:href="#linear-gradient-2"/><linearGradient id="linear-gradient-30" x1="286.8767" y1="304.0205" x2="286.8767" y2="312.8294" xlink:href="#linear-gradient-2"/><linearGradient id="linear-gradient-31" x1="287" y1="244.853" x2="287" y2="285.8452" xlink:href="#linear-gradient"/><radialGradient id="radial-gradient-6" cx="453.8966" cy="245.8798" r="38.5799" xlink:href="#radial-gradient"/><linearGradient id="linear-gradient-32" x1="301.5296" y1="231.1886" x2="301.5296" y2="239.4393" xlink:href="#linear-gradient-2"/><linearGradient id="linear-gradient-33" x1="289.6144" y1="232.8622" x2="289.6144" y2="240.0701" xlink:href="#linear-gradient-2"/><linearGradient id="linear-gradient-34" x1="281.3216" y1="225.6091" x2="281.3216" y2="234.3235" xlink:href="#linear-gradient-2"/><linearGradient id="linear-gradient-35" x1="276.0826" y1="234.3936" x2="276.0826" y2="240.2923" xlink:href="#linear-gradient-2"/><linearGradient id="linear-gradient-36" x1="293.8767" y1="236.0205" x2="293.8767" y2="244.8294" xlink:href="#linear-gradient-2"/><linearGradient id="linear-gradient-37" x1="385" y1="293.853" x2="385" y2="334.8452" xlink:href="#linear-gradient"/><radialGradient id="radial-gradient-7" cx="619.4828" cy="323.5682" r="38.5799" xlink:href="#radial-gradient"/><linearGradient id="linear-gradient-38" x1="399.5296" y1="280.1886" x2="399.5296" y2="288.4393" xlink:href="#linear-gradient-2"/><linearGradient id="linear-gradient-39" x1="387.6144" y1="281.8622" x2="387.6144" y2="289.0701" xlink:href="#linear-gradient-2"/><linearGradient id="linear-gradient-40" x1="379.3216" y1="274.6091" x2="379.3216" y2="283.3235" xlink:href="#linear-gradient-2"/><linearGradient id="linear-gradient-41" x1="374.0826" y1="283.3936" x2="374.0826" y2="289.2923" xlink:href="#linear-gradient-2"/><linearGradient id="linear-gradient-42" x1="391.8767" y1="285.0205" x2="391.8767" y2="293.8294" xlink:href="#linear-gradient-2"/><linearGradient id="linear-gradient-43" x1="426" y1="237.853" x2="426" y2="278.8452" xlink:href="#linear-gradient"/><radialGradient id="radial-gradient-8" cx="688.7586" cy="234.7815" r="38.5799" xlink:href="#radial-gradient"/><linearGradient id="linear-gradient-44" x1="440.5296" y1="224.1886" x2="440.5296" y2="232.4393" xlink:href="#linear-gradient-2"/><linearGradient id="linear-gradient-45" x1="428.6144" y1="225.8622" x2="428.6144" y2="233.0701" xlink:href="#linear-gradient-2"/><linearGradient id="linear-gradient-46" x1="420.3216" y1="218.6091" x2="420.3216" y2="227.3235" xlink:href="#linear-gradient-2"/><linearGradient id="linear-gradient-47" x1="415.0826" y1="227.3936" x2="415.0826" y2="233.2923" xlink:href="#linear-gradient-2"/><linearGradient id="linear-gradient-48" x1="432.8767" y1="229.0205" x2="432.8767" y2="237.8294" xlink:href="#linear-gradient-2"/><linearGradient id="linear-gradient-49" x1="338" y1="194.853" x2="338" y2="235.8452" xlink:href="#linear-gradient"/><radialGradient id="radial-gradient-9" cx="540.069" cy="166.606" r="38.5799" xlink:href="#radial-gradient"/><linearGradient id="linear-gradient-50" x1="352.5296" y1="181.1886" x2="352.5296" y2="189.4393" xlink:href="#linear-gradient-2"/><linearGradient id="linear-gradient-51" x1="340.6144" y1="182.8622" x2="340.6144" y2="190.0701" xlink:href="#linear-gradient-2"/><linearGradient id="linear-gradient-52" x1="332.3216" y1="175.6091" x2="332.3216" y2="184.3235" xlink:href="#linear-gradient-2"/><linearGradient id="linear-gradient-53" x1="327.0826" y1="184.3936" x2="327.0826" y2="190.2923" xlink:href="#linear-gradient-2"/><linearGradient id="linear-gradient-54" x1="344.8767" y1="186.0205" x2="344.8767" y2="194.8294" xlink:href="#linear-gradient-2"/></defs><title>chili</title><g id="jalapeno"><g id="multiple"><path class="cls-1" d="M74.5918,259c23.0817,0,27.2245-10.0916,27.2245-10.0916L103,233.771s0-6.938-8.8776-11.9838c-9.5864-5.4487-29.5918-4.415-37.8775-.6307A23.008,23.008,0,0,0,45,232.51l1.1837,13.8759S55.0523,259,74.5918,259Z" transform="translate(-45 -164.4525)"/><path class="cls-2" d="M94.1224,221.7872c-9.5864-5.4487-29.5918-4.415-37.8775-.6307A23.008,23.008,0,0,0,45,232.51l.069.8085c.4314,3.218,3.58,14.96,26.5637,14.96C98.2653,248.2777,103,233.771,103,233.771S103,226.833,94.1224,221.7872Z" transform="translate(-45 -164.4525)"/><path class="cls-3" d="M74,223.6794c-2.3673-2.5229-11.8367-2.5229-18.3469,4.4151s1.5393,11.5624,4.1428,10.7223c2.1052-.6793,4.1429-5.6765,6.51-6.3072s8.2857-.6308,9.4694,1.8921-4.5766,4.9347-4.1428,6.938c.9647,4.4557,11.2449,2.5229,17.1632,0s4.1429-11.353.5919-13.2452c-3.0867-1.6447-6.51-.6307-7.6939,2.5229s-10.6531-.6307-10.0612-2.5229S74.987,224.7313,74,223.6794Z" transform="translate(-45 -164.4525)"/><path class="cls-4" d="M89.3878,231.8788c-1.7072-1.3644-1.7756-5.0458-2.9592-1.8921a5.7535,5.7535,0,0,0,2.9592,6.9379C91.1633,237.5554,91.7551,233.771,89.3878,231.8788Z" transform="translate(-45 -164.4525)"/><path class="cls-5" d="M78.1429,230.6174a4.7055,4.7055,0,0,0-5.3266,1.8922,4.2532,4.2532,0,0,1,2.3674,3.1536c.5918,2.5229.5918,1.8922.5918,1.8922h2.9592S82.8776,231.8788,78.1429,230.6174Z" transform="translate(-45 -164.4525)"/><path class="cls-6" d="M71.6327,224.9409c-1.28-1.8193-2.3674-.6308-4.1429-1.2615s-2.9592-1.2614-2.9592,1.8922.5918,6.3072,2.9592,6.3072S73.4082,227.4638,71.6327,224.9409Z" transform="translate(-45 -164.4525)"/><path class="cls-7" d="M65.7143,232.51s-2.3674-1.2615-4.1429,0-1.1836,3.7843,0,5.0458,1.1837-1.8922,2.3674-3.1537Z" transform="translate(-45 -164.4525)"/><path class="cls-8" d="M81.6939,241.34c2.5109-1.784,5.3265-3.7843,2.9592-6.3072a4.3957,4.3957,0,0,0-6.51,0c-1.1837,1.2614-2.9592,6.3072-1.1837,6.9379A4.4009,4.4009,0,0,0,81.6939,241.34Z" transform="translate(-45 -164.4525)"/><path class="cls-9" d="M140.5918,319.4446c23.0817,0,27.2245-10.0916,27.2245-10.0916L169,294.2157s0-6.938-8.8776-11.9838c-9.5864-5.4488-29.5918-4.4151-37.8775-.6307A23.0076,23.0076,0,0,0,111,292.9542l1.1837,13.8759S121.0523,319.4446,140.5918,319.4446Z" transform="translate(-45 -164.4525)"/><path class="cls-10" d="M160.1224,282.2319c-9.5864-5.4488-29.5918-4.4151-37.8775-.6307A23.0076,23.0076,0,0,0,111,292.9542l.069.8085c.4314,3.218,3.58,14.96,26.5637,14.96,26.6326,0,31.3673-14.5066,31.3673-14.5066S169,287.2777,160.1224,282.2319Z" transform="translate(-45 -164.4525)"/><path class="cls-3" d="M140,284.1241c-2.3673-2.5229-11.8367-2.5229-18.3469,4.415s1.5393,11.5624,4.1428,10.7223c2.1052-.6792,4.1429-5.6765,6.51-6.3072s8.2857-.6307,9.4694,1.8922-4.5766,4.9347-4.1428,6.9379c.9647,4.4557,11.2449,2.5229,17.1632,0s4.1429-11.353.5919-13.2452c-3.0867-1.6447-6.51-.6307-7.6939,2.5229s-10.6531-.6307-10.0612-2.5229S140.987,285.1759,140,284.1241Z" transform="translate(-45 -164.4525)"/><path class="cls-11" d="M155.3878,292.3235c-1.7072-1.3645-1.7756-5.0458-2.9592-1.8922a5.7536,5.7536,0,0,0,2.9592,6.938C157.1633,298,157.7551,294.2157,155.3878,292.3235Z" transform="translate(-45 -164.4525)"/><path class="cls-12" d="M144.1429,291.062a4.7055,4.7055,0,0,0-5.3266,1.8922,4.2532,4.2532,0,0,1,2.3674,3.1536c.5918,2.5229.5918,1.8922.5918,1.8922h2.9592S148.8776,292.3235,144.1429,291.062Z" transform="translate(-45 -164.4525)"/><path class="cls-13" d="M137.6327,285.3855c-1.28-1.8193-2.3674-.6307-4.1429-1.2614s-2.9592-1.2615-2.9592,1.8921.5918,6.3073,2.9592,6.3073S139.4082,287.9084,137.6327,285.3855Z" transform="translate(-45 -164.4525)"/><path class="cls-14" d="M131.7143,292.9542s-2.3674-1.2614-4.1429,0-1.1836,3.7844,0,5.0458,1.1837-1.8922,2.3674-3.1536Z" transform="translate(-45 -164.4525)"/><path class="cls-15" d="M147.6939,301.7843C150.2048,300,153.02,298,150.6531,295.4771a4.3958,4.3958,0,0,0-6.51,0c-1.1837,1.2615-2.9592,6.3072-1.1837,6.938A4.4011,4.4011,0,0,0,147.6939,301.7843Z" transform="translate(-45 -164.4525)"/><path class="cls-16" d="M195.5918,255.4446c23.0817,0,27.2245-10.0916,27.2245-10.0916L224,230.2157s0-6.938-8.8776-11.9838c-9.5864-5.4488-29.5918-4.4151-37.8775-.6307A23.0076,23.0076,0,0,0,166,228.9542l1.1837,13.8759S176.0523,255.4446,195.5918,255.4446Z" transform="translate(-45 -164.4525)"/><path class="cls-17" d="M215.1224,218.2319c-9.5864-5.4488-29.5918-4.4151-37.8775-.6307A23.0076,23.0076,0,0,0,166,228.9542l.069.8085c.4314,3.218,3.58,14.96,26.5637,14.96,26.6326,0,31.3673-14.5066,31.3673-14.5066S224,223.2777,215.1224,218.2319Z" transform="translate(-45 -164.4525)"/><path class="cls-3" d="M195,220.1241c-2.3673-2.5229-11.8367-2.5229-18.3469,4.415s1.5393,11.5624,4.1428,10.7223c2.1052-.6792,4.1429-5.6765,6.51-6.3072s8.2857-.6307,9.4694,1.8922-4.5766,4.9347-4.1428,6.9379c.9647,4.4557,11.2449,2.5229,17.1632,0s4.1429-11.353.5919-13.2452c-3.0867-1.6447-6.51-.6307-7.6939,2.5229s-10.6531-.6307-10.0612-2.5229S195.987,221.1759,195,220.1241Z" transform="translate(-45 -164.4525)"/><path class="cls-18" d="M210.3878,228.3235c-1.7072-1.3645-1.7756-5.0458-2.9592-1.8922a5.7536,5.7536,0,0,0,2.9592,6.938C212.1633,234,212.7551,230.2157,210.3878,228.3235Z" transform="translate(-45 -164.4525)"/><path class="cls-19" d="M199.1429,227.062a4.7055,4.7055,0,0,0-5.3266,1.8922,4.2532,4.2532,0,0,1,2.3674,3.1536c.5918,2.5229.5918,1.8922.5918,1.8922h2.9592S203.8776,228.3235,199.1429,227.062Z" transform="translate(-45 -164.4525)"/><path class="cls-20" d="M192.6327,221.3855c-1.28-1.8193-2.3674-.6307-4.1429-1.2614s-2.9592-1.2615-2.9592,1.8921.5918,6.3073,2.9592,6.3073S194.4082,223.9084,192.6327,221.3855Z" transform="translate(-45 -164.4525)"/><path class="cls-21" d="M186.7143,228.9542s-2.3674-1.2614-4.1429,0-1.1836,3.7844,0,5.0458,1.1837-1.8922,2.3674-3.1536Z" transform="translate(-45 -164.4525)"/><path class="cls-22" d="M202.6939,237.7843C205.2048,236,208.02,234,205.6531,231.4771a4.3958,4.3958,0,0,0-6.51,0c-1.1837,1.2615-2.9592,6.3072-1.1837,6.938A4.4011,4.4011,0,0,0,202.6939,237.7843Z" transform="translate(-45 -164.4525)"/><path class="cls-23" d="M166.5918,205.4446c23.0817,0,27.2245-10.0916,27.2245-10.0916L195,180.2157s0-6.938-8.8776-11.9838c-9.5864-5.4488-29.5918-4.4151-37.8775-.6307A23.0076,23.0076,0,0,0,137,178.9542l1.1837,13.8759S147.0523,205.4446,166.5918,205.4446Z" transform="translate(-45 -164.4525)"/><path class="cls-24" d="M186.1224,168.2319c-9.5864-5.4488-29.5918-4.4151-37.8775-.6307A23.0076,23.0076,0,0,0,137,178.9542l.069.8085c.4314,3.218,3.58,14.96,26.5637,14.96,26.6326,0,31.3673-14.5066,31.3673-14.5066S195,173.2777,186.1224,168.2319Z" transform="translate(-45 -164.4525)"/><path class="cls-3" d="M166,170.1241c-2.3673-2.5229-11.8367-2.5229-18.3469,4.415s1.5393,11.5624,4.1428,10.7223c2.1052-.6792,4.1429-5.6765,6.51-6.3072s8.2857-.6307,9.4694,1.8922-4.5766,4.9347-4.1428,6.9379c.9647,4.4557,11.2449,2.5229,17.1632,0s4.1429-11.353.5919-13.2452c-3.0867-1.6447-6.51-.6307-7.6939,2.5229s-10.6531-.6307-10.0612-2.5229S166.987,171.1759,166,170.1241Z" transform="translate(-45 -164.4525)"/><path class="cls-25" d="M181.3878,178.3235c-1.7072-1.3645-1.7756-5.0458-2.9592-1.8922a5.7536,5.7536,0,0,0,2.9592,6.938C183.1633,184,183.7551,180.2157,181.3878,178.3235Z" transform="translate(-45 -164.4525)"/><path class="cls-26" d="M170.1429,177.062a4.7055,4.7055,0,0,0-5.3266,1.8922,4.2532,4.2532,0,0,1,2.3674,3.1536c.5918,2.5229.5918,1.8922.5918,1.8922h2.9592S174.8776,178.3235,170.1429,177.062Z" transform="translate(-45 -164.4525)"/><path class="cls-27" d="M163.6327,171.3855c-1.28-1.8193-2.3674-.6307-4.1429-1.2614s-2.9592-1.2615-2.9592,1.8921.5918,6.3073,2.9592,6.3073S165.4082,173.9084,163.6327,171.3855Z" transform="translate(-45 -164.4525)"/><path class="cls-28" d="M157.7143,178.9542s-2.3674-1.2614-4.1429,0-1.1836,3.7844,0,5.0458,1.1837-1.8922,2.3674-3.1536Z" transform="translate(-45 -164.4525)"/><path class="cls-29" d="M173.6939,187.7843C176.2048,186,179.02,184,176.6531,181.4771a4.3958,4.3958,0,0,0-6.51,0c-1.1837,1.2615-2.9592,6.3072-1.1837,6.938A4.4011,4.4011,0,0,0,173.6939,187.7843Z" transform="translate(-45 -164.4525)"/><path class="cls-30" d="M280.5918,329.4446c23.0817,0,27.2245-10.0916,27.2245-10.0916L309,304.2157s0-6.938-8.8776-11.9838c-9.5864-5.4488-29.5918-4.4151-37.8775-.6307A23.0076,23.0076,0,0,0,251,302.9542l1.1837,13.8759S261.0523,329.4446,280.5918,329.4446Z" transform="translate(-45 -164.4525)"/><path class="cls-31" d="M300.1224,292.2319c-9.5864-5.4488-29.5918-4.4151-37.8775-.6307A23.0076,23.0076,0,0,0,251,302.9542l.069.8085c.4314,3.218,3.58,14.96,26.5637,14.96,26.6326,0,31.3673-14.5066,31.3673-14.5066S309,297.2777,300.1224,292.2319Z" transform="translate(-45 -164.4525)"/><path class="cls-3" d="M280,294.1241c-2.3673-2.5229-11.8367-2.5229-18.3469,4.415s1.5393,11.5624,4.1428,10.7223c2.1052-.6792,4.1429-5.6765,6.51-6.3072s8.2857-.6307,9.4694,1.8922-4.5766,4.9347-4.1428,6.9379c.9647,4.4557,11.2449,2.5229,17.1632,0s4.1429-11.353.5919-13.2452c-3.0867-1.6447-6.51-.6307-7.6939,2.5229s-10.6531-.6307-10.0612-2.5229S280.987,295.1759,280,294.1241Z" transform="translate(-45 -164.4525)"/><path class="cls-32" d="M295.3878,302.3235c-1.7072-1.3645-1.7756-5.0458-2.9592-1.8922a5.7536,5.7536,0,0,0,2.9592,6.938C297.1633,308,297.7551,304.2157,295.3878,302.3235Z" transform="translate(-45 -164.4525)"/><path class="cls-33" d="M284.1429,301.062a4.7055,4.7055,0,0,0-5.3266,1.8922,4.2532,4.2532,0,0,1,2.3674,3.1536c.5918,2.5229.5918,1.8922.5918,1.8922h2.9592S288.8776,302.3235,284.1429,301.062Z" transform="translate(-45 -164.4525)"/><path class="cls-34" d="M277.6327,295.3855c-1.28-1.8193-2.3674-.6307-4.1429-1.2614s-2.9592-1.2615-2.9592,1.8921.5918,6.3073,2.9592,6.3073S279.4082,297.9084,277.6327,295.3855Z" transform="translate(-45 -164.4525)"/><path class="cls-35" d="M271.7143,302.9542s-2.3674-1.2614-4.1429,0-1.1836,3.7844,0,5.0458,1.1837-1.8922,2.3674-3.1536Z" transform="translate(-45 -164.4525)"/><path class="cls-36" d="M287.6939,311.7843C290.2048,310,293.02,308,290.6531,305.4771a4.3958,4.3958,0,0,0-6.51,0c-1.1837,1.2615-2.9592,6.3072-1.1837,6.938A4.4011,4.4011,0,0,0,287.6939,311.7843Z" transform="translate(-45 -164.4525)"/><path class="cls-37" d="M287.5918,261.4446c23.0817,0,27.2245-10.0916,27.2245-10.0916L316,236.2157s0-6.938-8.8776-11.9838c-9.5864-5.4488-29.5918-4.4151-37.8775-.6307A23.0076,23.0076,0,0,0,258,234.9542l1.1837,13.8759S268.0523,261.4446,287.5918,261.4446Z" transform="translate(-45 -164.4525)"/><path class="cls-38" d="M307.1224,224.2319c-9.5864-5.4488-29.5918-4.4151-37.8775-.6307A23.0076,23.0076,0,0,0,258,234.9542l.069.8085c.4314,3.218,3.58,14.96,26.5637,14.96,26.6326,0,31.3673-14.5066,31.3673-14.5066S316,229.2777,307.1224,224.2319Z" transform="translate(-45 -164.4525)"/><path class="cls-3" d="M287,226.1241c-2.3673-2.5229-11.8367-2.5229-18.3469,4.415s1.5393,11.5624,4.1428,10.7223c2.1052-.6792,4.1429-5.6765,6.51-6.3072s8.2857-.6307,9.4694,1.8922-4.5766,4.9347-4.1428,6.9379c.9647,4.4557,11.2449,2.5229,17.1632,0s4.1429-11.353.5919-13.2452c-3.0867-1.6447-6.51-.6307-7.6939,2.5229s-10.6531-.6307-10.0612-2.5229S287.987,227.1759,287,226.1241Z" transform="translate(-45 -164.4525)"/><path class="cls-39" d="M302.3878,234.3235c-1.7072-1.3645-1.7756-5.0458-2.9592-1.8922a5.7536,5.7536,0,0,0,2.9592,6.938C304.1633,240,304.7551,236.2157,302.3878,234.3235Z" transform="translate(-45 -164.4525)"/><path class="cls-40" d="M291.1429,233.062a4.7055,4.7055,0,0,0-5.3266,1.8922,4.2532,4.2532,0,0,1,2.3674,3.1536c.5918,2.5229.5918,1.8922.5918,1.8922h2.9592S295.8776,234.3235,291.1429,233.062Z" transform="translate(-45 -164.4525)"/><path class="cls-41" d="M284.6327,227.3855c-1.28-1.8193-2.3674-.6307-4.1429-1.2614s-2.9592-1.2615-2.9592,1.8921.5918,6.3073,2.9592,6.3073S286.4082,229.9084,284.6327,227.3855Z" transform="translate(-45 -164.4525)"/><path class="cls-42" d="M278.7143,234.9542s-2.3674-1.2614-4.1429,0-1.1836,3.7844,0,5.0458,1.1837-1.8922,2.3674-3.1536Z" transform="translate(-45 -164.4525)"/><path class="cls-43" d="M294.6939,243.7843C297.2048,242,300.02,240,297.6531,237.4771a4.3958,4.3958,0,0,0-6.51,0c-1.1837,1.2615-2.9592,6.3072-1.1837,6.938A4.4011,4.4011,0,0,0,294.6939,243.7843Z" transform="translate(-45 -164.4525)"/><path class="cls-44" d="M385.5918,310.4446c23.0817,0,27.2245-10.0916,27.2245-10.0916L414,285.2157s0-6.938-8.8776-11.9838c-9.5864-5.4488-29.5918-4.4151-37.8775-.6307A23.0076,23.0076,0,0,0,356,283.9542l1.1837,13.8759S366.0523,310.4446,385.5918,310.4446Z" transform="translate(-45 -164.4525)"/><path class="cls-45" d="M405.1224,273.2319c-9.5864-5.4488-29.5918-4.4151-37.8775-.6307A23.0076,23.0076,0,0,0,356,283.9542l.069.8085c.4314,3.218,3.58,14.96,26.5637,14.96,26.6326,0,31.3673-14.5066,31.3673-14.5066S414,278.2777,405.1224,273.2319Z" transform="translate(-45 -164.4525)"/><path class="cls-3" d="M385,275.1241c-2.3673-2.5229-11.8367-2.5229-18.3469,4.415s1.5393,11.5624,4.1428,10.7223c2.1052-.6792,4.1429-5.6765,6.51-6.3072s8.2857-.6307,9.4694,1.8922-4.5766,4.9347-4.1428,6.9379c.9647,4.4557,11.2449,2.5229,17.1632,0s4.1429-11.353.5919-13.2452c-3.0867-1.6447-6.51-.6307-7.6939,2.5229s-10.6531-.6307-10.0612-2.5229S385.987,276.1759,385,275.1241Z" transform="translate(-45 -164.4525)"/><path class="cls-46" d="M400.3878,283.3235c-1.7072-1.3645-1.7756-5.0458-2.9592-1.8922a5.7536,5.7536,0,0,0,2.9592,6.938C402.1633,289,402.7551,285.2157,400.3878,283.3235Z" transform="translate(-45 -164.4525)"/><path class="cls-47" d="M389.1429,282.062a4.7055,4.7055,0,0,0-5.3266,1.8922,4.2532,4.2532,0,0,1,2.3674,3.1536c.5918,2.5229.5918,1.8922.5918,1.8922h2.9592S393.8776,283.3235,389.1429,282.062Z" transform="translate(-45 -164.4525)"/><path class="cls-48" d="M382.6327,276.3855c-1.28-1.8193-2.3674-.6307-4.1429-1.2614s-2.9592-1.2615-2.9592,1.8921.5918,6.3073,2.9592,6.3073S384.4082,278.9084,382.6327,276.3855Z" transform="translate(-45 -164.4525)"/><path class="cls-49" d="M376.7143,283.9542s-2.3674-1.2614-4.1429,0-1.1836,3.7844,0,5.0458,1.1837-1.8922,2.3674-3.1536Z" transform="translate(-45 -164.4525)"/><path class="cls-50" d="M392.6939,292.7843C395.2048,291,398.02,289,395.6531,286.4771a4.3958,4.3958,0,0,0-6.51,0c-1.1837,1.2615-2.9592,6.3072-1.1837,6.938A4.4011,4.4011,0,0,0,392.6939,292.7843Z" transform="translate(-45 -164.4525)"/><path class="cls-51" d="M426.5918,254.4446c23.0817,0,27.2245-10.0916,27.2245-10.0916L455,229.2157s0-6.938-8.8776-11.9838c-9.5864-5.4488-29.5918-4.4151-37.8775-.6307A23.0076,23.0076,0,0,0,397,227.9542l1.1837,13.8759S407.0523,254.4446,426.5918,254.4446Z" transform="translate(-45 -164.4525)"/><path class="cls-52" d="M446.1224,217.2319c-9.5864-5.4488-29.5918-4.4151-37.8775-.6307A23.0076,23.0076,0,0,0,397,227.9542l.069.8085c.4314,3.218,3.58,14.96,26.5637,14.96,26.6326,0,31.3673-14.5066,31.3673-14.5066S455,222.2777,446.1224,217.2319Z" transform="translate(-45 -164.4525)"/><path class="cls-3" d="M426,219.1241c-2.3673-2.5229-11.8367-2.5229-18.3469,4.415s1.5393,11.5624,4.1428,10.7223c2.1052-.6792,4.1429-5.6765,6.51-6.3072s8.2857-.6307,9.4694,1.8922-4.5766,4.9347-4.1428,6.9379c.9647,4.4557,11.2449,2.5229,17.1632,0s4.1429-11.353.5919-13.2452c-3.0867-1.6447-6.51-.6307-7.6939,2.5229s-10.6531-.6307-10.0612-2.5229S426.987,220.1759,426,219.1241Z" transform="translate(-45 -164.4525)"/><path class="cls-53" d="M441.3878,227.3235c-1.7072-1.3645-1.7756-5.0458-2.9592-1.8922a5.7536,5.7536,0,0,0,2.9592,6.938C443.1633,233,443.7551,229.2157,441.3878,227.3235Z" transform="translate(-45 -164.4525)"/><path class="cls-54" d="M430.1429,226.062a4.7055,4.7055,0,0,0-5.3266,1.8922,4.2532,4.2532,0,0,1,2.3674,3.1536c.5918,2.5229.5918,1.8922.5918,1.8922h2.9592S434.8776,227.3235,430.1429,226.062Z" transform="translate(-45 -164.4525)"/><path class="cls-55" d="M423.6327,220.3855c-1.28-1.8193-2.3674-.6307-4.1429-1.2614s-2.9592-1.2615-2.9592,1.8921.5918,6.3073,2.9592,6.3073S425.4082,222.9084,423.6327,220.3855Z" transform="translate(-45 -164.4525)"/><path class="cls-56" d="M417.7143,227.9542s-2.3674-1.2614-4.1429,0-1.1836,3.7844,0,5.0458,1.1837-1.8922,2.3674-3.1536Z" transform="translate(-45 -164.4525)"/><path class="cls-57" d="M433.6939,236.7843C436.2048,235,439.02,233,436.6531,230.4771a4.3958,4.3958,0,0,0-6.51,0c-1.1837,1.2615-2.9592,6.3072-1.1837,6.938A4.4011,4.4011,0,0,0,433.6939,236.7843Z" transform="translate(-45 -164.4525)"/><path class="cls-58" d="M338.5918,211.4446c23.0817,0,27.2245-10.0916,27.2245-10.0916L367,186.2157s0-6.938-8.8776-11.9838c-9.5864-5.4488-29.5918-4.4151-37.8775-.6307A23.0076,23.0076,0,0,0,309,184.9542l1.1837,13.8759S319.0523,211.4446,338.5918,211.4446Z" transform="translate(-45 -164.4525)"/><path class="cls-59" d="M358.1224,174.2319c-9.5864-5.4488-29.5918-4.4151-37.8775-.6307A23.0076,23.0076,0,0,0,309,184.9542l.069.8085c.4314,3.218,3.58,14.96,26.5637,14.96,26.6326,0,31.3673-14.5066,31.3673-14.5066S367,179.2777,358.1224,174.2319Z" transform="translate(-45 -164.4525)"/><path class="cls-3" d="M338,176.1241c-2.3673-2.5229-11.8367-2.5229-18.3469,4.415s1.5393,11.5624,4.1428,10.7223c2.1052-.6792,4.1429-5.6765,6.51-6.3072s8.2857-.6307,9.4694,1.8922-4.5766,4.9347-4.1428,6.9379c.9647,4.4557,11.2449,2.5229,17.1632,0s4.1429-11.353.5919-13.2452c-3.0867-1.6447-6.51-.6307-7.6939,2.5229s-10.6531-.6307-10.0612-2.5229S338.987,177.1759,338,176.1241Z" transform="translate(-45 -164.4525)"/><path class="cls-60" d="M353.3878,184.3235c-1.7072-1.3645-1.7756-5.0458-2.9592-1.8922a5.7536,5.7536,0,0,0,2.9592,6.938C355.1633,190,355.7551,186.2157,353.3878,184.3235Z" transform="translate(-45 -164.4525)"/><path class="cls-61" d="M342.1429,183.062a4.7055,4.7055,0,0,0-5.3266,1.8922,4.2532,4.2532,0,0,1,2.3674,3.1536c.5918,2.5229.5918,1.8922.5918,1.8922h2.9592S346.8776,184.3235,342.1429,183.062Z" transform="translate(-45 -164.4525)"/><path class="cls-62" d="M335.6327,177.3855c-1.28-1.8193-2.3674-.6307-4.1429-1.2614s-2.9592-1.2615-2.9592,1.8921.5918,6.3073,2.9592,6.3073S337.4082,179.9084,335.6327,177.3855Z" transform="translate(-45 -164.4525)"/><path class="cls-63" d="M329.7143,184.9542s-2.3674-1.2614-4.1429,0-1.1836,3.7844,0,5.0458,1.1837-1.8922,2.3674-3.1536Z" transform="translate(-45 -164.4525)"/><path class="cls-64" d="M345.6939,193.7843C348.2048,192,351.02,190,348.6531,187.4771a4.3958,4.3958,0,0,0-6.51,0c-1.1837,1.2615-2.9592,6.3072-1.1837,6.938A4.4011,4.4011,0,0,0,345.6939,193.7843Z" transform="translate(-45 -164.4525)"/></g></g></svg>