<svg xmlns="http://www.w3.org/2000/svg" xmlns:xlink="http://www.w3.org/1999/xlink" viewBox="0 0 415.9361 162.4294"><defs><style>.cls-1{fill:url(#linear-gradient);}.cls-2{fill:url(#linear-gradient-2);}.cls-3{fill:url(#linear-gradient-3);}.cls-4{fill:url(#linear-gradient-4);}.cls-5{fill:url(#linear-gradient-5);}.cls-6{fill:#f9df7e;}.cls-7{fill:url(#linear-gradient-6);}.cls-8{fill:url(#linear-gradient-7);}.cls-9{fill:url(#linear-gradient-8);}.cls-10{fill:url(#linear-gradient-9);}.cls-11{fill:url(#linear-gradient-10);}.cls-12{fill:url(#linear-gradient-11);}.cls-13{fill:url(#linear-gradient-12);}.cls-14{fill:url(#linear-gradient-13);}.cls-15{fill:url(#linear-gradient-14);}.cls-16{fill:url(#linear-gradient-15);}.cls-17{fill:url(#linear-gradient-16);}.cls-18{fill:url(#linear-gradient-17);}.cls-19{fill:url(#linear-gradient-18);}.cls-20{fill:url(#linear-gradient-19);}.cls-21{fill:url(#linear-gradient-20);}.cls-22{fill:url(#linear-gradient-21);}.cls-23{fill:url(#linear-gradient-22);}.cls-24{fill:url(#linear-gradient-23);}.cls-25{fill:url(#linear-gradient-24);}</style><linearGradient id="linear-gradient" x1="103.9769" y1="243.877" x2="122.5827" y2="259.4891" gradientUnits="userSpaceOnUse"><stop offset="0" stop-color="#f5d775"/><stop offset="1" stop-color="#f19f00"/></linearGradient><linearGradient id="linear-gradient-2" x1="134.1188" y1="283.304" x2="146.7784" y2="303.5636" xlink:href="#linear-gradient"/><linearGradient id="linear-gradient-3" x1="77.8993" y1="255.2502" x2="79.0562" y2="277.3257" gradientUnits="userSpaceOnUse"><stop offset="0" stop-color="#f5d775"/><stop offset="0.863" stop-color="#f19f00"/></linearGradient><linearGradient id="linear-gradient-4" x1="66.4644" y1="217.4455" x2="79.2744" y2="244.9164" xlink:href="#linear-gradient"/><linearGradient id="linear-gradient-5" x1="109.0528" y1="205.167" x2="136.8914" y2="205.167" xlink:href="#linear-gradient"/><linearGradient id="linear-gradient-6" x1="213.9769" y1="228.877" x2="232.5827" y2="244.4891" xlink:href="#linear-gradient"/><linearGradient id="linear-gradient-7" x1="263.1188" y1="196.304" x2="275.7784" y2="216.5636" xlink:href="#linear-gradient"/><linearGradient id="linear-gradient-8" x1="177.8993" y1="282.2502" x2="179.0562" y2="304.3257" xlink:href="#linear-gradient-3"/><linearGradient id="linear-gradient-9" x1="166.4644" y1="244.4455" x2="179.2744" y2="271.9164" xlink:href="#linear-gradient"/><linearGradient id="linear-gradient-10" x1="201.0528" y1="191.167" x2="228.8914" y2="191.167" xlink:href="#linear-gradient"/><linearGradient id="linear-gradient-11" x1="286.1188" y1="313.304" x2="298.7784" y2="333.5636" xlink:href="#linear-gradient"/><linearGradient id="linear-gradient-12" x1="177.8993" y1="180.2502" x2="179.0562" y2="202.3257" xlink:href="#linear-gradient-3"/><linearGradient id="linear-gradient-13" x1="335.4644" y1="296.4455" x2="348.2744" y2="323.9164" xlink:href="#linear-gradient"/><linearGradient id="linear-gradient-14" x1="295.9769" y1="277.877" x2="314.5827" y2="293.4891" xlink:href="#linear-gradient"/><linearGradient id="linear-gradient-15" x1="167.1188" y1="214.304" x2="179.7784" y2="234.5636" xlink:href="#linear-gradient"/><linearGradient id="linear-gradient-16" x1="226.8993" y1="280.2502" x2="228.0562" y2="302.3257" xlink:href="#linear-gradient-3"/><linearGradient id="linear-gradient-17" x1="232.4644" y1="314.4455" x2="245.2744" y2="341.9164" xlink:href="#linear-gradient"/><linearGradient id="linear-gradient-18" x1="301.0528" y1="239.167" x2="328.8914" y2="239.167" xlink:href="#linear-gradient"/><linearGradient id="linear-gradient-19" x1="447.4644" y1="248.4455" x2="460.2744" y2="275.9164" xlink:href="#linear-gradient"/><linearGradient id="linear-gradient-20" x1="394.9769" y1="257.877" x2="413.5827" y2="273.4891" xlink:href="#linear-gradient"/><linearGradient id="linear-gradient-21" x1="360.1188" y1="211.304" x2="372.7784" y2="231.5636" xlink:href="#linear-gradient"/><linearGradient id="linear-gradient-22" x1="368.8993" y1="269.2502" x2="370.0562" y2="291.3257" xlink:href="#linear-gradient-3"/><linearGradient id="linear-gradient-23" x1="318.4644" y1="184.4455" x2="331.2744" y2="211.9164" xlink:href="#linear-gradient"/><linearGradient id="linear-gradient-24" x1="400.0528" y1="219.167" x2="427.8914" y2="219.167" xlink:href="#linear-gradient"/></defs><title>corn</title><g id="corn"><g id="multiple"><path class="cls-1" d="M112.8594,237.4441c-1.6479.2847-5.5688,5.7733-9.467,8.0827s-11.6945,12.124.5569,17.8973,17.82-1.1546,18.9339-6.3507,1.1138-11.5466,1.6707-13.2786.5568-4.0414-2.7844-4.0414S116.2007,236.8667,112.8594,237.4441Z" transform="translate(-54.8732 -180.0126)"/><path class="cls-2" d="M137.3621,283.6308c-5.493.9492-8.91,2.3094-10.0238,5.1961s.5568,8.66,3.3413,12.7013,3.3412,4.6187,5.0119,4.6187,6.1257,0,7.7963-1.732,3.8982-1.732,5.5688-2.3093,1.1138-4.6187,1.6706-7.5054,3.3413-6.928-1.6706-9.2374S140.7034,283.0535,137.3621,283.6308Z" transform="translate(-54.8732 -180.0126)"/><path class="cls-3" d="M71.65,262.27c-3.4788,4.5082-7.2394,10.392-1.6706,13.856s10.5807,0,14.4789-4.0413,6.1257-10.9694,5.0119-13.8561-7.7963-4.6187-11.6945-1.732S73.8777,259.3828,71.65,262.27Z" transform="translate(-54.8732 -180.0126)"/><path class="cls-4" d="M61.6264,238.5987c6.3318,4.9233,13.922,9.8147,20.6046,4.6187s12.2513-12.124,1.6706-16.7427-14.4789-6.928-19.4908-6.928-8.91,3.464-9.467,5.7733S57.1713,235.1347,61.6264,238.5987Z" transform="translate(-54.8732 -180.0126)"/><path class="cls-5" d="M125.6676,194.7213c-7.1878-1.0646-11.6945-1.1547-14.4789,4.0413s-3.8981,12.7014,3.3413,16.1654,20.0477-1.1547,21.1615-2.3093,0-4.0414.5569-6.3507,1.1137-6.3507,0-8.0827S129.5658,195.2986,125.6676,194.7213Z" transform="translate(-54.8732 -180.0126)"/><path class="cls-6" d="M101.5226,251.6773a.238.238,0,0,1,.3606-.2947c.9477.8121,3.2179,3.247,5.9643,3.9588a20.273,20.273,0,0,0,10.5807,0c1.6706-.5773,1.1137,0,0,.5774a14.3484,14.3484,0,0,1-10.5807.5773C104.1223,255.2088,102.2129,253.2441,101.5226,251.6773Z" transform="translate(-54.8732 -180.0126)"/><path class="cls-6" d="M62.1833,233.98c1.0217.53,2.0539,2.7051,3.3412,4.0413a8.2926,8.2926,0,0,0,4.4551,2.3093,9.79,9.79,0,0,0,7.2394-1.1546c1.6707-1.1547,4.4551-5.196,5.012-4.0414s-1.6707,3.464-3.8982,5.196A10.99,10.99,0,0,1,69.98,242.64c-2.7844-.5774-3.8982-1.732-5.5688-4.0414S61.07,233.4027,62.1833,233.98Z" transform="translate(-54.8732 -180.0126)"/><path class="cls-6" d="M139.0328,286.5175c-5.5688,0-6.6826,2.8867-6.1257,6.3507s3.3413,5.196,3.3413,7.5054,8.91.5773,10.0238-.5774,1.6706-6.928,0-10.392S141.8723,286.5175,139.0328,286.5175Z" transform="translate(-54.8732 -180.0126)"/><path class="cls-6" d="M121.77,208h8.91c2.2275,0,3.8981-2.3093,3.8981-4.6187s-1.6706-5.196-6.1257-6.3507a31.41,31.41,0,0,0-8.3532-1.1546c-1.1137,0-.5569-1.1547.5569-1.1547s6.1257,0,8.91,1.1547,7.2394,2.8866,6.6826,7.5053-2.2276,5.196-5.012,5.7734-7.7963,0-9.4669,0S120.6557,208,121.77,208Z" transform="translate(-54.8732 -180.0126)"/><path class="cls-6" d="M77.219,270.3521c-1.42-1.4719-3.3413-4.0413-2.2275-6.928s3.8982-6.3507,6.6826-6.3507,7.2394,1.1547,5.0119,5.7734-3.3413,6.3507-3.8982,6.3507-2.2275-.5774-.5568-2.8867,3.3412-3.464,3.3412-5.196-2.2275-3.464-3.8981-2.8867-4.4551,2.8867-5.0119,5.196a5.3178,5.3178,0,0,0,1.1137,5.196C78.89,269.7748,77.7759,270.93,77.219,270.3521Z" transform="translate(-54.8732 -180.0126)"/><path class="cls-7" d="M222.8594,222.4441c-1.6479.2847-5.5688,5.7733-9.467,8.0827s-11.6945,12.124.5569,17.8973,17.82-1.1546,18.9339-6.3507,1.1138-11.5466,1.6707-13.2786.5568-4.0414-2.7844-4.0414S226.2007,221.8667,222.8594,222.4441Z" transform="translate(-54.8732 -180.0126)"/><path class="cls-8" d="M266.3621,196.6308c-5.493.9492-8.91,2.3094-10.0238,5.1961s.5568,8.66,3.3413,12.7013,3.3412,4.6187,5.0119,4.6187,6.1257,0,7.7963-1.732,3.8982-1.732,5.5688-2.3093,1.1138-4.6187,1.6706-7.5054,3.3413-6.928-1.6706-9.2374S269.7034,196.0535,266.3621,196.6308Z" transform="translate(-54.8732 -180.0126)"/><path class="cls-9" d="M171.65,289.27c-3.4788,4.5082-7.2394,10.392-1.6706,13.856s10.5807,0,14.4789-4.0413,6.1257-10.9694,5.0119-13.8561-7.7963-4.6187-11.6945-1.732S173.8777,286.3828,171.65,289.27Z" transform="translate(-54.8732 -180.0126)"/><path class="cls-10" d="M161.6264,265.5987c6.3318,4.9233,13.922,9.8147,20.6046,4.6187s12.2513-12.124,1.6706-16.7427-14.4789-6.928-19.4908-6.928-8.91,3.464-9.467,5.7733S157.1713,262.1347,161.6264,265.5987Z" transform="translate(-54.8732 -180.0126)"/><path class="cls-11" d="M217.6676,180.7213c-7.1878-1.0646-11.6945-1.1547-14.4789,4.0413s-3.8981,12.7014,3.3413,16.1654,20.0477-1.1547,21.1615-2.3093,0-4.0414.5569-6.3507,1.1137-6.3507,0-8.0827S221.5658,181.2986,217.6676,180.7213Z" transform="translate(-54.8732 -180.0126)"/><path class="cls-6" d="M211.5226,236.6773a.238.238,0,0,1,.3606-.2947c.9477.8121,3.2179,3.247,5.9643,3.9588a20.273,20.273,0,0,0,10.5807,0c1.6706-.5773,1.1137,0,0,.5774a14.3484,14.3484,0,0,1-10.5807.5773C214.1223,240.2088,212.2129,238.2441,211.5226,236.6773Z" transform="translate(-54.8732 -180.0126)"/><path class="cls-6" d="M162.1833,260.98c1.0217.53,2.0539,2.7051,3.3412,4.0413a8.2926,8.2926,0,0,0,4.4551,2.3093,9.79,9.79,0,0,0,7.2394-1.1546c1.6707-1.1547,4.4551-5.196,5.012-4.0414s-1.6707,3.464-3.8982,5.196A10.99,10.99,0,0,1,169.98,269.64c-2.7844-.5774-3.8982-1.732-5.5688-4.0414S161.07,260.4027,162.1833,260.98Z" transform="translate(-54.8732 -180.0126)"/><path class="cls-6" d="M268.0328,199.5175c-5.5688,0-6.6826,2.8867-6.1257,6.3507s3.3413,5.196,3.3413,7.5054,8.91.5773,10.0238-.5774,1.6706-6.928,0-10.392S270.8723,199.5175,268.0328,199.5175Z" transform="translate(-54.8732 -180.0126)"/><path class="cls-6" d="M213.77,194h8.91c2.2275,0,3.8981-2.3093,3.8981-4.6187s-1.6706-5.196-6.1257-6.3507a31.41,31.41,0,0,0-8.3532-1.1546c-1.1137,0-.5569-1.1547.5569-1.1547s6.1257,0,8.91,1.1547,7.2394,2.8866,6.6826,7.5053-2.2276,5.196-5.012,5.7734-7.7963,0-9.4669,0S212.6557,194,213.77,194Z" transform="translate(-54.8732 -180.0126)"/><path class="cls-6" d="M177.219,297.3521c-1.42-1.4719-3.3413-4.0413-2.2275-6.928s3.8982-6.3507,6.6826-6.3507,7.2394,1.1547,5.0119,5.7734-3.3413,6.3507-3.8982,6.3507-2.2275-.5774-.5568-2.8867,3.3412-3.464,3.3412-5.196-2.2275-3.464-3.8981-2.8867-4.4551,2.8867-5.0119,5.196a5.3178,5.3178,0,0,0,1.1137,5.196C178.89,296.7748,177.7759,297.93,177.219,297.3521Z" transform="translate(-54.8732 -180.0126)"/><path class="cls-12" d="M289.3621,313.6308c-5.493.9492-8.91,2.3094-10.0238,5.1961s.5568,8.66,3.3413,12.7013,3.3412,4.6187,5.0119,4.6187,6.1257,0,7.7963-1.732,3.8982-1.732,5.5688-2.3093,1.1138-4.6187,1.6706-7.5054,3.3413-6.928-1.6706-9.2374S292.7034,313.0535,289.3621,313.6308Z" transform="translate(-54.8732 -180.0126)"/><path class="cls-6" d="M291.0328,316.5175c-5.5688,0-6.6826,2.8867-6.1257,6.3507s3.3413,5.196,3.3413,7.5054,8.91.5773,10.0238-.5774,1.6706-6.928,0-10.392S293.8723,316.5175,291.0328,316.5175Z" transform="translate(-54.8732 -180.0126)"/><path class="cls-13" d="M171.65,187.27c-3.4788,4.5082-7.2394,10.392-1.6706,13.856s10.5807,0,14.4789-4.0413,6.1257-10.9694,5.0119-13.8561-7.7963-4.6187-11.6945-1.732S173.8777,184.3828,171.65,187.27Z" transform="translate(-54.8732 -180.0126)"/><path class="cls-14" d="M330.6264,317.5987c6.3318,4.9233,13.922,9.8147,20.6046,4.6187s12.2513-12.124,1.6706-16.7427-14.4789-6.928-19.4908-6.928-8.91,3.464-9.467,5.7733S326.1713,314.1347,330.6264,317.5987Z" transform="translate(-54.8732 -180.0126)"/><path class="cls-6" d="M331.1833,312.98c1.0217.53,2.0539,2.7051,3.3412,4.0413a8.2926,8.2926,0,0,0,4.4551,2.3093,9.79,9.79,0,0,0,7.2394-1.1546c1.6707-1.1547,4.4551-5.196,5.012-4.0414s-1.6707,3.464-3.8982,5.196A10.99,10.99,0,0,1,338.98,321.64c-2.7844-.5774-3.8982-1.732-5.5688-4.0414S330.07,312.4027,331.1833,312.98Z" transform="translate(-54.8732 -180.0126)"/><path class="cls-6" d="M177.219,195.3521c-1.42-1.4719-3.3413-4.0413-2.2275-6.928s3.8982-6.3507,6.6826-6.3507,7.2394,1.1547,5.0119,5.7734-3.3413,6.3507-3.8982,6.3507-2.2275-.5774-.5568-2.8867,3.3412-3.464,3.3412-5.196-2.2275-3.464-3.8981-2.8867-4.4551,2.8867-5.0119,5.196a5.3178,5.3178,0,0,0,1.1137,5.196C178.89,194.7748,177.7759,195.93,177.219,195.3521Z" transform="translate(-54.8732 -180.0126)"/><path class="cls-15" d="M304.8594,271.4441c-1.6479.2847-5.5688,5.7733-9.467,8.0827s-11.6945,12.124.5569,17.8973,17.82-1.1546,18.9339-6.3507,1.1138-11.5466,1.6707-13.2786.5568-4.0414-2.7844-4.0414S308.2007,270.8667,304.8594,271.4441Z" transform="translate(-54.8732 -180.0126)"/><path class="cls-16" d="M170.3621,214.6308c-5.493.9492-8.91,2.3094-10.0238,5.1961s.5568,8.66,3.3413,12.7013,3.3412,4.6187,5.0119,4.6187,6.1257,0,7.7963-1.732,3.8982-1.732,5.5688-2.3093,1.1138-4.6187,1.6706-7.5054,3.3413-6.928-1.6706-9.2374S173.7034,214.0535,170.3621,214.6308Z" transform="translate(-54.8732 -180.0126)"/><path class="cls-17" d="M220.65,287.27c-3.4788,4.5082-7.2394,10.392-1.6706,13.856s10.5807,0,14.4789-4.0413,6.1257-10.9694,5.0119-13.8561-7.7963-4.6187-11.6945-1.732S222.8777,284.3828,220.65,287.27Z" transform="translate(-54.8732 -180.0126)"/><path class="cls-18" d="M227.6264,335.5987c6.3318,4.9233,13.922,9.8147,20.6046,4.6187s12.2513-12.124,1.6706-16.7427-14.4789-6.928-19.4908-6.928-8.91,3.464-9.467,5.7733S223.1713,332.1347,227.6264,335.5987Z" transform="translate(-54.8732 -180.0126)"/><path class="cls-19" d="M317.6676,228.7213c-7.1878-1.0646-11.6945-1.1547-14.4789,4.0413s-3.8981,12.7014,3.3413,16.1654,20.0477-1.1547,21.1615-2.3093,0-4.0414.5569-6.3507,1.1137-6.3507,0-8.0827S321.5658,229.2986,317.6676,228.7213Z" transform="translate(-54.8732 -180.0126)"/><path class="cls-6" d="M293.5226,285.6773a.238.238,0,0,1,.3606-.2947c.9477.8121,3.2179,3.247,5.9643,3.9588a20.273,20.273,0,0,0,10.5807,0c1.6706-.5773,1.1137,0,0,.5774a14.3484,14.3484,0,0,1-10.5807.5773C296.1223,289.2088,294.2129,287.2441,293.5226,285.6773Z" transform="translate(-54.8732 -180.0126)"/><path class="cls-6" d="M228.1833,330.98c1.0217.53,2.0539,2.7051,3.3412,4.0413a8.2926,8.2926,0,0,0,4.4551,2.3093,9.79,9.79,0,0,0,7.2394-1.1546c1.6707-1.1547,4.4551-5.196,5.012-4.0414s-1.6707,3.464-3.8982,5.196A10.99,10.99,0,0,1,235.98,339.64c-2.7844-.5774-3.8982-1.732-5.5688-4.0414S227.07,330.4027,228.1833,330.98Z" transform="translate(-54.8732 -180.0126)"/><path class="cls-20" d="M442.6264,269.5987c6.3318,4.9233,13.922,9.8147,20.6046,4.6187s12.2513-12.124,1.6706-16.7427-14.4789-6.928-19.4908-6.928-8.91,3.464-9.467,5.7733S438.1713,266.1347,442.6264,269.5987Z" transform="translate(-54.8732 -180.0126)"/><path class="cls-6" d="M443.1833,264.98c1.0217.53,2.0539,2.7051,3.3412,4.0413a8.2926,8.2926,0,0,0,4.4551,2.3093,9.79,9.79,0,0,0,7.2394-1.1546c1.6707-1.1547,4.4551-5.196,5.012-4.0414s-1.6707,3.464-3.8982,5.196A10.99,10.99,0,0,1,450.98,273.64c-2.7844-.5774-3.8982-1.732-5.5688-4.0414S442.07,264.4027,443.1833,264.98Z" transform="translate(-54.8732 -180.0126)"/><path class="cls-6" d="M172.0328,217.5175c-5.5688,0-6.6826,2.8867-6.1257,6.3507s3.3413,5.196,3.3413,7.5054,8.91.5773,10.0238-.5774,1.6706-6.928,0-10.392S174.8723,217.5175,172.0328,217.5175Z" transform="translate(-54.8732 -180.0126)"/><path class="cls-6" d="M313.77,242h8.91c2.2275,0,3.8981-2.3093,3.8981-4.6187s-1.6706-5.196-6.1257-6.3507a31.41,31.41,0,0,0-8.3532-1.1546c-1.1137,0-.5569-1.1547.5569-1.1547s6.1257,0,8.91,1.1547,7.2394,2.8866,6.6826,7.5053-2.2276,5.196-5.012,5.7734-7.7963,0-9.4669,0S312.6557,242,313.77,242Z" transform="translate(-54.8732 -180.0126)"/><path class="cls-6" d="M226.219,295.3521c-1.42-1.4719-3.3413-4.0413-2.2275-6.928s3.8982-6.3507,6.6826-6.3507,7.2394,1.1547,5.0119,5.7734-3.3413,6.3507-3.8982,6.3507-2.2275-.5774-.5568-2.8867,3.3412-3.464,3.3412-5.196-2.2275-3.464-3.8981-2.8867-4.4551,2.8867-5.0119,5.196a5.3178,5.3178,0,0,0,1.1137,5.196C227.89,294.7748,226.7759,295.93,226.219,295.3521Z" transform="translate(-54.8732 -180.0126)"/><path class="cls-21" d="M403.8594,251.4441c-1.6479.2847-5.5688,5.7733-9.467,8.0827s-11.6945,12.124.5569,17.8973,17.82-1.1546,18.9339-6.3507,1.1138-11.5466,1.6707-13.2786.5568-4.0414-2.7844-4.0414S407.2007,250.8667,403.8594,251.4441Z" transform="translate(-54.8732 -180.0126)"/><path class="cls-22" d="M363.3621,211.6308c-5.493.9492-8.91,2.3094-10.0238,5.1961s.5568,8.66,3.3413,12.7013,3.3412,4.6187,5.0119,4.6187,6.1257,0,7.7963-1.732,3.8982-1.732,5.5688-2.3093,1.1138-4.6187,1.6706-7.5054,3.3413-6.928-1.6706-9.2374S366.7034,211.0535,363.3621,211.6308Z" transform="translate(-54.8732 -180.0126)"/><path class="cls-23" d="M362.65,276.27c-3.4788,4.5082-7.2394,10.392-1.6706,13.856s10.5807,0,14.4789-4.0413,6.1257-10.9694,5.0119-13.8561-7.7963-4.6187-11.6945-1.732S364.8777,273.3828,362.65,276.27Z" transform="translate(-54.8732 -180.0126)"/><path class="cls-24" d="M313.6264,205.5987c6.3318,4.9233,13.922,9.8147,20.6046,4.6187s12.2513-12.124,1.6706-16.7427-14.4789-6.928-19.4908-6.928-8.91,3.464-9.467,5.7733S309.1713,202.1347,313.6264,205.5987Z" transform="translate(-54.8732 -180.0126)"/><path class="cls-25" d="M416.6676,208.7213c-7.1878-1.0646-11.6945-1.1547-14.4789,4.0413s-3.8981,12.7014,3.3413,16.1654,20.0477-1.1547,21.1615-2.3093,0-4.0414.5569-6.3507,1.1137-6.3507,0-8.0827S420.5658,209.2986,416.6676,208.7213Z" transform="translate(-54.8732 -180.0126)"/><path class="cls-6" d="M392.5226,265.6773a.238.238,0,0,1,.3606-.2947c.9477.8121,3.2179,3.247,5.9643,3.9588a20.273,20.273,0,0,0,10.5807,0c1.6706-.5773,1.1137,0,0,.5774a14.3484,14.3484,0,0,1-10.5807.5773C395.1223,269.2088,393.2129,267.2441,392.5226,265.6773Z" transform="translate(-54.8732 -180.0126)"/><path class="cls-6" d="M314.1833,200.98c1.0217.53,2.0539,2.7051,3.3412,4.0413a8.2926,8.2926,0,0,0,4.4551,2.3093,9.79,9.79,0,0,0,7.2394-1.1546c1.6707-1.1547,4.4551-5.196,5.012-4.0414s-1.6707,3.464-3.8982,5.196A10.99,10.99,0,0,1,321.98,209.64c-2.7844-.5774-3.8982-1.732-5.5688-4.0414S313.07,200.4027,314.1833,200.98Z" transform="translate(-54.8732 -180.0126)"/><path class="cls-6" d="M365.0328,214.5175c-5.5688,0-6.6826,2.8867-6.1257,6.3507s3.3413,5.196,3.3413,7.5054,8.91.5773,10.0238-.5774,1.6706-6.928,0-10.392S367.8723,214.5175,365.0328,214.5175Z" transform="translate(-54.8732 -180.0126)"/><path class="cls-6" d="M412.77,222h8.91c2.2275,0,3.8981-2.3093,3.8981-4.6187s-1.6706-5.196-6.1257-6.3507a31.41,31.41,0,0,0-8.3532-1.1546c-1.1137,0-.5569-1.1547.5569-1.1547s6.1257,0,8.91,1.1547,7.2394,2.8866,6.6826,7.5053-2.2276,5.196-5.012,5.7734-7.7963,0-9.4669,0S411.6557,222,412.77,222Z" transform="translate(-54.8732 -180.0126)"/><path class="cls-6" d="M368.219,284.3521c-1.42-1.4719-3.3413-4.0413-2.2275-6.928s3.8982-6.3507,6.6826-6.3507,7.2394,1.1547,5.0119,5.7734-3.3413,6.3507-3.8982,6.3507-2.2275-.5774-.5568-2.8867,3.3412-3.464,3.3412-5.196-2.2275-3.464-3.8981-2.8867-4.4551,2.8867-5.0119,5.196a5.3178,5.3178,0,0,0,1.1137,5.196C369.89,283.7748,368.7759,284.93,368.219,284.3521Z" transform="translate(-54.8732 -180.0126)"/></g></g></svg>