<svg xmlns="http://www.w3.org/2000/svg" width="455.1347" height="193.4575" viewBox="0 0 455.1347 193.4575"><defs><style>.cls-1{fill:#d5a253;}.cls-2{fill:#ebbc74;}.cls-3{fill:#93170b;}.cls-4{fill:#99430a;}</style></defs><title>crust</title><g id="crust"><path class="cls-1" d="M86,313s13,7,23,9,25,10,33,12,12,8,26,9a33.195,33.195,0,0,0,23-7s3,9,15,11,24-6,38-2,32,7,59,6,38-7,38-7,12-1,19-4a42.7672,42.7672,0,0,0,12-8s20,3,32-2,14-13,14-13,2,1,6,0,4-5,11-7,25-4,33-20,24-29,15-48-26-28-33-36-23-27-36-32-40,2-48,3-12-9-24-10-52-11-82-9-93,16-112,19-36,5-52,13-24,22-32,21-19,2-25,9-17,40,3,61S73,307,86,313Z" transform="translate(-30.5334 -157.7363)"/><path class="cls-2" d="M429,297c10.8276-1.0828,36.5513-27.5149,46-47a27.7478,27.7478,0,0,0,2.17-17.749C467.9387,219.6393,455.6788,212.49,450,206c-7-8-23-27-36-32s-40,2-48,3-12-9-24-10-52-11-82-9-93,16-112,19-36,5-52,13-24,22-32,21-19,2-25,9c-4.07,4.7479-9,36,3,50,9.9652,11.6261,18.4362,5.7724,28.181,5.7724S87.4207,284.8345,95,287s16.8309,2.32,29,7a23.8263,23.8263,0,0,1,15,17s15.2552-4.0828,25-3,21,9,21,9,9.1724-7,20-7,9.0069,3.6689,22,8,28.09-4,40-4,24.8414,8,40,8,34.9534-9.4138,43.6155-9.4138,8.662,4.331,20.5724,0S382.4257,302.8784,396,299C410,295,418.1724,298.0828,429,297Z" transform="translate(-30.5334 -157.7363)"/><path class="cls-3" d="M47,248c2,8,8.7358,17.5107,18,20,6.32,1.6982,8.4013-1.5714,15,1,6.6788,2.6026,6.3732,6.6639,13,9,5.9027,2.0808,7.2628-.7473,15,1,7.7,1.7389,7.3617,4.7676,14,6,8.8216,1.6378,11.3645-3.3495,18-1,6.575,2.3281,5.571,7.7535,12,10,6.7533,2.36,9.4294-3.0786,19-2,7.2509.8172,7.0121,4.0849,16,6,9.8333,2.0952,11.13-1.6008,18,1,7.8351,2.9659,8.1339,8.5239,16,10,4.4877.8422,4.7361-.9019,10,0,8.0244,1.375,25.0687-9.6137,35-9,8.0687.4986,8.5118,3.26,21,7,5.7445,1.7206,15.3661,4.5208,27,4,8.7579-.392,8.4851-2.2107,21-4,18.5775-2.6561,19.59,1.2927,28-2,14.0148-5.487,13.05-17.1754,25-19,9.08-1.3865,10.5889.6028,17-1,4-1,6.4352-3.4461,7-6,3.0722-13.891,15.1044-20.1734,22-25,10.5475-7.3828,9.9232-13.6043,16-18,3.353-2.4254,9.8691-6.527,7-15-2.9083-8.5887-10.5593-12.43-17-14-15.9982-3.9008-20.991,2.3573-33-3-.8072-.36-14.7426-6.763-15-16-.1519-5.4511,4.5459-8.8009,3-11-1.7619-2.5064-9.503-.4856-15,2-11.0893,5.0144-10.9915,10.9914-18,13-6.2737,1.798-10.4659-1.8123-27-10-11.8936-5.89-18.8368-9.3279-27-12-14.0249-4.5907-27.5358-9.0132-41-4-8.045,2.9954-11.6705,7.72-28,14-4.3261,1.6637-9.4811,3.4123-13,1-3.7742-2.5874-1.0887.4912-4-3-4.7823-5.7348-14.5425-6.6275-27-3,0,0-15.2884,12.8217-47,19-27.2886,5.3165-29.481-2.1038-40,0-10,2-8.87,8.5259-18,16-11.0971,9.0844-18.019,10.8038-20,11-7.6722.76-15.0234,5.035-19,11C47,238,46,244,47,248Z" transform="translate(-30.5334 -157.7363)"/><path class="cls-4" d="M478.2637,233.7914C479.62,238.5974,480.9826,243.913,482,249c3,15-4,16-11,25s-9,20-20,27-23,7-29,12-7,0-7,0a50.3576,50.3576,0,0,1-16,16c-11,7-26-2-26-2s-9,8-17,11-12,1-21,6-46,7-68,2-31-7-39-7-12,6-23,5-9-20-17-13-17,10-26,8-13-8-13-8-10.9967,1-19.8652-1.794A104.2346,104.2346,0,0,0,142,334c8,2,12,8,26,9a33.195,33.195,0,0,0,23-7s3,9,15,11,24-6,38-2,32,7,59,6,38-7,38-7,12-1,19-4a42.7672,42.7672,0,0,0,12-8s20,3,32-2,14-13,14-13,2,1,6,0,4-5,11-7,25-4,33-20,24-29,15-48A59.2542,59.2542,0,0,0,478.2637,233.7914Z" transform="translate(-30.5334 -157.7363)"/><path class="cls-4" d="M42,281c20,21,31,26,44,32,0,0,13,7,23,9a77.6858,77.6858,0,0,1,12.6256,4.1089C114.482,322.6208,106.8654,317.6658,101,314c-8-5-14-4-22-7s-16-14-23-20c-4.1227-3.5338-13.0992-9.4938-19.7841-13.7979A39.753,39.753,0,0,0,42,281Z" transform="translate(-30.5334 -157.7363)"/></g></svg>