<svg xmlns="http://www.w3.org/2000/svg" xmlns:xlink="http://www.w3.org/1999/xlink" viewBox="0 0 455.7634 193.7105"><defs><style>.cls-1{fill:url(#radial-gradient);}.cls-2{fill:url(#radial-gradient-2);}.cls-3{fill:#93170b;}.cls-4{fill:url(#radial-gradient-3);}</style><radialGradient id="radial-gradient" cx="241.5154" cy="272.0173" r="285.1757" gradientTransform="translate(0 190.4121) scale(1 0.3)" gradientUnits="userSpaceOnUse"><stop offset="0" stop-color="#edc591"/><stop offset="0.2218" stop-color="#ebc28d"/><stop offset="0.4306" stop-color="#e4ba82"/><stop offset="0.6342" stop-color="#d9ab6f"/><stop offset="0.8335" stop-color="#ca9754"/><stop offset="1" stop-color="#ba8238"/></radialGradient><radialGradient id="radial-gradient-2" cx="256.0903" cy="244.2417" r="239.5491" gradientTransform="translate(0 165.9582) scale(1 0.3205)" gradientUnits="userSpaceOnUse"><stop offset="0.7834" stop-color="#ba8238"/><stop offset="0.7991" stop-color="#c08a43"/><stop offset="0.8558" stop-color="#d4a465"/><stop offset="0.9097" stop-color="#e2b67d"/><stop offset="0.9591" stop-color="#eac18c"/><stop offset="1" stop-color="#edc591"/></radialGradient><radialGradient id="radial-gradient-3" cx="252" cy="241" r="231.6885" gradientTransform="translate(0 168.7) scale(1 0.3)" gradientUnits="userSpaceOnUse"><stop offset="0" stop-color="#93170b"/><stop offset="0.2044" stop-color="#9d1a0b" stop-opacity="0.8298"/><stop offset="0.6361" stop-color="#b5230b" stop-opacity="0.3963"/><stop offset="1" stop-color="#cc2b0b" stop-opacity="0"/></radialGradient></defs><title>crust</title><g id="crust"><g id="crust-2" data-name="crust"><path class="cls-1" d="M84.7226,312.41q1.154.5334,2.2867,1.1176C90.25,315.1944,100.6667,320.3333,109,322c10,2,25,10,33,12s12,8,26,9a33.551,33.551,0,0,0,6.9031-.2153,57.5823,57.5823,0,0,1,27.0071,3.1684A23.9187,23.9187,0,0,0,206,347c12,2,24-6,38-2s32,7,59,6a196.8025,196.8025,0,0,0,57-11c6.7846-2.3746,18.7195-6.8749,27.8508-7.1443,5.4859-.1618,17.6525-4.4344,22.1492-6.8557,13-7,20.1834-11.4438,27-14a70.3121,70.3121,0,0,0,31-22c10-12,24-29,15-48s-26-28-33-36-23-21-36-26-40-4-48-3-12-9-24-10-67-11-97-9-78,16-97,19-36,5-52,13-23,13-31,16c-7.5489,2.8308-21,12-27,19s-16,35,4,56C61.3418,301.3089,72.2662,306.6536,84.7226,312.41Z" transform="translate(-30.1261 -157.4833)"/><path class="cls-2" d="M475,250q.0429-.0885.0851-.1771A22.4782,22.4782,0,0,0,470.71,224.641C462.8411,216.5146,454.4239,211.0558,450,206c-7-8-23-21-36-26s-40-4-48-3-12-9-24-10-42-12-97-9c-30.022,1.6376-78,16-97,19s-36,5-52,13-23,13-31,16c-7.549,2.8308-21,12-27,19-1.7186,2.0051-3,4-3,11,0,17.0294,8.988,10.7631,19,23,9.6965,11.8512,2,15,13,18,9.4014,2.564,21.156,9.0891,28,13,7,4,17.12,12.6953,24,16,7.9637,3.8256,21.6459,4.7949,29,5,5.023.14,13,0,20,2,5.3163,1.5189,9.5212,5.82,18,9,8,3,22,5,37,6,13.6656.911,31.09-7,43-7s26.8414,10,42,10,26.5442-10.1209,35-12c9-2,18.09.3311,30-4s14.4257-11.1216,28-15c14-4,17.1724-1.9172,28-3S465.5513,269.4851,475,250Z" transform="translate(-30.1261 -157.4833)"/></g><g id="sauce"><path class="cls-3" d="M62,246c14.29,11.9081,13.0866,20.4637,20,22a69.6245,69.6245,0,0,1,21,8c7,4,11,13,23,17,13.2816,4.4272,29.2272,3.2871,36,4,19,2,29.13,3.3992,36,6,7.8351,2.9659,18.0455,5.8838,26,5,9-1,21.9584-5,34-5,14,0,20.5118,2.26,33,6,5.7445,1.7206,11.3661,2.5208,23,2,8.7579-.392,8.4851-2.2107,21-4,18.5775-2.6561,19.59,1.2927,28-2,14.0148-5.487,14.1879-10.5939,25-16a58.843,58.843,0,0,1,22-6c12-1,17-9,19-16,3.9084-13.6793,14.6967-20.6967,20-26,7-7-5.1309-2.527-8-11-2.9083-8.5887,1.0845-9.8138-7-17-9-8-14-10-21-13-5.553-2.38-15-3-23-4-5.4111-.6764-17.883-.4184-25-2-9-2-9.4659,2.1877-26-6-11.8936-5.89-19.676-6.8811-28-9-14.2652-3.6312-22.214-4.1456-36-4-8.584.0907-18.1212,2.3967-35,7-11,3-27,0-42,2-11.99,1.5986-20,7-44,10-18.2967,2.2871-22,2-37,5-10,2-15.87,5.5259-25,13-11.0971,9.0844-13,10-21,12-7.48,1.87-13,2-18,8C48.3836,237.54,56,241,62,246Z" transform="translate(-30.1261 -157.4833)"/><path class="cls-4" d="M70.013,243.67c13.7332,10.8432,12.5769,18.6336,19.221,20.0325a69.19,69.19,0,0,1,20.182,7.2846c6.7274,3.6422,10.5716,11.8374,22.1041,15.48,12.7643,4.0313,28.0888,2.9931,34.5978,3.6423,18.26,1.8211,27.9949,3.0952,34.5978,5.4634,7.53,2.7007,17.3426,5.3576,24.9872,4.5529,8.6495-.9106,21.1031-4.5529,32.6757-4.5529,13.4547,0,19.7128,2.0574,31.7146,5.4634,5.5207,1.5668,10.9234,2.2954,22.1041,1.8212,8.4168-.357,8.1547-2.0131,20.182-3.6423,17.8539-2.4185,18.8268,1.1771,26.9094-1.8212,13.4689-4.9963,13.6353-9.6465,24.0262-14.569a59.0236,59.0236,0,0,1,21.1431-5.4634c11.5326-.9106,16.3378-8.1952,18.26-14.5691,3.7562-12.456,14.1243-18.8458,19.221-23.6748,6.7273-6.374-4.931-2.301-7.6884-10.0163-2.795-7.8206,1.0422-8.9361-6.7273-15.48-8.6495-7.2846-13.4547-9.1057-20.1821-11.8374-5.3367-2.167-14.4157-2.7317-22.1041-3.6423-5.2-.6159-17.1864-.381-24.0262-1.8211-8.6494-1.8211-9.0972,1.992-24.9873-5.4634-11.43-5.363-18.91-6.2657-26.9093-8.1951-13.71-3.3065-21.3488-3.7749-34.5978-3.6423-8.25.0825-17.4153,2.1823-33.6367,6.374-10.5715,2.7317-25.9483,0-40.364,1.8211-11.5229,1.4557-19.221,6.374-42.2862,9.1057-17.584,2.0825-21.1431,1.8211-35.5588,4.5528-9.6105,1.8212-15.2518,5.0317-24.0262,11.8374-10.6648,8.272-12.4936,9.1057-20.182,10.9268-7.1883,1.7027-12.4937,1.8212-17.2989,7.2846C56.927,235.9663,64.2467,239.1171,70.013,243.67Z" transform="translate(-30.1261 -157.4833)"/></g></g></svg>