<svg xmlns="http://www.w3.org/2000/svg" viewBox="0 0 368 180.1579"><defs><style>.cls-1{fill:#e6e7df;}.cls-2{fill:#fafdf4;}.cls-3{fill:#e2dccf;}.cls-4{fill:#eaede4;}</style></defs><title>feta</title><g id="feta"><g id="multiple"><path class="cls-1" d="M95.6774,290.7848s1.871-3.4968,3.1183-3.4968,3.7419.6993,4.9892-2.0981l2.4947-5.595a6.8559,6.8559,0,0,0,3.7419-1.3987c1.871-1.3987,3.1183-4.1962,4.9893-4.1962h3.7419A10.5014,10.5014,0,0,0,120,269.1044c0-2.7974-1.2473-4.1962-1.2473-7.693s1.2473-9.0918.6236-12.5886a30.306,30.306,0,0,0-1.8709-6.2943s-3.1183-4.1962-5.6129-4.8956-6.2366-.6993-8.7312-2.0981-9.3548-2.7975-9.3548-2.7975a15.5543,15.5543,0,0,1-3.742,2.7975c-2.4946,1.3988-5.6129,1.3988-7.4839,1.3988s-4.9892,1.3987-8.1075,1.3987A12.7081,12.7081,0,0,0,68.86,239.731s-1.871,4.8956-1.2473,8.3924,1.2473,6.9937,0,9.0918-1.2473,9.0918-1.2473,9.0918a3.9186,3.9186,0,0,0-3.1183,2.0981A9.0847,9.0847,0,0,0,62,272.6013a6.78,6.78,0,0,1,4.3656,3.4968c1.2473,2.7975,5.6129,6.2943,8.1075,6.9937s4.3656,2.7974,7.4839,4.1962S90.6882,291.4842,95.6774,290.7848Z" transform="translate(-62 -160.7373)"/><path class="cls-2" d="M110.6452,250.2215a57.52,57.52,0,0,0,7.7692-5.2284c-.48-1.4994-.909-2.4646-.909-2.4646s-3.1183-4.1962-5.6129-4.8956-6.2366-.6993-8.7312-2.0981-9.3548-2.7975-9.3548-2.7975a15.5543,15.5543,0,0,1-3.742,2.7975c-2.4946,1.3988-5.6129,1.3988-7.4839,1.3988s-4.9892,1.3987-8.1075,1.3987a12.78,12.78,0,0,0-5.3907,1.284,12.7417,12.7417,0,0,1,4.1434.8141c3.1183,1.3987,7.4839,2.0981,7.4839,3.4968s-.7646,3.9864,2.4946,4.8956c2.6145.7293,4.2952-.9982,8.7312,4.8956l3.1183.6993a46.0916,46.0916,0,0,1,5.6129,1.3988C102.5376,256.5158,107.5269,251.62,110.6452,250.2215Z" transform="translate(-62 -160.7373)"/><path class="cls-3" d="M103.7849,285.19l2.4947-5.595a6.8559,6.8559,0,0,0,3.7419-1.3987c1.871-1.3987,3.1183-4.1962,4.9893-4.1962h3.7419A10.5014,10.5014,0,0,0,120,269.1044c0-2.7974-1.2473-4.1962-1.2473-7.693s1.2473-9.0918.6236-12.5886a30.306,30.306,0,0,0-1.8709-6.2943,23.8707,23.8707,0,0,0-3.2256-3.4663,7.4492,7.4492,0,0,0-2.3873-.73c-2.4947,0-2.4947,2.7975-3.1183,4.1962s-1.871-2.7975-3.1183-3.4968-10.6021,0-9.9785,2.0981,4.3656,3.4968,5.6129,2.0981,3.1183.6993,3.742,1.3987a4.3193,4.3193,0,0,0,4.3655.6994c1.871-.6994,3.742.6993,2.4947,1.3987s-3.742,1.3987-6.2366,2.7975-6.2365,4.1962-8.7312,3.4968-6.2365-2.0981-6.86-1.3987a5.7558,5.7558,0,0,0,0,5.5949c1.2473,2.0981,4.9893,5.5949,3.742,7.693s-3.1183,4.1962-1.871,6.2943,1.871,7.6931,1.871,11.19a25.9514,25.9514,0,0,0,1.6243,8.4163c.082-.01.165-.0125.2466-.0239,0,0,1.871-3.4968,3.1183-3.4968S102.5376,287.9873,103.7849,285.19Z" transform="translate(-62 -160.7373)"/><path class="cls-4" d="M90.0645,235.5348a12.5883,12.5883,0,0,1-5.4575,1.3534c.0033,1.4138-.1486,2.8428-.779,2.8428-1.2474,0-5.6129-.6993-3.742,1.3988s4.9893,1.3987,6.2366.6993,1.8709-.6993,3.7419,0,3.742.6994,2.4946-1.3987a7.7808,7.7808,0,0,1-.78-5.98A19.0981,19.0981,0,0,1,90.0645,235.5348Z" transform="translate(-62 -160.7373)"/><path class="cls-1" d="M187.6774,340.7848s1.871-3.4968,3.1183-3.4968,3.7419.6993,4.9892-2.0981l2.4947-5.595a6.8559,6.8559,0,0,0,3.7419-1.3987c1.871-1.3987,3.1183-4.1962,4.9893-4.1962h3.7419A10.5014,10.5014,0,0,0,212,319.1044c0-2.7974-1.2473-4.1962-1.2473-7.693s1.2473-9.0918.6236-12.5886a30.306,30.306,0,0,0-1.8709-6.2943s-3.1183-4.1962-5.6129-4.8956-6.2366-.6993-8.7312-2.0981-9.3548-2.7975-9.3548-2.7975a15.5543,15.5543,0,0,1-3.742,2.7975c-2.4946,1.3988-5.6129,1.3988-7.4839,1.3988s-4.9892,1.3987-8.1075,1.3987a12.7081,12.7081,0,0,0-5.6129,1.3987s-1.871,4.8956-1.2473,8.3924,1.2473,6.9937,0,9.0918-1.2473,9.0918-1.2473,9.0918a3.9186,3.9186,0,0,0-3.1183,2.0981A9.0847,9.0847,0,0,0,154,322.6013a6.78,6.78,0,0,1,4.3656,3.4968c1.2473,2.7975,5.6129,6.2943,8.1075,6.9937s4.3656,2.7974,7.4839,4.1962S182.6882,341.4842,187.6774,340.7848Z" transform="translate(-62 -160.7373)"/><path class="cls-2" d="M202.6452,300.2215a57.52,57.52,0,0,0,7.7692-5.2284c-.48-1.4994-.909-2.4646-.909-2.4646s-3.1183-4.1962-5.6129-4.8956-6.2366-.6993-8.7312-2.0981-9.3548-2.7975-9.3548-2.7975a15.5543,15.5543,0,0,1-3.742,2.7975c-2.4946,1.3988-5.6129,1.3988-7.4839,1.3988s-4.9892,1.3987-8.1075,1.3987a12.78,12.78,0,0,0-5.3907,1.284,12.7417,12.7417,0,0,1,4.1434.8141c3.1183,1.3987,7.4839,2.0981,7.4839,3.4968s-.7646,3.9864,2.4946,4.8956c2.6145.7293,4.2952-.9982,8.7312,4.8956l3.1183.6993a46.0916,46.0916,0,0,1,5.6129,1.3988C194.5376,306.5158,199.5269,301.62,202.6452,300.2215Z" transform="translate(-62 -160.7373)"/><path class="cls-3" d="M195.7849,335.19l2.4947-5.595a6.8559,6.8559,0,0,0,3.7419-1.3987c1.871-1.3987,3.1183-4.1962,4.9893-4.1962h3.7419A10.5014,10.5014,0,0,0,212,319.1044c0-2.7974-1.2473-4.1962-1.2473-7.693s1.2473-9.0918.6236-12.5886a30.306,30.306,0,0,0-1.8709-6.2943,23.8707,23.8707,0,0,0-3.2256-3.4663,7.4492,7.4492,0,0,0-2.3873-.73c-2.4947,0-2.4947,2.7975-3.1183,4.1962s-1.871-2.7975-3.1183-3.4968-10.6021,0-9.9785,2.0981,4.3656,3.4968,5.6129,2.0981,3.1183.6993,3.742,1.3987a4.3193,4.3193,0,0,0,4.3655.6994c1.871-.6994,3.742.6993,2.4947,1.3987s-3.742,1.3987-6.2366,2.7975-6.2365,4.1962-8.7312,3.4968-6.2365-2.0981-6.86-1.3987a5.7558,5.7558,0,0,0,0,5.5949c1.2473,2.0981,4.9893,5.5949,3.742,7.693s-3.1183,4.1962-1.871,6.2943,1.871,7.6931,1.871,11.19a25.9514,25.9514,0,0,0,1.6243,8.4163c.082-.01.165-.0125.2466-.0239,0,0,1.871-3.4968,3.1183-3.4968S194.5376,337.9873,195.7849,335.19Z" transform="translate(-62 -160.7373)"/><path class="cls-4" d="M182.0645,285.5348a12.5883,12.5883,0,0,1-5.4575,1.3534c.0033,1.4138-.1486,2.8428-.779,2.8428-1.2474,0-5.6129-.6993-3.742,1.3988s4.9893,1.3987,6.2366.6993,1.8709-.6993,3.7419,0,3.742.6994,2.4946-1.3987a7.7808,7.7808,0,0,1-.78-5.98A19.0981,19.0981,0,0,1,182.0645,285.5348Z" transform="translate(-62 -160.7373)"/><path class="cls-1" d="M283.6774,242.7848s1.871-3.4968,3.1183-3.4968,3.7419.6993,4.9892-2.0981l2.4947-5.595a6.8559,6.8559,0,0,0,3.7419-1.3987c1.871-1.3987,3.1183-4.1962,4.9893-4.1962h3.7419A10.5014,10.5014,0,0,0,308,221.1044c0-2.7974-1.2473-4.1962-1.2473-7.693s1.2473-9.0918.6236-12.5886a30.306,30.306,0,0,0-1.8709-6.2943s-3.1183-4.1962-5.6129-4.8956-6.2366-.6993-8.7312-2.0981-9.3548-2.7975-9.3548-2.7975a15.5543,15.5543,0,0,1-3.742,2.7975c-2.4946,1.3988-5.6129,1.3988-7.4839,1.3988s-4.9892,1.3987-8.1075,1.3987a12.7081,12.7081,0,0,0-5.6129,1.3987s-1.871,4.8956-1.2473,8.3924,1.2473,6.9937,0,9.0918-1.2473,9.0918-1.2473,9.0918a3.9186,3.9186,0,0,0-3.1183,2.0981A9.0847,9.0847,0,0,0,250,224.6013a6.78,6.78,0,0,1,4.3656,3.4968c1.2473,2.7975,5.6129,6.2943,8.1075,6.9937s4.3656,2.7974,7.4839,4.1962S278.6882,243.4842,283.6774,242.7848Z" transform="translate(-62 -160.7373)"/><path class="cls-2" d="M298.6452,202.2215a57.52,57.52,0,0,0,7.7692-5.2284c-.48-1.4994-.909-2.4646-.909-2.4646s-3.1183-4.1962-5.6129-4.8956-6.2366-.6993-8.7312-2.0981-9.3548-2.7975-9.3548-2.7975a15.5543,15.5543,0,0,1-3.742,2.7975c-2.4946,1.3988-5.6129,1.3988-7.4839,1.3988s-4.9892,1.3987-8.1075,1.3987a12.78,12.78,0,0,0-5.3907,1.284,12.7417,12.7417,0,0,1,4.1434.8141c3.1183,1.3987,7.4839,2.0981,7.4839,3.4968s-.7646,3.9864,2.4946,4.8956c2.6145.7293,4.2952-.9982,8.7312,4.8956l3.1183.6993a46.0916,46.0916,0,0,1,5.6129,1.3988C290.5376,208.5158,295.5269,203.62,298.6452,202.2215Z" transform="translate(-62 -160.7373)"/><path class="cls-3" d="M291.7849,237.19l2.4947-5.595a6.8559,6.8559,0,0,0,3.7419-1.3987c1.871-1.3987,3.1183-4.1962,4.9893-4.1962h3.7419A10.5014,10.5014,0,0,0,308,221.1044c0-2.7974-1.2473-4.1962-1.2473-7.693s1.2473-9.0918.6236-12.5886a30.306,30.306,0,0,0-1.8709-6.2943,23.8707,23.8707,0,0,0-3.2256-3.4663,7.4492,7.4492,0,0,0-2.3873-.73c-2.4947,0-2.4947,2.7975-3.1183,4.1962s-1.871-2.7975-3.1183-3.4968-10.6021,0-9.9785,2.0981,4.3656,3.4968,5.6129,2.0981,3.1183.6993,3.742,1.3987a4.3193,4.3193,0,0,0,4.3655.6994c1.871-.6994,3.742.6993,2.4947,1.3987s-3.742,1.3987-6.2366,2.7975-6.2365,4.1962-8.7312,3.4968-6.2365-2.0981-6.86-1.3987a5.7558,5.7558,0,0,0,0,5.5949c1.2473,2.0981,4.9893,5.5949,3.742,7.693s-3.1183,4.1962-1.871,6.2943,1.871,7.6931,1.871,11.19a25.9514,25.9514,0,0,0,1.6243,8.4163c.082-.01.165-.0125.2466-.0239,0,0,1.871-3.4968,3.1183-3.4968S290.5376,239.9873,291.7849,237.19Z" transform="translate(-62 -160.7373)"/><path class="cls-4" d="M278.0645,187.5348a12.5883,12.5883,0,0,1-5.4575,1.3534c.0033,1.4138-.1486,2.8428-.779,2.8428-1.2474,0-5.6129-.6993-3.742,1.3988s4.9893,1.3987,6.2366.6993,1.8709-.6993,3.7419,0,3.742.6994,2.4946-1.3987a7.7808,7.7808,0,0,1-.78-5.98A19.0981,19.0981,0,0,1,278.0645,187.5348Z" transform="translate(-62 -160.7373)"/><path class="cls-1" d="M220.9677,270.9087s1.3871-2.481,2.3119-2.481,2.7742.4962,3.6989-1.4886l1.85-3.9695a5.2376,5.2376,0,0,0,2.7742-.9924c1.387-.9924,2.3118-2.9772,3.6989-2.9772h2.7742A7.2148,7.2148,0,0,0,239,255.5266c0-1.9848-.9247-2.9772-.9247-5.4581s.9247-6.4506.4623-8.9316a20.83,20.83,0,0,0-1.3871-4.4657s-2.3118-2.9772-4.1613-3.4734-4.6236-.4962-6.4731-1.4886-6.9355-1.9848-6.9355-1.9848a11.4733,11.4733,0,0,1-2.7741,1.9848,11.913,11.913,0,0,1-5.5484.9924c-1.3871,0-3.699.9924-6.0108.9924a9.7444,9.7444,0,0,0-4.1613.9924s-1.3871,3.4733-.9247,5.9543.9247,4.962,0,6.4506-.9247,6.4505-.9247,6.4505a2.9317,2.9317,0,0,0-2.3119,1.4886A6.231,6.231,0,0,0,196,258.0076a5.02,5.02,0,0,1,3.2366,2.481,11.98,11.98,0,0,0,6.0107,4.962c1.85.4962,3.2366,1.9847,5.5484,2.9771S217.2688,271.4049,220.9677,270.9087Z" transform="translate(-62 -160.7373)"/><path class="cls-2" d="M232.0645,242.1293a42.8371,42.8371,0,0,0,5.76-3.7095,18.559,18.559,0,0,0-.674-1.7486s-2.3118-2.9772-4.1613-3.4734-4.6236-.4962-6.4731-1.4886-6.9355-1.9848-6.9355-1.9848a11.4733,11.4733,0,0,1-2.7741,1.9848,11.913,11.913,0,0,1-5.5484.9924c-1.3871,0-3.699.9924-6.0108.9924a9.8135,9.8135,0,0,0-3.9965.911,9.8184,9.8184,0,0,1,3.0718.5776c2.3118.9924,5.5484,1.4886,5.5484,2.4809s-.5668,2.8283,1.8494,3.4734c1.9383.5175,3.1844-.7082,6.4731,3.4734l2.3119.4962a35.4525,35.4525,0,0,1,4.1613.9924C226.0538,246.5951,229.7527,243.1217,232.0645,242.1293Z" transform="translate(-62 -160.7373)"/><path class="cls-3" d="M226.9785,266.9391l1.85-3.9695a5.2376,5.2376,0,0,0,2.7742-.9924c1.387-.9924,2.3118-2.9772,3.6989-2.9772h2.7742A7.2148,7.2148,0,0,0,239,255.5266c0-1.9848-.9247-2.9772-.9247-5.4581s.9247-6.4506.4623-8.9316a20.83,20.83,0,0,0-1.3871-4.4657,17.2272,17.2272,0,0,0-2.3914-2.4594,5.71,5.71,0,0,0-1.77-.5178c-1.8494,0-1.8494,1.9848-2.3118,2.9772s-1.3871-1.9848-2.3118-2.481-7.86,0-7.3979,1.4886,3.2366,2.4809,4.1613,1.4885,2.3119.4962,2.7742.9924a3.313,3.313,0,0,0,3.2366.4962c1.3871-.4962,2.7742.4962,1.8494.9924s-2.7741.9924-4.6236,1.9848-4.6237,2.9772-6.4731,2.481-4.6237-1.4886-5.086-.9924a3.9311,3.9311,0,0,0,0,3.97c.9247,1.4886,3.6989,3.97,2.7741,5.4581s-2.3118,2.9772-1.3871,4.4658,1.3871,5.4582,1.3871,7.9392a17.7123,17.7123,0,0,0,1.2043,5.9713c.0608-.0068.1223-.0089.1828-.017,0,0,1.3871-2.481,2.3119-2.481S226.0538,268.9239,226.9785,266.9391Z" transform="translate(-62 -160.7373)"/><path class="cls-4" d="M216.8065,231.7092a9.674,9.674,0,0,1-4.0462.96c.0025,1.0031-.11,2.017-.5775,2.017-.9247,0-4.1613-.4962-2.7742.9924s3.6989.9924,4.6237.4962,1.3871-.4962,2.7742,0,2.7741.4962,1.8494-.9924a5.314,5.314,0,0,1-.5785-4.2425A14.26,14.26,0,0,1,216.8065,231.7092Z" transform="translate(-62 -160.7373)"/><path class="cls-1" d="M345.9677,276.9087s1.3871-2.481,2.3119-2.481,2.7742.4962,3.6989-1.4886l1.8495-3.9695a5.2376,5.2376,0,0,0,2.7742-.9924c1.387-.9924,2.3118-2.9772,3.6989-2.9772h2.7742A7.2148,7.2148,0,0,0,364,261.5266c0-1.9848-.9247-2.9772-.9247-5.4581s.9247-6.4506.4623-8.9316a20.83,20.83,0,0,0-1.3871-4.4657s-2.3118-2.9772-4.1613-3.4734-4.6236-.4962-6.4731-1.4886-6.9355-1.9848-6.9355-1.9848a11.4733,11.4733,0,0,1-2.7741,1.9848,11.913,11.913,0,0,1-5.5484.9924c-1.3871,0-3.699.9924-6.0108.9924a9.7444,9.7444,0,0,0-4.1613.9924s-1.3871,3.4733-.9247,5.9543.9247,4.962,0,6.4506-.9247,6.4505-.9247,6.4505a2.9317,2.9317,0,0,0-2.3119,1.4886A6.231,6.231,0,0,0,321,264.0076a5.02,5.02,0,0,1,3.2366,2.481,11.98,11.98,0,0,0,6.0107,4.962c1.8495.4962,3.2366,1.9847,5.5484,2.9771S342.2688,277.4049,345.9677,276.9087Z" transform="translate(-62 -160.7373)"/><path class="cls-2" d="M357.0645,248.1293a42.8371,42.8371,0,0,0,5.76-3.7095,18.559,18.559,0,0,0-.674-1.7486s-2.3118-2.9772-4.1613-3.4734-4.6236-.4962-6.4731-1.4886-6.9355-1.9848-6.9355-1.9848a11.4733,11.4733,0,0,1-2.7741,1.9848,11.913,11.913,0,0,1-5.5484.9924c-1.3871,0-3.699.9924-6.0108.9924a9.8135,9.8135,0,0,0-3.9965.911,9.8184,9.8184,0,0,1,3.0718.5776c2.3118.9924,5.5484,1.4886,5.5484,2.4809s-.5668,2.8283,1.8494,3.4734c1.9383.5175,3.1844-.7082,6.4731,3.4734l2.3119.4962a35.4525,35.4525,0,0,1,4.1613.9924C351.0538,252.5951,354.7527,249.1217,357.0645,248.1293Z" transform="translate(-62 -160.7373)"/><path class="cls-3" d="M351.9785,272.9391l1.8495-3.9695a5.2376,5.2376,0,0,0,2.7742-.9924c1.387-.9924,2.3118-2.9772,3.6989-2.9772h2.7742A7.2148,7.2148,0,0,0,364,261.5266c0-1.9848-.9247-2.9772-.9247-5.4581s.9247-6.4506.4623-8.9316a20.83,20.83,0,0,0-1.3871-4.4657,17.2272,17.2272,0,0,0-2.3914-2.4594,5.71,5.71,0,0,0-1.77-.5178c-1.8494,0-1.8494,1.9848-2.3118,2.9772s-1.3871-1.9848-2.3118-2.481-7.86,0-7.3979,1.4886,3.2366,2.4809,4.1613,1.4885,2.3119.4962,2.7742.9924a3.313,3.313,0,0,0,3.2366.4962c1.3871-.4962,2.7742.4962,1.8494.9924s-2.7741.9924-4.6236,1.9848-4.6237,2.9772-6.4731,2.481-4.6237-1.4886-5.086-.9924a3.9311,3.9311,0,0,0,0,3.97c.9247,1.4886,3.6989,3.97,2.7741,5.4581s-2.3118,2.9772-1.3871,4.4658,1.3871,5.4582,1.3871,7.9392a17.7123,17.7123,0,0,0,1.2043,5.9713c.0608-.0068.1223-.0089.1828-.017,0,0,1.3871-2.481,2.3119-2.481S351.0538,274.9239,351.9785,272.9391Z" transform="translate(-62 -160.7373)"/><path class="cls-4" d="M341.8065,237.7092a9.674,9.674,0,0,1-4.0462.96c.0025,1.0031-.11,2.017-.5775,2.017-.9247,0-4.1613-.4962-2.7742.9924s3.6989.9924,4.6237.4962,1.3871-.4962,2.7742,0,2.7741.4962,1.8494-.9924a5.314,5.314,0,0,1-.5785-4.2425A14.26,14.26,0,0,1,341.8065,237.7092Z" transform="translate(-62 -160.7373)"/><path class="cls-1" d="M411.9677,308.9087s1.3871-2.481,2.3119-2.481,2.7742.4962,3.6989-1.4886l1.8495-3.9695a5.2376,5.2376,0,0,0,2.7742-.9924c1.387-.9924,2.3118-2.9772,3.6989-2.9772h2.7742A7.2148,7.2148,0,0,0,430,293.5266c0-1.9848-.9247-2.9772-.9247-5.4581s.9247-6.4506.4623-8.9316a20.83,20.83,0,0,0-1.3871-4.4657s-2.3118-2.9772-4.1613-3.4734-4.6236-.4962-6.4731-1.4886-6.9355-1.9848-6.9355-1.9848a11.4733,11.4733,0,0,1-2.7741,1.9848,11.913,11.913,0,0,1-5.5484.9924c-1.3871,0-3.699.9924-6.0108.9924a9.7444,9.7444,0,0,0-4.1613.9924s-1.3871,3.4733-.9247,5.9543.9247,4.962,0,6.4506-.9247,6.4505-.9247,6.4505a2.9317,2.9317,0,0,0-2.3119,1.4886A6.231,6.231,0,0,0,387,296.0076a5.02,5.02,0,0,1,3.2366,2.481,11.98,11.98,0,0,0,6.0107,4.962c1.8495.4962,3.2366,1.9847,5.5484,2.9771S408.2688,309.4049,411.9677,308.9087Z" transform="translate(-62 -160.7373)"/><path class="cls-2" d="M423.0645,280.1293a42.8371,42.8371,0,0,0,5.76-3.7095,18.559,18.559,0,0,0-.674-1.7486s-2.3118-2.9772-4.1613-3.4734-4.6236-.4962-6.4731-1.4886-6.9355-1.9848-6.9355-1.9848a11.4733,11.4733,0,0,1-2.7741,1.9848,11.913,11.913,0,0,1-5.5484.9924c-1.3871,0-3.699.9924-6.0108.9924a9.8135,9.8135,0,0,0-3.9965.911,9.8184,9.8184,0,0,1,3.0718.5776c2.3118.9924,5.5484,1.4886,5.5484,2.4809s-.5668,2.8283,1.8494,3.4734c1.9383.5175,3.1844-.7082,6.4731,3.4734l2.3119.4962a35.4525,35.4525,0,0,1,4.1613.9924C417.0538,284.5951,420.7527,281.1217,423.0645,280.1293Z" transform="translate(-62 -160.7373)"/><path class="cls-3" d="M417.9785,304.9391l1.8495-3.9695a5.2376,5.2376,0,0,0,2.7742-.9924c1.387-.9924,2.3118-2.9772,3.6989-2.9772h2.7742A7.2148,7.2148,0,0,0,430,293.5266c0-1.9848-.9247-2.9772-.9247-5.4581s.9247-6.4506.4623-8.9316a20.83,20.83,0,0,0-1.3871-4.4657,17.2272,17.2272,0,0,0-2.3914-2.4594,5.71,5.71,0,0,0-1.77-.5178c-1.8494,0-1.8494,1.9848-2.3118,2.9772s-1.3871-1.9848-2.3118-2.481-7.86,0-7.3979,1.4886,3.2366,2.4809,4.1613,1.4885,2.3119.4962,2.7742.9924a3.313,3.313,0,0,0,3.2366.4962c1.3871-.4962,2.7742.4962,1.8494.9924s-2.7741.9924-4.6236,1.9848-4.6237,2.9772-6.4731,2.481-4.6237-1.4886-5.086-.9924a3.9311,3.9311,0,0,0,0,3.97c.9247,1.4886,3.6989,3.97,2.7741,5.4581s-2.3118,2.9772-1.3871,4.4658,1.3871,5.4582,1.3871,7.9392a17.7123,17.7123,0,0,0,1.2043,5.9713c.0608-.0068.1223-.0089.1828-.017,0,0,1.3871-2.481,2.3119-2.481S417.0538,306.9239,417.9785,304.9391Z" transform="translate(-62 -160.7373)"/><path class="cls-4" d="M407.8065,269.7092a9.674,9.674,0,0,1-4.0462.96c.0025,1.0031-.11,2.017-.5775,2.017-.9247,0-4.1613-.4962-2.7742.9924s3.6989.9924,4.6237.4962,1.3871-.4962,2.7742,0,2.7741.4962,1.8494-.9924a5.314,5.314,0,0,1-.5785-4.2425A14.26,14.26,0,0,1,407.8065,269.7092Z" transform="translate(-62 -160.7373)"/><path class="cls-1" d="M298.6774,338.7848s1.871-3.4968,3.1183-3.4968,3.7419.6993,4.9892-2.0981l2.4947-5.595a6.8559,6.8559,0,0,0,3.7419-1.3987c1.871-1.3987,3.1183-4.1962,4.9893-4.1962h3.7419A10.5014,10.5014,0,0,0,323,317.1044c0-2.7974-1.2473-4.1962-1.2473-7.693s1.2473-9.0918.6236-12.5886a30.306,30.306,0,0,0-1.8709-6.2943s-3.1183-4.1962-5.6129-4.8956-6.2366-.6993-8.7312-2.0981-9.3548-2.7975-9.3548-2.7975a15.5543,15.5543,0,0,1-3.742,2.7975c-2.4946,1.3988-5.6129,1.3988-7.4839,1.3988s-4.9892,1.3987-8.1075,1.3987a12.7081,12.7081,0,0,0-5.6129,1.3987s-1.871,4.8956-1.2473,8.3924,1.2473,6.9937,0,9.0918-1.2473,9.0918-1.2473,9.0918a3.9186,3.9186,0,0,0-3.1183,2.0981A9.0847,9.0847,0,0,0,265,320.6013a6.78,6.78,0,0,1,4.3656,3.4968c1.2473,2.7975,5.6129,6.2943,8.1075,6.9937s4.3656,2.7974,7.4839,4.1962S293.6882,339.4842,298.6774,338.7848Z" transform="translate(-62 -160.7373)"/><path class="cls-2" d="M313.6452,298.2215a57.52,57.52,0,0,0,7.7692-5.2284c-.48-1.4994-.909-2.4646-.909-2.4646s-3.1183-4.1962-5.6129-4.8956-6.2366-.6993-8.7312-2.0981-9.3548-2.7975-9.3548-2.7975a15.5543,15.5543,0,0,1-3.742,2.7975c-2.4946,1.3988-5.6129,1.3988-7.4839,1.3988s-4.9892,1.3987-8.1075,1.3987a12.78,12.78,0,0,0-5.3907,1.284,12.7417,12.7417,0,0,1,4.1434.8141c3.1183,1.3987,7.4839,2.0981,7.4839,3.4968s-.7646,3.9864,2.4946,4.8956c2.6145.7293,4.2952-.9982,8.7312,4.8956l3.1183.6993a46.0916,46.0916,0,0,1,5.6129,1.3988C305.5376,304.5158,310.5269,299.62,313.6452,298.2215Z" transform="translate(-62 -160.7373)"/><path class="cls-3" d="M306.7849,333.19l2.4947-5.595a6.8559,6.8559,0,0,0,3.7419-1.3987c1.871-1.3987,3.1183-4.1962,4.9893-4.1962h3.7419A10.5014,10.5014,0,0,0,323,317.1044c0-2.7974-1.2473-4.1962-1.2473-7.693s1.2473-9.0918.6236-12.5886a30.306,30.306,0,0,0-1.8709-6.2943,23.8707,23.8707,0,0,0-3.2256-3.4663,7.4492,7.4492,0,0,0-2.3873-.73c-2.4947,0-2.4947,2.7975-3.1183,4.1962s-1.871-2.7975-3.1183-3.4968-10.6021,0-9.9785,2.0981,4.3656,3.4968,5.6129,2.0981,3.1183.6993,3.742,1.3987a4.3193,4.3193,0,0,0,4.3655.6994c1.871-.6994,3.742.6993,2.4947,1.3987s-3.742,1.3987-6.2366,2.7975-6.2365,4.1962-8.7312,3.4968-6.2365-2.0981-6.86-1.3987a5.7558,5.7558,0,0,0,0,5.5949c1.2473,2.0981,4.9893,5.5949,3.742,7.693s-3.1183,4.1962-1.871,6.2943,1.871,7.6931,1.871,11.19a25.9514,25.9514,0,0,0,1.6243,8.4163c.082-.01.165-.0125.2466-.0239,0,0,1.871-3.4968,3.1183-3.4968S305.5376,335.9873,306.7849,333.19Z" transform="translate(-62 -160.7373)"/><path class="cls-4" d="M293.0645,283.5348a12.5883,12.5883,0,0,1-5.4575,1.3534c.0033,1.4138-.1486,2.8428-.779,2.8428-1.2474,0-5.6129-.6993-3.742,1.3988s4.9893,1.3987,6.2366.6993,1.8709-.6993,3.7419,0,3.742.6994,2.4946-1.3987a7.7808,7.7808,0,0,1-.78-5.98A19.0981,19.0981,0,0,1,293.0645,283.5348Z" transform="translate(-62 -160.7373)"/><path class="cls-1" d="M167.6774,218.7848s1.871-3.4968,3.1183-3.4968,3.7419.6993,4.9892-2.0981l2.4947-5.595a6.8559,6.8559,0,0,0,3.7419-1.3987c1.871-1.3987,3.1183-4.1962,4.9893-4.1962h3.7419A10.5014,10.5014,0,0,0,192,197.1044c0-2.7974-1.2473-4.1962-1.2473-7.693s1.2473-9.0918.6236-12.5886a30.306,30.306,0,0,0-1.8709-6.2943s-3.1183-4.1962-5.6129-4.8956-6.2366-.6993-8.7312-2.0981-9.3548-2.7975-9.3548-2.7975a15.5543,15.5543,0,0,1-3.742,2.7975c-2.4946,1.3988-5.6129,1.3988-7.4839,1.3988s-4.9892,1.3987-8.1075,1.3987a12.7081,12.7081,0,0,0-5.6129,1.3987s-1.871,4.8956-1.2473,8.3924,1.2473,6.9937,0,9.0918-1.2473,9.0918-1.2473,9.0918a3.9186,3.9186,0,0,0-3.1183,2.0981A9.0847,9.0847,0,0,0,134,200.6013a6.78,6.78,0,0,1,4.3656,3.4968c1.2473,2.7975,5.6129,6.2943,8.1075,6.9937s4.3656,2.7974,7.4839,4.1962S162.6882,219.4842,167.6774,218.7848Z" transform="translate(-62 -160.7373)"/><path class="cls-2" d="M182.6452,178.2215a57.52,57.52,0,0,0,7.7692-5.2284c-.48-1.4994-.909-2.4646-.909-2.4646s-3.1183-4.1962-5.6129-4.8956-6.2366-.6993-8.7312-2.0981-9.3548-2.7975-9.3548-2.7975a15.5543,15.5543,0,0,1-3.742,2.7975c-2.4946,1.3988-5.6129,1.3988-7.4839,1.3988s-4.9892,1.3987-8.1075,1.3987a12.78,12.78,0,0,0-5.3907,1.284,12.7417,12.7417,0,0,1,4.1434.8141c3.1183,1.3987,7.4839,2.0981,7.4839,3.4968s-.7646,3.9864,2.4946,4.8956c2.6145.7293,4.2952-.9982,8.7312,4.8956l3.1183.6993a46.0916,46.0916,0,0,1,5.6129,1.3988C174.5376,184.5158,179.5269,179.62,182.6452,178.2215Z" transform="translate(-62 -160.7373)"/><path class="cls-3" d="M175.7849,213.19l2.4947-5.595a6.8559,6.8559,0,0,0,3.7419-1.3987c1.871-1.3987,3.1183-4.1962,4.9893-4.1962h3.7419A10.5014,10.5014,0,0,0,192,197.1044c0-2.7974-1.2473-4.1962-1.2473-7.693s1.2473-9.0918.6236-12.5886a30.306,30.306,0,0,0-1.8709-6.2943,23.8707,23.8707,0,0,0-3.2256-3.4663,7.4492,7.4492,0,0,0-2.3873-.73c-2.4947,0-2.4947,2.7975-3.1183,4.1962s-1.871-2.7975-3.1183-3.4968-10.6021,0-9.9785,2.0981,4.3656,3.4968,5.6129,2.0981,3.1183.6993,3.742,1.3987a4.3193,4.3193,0,0,0,4.3655.6994c1.871-.6994,3.742.6993,2.4947,1.3987s-3.742,1.3987-6.2366,2.7975-6.2365,4.1962-8.7312,3.4968-6.2365-2.0981-6.86-1.3987a5.7558,5.7558,0,0,0,0,5.5949c1.2473,2.0981,4.9893,5.5949,3.742,7.693s-3.1183,4.1962-1.871,6.2943,1.871,7.6931,1.871,11.19a25.9514,25.9514,0,0,0,1.6243,8.4163c.082-.01.165-.0125.2466-.0239,0,0,1.871-3.4968,3.1183-3.4968S174.5376,215.9873,175.7849,213.19Z" transform="translate(-62 -160.7373)"/><path class="cls-4" d="M162.0645,163.5348a12.5883,12.5883,0,0,1-5.4575,1.3534c.0033,1.4138-.1486,2.8428-.779,2.8428-1.2474,0-5.6129-.6993-3.742,1.3988s4.9893,1.3987,6.2366.6993,1.8709-.6993,3.7419,0,3.742.6994,2.4946-1.3987a7.7808,7.7808,0,0,1-.78-5.98A19.0981,19.0981,0,0,1,162.0645,163.5348Z" transform="translate(-62 -160.7373)"/><path class="cls-1" d="M385.6452,226.7543s1.258-2.24,2.0967-2.24,2.5162.4481,3.3549-1.3443l1.6774-3.5847a4.7645,4.7645,0,0,0,2.5161-.8962c1.2581-.8962,2.0968-2.6886,3.3549-2.6886h2.5161A6.4951,6.4951,0,0,0,402,212.8633c0-1.7923-.8387-2.6885-.8387-4.929s.8387-5.8253.4193-8.0657a18.758,18.758,0,0,0-1.258-4.0329s-2.0968-2.6886-3.7742-3.1367-4.1936-.4481-5.871-1.3442a33.9257,33.9257,0,0,0-6.29-1.7924,10.4026,10.4026,0,0,1-2.5161,1.7924,10.8476,10.8476,0,0,1-5.0323.8961c-1.2581,0-3.3548.8962-5.4516.8962a8.8674,8.8674,0,0,0-3.7742.8962s-1.2581,3.1367-.8387,5.3772.8387,4.4809,0,5.8252-.8387,5.8253-.8387,5.8253a2.6615,2.6615,0,0,0-2.0968,1.3442A5.6084,5.6084,0,0,0,363,215.1038a4.5524,4.5524,0,0,1,2.9355,2.24,10.8555,10.8555,0,0,0,5.4516,4.4809c1.6774.4481,2.9355,1.7924,5.0323,2.6886S382.29,227.2024,385.6452,226.7543Z" transform="translate(-62 -160.7373)"/><path class="cls-2" d="M395.71,200.7648a38.8777,38.8777,0,0,0,5.2241-3.35,16.74,16.74,0,0,0-.6112-1.5791s-2.0968-2.6886-3.7742-3.1367-4.1936-.4481-5.871-1.3442a33.9257,33.9257,0,0,0-6.29-1.7924,10.4026,10.4026,0,0,1-2.5161,1.7924,10.8476,10.8476,0,0,1-5.0323.8961c-1.2581,0-3.3548.8962-5.4516.8962a8.9325,8.9325,0,0,0-3.6248.8227,8.9394,8.9394,0,0,1,2.7861.5216c2.0968.8962,5.0322,1.3443,5.0322,2.24s-.514,2.5541,1.6775,3.1367c1.758.4673,2.8881-.64,5.8709,3.1366l2.0968.4481A32.2738,32.2738,0,0,1,389,204.35C390.2581,204.7976,393.6129,201.6609,395.71,200.7648Z" transform="translate(-62 -160.7373)"/><path class="cls-3" d="M391.0968,223.17l1.6774-3.5847a4.7645,4.7645,0,0,0,2.5161-.8962c1.2581-.8962,2.0968-2.6886,3.3549-2.6886h2.5161A6.4951,6.4951,0,0,0,402,212.8633c0-1.7923-.8387-2.6885-.8387-4.929s.8387-5.8253.4193-8.0657a18.758,18.758,0,0,0-1.258-4.0329,15.5886,15.5886,0,0,0-2.169-2.2209,5.1941,5.1941,0,0,0-1.6052-.4677c-1.6774,0-1.6774,1.7924-2.0968,2.6886s-1.2581-1.7924-2.0968-2.24-7.129,0-6.71,1.3443,2.9354,2.24,3.7742,1.3443,2.0967.4481,2.5161.8962a3.0149,3.0149,0,0,0,2.9355.4481c1.258-.4481,2.5161.4481,1.6774.8962s-2.5161.8962-4.1936,1.7924-4.1935,2.6885-5.8709,2.24-4.1936-1.3442-4.6129-.8962a3.537,3.537,0,0,0,0,3.5848c.8387,1.3443,3.3548,3.5848,2.5161,4.9291s-2.0968,2.6885-1.2581,4.0328,1.2581,4.9291,1.2581,7.1695a15.9337,15.9337,0,0,0,1.0923,5.3925c.0551-.0061.1109-.008.1658-.0153,0,0,1.258-2.24,2.0967-2.24S390.2581,224.9619,391.0968,223.17Z" transform="translate(-62 -160.7373)"/><path class="cls-4" d="M381.871,191.3548a8.8047,8.8047,0,0,1-3.67.8671c.0023.9058-.1,1.8214-.5238,1.8214-.8387,0-3.7742-.4481-2.5161.8962s3.3548.8962,4.1935.4481,1.2581-.4481,2.5162,0,2.5161.4481,1.6774-.8962a4.7809,4.7809,0,0,1-.5247-3.8312A12.9214,12.9214,0,0,1,381.871,191.3548Z" transform="translate(-62 -160.7373)"/></g></g></svg>