<svg xmlns="http://www.w3.org/2000/svg" xmlns:xlink="http://www.w3.org/1999/xlink" viewBox="0 0 407.9597 165.4215"><defs><style>.cls-1{fill:url(#linear-gradient);}.cls-2{fill:url(#linear-gradient-2);}.cls-3{fill:url(#linear-gradient-3);}.cls-4{fill:url(#linear-gradient-4);}.cls-5{fill:url(#linear-gradient-5);}.cls-6{fill:url(#linear-gradient-6);}.cls-7{fill:url(#linear-gradient-7);}.cls-8{fill:url(#linear-gradient-8);}.cls-9{fill:url(#linear-gradient-9);}.cls-10{fill:url(#linear-gradient-10);}.cls-11{fill:url(#linear-gradient-11);}.cls-12{fill:url(#linear-gradient-12);}</style><linearGradient id="linear-gradient" x1="45.0403" y1="277.7929" x2="150.98" y2="277.7929" gradientUnits="userSpaceOnUse"><stop offset="0" stop-color="#978e6f"/><stop offset="0.3564" stop-color="#bcb6a0"/><stop offset="1" stop-color="#fcfbf6"/></linearGradient><linearGradient id="linear-gradient-2" x1="99.5338" y1="251.1864" x2="99.5338" y2="297.773" gradientUnits="userSpaceOnUse"><stop offset="0" stop-color="#d6d4c5"/><stop offset="1" stop-color="#fcfbf6"/></linearGradient><linearGradient id="linear-gradient-3" x1="187.9477" y1="313.815" x2="293.8873" y2="313.815" xlink:href="#linear-gradient"/><linearGradient id="linear-gradient-4" x1="242.4411" y1="287.2085" x2="242.4411" y2="333.7951" xlink:href="#linear-gradient-2"/><linearGradient id="linear-gradient-5" x1="347.0603" y1="278.1857" x2="453" y2="278.1857" xlink:href="#linear-gradient"/><linearGradient id="linear-gradient-6" x1="401.5538" y1="251.5792" x2="401.5538" y2="298.1658" xlink:href="#linear-gradient-2"/><linearGradient id="linear-gradient-7" x1="105.5834" y1="214.6065" x2="211.5231" y2="214.6065" xlink:href="#linear-gradient"/><linearGradient id="linear-gradient-8" x1="160.0769" y1="188" x2="160.0769" y2="234.5866" xlink:href="#linear-gradient-2"/><linearGradient id="linear-gradient-9" x1="270.5834" y1="201.6065" x2="376.5231" y2="201.6065" xlink:href="#linear-gradient"/><linearGradient id="linear-gradient-10" x1="325.0769" y1="175" x2="325.0769" y2="221.5866" xlink:href="#linear-gradient-2"/><linearGradient id="linear-gradient-11" x1="200.5834" y1="251.6065" x2="306.5231" y2="251.6065" xlink:href="#linear-gradient"/><linearGradient id="linear-gradient-12" x1="255.0769" y1="225" x2="255.0769" y2="271.5866" xlink:href="#linear-gradient-2"/></defs><title>mozzarella</title><g id="mozarella"><g id="multiple"><path class="cls-1" d="M85.9037,258.1037c-5.1794,1.9041-24.6967.4323-30.7448,4.3233s-10.5843,7.782-10.08,14.6993,3.5281,12.1053,14.6164,18.1579,32.7608,9.5113,46.3692,9.079,28.7288-4.3233,35.785-12.1053,10.5842-18.1579,8.5682-22.0489-7.0562-12.1053-15.6244-14.267-15.12-4.7556-20.6646-4.7556-11.0883,1.297-13.6083,2.594-5.04-.4324-8.0643.4323S89.4318,256.8067,85.9037,258.1037Z" transform="translate(-45.0403 -175)"/><path class="cls-2" d="M74.3114,292.2579c17.64,5.188,27.7207,6.9173,43.8491,4.3233,13.5058-2.1722,23.4746-7.3758,29.32-12.3109,3.1153-5.7823,4.3065-11.4182,2.937-14.0613-2.0161-3.891-7.0562-12.1053-15.6244-14.267s-15.12-4.7556-20.6646-4.7556-11.0883,1.297-13.6083,2.594-5.04-.4324-8.0643.4323-3.024,2.594-6.5521,3.891c-5.18,1.904-24.6967.4323-30.7448,4.3233a40.3053,40.3053,0,0,0-5.5519,4.13,7.4645,7.4645,0,0,0-1.5043,4.5166C48.6067,277.1263,56.6709,287.07,74.3114,292.2579Z" transform="translate(-45.0403 -175)"/><path class="cls-3" d="M228.811,294.1258c-5.1794,1.904-24.6966.4323-30.7448,4.3233s-10.5843,7.782-10.08,14.6993,3.5281,12.1053,14.6164,18.1579,32.7609,9.5113,46.3693,9.079S277.7,336.062,284.7565,328.28s10.5843-18.158,8.5682-22.0489-7.0561-12.1053-15.6244-14.267-15.12-4.7556-20.6645-4.7556-11.0883,1.2969-13.6084,2.5939-5.04-.4323-8.0642.4324S232.3391,292.8288,228.811,294.1258Z" transform="translate(-45.0403 -175)"/><path class="cls-4" d="M217.2187,328.28c17.64,5.188,27.7208,6.9173,43.8492,4.3233,13.5058-2.1722,23.4745-7.3758,29.32-12.311,3.1152-5.7822,4.3065-11.4181,2.9369-14.0612-2.016-3.891-7.0561-12.1053-15.6244-14.267s-15.12-4.7556-20.6645-4.7556-11.0883,1.2969-13.6084,2.5939-5.04-.4323-8.0642.4324-3.0241,2.594-6.5522,3.891c-5.1794,1.904-24.6966.4323-30.7448,4.3233a40.2951,40.2951,0,0,0-5.5519,4.13,7.4649,7.4649,0,0,0-1.5043,4.5165C191.514,313.1484,199.5782,323.092,217.2187,328.28Z" transform="translate(-45.0403 -175)"/><path class="cls-5" d="M387.9237,258.4965c-5.1794,1.904-24.6967.4323-30.7448,4.3233s-10.5843,7.782-10.08,14.6993,3.5281,12.1053,14.6164,18.1579,32.7609,9.5113,46.3692,9.079,28.7288-4.3233,35.785-12.1053,10.5843-18.1579,8.5682-22.0489-7.0562-12.1053-15.6244-14.267-15.12-4.7556-20.6646-4.7556-11.0883,1.297-13.6083,2.594-5.04-.4324-8.0642.4323S391.4518,257.2,387.9237,258.4965Z" transform="translate(-45.0403 -175)"/><path class="cls-6" d="M376.3314,292.6507c17.64,5.188,27.7207,6.9173,43.8491,4.3233,13.5058-2.1722,23.4746-7.3758,29.32-12.311,3.1153-5.7822,4.3065-11.4181,2.937-14.0612-2.016-3.891-7.0562-12.1053-15.6244-14.267s-15.12-4.7556-20.6646-4.7556-11.0883,1.297-13.6083,2.594-5.04-.4324-8.0642.4323-3.0241,2.594-6.5522,3.891c-5.1794,1.904-24.6967.4323-30.7448,4.3233a40.3113,40.3113,0,0,0-5.5519,4.13,7.4644,7.4644,0,0,0-1.5043,4.5165C350.6267,277.5191,358.6909,287.4627,376.3314,292.6507Z" transform="translate(-45.0403 -175)"/><path class="cls-7" d="M146.4468,194.9173c-5.1794,1.9041-24.6967.4323-30.7448,4.3233s-10.5843,7.782-10.08,14.6993,3.5281,12.1053,14.6164,18.158,32.7609,9.5113,46.3692,9.0789,28.7288-4.3233,35.785-12.1053,10.5843-18.1579,8.5682-22.0489-7.0562-12.1053-15.6244-14.2669S180.2157,188,174.6715,188s-11.0883,1.297-13.6083,2.594-5.04-.4323-8.0642.4323S149.9749,193.62,146.4468,194.9173Z" transform="translate(-45.0403 -175)"/><path class="cls-8" d="M134.8545,229.0715c17.64,5.188,27.7207,6.9173,43.8491,4.3233,13.5058-2.1721,23.4746-7.3758,29.32-12.3109,3.1153-5.7823,4.3065-11.4181,2.937-14.0613-2.016-3.891-7.0562-12.1053-15.6244-14.2669S180.2157,188,174.6715,188s-11.0883,1.297-13.6083,2.594-5.04-.4323-8.0642.4323-3.0241,2.594-6.5522,3.891c-5.1794,1.904-24.6967.4323-30.7448,4.3233a40.3113,40.3113,0,0,0-5.5519,4.13,7.4645,7.4645,0,0,0-1.5043,4.5166C109.15,213.94,117.214,223.8835,134.8545,229.0715Z" transform="translate(-45.0403 -175)"/><path class="cls-9" d="M311.4468,181.9173c-5.1794,1.9041-24.6967.4323-30.7448,4.3233s-10.5843,7.782-10.08,14.6993,3.5281,12.1053,14.6164,18.158,32.7609,9.5113,46.3692,9.0789,28.7288-4.3233,35.785-12.1053,10.5843-18.1579,8.5682-22.0489-7.0562-12.1053-15.6244-14.2669S345.2157,175,339.6715,175s-11.0883,1.297-13.6083,2.594-5.04-.4323-8.0642.4323S314.9749,180.62,311.4468,181.9173Z" transform="translate(-45.0403 -175)"/><path class="cls-10" d="M299.8545,216.0715c17.64,5.188,27.7207,6.9173,43.8491,4.3233,13.5058-2.1721,23.4746-7.3758,29.32-12.3109,3.1153-5.7823,4.3065-11.4181,2.937-14.0613-2.016-3.891-7.0562-12.1053-15.6244-14.2669S345.2157,175,339.6715,175s-11.0883,1.297-13.6083,2.594-5.04-.4323-8.0642.4323-3.0241,2.594-6.5522,3.891c-5.1794,1.904-24.6967.4323-30.7448,4.3233a40.3113,40.3113,0,0,0-5.5519,4.13,7.4645,7.4645,0,0,0-1.5043,4.5166C274.15,200.94,282.214,210.8835,299.8545,216.0715Z" transform="translate(-45.0403 -175)"/><path class="cls-11" d="M241.4468,231.9173c-5.1794,1.9041-24.6967.4323-30.7448,4.3233s-10.5843,7.782-10.08,14.6993,3.5281,12.1053,14.6164,18.158,32.7609,9.5113,46.3692,9.0789,28.7288-4.3233,35.785-12.1053,10.5843-18.1579,8.5682-22.0489-7.0562-12.1053-15.6244-14.2669S275.2157,225,269.6715,225s-11.0883,1.297-13.6083,2.594-5.04-.4323-8.0642.4323S244.9749,230.62,241.4468,231.9173Z" transform="translate(-45.0403 -175)"/><path class="cls-12" d="M229.8545,266.0715c17.64,5.188,27.7207,6.9173,43.8491,4.3233,13.5058-2.1721,23.4746-7.3758,29.32-12.3109,3.1153-5.7823,4.3065-11.4181,2.937-14.0613-2.016-3.891-7.0562-12.1053-15.6244-14.2669S275.2157,225,269.6715,225s-11.0883,1.297-13.6083,2.594-5.04-.4323-8.0642.4323-3.0241,2.594-6.5522,3.891c-5.1794,1.904-24.6967.4323-30.7448,4.3233a40.3113,40.3113,0,0,0-5.5519,4.13,7.4645,7.4645,0,0,0-1.5043,4.5166C204.15,250.94,212.214,260.8835,229.8545,266.0715Z" transform="translate(-45.0403 -175)"/></g></g></svg>