<svg xmlns="http://www.w3.org/2000/svg" xmlns:xlink="http://www.w3.org/1999/xlink" viewBox="0 0 419.3484 176.979"><defs><style>.cls-1{fill:url(#radial-gradient);}.cls-2{fill:url(#linear-gradient);}.cls-3{fill:url(#linear-gradient-2);}.cls-4{fill:url(#linear-gradient-3);}.cls-5{fill:url(#linear-gradient-4);}.cls-6{fill:url(#linear-gradient-5);}.cls-7{fill:url(#linear-gradient-6);}.cls-8{fill:url(#radial-gradient-2);}.cls-9{fill:url(#linear-gradient-7);}.cls-10{fill:url(#linear-gradient-8);}.cls-11{fill:url(#linear-gradient-9);}.cls-12{fill:url(#linear-gradient-10);}.cls-13{fill:url(#linear-gradient-11);}.cls-14{fill:url(#linear-gradient-12);}.cls-15{fill:url(#radial-gradient-3);}.cls-16{fill:url(#linear-gradient-13);}.cls-17{fill:url(#linear-gradient-14);}.cls-18{fill:url(#linear-gradient-15);}.cls-19{fill:url(#linear-gradient-16);}.cls-20{fill:url(#linear-gradient-17);}.cls-21{fill:url(#linear-gradient-18);}.cls-22{fill:url(#radial-gradient-4);}.cls-23{fill:url(#linear-gradient-19);}.cls-24{fill:url(#linear-gradient-20);}.cls-25{fill:url(#linear-gradient-21);}.cls-26{fill:url(#linear-gradient-22);}.cls-27{fill:url(#linear-gradient-23);}.cls-28{fill:url(#linear-gradient-24);}.cls-29{fill:url(#radial-gradient-5);}.cls-30{fill:url(#linear-gradient-25);}.cls-31{fill:url(#linear-gradient-26);}.cls-32{fill:url(#linear-gradient-27);}.cls-33{fill:url(#linear-gradient-28);}.cls-34{fill:url(#linear-gradient-29);}.cls-35{fill:url(#linear-gradient-30);}.cls-36{fill:url(#radial-gradient-6);}.cls-37{fill:url(#linear-gradient-31);}.cls-38{fill:url(#linear-gradient-32);}.cls-39{fill:url(#linear-gradient-33);}.cls-40{fill:url(#linear-gradient-34);}.cls-41{fill:url(#linear-gradient-35);}.cls-42{fill:url(#linear-gradient-36);}.cls-43{fill:url(#radial-gradient-7);}.cls-44{fill:url(#linear-gradient-37);}.cls-45{fill:url(#linear-gradient-38);}.cls-46{fill:url(#linear-gradient-39);}.cls-47{fill:url(#linear-gradient-40);}.cls-48{fill:url(#linear-gradient-41);}.cls-49{fill:url(#linear-gradient-42);}.cls-50{fill:url(#radial-gradient-8);}.cls-51{fill:url(#linear-gradient-43);}.cls-52{fill:url(#linear-gradient-44);}.cls-53{fill:url(#linear-gradient-45);}.cls-54{fill:url(#linear-gradient-46);}.cls-55{fill:url(#linear-gradient-47);}.cls-56{fill:url(#linear-gradient-48);}.cls-57{fill:url(#radial-gradient-9);}.cls-58{fill:url(#linear-gradient-49);}.cls-59{fill:url(#linear-gradient-50);}.cls-60{fill:url(#linear-gradient-51);}.cls-61{fill:url(#linear-gradient-52);}.cls-62{fill:url(#linear-gradient-53);}.cls-63{fill:url(#linear-gradient-54);}.cls-64{fill:url(#radial-gradient-10);}.cls-65{fill:url(#linear-gradient-55);}.cls-66{fill:url(#linear-gradient-56);}.cls-67{fill:url(#linear-gradient-57);}.cls-68{fill:url(#linear-gradient-58);}.cls-69{fill:url(#linear-gradient-59);}.cls-70{fill:url(#linear-gradient-60);}</style><radialGradient id="radial-gradient" cx="79.9808" cy="272" r="34.624" gradientTransform="matrix(0.7423, -0.3277, 0.3141, 0.7115, -71.3074, 96.6675)" gradientUnits="userSpaceOnUse"><stop offset="0" stop-color="#ebf8fe"/><stop offset="0.1111" stop-color="#e8f4f9"/><stop offset="0.2476" stop-color="#dfe7ea"/><stop offset="0.3973" stop-color="#d0d2d1"/><stop offset="0.5565" stop-color="#bcb5ae"/><stop offset="0.7233" stop-color="#a18f81"/><stop offset="0.8939" stop-color="#81624b"/><stop offset="1" stop-color="#6b4226"/></radialGradient><linearGradient id="linear-gradient" x1="72.364" y1="237" x2="72.364" y2="280.5556" gradientTransform="translate(-99.4464 51.5196) rotate(-23.8209)" gradientUnits="userSpaceOnUse"><stop offset="0" stop-color="#ebf8fe"/><stop offset="1" stop-color="#91877b"/></linearGradient><linearGradient id="linear-gradient-2" x1="57.4748" y1="249.4444" x2="57.4748" y2="257.2222" gradientTransform="translate(-99.4464 51.5196) rotate(-23.8209)" gradientUnits="userSpaceOnUse"><stop offset="0" stop-color="#41342b"/><stop offset="1" stop-color="#91877b"/></linearGradient><linearGradient id="linear-gradient-3" x1="87.8502" y1="249.3241" x2="87.8502" y2="257.2222" xlink:href="#linear-gradient-2"/><linearGradient id="linear-gradient-4" x1="64.7952" y1="248.6032" x2="64.7952" y2="279.7778" xlink:href="#linear-gradient-2"/><linearGradient id="linear-gradient-5" x1="68.7695" y1="263.4444" x2="68.7695" y2="279" xlink:href="#linear-gradient-2"/><linearGradient id="linear-gradient-6" x1="76.7033" y1="249.4444" x2="76.7033" y2="278.2222" xlink:href="#linear-gradient-2"/><radialGradient id="radial-gradient-2" cx="245.155" cy="324.1839" r="34.624" gradientTransform="matrix(0.7673, 0.2638, -0.2529, 0.7355, 104.3772, -56.0426)" xlink:href="#radial-gradient"/><linearGradient id="linear-gradient-7" x1="206.3888" y1="277.5874" x2="206.3888" y2="321.143" gradientTransform="matrix(0.9457, 0.3251, -0.3251, 0.9457, 114.3997, -108.2891)" xlink:href="#linear-gradient"/><linearGradient id="linear-gradient-8" x1="191.4996" y1="290.0319" x2="191.4996" y2="297.8097" gradientTransform="matrix(0.9457, 0.3251, -0.3251, 0.9457, 114.3997, -108.2891)" xlink:href="#linear-gradient-2"/><linearGradient id="linear-gradient-9" x1="221.8751" y1="289.9116" x2="221.8751" y2="297.8097" gradientTransform="matrix(0.9457, 0.3251, -0.3251, 0.9457, 114.3997, -108.2891)" xlink:href="#linear-gradient-2"/><linearGradient id="linear-gradient-10" x1="198.8201" y1="289.1906" x2="198.8201" y2="320.3652" gradientTransform="matrix(0.9457, 0.3251, -0.3251, 0.9457, 114.3997, -108.2891)" xlink:href="#linear-gradient-2"/><linearGradient id="linear-gradient-11" x1="202.7943" y1="304.0319" x2="202.7943" y2="319.5874" gradientTransform="matrix(0.9457, 0.3251, -0.3251, 0.9457, 114.3997, -108.2891)" xlink:href="#linear-gradient-2"/><linearGradient id="linear-gradient-12" x1="210.7282" y1="290.0319" x2="210.7282" y2="318.8097" gradientTransform="matrix(0.9457, 0.3251, -0.3251, 0.9457, 114.3997, -108.2891)" xlink:href="#linear-gradient-2"/><radialGradient id="radial-gradient-3" cx="149.2396" cy="350.279" r="34.624" gradientTransform="matrix(0.8082, 0.0726, -0.0696, 0.7747, 51.9172, 15.0338)" xlink:href="#radial-gradient"/><linearGradient id="linear-gradient-13" x1="128.5617" y1="297.8836" x2="128.5617" y2="341.4392" gradientTransform="translate(49.1499 -38.0933) rotate(5.1311)" xlink:href="#linear-gradient"/><linearGradient id="linear-gradient-14" x1="113.6725" y1="310.3281" x2="113.6725" y2="318.1059" gradientTransform="translate(49.1499 -38.0933) rotate(5.1311)" xlink:href="#linear-gradient-2"/><linearGradient id="linear-gradient-15" x1="144.0479" y1="310.2078" x2="144.0479" y2="318.1059" gradientTransform="translate(49.1499 -38.0933) rotate(5.1311)" xlink:href="#linear-gradient-2"/><linearGradient id="linear-gradient-16" x1="120.9929" y1="309.4868" x2="120.9929" y2="340.6614" gradientTransform="translate(49.1499 -38.0933) rotate(5.1311)" xlink:href="#linear-gradient-2"/><linearGradient id="linear-gradient-17" x1="124.9672" y1="324.3281" x2="124.9672" y2="339.8836" gradientTransform="translate(49.1499 -38.0933) rotate(5.1311)" xlink:href="#linear-gradient-2"/><linearGradient id="linear-gradient-18" x1="132.901" y1="310.3281" x2="132.901" y2="339.1059" gradientTransform="translate(49.1499 -38.0933) rotate(5.1311)" xlink:href="#linear-gradient-2"/><radialGradient id="radial-gradient-4" cx="265.3789" cy="362.6353" r="34.624" gradientTransform="matrix(0.7951, -0.1617, 0.155, 0.7622, -25.2727, 81.6868)" xlink:href="#radial-gradient"/><linearGradient id="linear-gradient-19" x1="222.7988" y1="307.4941" x2="222.7988" y2="351.0497" gradientTransform="matrix(0.9799, -0.1993, 0.1993, 0.9799, -43.1252, 31.5726)" xlink:href="#linear-gradient"/><linearGradient id="linear-gradient-20" x1="207.9096" y1="319.9385" x2="207.9096" y2="327.7163" gradientTransform="matrix(0.9799, -0.1993, 0.1993, 0.9799, -43.1252, 31.5726)" xlink:href="#linear-gradient-2"/><linearGradient id="linear-gradient-21" x1="238.2851" y1="319.8182" x2="238.2851" y2="327.7163" gradientTransform="matrix(0.9799, -0.1993, 0.1993, 0.9799, -43.1252, 31.5726)" xlink:href="#linear-gradient-2"/><linearGradient id="linear-gradient-22" x1="215.2301" y1="319.0973" x2="215.2301" y2="350.2719" gradientTransform="matrix(0.9799, -0.1993, 0.1993, 0.9799, -43.1252, 31.5726)" xlink:href="#linear-gradient-2"/><linearGradient id="linear-gradient-23" x1="219.2043" y1="333.9385" x2="219.2043" y2="349.4941" gradientTransform="matrix(0.9799, -0.1993, 0.1993, 0.9799, -43.1252, 31.5726)" xlink:href="#linear-gradient-2"/><linearGradient id="linear-gradient-24" x1="227.1382" y1="319.9385" x2="227.1382" y2="348.7163" gradientTransform="matrix(0.9799, -0.1993, 0.1993, 0.9799, -43.1252, 31.5726)" xlink:href="#linear-gradient-2"/><radialGradient id="radial-gradient-5" cx="130.8226" cy="251.315" r="34.624" gradientTransform="matrix(0.8114, -0.0046, 0.0044, 0.7778, 33.1672, 24.3574)" xlink:href="#radial-gradient"/><linearGradient id="linear-gradient-25" x1="113.6179" y1="220.9117" x2="113.6179" y2="264.4672" gradientTransform="translate(25.3623 -28.266) rotate(-0.3235)" xlink:href="#linear-gradient"/><linearGradient id="linear-gradient-26" x1="98.7287" y1="233.3561" x2="98.7287" y2="241.1339" gradientTransform="translate(25.3623 -28.266) rotate(-0.3235)" xlink:href="#linear-gradient-2"/><linearGradient id="linear-gradient-27" x1="129.1041" y1="233.2358" x2="129.1041" y2="241.1339" gradientTransform="translate(25.3623 -28.266) rotate(-0.3235)" xlink:href="#linear-gradient-2"/><linearGradient id="linear-gradient-28" x1="106.0491" y1="232.5149" x2="106.0491" y2="263.6895" gradientTransform="translate(25.3623 -28.266) rotate(-0.3235)" xlink:href="#linear-gradient-2"/><linearGradient id="linear-gradient-29" x1="110.0234" y1="247.3561" x2="110.0234" y2="262.9117" gradientTransform="translate(25.3623 -28.266) rotate(-0.3235)" xlink:href="#linear-gradient-2"/><linearGradient id="linear-gradient-30" x1="117.9572" y1="233.3561" x2="117.9572" y2="262.1339" gradientTransform="translate(25.3623 -28.266) rotate(-0.3235)" xlink:href="#linear-gradient-2"/><radialGradient id="radial-gradient-6" cx="363.1391" cy="370.0926" r="34.624" xlink:href="#radial-gradient"/><linearGradient id="linear-gradient-31" x1="302.123" y1="313.2943" x2="302.123" y2="356.8498" xlink:href="#linear-gradient"/><linearGradient id="linear-gradient-32" x1="287.2338" y1="325.7387" x2="287.2338" y2="333.5165" xlink:href="#linear-gradient-2"/><linearGradient id="linear-gradient-33" x1="317.6092" y1="325.6184" x2="317.6092" y2="333.5165" xlink:href="#linear-gradient-2"/><linearGradient id="linear-gradient-34" x1="294.5542" y1="324.8975" x2="294.5542" y2="356.0721" xlink:href="#linear-gradient-2"/><linearGradient id="linear-gradient-35" x1="298.5285" y1="339.7387" x2="298.5285" y2="355.2943" xlink:href="#linear-gradient-2"/><linearGradient id="linear-gradient-36" x1="306.4623" y1="325.7387" x2="306.4623" y2="354.5165" xlink:href="#linear-gradient-2"/><radialGradient id="radial-gradient-7" cx="456.2494" cy="221.2835" r="34.624" gradientTransform="matrix(0.7673, 0.2638, -0.2529, 0.7355, 104.3772, -56.0426)" xlink:href="#radial-gradient"/><linearGradient id="linear-gradient-37" x1="377.674" y1="197.5538" x2="377.674" y2="241.1094" gradientTransform="matrix(0.9457, 0.3251, -0.3251, 0.9457, 114.3997, -108.2891)" xlink:href="#linear-gradient"/><linearGradient id="linear-gradient-38" x1="362.7848" y1="209.9983" x2="362.7848" y2="217.7761" gradientTransform="matrix(0.9457, 0.3251, -0.3251, 0.9457, 114.3997, -108.2891)" xlink:href="#linear-gradient-2"/><linearGradient id="linear-gradient-39" x1="393.1603" y1="209.878" x2="393.1603" y2="217.7761" gradientTransform="matrix(0.9457, 0.3251, -0.3251, 0.9457, 114.3997, -108.2891)" xlink:href="#linear-gradient-2"/><linearGradient id="linear-gradient-40" x1="370.1053" y1="209.157" x2="370.1053" y2="240.3316" gradientTransform="matrix(0.9457, 0.3251, -0.3251, 0.9457, 114.3997, -108.2891)" xlink:href="#linear-gradient-2"/><linearGradient id="linear-gradient-41" x1="374.0795" y1="223.9983" x2="374.0795" y2="239.5538" gradientTransform="matrix(0.9457, 0.3251, -0.3251, 0.9457, 114.3997, -108.2891)" xlink:href="#linear-gradient-2"/><linearGradient id="linear-gradient-42" x1="382.0134" y1="209.9983" x2="382.0134" y2="238.7761" gradientTransform="matrix(0.9457, 0.3251, -0.3251, 0.9457, 114.3997, -108.2891)" xlink:href="#linear-gradient-2"/><radialGradient id="radial-gradient-8" cx="486.2445" cy="312.2547" r="34.624" gradientTransform="matrix(0.8082, 0.0726, -0.0696, 0.7747, 51.9172, 15.0338)" xlink:href="#radial-gradient"/><linearGradient id="linear-gradient-43" x1="402.0125" y1="268.3092" x2="402.0125" y2="311.8647" gradientTransform="translate(49.1499 -38.0933) rotate(5.1311)" xlink:href="#linear-gradient"/><linearGradient id="linear-gradient-44" x1="387.1233" y1="280.7536" x2="387.1233" y2="288.5314" gradientTransform="translate(49.1499 -38.0933) rotate(5.1311)" xlink:href="#linear-gradient-2"/><linearGradient id="linear-gradient-45" x1="417.4988" y1="280.6333" x2="417.4988" y2="288.5314" gradientTransform="translate(49.1499 -38.0933) rotate(5.1311)" xlink:href="#linear-gradient-2"/><linearGradient id="linear-gradient-46" x1="394.4437" y1="279.9124" x2="394.4437" y2="311.087" gradientTransform="translate(49.1499 -38.0933) rotate(5.1311)" xlink:href="#linear-gradient-2"/><linearGradient id="linear-gradient-47" x1="398.418" y1="294.7536" x2="398.418" y2="310.3092" gradientTransform="translate(49.1499 -38.0933) rotate(5.1311)" xlink:href="#linear-gradient-2"/><linearGradient id="linear-gradient-48" x1="406.3519" y1="280.7536" x2="406.3519" y2="309.5314" gradientTransform="translate(49.1499 -38.0933) rotate(5.1311)" xlink:href="#linear-gradient-2"/><radialGradient id="radial-gradient-9" cx="376.7325" cy="384.9474" r="34.624" gradientTransform="matrix(0.7951, -0.1617, 0.155, 0.7622, -25.2727, 81.6868)" xlink:href="#radial-gradient"/><linearGradient id="linear-gradient-49" x1="313.1528" y1="324.848" x2="313.1528" y2="368.4035" gradientTransform="matrix(0.9799, -0.1993, 0.1993, 0.9799, -43.1252, 31.5726)" xlink:href="#linear-gradient"/><linearGradient id="linear-gradient-50" x1="298.2636" y1="337.2924" x2="298.2636" y2="345.0702" gradientTransform="matrix(0.9799, -0.1993, 0.1993, 0.9799, -43.1252, 31.5726)" xlink:href="#linear-gradient-2"/><linearGradient id="linear-gradient-51" x1="328.6391" y1="337.1721" x2="328.6391" y2="345.0702" gradientTransform="matrix(0.9799, -0.1993, 0.1993, 0.9799, -43.1252, 31.5726)" xlink:href="#linear-gradient-2"/><linearGradient id="linear-gradient-52" x1="305.5841" y1="336.4512" x2="305.5841" y2="367.6258" gradientTransform="matrix(0.9799, -0.1993, 0.1993, 0.9799, -43.1252, 31.5726)" xlink:href="#linear-gradient-2"/><linearGradient id="linear-gradient-53" x1="309.5583" y1="351.2924" x2="309.5583" y2="366.848" gradientTransform="matrix(0.9799, -0.1993, 0.1993, 0.9799, -43.1252, 31.5726)" xlink:href="#linear-gradient-2"/><linearGradient id="linear-gradient-54" x1="317.4922" y1="337.2924" x2="317.4922" y2="366.0702" gradientTransform="matrix(0.9799, -0.1993, 0.1993, 0.9799, -43.1252, 31.5726)" xlink:href="#linear-gradient-2"/><radialGradient id="radial-gradient-10" cx="286.3202" cy="212.3732" r="34.624" gradientTransform="matrix(0.8114, -0.0046, 0.0044, 0.7778, 33.1672, 24.3574)" xlink:href="#radial-gradient"/><linearGradient id="linear-gradient-55" x1="239.7909" y1="190.6236" x2="239.7909" y2="234.1792" gradientTransform="translate(25.3623 -28.266) rotate(-0.3235)" xlink:href="#linear-gradient"/><linearGradient id="linear-gradient-56" x1="224.9017" y1="203.0681" x2="224.9017" y2="210.8458" gradientTransform="translate(25.3623 -28.266) rotate(-0.3235)" xlink:href="#linear-gradient-2"/><linearGradient id="linear-gradient-57" x1="255.2771" y1="202.9477" x2="255.2771" y2="210.8458" gradientTransform="translate(25.3623 -28.266) rotate(-0.3235)" xlink:href="#linear-gradient-2"/><linearGradient id="linear-gradient-58" x1="232.2221" y1="202.2268" x2="232.2221" y2="233.4014" gradientTransform="translate(25.3623 -28.266) rotate(-0.3235)" xlink:href="#linear-gradient-2"/><linearGradient id="linear-gradient-59" x1="236.1964" y1="217.0681" x2="236.1964" y2="232.6236" gradientTransform="translate(25.3623 -28.266) rotate(-0.3235)" xlink:href="#linear-gradient-2"/><linearGradient id="linear-gradient-60" x1="244.1302" y1="203.0681" x2="244.1302" y2="231.8458" gradientTransform="translate(25.3623 -28.266) rotate(-0.3235)" xlink:href="#linear-gradient-2"/></defs><title>mushroom</title><g id="mushroom"><g id="multiple"><path class="cls-1" d="M71.6084,287.7831,69.41,282.8024l-1.5707-3.5576c-.9424-2.1345-3.0272-8.8659-5.5682-8.5943s-7.423,3.2771-12.8191,3.1088-9.5078-3.4542-11.5927-10.1856c-1.7534-5.6613,11.2764-12.63,19.4417-16.2351s16.33-7.21,22.1547-8.0807,15.7711-4.9794,18.4153-.4783c3.5694,6.076,2.485,11.656-3.1392,14.9892s-9.3356,4.9718-9.8778,7.7618c-.4756,2.447.086,4.213,2.2849,9.1937a10.21,10.21,0,0,0,3.3694,3.6137l2.1989,4.9806s-6.9948,2.2379-10.7062,3.8765Z" transform="translate(-37.3445 -161.0281)"/><path class="cls-2" d="M69.41,282.8024l-3.77-8.5382c-.9424-2.1346-3.0272-8.866-5.5682-8.5944s-7.423,3.2772-12.8191,3.1089-9.936-2.415-9.908-8.3788,9.5917-14.4371,17.757-18.042,16.33-7.21,22.1547-8.0806,14.5037-1.302,18.6154,1.9839,2.2849,9.1937-3.3393,12.5269-9.3356,4.9718-9.8778,7.7618c-.4756,2.447.086,4.2131,2.2849,9.1937a34.4552,34.4552,0,0,0,5.5683,8.5944s-6.9948,2.2379-10.7062,3.8764Z" transform="translate(-37.3445 -161.0281)"/><path class="cls-3" d="M62.5266,261.1852a3.6166,3.6166,0,0,1-1.2565-2.8461c.114-1.7508-4.1117-3.286-4.1117-3.286s.9424,2.1346.2,2.4623-3.9115-.8237-5.51,1.5825a8.7649,8.7649,0,0,0-1.0844,5.58,17.1231,17.1231,0,0,1,3.3973-2.35c1.4846-.6555,1.7987.0561,3.2833-.5994S62.5266,261.1852,62.5266,261.1852Z" transform="translate(-37.3445 -161.0281)"/><path class="cls-4" d="M74.5453,248.2272s.5142,3.1738,4.8539,2.9583,5.8243-.871,5.8243-.871a2.8709,2.8709,0,0,1,1.1705-1.3669c.7423-.3277,2.1128.7676,2.1128.7676s3.8255-3.3893,2.455-4.4847-4.2257-1.5352-7.509-.9358S75.4016,246.1488,74.5453,248.2272Z" transform="translate(-37.3445 -161.0281)"/><path class="cls-5" d="M58.3289,253.6862s3.2833-.5994,4.54,2.2467,3.2274,11.3283,4.798,14.8859,5.4542,10.3451,5.4542,10.3451l.7423-.3278s-4.5118-8.21-5.4542-10.3451-2.7992-12.3674-5.1121-15.5973S58.3289,253.6862,58.3289,253.6862Z" transform="translate(-37.3445 -161.0281)"/><path class="cls-6" d="M75.776,279.1415a57.6512,57.6512,0,0,1-3.8836-6.7875,57.66,57.66,0,0,1-2.399-7.4429l3.1413,7.1152a30.5164,30.5164,0,0,0,4.6258,6.46Z" transform="translate(-37.3445 -161.0281)"/><path class="cls-7" d="M82.8848,275.1528s-1.6567-7.7706-3.2274-11.3282-6.31-8.2666-7.9952-10.0735a7.8889,7.8889,0,0,1-1.8848-4.2691,13.1636,13.1636,0,0,0,2.6271,3.9414A26.73,26.73,0,0,1,80.4,263.4969a45.8632,45.8632,0,0,1,3.2274,11.3282Z" transform="translate(-37.3445 -161.0281)"/><path class="cls-8" d="M192.965,263.2455l1.77-5.1487,1.2643-3.6776c.7586-2.2066,3.8016-8.5626,1.7525-10.0895s-7.6734-2.6379-11.5188-6.4273-4.63-8.9939-1.5872-15.35c2.5593-5.3454,16.8551-1.6076,25.2958,1.2942s16.8814,5.8035,21.7471,9.1212,14.9557,7.06,13.8383,12.1594c-1.5084,6.8836-6.0949,10.2415-12.4865,8.8667s-10.2282-2.6938-12.5215-1.0149c-2.0113,1.4726-2.7989,3.15-4.569,8.2988a10.21,10.21,0,0,0,.0175,4.9407l-1.77,5.1487s-6.6532-3.11-10.49-4.4287Z" transform="translate(-37.3445 -161.0281)"/><path class="cls-9" d="M194.7351,258.0968l3.0343-8.8263c.7586-2.2066,3.8017-8.5625,1.7525-10.0895s-7.6733-2.6379-11.5188-6.4273-5.65-8.5222-1.5784-12.88,16.8464-4.0779,25.2871-1.1762,16.8814,5.8035,21.747,9.1212,11.5276,8.8977,12.3124,14.1022-4.569,8.2987-10.96,6.9239-10.2283-2.6938-12.5215-1.0148c-2.0114,1.4725-2.799,3.15-4.569,8.2987a34.4547,34.4547,0,0,0-1.7526,10.0894s-6.6531-3.11-10.49-4.4286Z" transform="translate(-37.3445 -161.0281)"/><path class="cls-10" d="M204.37,237.5579a3.6165,3.6165,0,0,1,1.0115-2.9421c1.273-1.2072-.7849-5.2045-.7849-5.2045s-.7585,2.2065-1.5259,1.9427-2.3107-3.2617-5.1185-2.5821a8.7657,8.7657,0,0,0-4.5865,3.358,17.1267,17.1267,0,0,1,4.09.5835c1.5346.5276,1.2818,1.2631,2.8164,1.7907S204.37,237.5579,204.37,237.5579Z" transform="translate(-37.3445 -161.0281)"/><path class="cls-11" d="M221.9925,236.2141s-1.7788,2.6783,1.5522,5.4684S228.41,245,228.41,245a2.8708,2.8708,0,0,1,1.7876-.208c.7673.2638,1.0289,1.9987,1.0289,1.9987s5.11.1117,4.8482-1.6231-2.0579-3.9973-4.8744-5.788S224.0329,235.2706,221.9925,236.2141Z" transform="translate(-37.3445 -161.0281)"/><path class="cls-12" d="M206.3842,229.2033s2.8165,1.7907,1.805,4.7328-5.3276,10.5054-6.5919,14.183-3.0255,11.2967-3.0255,11.2967l.7673.2638s2.267-9.09,3.0256-11.2967,6.3478-10.9771,6.8447-14.9185S206.3842,229.2033,206.3842,229.2033Z" transform="translate(-37.3445 -161.0281)"/><path class="cls-13" d="M201.894,259.7354a57.6579,57.6579,0,0,1,1.7612-7.619,57.6636,57.6636,0,0,1,3.296-7.0915l-2.5286,7.3553a30.5163,30.5163,0,0,0-.994,7.8828Z" transform="translate(-37.3445 -161.0281)"/><path class="cls-14" d="M209.82,261.6379s4.0633-6.8277,5.3276-10.5053.9852-10.3533.9764-12.8236a7.8888,7.8888,0,0,1,1.5172-4.4132,13.1645,13.1645,0,0,0-.75,4.677,26.7282,26.7282,0,0,1-.9764,12.8236,45.8614,45.8614,0,0,1-5.3276,10.5053Z" transform="translate(-37.3445 -161.0281)"/><path class="cls-15" d="M134.9849,317.1126l.4869-5.4226.3478-3.8733c.2087-2.324,1.6429-9.2234-.712-10.2158s-8.0816-.7256-12.7219-3.485-6.6475-7.6251-5.2133-14.5245c1.2062-5.8025,15.9812-5.5931,24.871-4.7949s17.78,1.5965,23.2976,3.6538,16.21,3.2774,16.3454,8.4959c.1821,7.0445-3.4679,11.4022-10.0028,11.5963s-10.5756-.1687-12.4007,2.01c-1.6006,1.9109-1.9641,3.7281-2.451,9.1507a10.21,10.21,0,0,0,1.199,4.7931l-.487,5.4227s-7.2039-1.4278-11.2447-1.7906Z" transform="translate(-37.3445 -161.0281)"/><path class="cls-16" d="M135.4718,311.69l.8348-9.296c.2087-2.3239,1.6429-9.2233-.7121-10.2157s-8.0816-.7257-12.7219-3.4851-7.5252-6.9229-4.6138-12.1279,15.3817-7.99,24.2715-7.1914,17.78,1.5965,23.2976,3.6538,13.3214,5.8816,15.3286,10.7473-2.4511,9.1508-8.9859,9.3449-10.5757-.1687-12.4007,2.01c-1.6007,1.911-1.9642,3.7282-2.4511,9.1508a34.4556,34.4556,0,0,0,.7121,10.2157s-7.2039-1.4277-11.2448-1.7906Z" transform="translate(-37.3445 -161.0281)"/><path class="cls-17" d="M139.9136,289.4425a3.6163,3.6163,0,0,1,.2782-3.0986c.9473-1.4768-2.0071-4.8657-2.0071-4.8657s-.2087,2.324-1.0168,2.2514-3.024-2.6143-5.5876-1.2826a8.7654,8.7654,0,0,0-3.65,4.3577,17.1253,17.1253,0,0,1,4.11-.4119c1.6164.1452,1.5468.92,3.1631,1.065S139.9136,289.4425,139.9136,289.4425Z" transform="translate(-37.3445 -161.0281)"/><path class="cls-18" d="M156.7029,283.9219s-1.0864,3.0261,2.8153,4.9383,5.518,2.0573,5.518,2.0573a2.8711,2.8711,0,0,1,1.6859-.63c.8082.0726,1.4772,1.6945,1.4772,1.6945s4.9881-1.1139,4.3191-2.7358-2.9545-3.3889-6.1175-4.4538S158.4583,282.5177,156.7029,283.9219Z" transform="translate(-37.3445 -161.0281)"/><path class="cls-19" d="M139.8706,280.8487s3.1631,1.0649,2.8848,4.1635-2.66,11.4748-3.0075,15.3481-.2352,11.6925-.2352,11.6925l.8081.0726s.0266-9.3685.2353-11.6925,3.5374-12.1769,3.0771-16.1227S139.8706,280.8487,139.8706,280.8487Z" transform="translate(-37.3445 -161.0281)"/><path class="cls-20" d="M142.8149,311.5684a57.66,57.66,0,0,1-.1126-7.8192,57.6643,57.6643,0,0,1,1.5038-7.674l-.6956,7.7466a30.5159,30.5159,0,0,0,.9207,7.8918Z" transform="translate(-37.3445 -161.0281)"/><path class="cls-21" d="M150.9661,311.5194s2.3119-7.6014,2.66-11.4747-1.52-10.2883-2.12-12.6849a7.8886,7.8886,0,0,1,.4174-4.6479,13.163,13.163,0,0,0,.3908,4.72,26.7312,26.7312,0,0,1,2.12,12.6848,45.86,45.86,0,0,1-2.66,11.4748Z" transform="translate(-37.3445 -161.0281)"/><path class="cls-22" d="M235.016,338.0071l-1.085-5.3353-.775-3.8108c-.465-2.2866-1.0648-9.3079-3.6052-9.5849s-7.9514,1.6169-13.1872.3006-8.5513-5.4043-9.1511-12.4256c-.5045-5.9051,13.7127-9.9319,22.4592-11.7106s17.4931-3.5574,23.3691-3.1649,16.4705-1.4979,18.0929,3.4639c2.19,6.6979-.06,11.9178-6.2666,13.9736s-10.1818,2.8642-11.3071,5.4742c-.987,2.289-.8153,4.1342.27,9.4695a10.2093,10.2093,0,0,0,2.52,4.25l1.085,5.3353s-7.3113.6931-11.287,1.5016Z" transform="translate(-37.3445 -161.0281)"/><path class="cls-23" d="M233.931,332.6718l-1.86-9.1461c-.4649-2.2865-1.0648-9.3078-3.6052-9.5849s-7.9514,1.617-13.1872.3007-9.1914-4.48-7.8909-10.3008,12.4525-12.0567,21.1991-13.8354,17.4931-3.5574,23.369-3.1649,14.4474,1.8241,17.7628,5.9121.27,9.4695-5.9365,11.5253S253.6,307.2421,252.475,309.852c-.9869,2.2891-.8153,4.1343.27,9.47a34.4564,34.4564,0,0,0,3.6052,9.5849s-7.3112.6932-11.2869,1.5017Z" transform="translate(-37.3445 -161.0281)"/><path class="cls-24" d="M231.8215,310.0836a3.6167,3.6167,0,0,1-.62-3.0487c.4852-1.6861-3.3153-4.088-3.3153-4.088s.4649,2.2866-.33,2.4483-3.6455-1.64-5.721.37a8.7655,8.7655,0,0,0-2.2506,5.22,17.1286,17.1286,0,0,1,3.8207-1.5706c1.59-.3234,1.7453.4387,3.3356.1153S231.8215,310.0836,231.8215,310.0836Z" transform="translate(-37.3445 -161.0281)"/><path class="cls-25" d="M246.3294,299.99s-.1752,3.21,4.1105,3.9263,5.876.3924,5.876.3924a2.8706,2.8706,0,0,1,1.4353-1.0855c.7951-.1617,1.9,1.2009,1.9,1.2009s4.4609-2.4945,3.3557-3.8572-3.8-2.4019-7.1361-2.5173S247.61,298.1423,246.3294,299.99Z" transform="translate(-37.3445 -161.0281)"/><path class="cls-26" d="M229.3214,301.8614s3.3356.1153,3.9556,3.164.7346,11.7561,1.51,15.567,3.12,11.271,3.12,11.271l.7951-.1617s-2.6551-8.9845-3.12-11.271-.0946-12.68-1.6647-16.3291S229.3214,301.8614,229.3214,301.8614Z" transform="translate(-37.3445 -161.0281)"/><path class="cls-27" d="M240.9323,330.4544a57.6431,57.6431,0,0,1-2.3451-7.46,57.6588,57.6588,0,0,1-.7549-7.7835l1.55,7.6218a30.52,30.52,0,0,0,3.14,7.2984Z" transform="translate(-37.3445 -161.0281)"/><path class="cls-28" d="M248.7287,328.0752s.04-7.9452-.7347-11.7561-4.4-9.4232-5.6605-11.548a7.89,7.89,0,0,1-.93-4.5731,13.1656,13.1656,0,0,0,1.7251,4.4114,26.7282,26.7282,0,0,1,5.66,11.548,45.8607,45.8607,0,0,1,.7347,11.7561Z" transform="translate(-37.3445 -161.0281)"/><path class="cls-29" d="M129.1952,240.2859l-.0308-5.4444-.0219-3.8888c-.0132-2.3333.7587-9.3378-1.68-10.1018s-8.114.0458-12.9956-2.26-7.3422-6.9586-6.57-13.9631c.6492-5.8909,15.3771-7.0869,24.3025-7.1373s17.8509-.1008,23.54,1.4226,16.4486,1.7216,17.079,6.9037c.8509,6.9953-2.3684,11.68-8.8552,12.4947s-10.5438.8373-12.1535,3.18c-1.4117,2.0545-1.6008,3.898-1.57,9.3424a10.21,10.21,0,0,0,1.6492,4.6574l.0307,5.4444s-7.307-.7366-11.364-.7136Z" transform="translate(-37.3445 -161.0281)"/><path class="cls-30" d="M129.1644,234.8415l-.0527-9.3331c-.0131-2.3333.7587-9.3378-1.68-10.1018s-8.114.0458-12.9956-2.26-8.1491-6.1763-5.7457-11.6344,14.5526-9.4157,23.478-9.4661,17.8509-.1008,23.54,1.4227,13.82,4.5887,16.2807,9.2415-1.57,9.3424-8.0569,10.1568-10.5439.8373-12.1535,3.18c-1.4117,2.0545-1.6009,3.898-1.57,9.3423a34.4541,34.4541,0,0,0,1.68,10.1018s-7.307-.7365-11.364-.7136Z" transform="translate(-37.3445 -161.0281)"/><path class="cls-31" d="M131.4713,212.2726a3.6167,3.6167,0,0,1-.0176-3.1111c.8026-1.56-2.46-4.6528-2.46-4.6528s.0131,2.3333-.7983,2.3379-3.2587-2.315-5.6842-.7457a8.7651,8.7651,0,0,0-3.2192,4.6849,17.1269,17.1269,0,0,1,4.0526-.8007c1.6228-.0091,1.6272.7686,3.25.76S131.4713,212.2726,131.4713,212.2726Z" transform="translate(-37.3445 -161.0281)"/><path class="cls-32" d="M147.66,205.1811s-.7938,3.1156,3.272,4.6482,5.6886,1.5235,5.6886,1.5235a2.871,2.871,0,0,1,1.6184-.7869c.8114-.0046,1.6316,1.5463,1.6316,1.5463s4.86-1.583,4.0394-3.1339-3.2632-3.0928-6.5132-3.8522S149.2738,203.6164,147.66,205.1811Z" transform="translate(-37.3445 -161.0281)"/><path class="cls-33" d="M130.6116,203.7218s3.25.7594,3.2675,3.87-1.5569,11.6756-1.5349,15.5644.8772,11.6619.8772,11.6619l.8114-.0046s-.8641-9.3286-.8772-11.6618,2.3639-12.458,1.5306-16.3423S130.6116,203.7218,130.6116,203.7218Z" transform="translate(-37.3445 -161.0281)"/><path class="cls-34" d="M136.4627,234.0225a57.6559,57.6559,0,0,1-.8554-7.773,57.6673,57.6673,0,0,1,.7675-7.7823l.0439,7.7777a30.5192,30.5192,0,0,0,1.6668,7.7685Z" transform="translate(-37.3445 -161.0281)"/><path class="cls-35" d="M144.5723,233.199s1.5789-7.7869,1.5569-11.6757-2.4913-10.0972-3.3159-12.4259a7.89,7.89,0,0,1-.0263-4.6666,13.1645,13.1645,0,0,0,.8378,4.662,26.7307,26.7307,0,0,1,3.3158,12.4259,45.8581,45.8581,0,0,1-1.5569,11.6757Z" transform="translate(-37.3445 -161.0281)"/><path class="cls-36" d="M312.6084,264.7831l-2.1989-4.9807-1.5707-3.5576c-.9424-2.1345-3.0272-8.8659-5.5682-8.5943s-7.423,3.2771-12.8191,3.1088-9.5078-3.4542-11.5927-10.1856c-1.7534-5.6613,11.2764-12.63,19.4417-16.2351s16.33-7.21,22.1547-8.0807,15.7711-4.9794,18.4153-.4783c3.5694,6.076,2.485,11.656-3.1392,14.9892s-9.3356,4.9718-9.8778,7.7618c-.4756,2.447.086,4.213,2.2849,9.1937a10.21,10.21,0,0,0,3.3694,3.6137l2.1989,4.9806s-6.9948,2.2379-10.7062,3.8765Z" transform="translate(-37.3445 -161.0281)"/><path class="cls-37" d="M310.41,259.8024l-3.77-8.5382c-.9424-2.1346-3.0272-8.866-5.5682-8.5944s-7.423,3.2772-12.8191,3.1089-9.936-2.415-9.908-8.3788,9.5917-14.4371,17.757-18.042,16.33-7.21,22.1547-8.0806,14.5037-1.302,18.6154,1.9839,2.2849,9.1937-3.3393,12.5269-9.3356,4.9718-9.8778,7.7618c-.4756,2.447.086,4.2131,2.2849,9.1937a34.4552,34.4552,0,0,0,5.5683,8.5944s-6.9948,2.2379-10.7062,3.8764Z" transform="translate(-37.3445 -161.0281)"/><path class="cls-38" d="M303.5266,238.1852a3.6166,3.6166,0,0,1-1.2565-2.8461c.114-1.7508-4.1117-3.286-4.1117-3.286s.9424,2.1346.2,2.4623-3.9115-.8237-5.51,1.5825a8.7649,8.7649,0,0,0-1.0844,5.58,17.1231,17.1231,0,0,1,3.3973-2.35c1.4846-.6555,1.7987.0561,3.2833-.5994S303.5266,238.1852,303.5266,238.1852Z" transform="translate(-37.3445 -161.0281)"/><path class="cls-39" d="M315.5453,225.2272s.5142,3.1738,4.8539,2.9583,5.8243-.871,5.8243-.871a2.8709,2.8709,0,0,1,1.1705-1.3669c.7423-.3277,2.1128.7676,2.1128.7676s3.8255-3.3893,2.455-4.4847-4.2257-1.5352-7.509-.9358S316.4016,223.1488,315.5453,225.2272Z" transform="translate(-37.3445 -161.0281)"/><path class="cls-40" d="M299.3289,230.6862s3.2833-.5994,4.54,2.2467,3.2274,11.3283,4.798,14.8859,5.4542,10.3451,5.4542,10.3451l.7423-.3278s-4.5118-8.21-5.4542-10.3451-2.7992-12.3674-5.1121-15.5973S299.3289,230.6862,299.3289,230.6862Z" transform="translate(-37.3445 -161.0281)"/><path class="cls-41" d="M316.776,256.1415a57.6512,57.6512,0,0,1-3.8836-6.7875,57.66,57.66,0,0,1-2.399-7.4429l3.1413,7.1152a30.5164,30.5164,0,0,0,4.6258,6.46Z" transform="translate(-37.3445 -161.0281)"/><path class="cls-42" d="M323.8848,252.1528s-1.6567-7.7706-3.2274-11.3282-6.31-8.2666-7.9952-10.0735a7.8889,7.8889,0,0,1-1.8848-4.2691,13.1636,13.1636,0,0,0,2.6271,3.9414A26.73,26.73,0,0,1,321.4,240.4969a45.8632,45.8632,0,0,1,3.2274,11.3282Z" transform="translate(-37.3445 -161.0281)"/><path class="cls-43" d="M380.965,243.2455l1.77-5.1487,1.2643-3.6776c.7586-2.2066,3.8016-8.5626,1.7525-10.0895s-7.6734-2.6379-11.5188-6.4273-4.63-8.9939-1.5872-15.35c2.5593-5.3454,16.8551-1.6076,25.2958,1.2942s16.8814,5.8035,21.7471,9.1212,14.9557,7.06,13.8383,12.1594c-1.5084,6.8836-6.0949,10.2415-12.4865,8.8667s-10.2282-2.6938-12.5215-1.0149c-2.0113,1.4726-2.7989,3.15-4.569,8.2988a10.21,10.21,0,0,0,.0175,4.9407l-1.77,5.1487s-6.6532-3.11-10.49-4.4287Z" transform="translate(-37.3445 -161.0281)"/><path class="cls-44" d="M382.7351,238.0968l3.0343-8.8263c.7586-2.2066,3.8017-8.5625,1.7525-10.0895s-7.6733-2.6379-11.5188-6.4273-5.6505-8.5222-1.5784-12.88,16.8464-4.0779,25.2871-1.1762,16.8814,5.8035,21.747,9.1212,11.5276,8.8977,12.3124,14.1022-4.569,8.2987-10.9605,6.9239-10.2283-2.6938-12.5215-1.0148c-2.0114,1.4725-2.799,3.15-4.569,8.2987a34.4547,34.4547,0,0,0-1.7526,10.0894s-6.6531-3.11-10.49-4.4286Z" transform="translate(-37.3445 -161.0281)"/><path class="cls-45" d="M392.37,217.5579a3.6165,3.6165,0,0,1,1.0115-2.9421c1.273-1.2072-.7849-5.2045-.7849-5.2045s-.7585,2.2065-1.5259,1.9427-2.3107-3.2617-5.1185-2.5821a8.7657,8.7657,0,0,0-4.5865,3.358,17.1267,17.1267,0,0,1,4.09.5835c1.5346.5276,1.2818,1.2631,2.8164,1.7907S392.37,217.5579,392.37,217.5579Z" transform="translate(-37.3445 -161.0281)"/><path class="cls-46" d="M409.9925,216.2141s-1.7788,2.6783,1.5522,5.4684S416.41,225,416.41,225a2.8708,2.8708,0,0,1,1.7876-.208c.7673.2638,1.0289,1.9987,1.0289,1.9987s5.11.1117,4.8482-1.6231-2.0579-3.9973-4.8744-5.788S412.0329,215.2706,409.9925,216.2141Z" transform="translate(-37.3445 -161.0281)"/><path class="cls-47" d="M394.3842,209.2033s2.8165,1.7907,1.805,4.7328-5.3276,10.5054-6.5919,14.183-3.0255,11.2967-3.0255,11.2967l.7673.2638s2.267-9.09,3.0256-11.2967,6.3478-10.9771,6.8447-14.9185S394.3842,209.2033,394.3842,209.2033Z" transform="translate(-37.3445 -161.0281)"/><path class="cls-48" d="M389.894,239.7354a57.6579,57.6579,0,0,1,1.7612-7.619,57.6636,57.6636,0,0,1,3.296-7.0915l-2.5286,7.3553a30.5163,30.5163,0,0,0-.994,7.8828Z" transform="translate(-37.3445 -161.0281)"/><path class="cls-49" d="M397.82,241.6379s4.0633-6.8277,5.3276-10.5053.9852-10.3533.9764-12.8236a7.8888,7.8888,0,0,1,1.5172-4.4132,13.1645,13.1645,0,0,0-.75,4.677,26.7282,26.7282,0,0,1-.9764,12.8236,45.8614,45.8614,0,0,1-5.3276,10.5053Z" transform="translate(-37.3445 -161.0281)"/><path class="cls-50" d="M409.9849,312.1126l.4869-5.4226.3478-3.8733c.2087-2.324,1.6429-9.2234-.712-10.2158s-8.0816-.7256-12.7219-3.485-6.6475-7.6251-5.2133-14.5245c1.2062-5.8025,15.9812-5.5931,24.871-4.7949s17.78,1.5965,23.2976,3.6538,16.21,3.2774,16.3454,8.4959c.1821,7.0445-3.4679,11.4022-10.0028,11.5963s-10.5756-.1687-12.4007,2.01c-1.6006,1.9109-1.9641,3.7281-2.451,9.1507a10.21,10.21,0,0,0,1.199,4.7931l-.487,5.4227s-7.2039-1.4278-11.2447-1.7906Z" transform="translate(-37.3445 -161.0281)"/><path class="cls-51" d="M410.4718,306.69l.8348-9.296c.2087-2.3239,1.6429-9.2233-.7121-10.2157s-8.0816-.7257-12.7219-3.4851-7.5252-6.9229-4.6138-12.1279,15.3817-7.99,24.2715-7.1914,17.78,1.5965,23.2976,3.6538,13.3214,5.8816,15.3286,10.7473-2.4511,9.1508-8.9859,9.3449-10.5757-.1687-12.4007,2.01c-1.6007,1.911-1.9642,3.7282-2.4511,9.1508a34.4556,34.4556,0,0,0,.7121,10.2157s-7.2039-1.4277-11.2448-1.7906Z" transform="translate(-37.3445 -161.0281)"/><path class="cls-52" d="M414.9136,284.4425a3.6163,3.6163,0,0,1,.2782-3.0986c.9473-1.4768-2.0071-4.8657-2.0071-4.8657s-.2087,2.324-1.0168,2.2514-3.024-2.6143-5.5876-1.2826a8.7654,8.7654,0,0,0-3.65,4.3577,17.1253,17.1253,0,0,1,4.11-.4119c1.6164.1452,1.5468.92,3.1631,1.065S414.9136,284.4425,414.9136,284.4425Z" transform="translate(-37.3445 -161.0281)"/><path class="cls-53" d="M431.7029,278.9219s-1.0864,3.0261,2.8153,4.9383,5.518,2.0573,5.518,2.0573a2.8711,2.8711,0,0,1,1.6859-.63c.8082.0726,1.4772,1.6945,1.4772,1.6945s4.9881-1.1139,4.3191-2.7358-2.9545-3.3889-6.1175-4.4538S433.4583,277.5177,431.7029,278.9219Z" transform="translate(-37.3445 -161.0281)"/><path class="cls-54" d="M414.8706,275.8487s3.1631,1.0649,2.8848,4.1635-2.66,11.4748-3.0075,15.3481-.2352,11.6925-.2352,11.6925l.8081.0726s.0266-9.3685.2353-11.6925,3.5374-12.1769,3.0771-16.1227S414.8706,275.8487,414.8706,275.8487Z" transform="translate(-37.3445 -161.0281)"/><path class="cls-55" d="M417.8149,306.5684a57.66,57.66,0,0,1-.1126-7.8192,57.6643,57.6643,0,0,1,1.5038-7.674l-.6956,7.7466a30.5159,30.5159,0,0,0,.9207,7.8918Z" transform="translate(-37.3445 -161.0281)"/><path class="cls-56" d="M425.9661,306.5194s2.3119-7.6014,2.66-11.4747-1.52-10.2883-2.12-12.6849a7.8886,7.8886,0,0,1,.4174-4.6479,13.163,13.163,0,0,0,.3908,4.72,26.7312,26.7312,0,0,1,2.12,12.6848,45.86,45.86,0,0,1-2.66,11.4748Z" transform="translate(-37.3445 -161.0281)"/><path class="cls-57" d="M327.016,337.0071l-1.085-5.3353-.775-3.8108c-.465-2.2866-1.0648-9.3079-3.6052-9.5849s-7.9514,1.6169-13.1872.3006-8.5513-5.4043-9.1511-12.4256c-.5045-5.9051,13.7127-9.9319,22.4592-11.7106s17.4931-3.5574,23.3691-3.1649,16.4705-1.4979,18.0929,3.4639c2.19,6.6979-.06,11.9178-6.2666,13.9736s-10.1818,2.8642-11.3071,5.4742c-.987,2.289-.8153,4.1342.27,9.4695a10.2093,10.2093,0,0,0,2.52,4.25l1.085,5.3353s-7.3113.6931-11.287,1.5016Z" transform="translate(-37.3445 -161.0281)"/><path class="cls-58" d="M325.931,331.6718l-1.86-9.1461c-.4649-2.2865-1.0648-9.3078-3.6052-9.5849s-7.9514,1.617-13.1872.3007-9.1914-4.48-7.8909-10.3008,12.4525-12.0567,21.1991-13.8354,17.4931-3.5574,23.369-3.1649,14.4474,1.8241,17.7628,5.9121.27,9.4695-5.9365,11.5253S345.6,306.2421,344.475,308.852c-.9869,2.2891-.8153,4.1343.27,9.47a34.4564,34.4564,0,0,0,3.6052,9.5849s-7.3112.6932-11.2869,1.5017Z" transform="translate(-37.3445 -161.0281)"/><path class="cls-59" d="M323.8215,309.0836a3.6167,3.6167,0,0,1-.62-3.0487c.4852-1.6861-3.3153-4.088-3.3153-4.088s.4649,2.2866-.33,2.4483-3.6455-1.64-5.721.37a8.7655,8.7655,0,0,0-2.2506,5.22,17.1286,17.1286,0,0,1,3.8207-1.5706c1.59-.3234,1.7453.4387,3.3356.1153S323.8215,309.0836,323.8215,309.0836Z" transform="translate(-37.3445 -161.0281)"/><path class="cls-60" d="M338.3294,298.99s-.1752,3.21,4.1105,3.9263,5.876.3924,5.876.3924a2.8706,2.8706,0,0,1,1.4353-1.0855c.7951-.1617,1.9,1.2009,1.9,1.2009s4.4609-2.4945,3.3557-3.8572-3.8-2.4019-7.1361-2.5173S339.61,297.1423,338.3294,298.99Z" transform="translate(-37.3445 -161.0281)"/><path class="cls-61" d="M321.3214,300.8614s3.3356.1153,3.9556,3.164.7346,11.7561,1.51,15.567,3.12,11.271,3.12,11.271l.7951-.1617s-2.6551-8.9845-3.12-11.271-.0946-12.68-1.6647-16.3291S321.3214,300.8614,321.3214,300.8614Z" transform="translate(-37.3445 -161.0281)"/><path class="cls-62" d="M332.9323,329.4544a57.6431,57.6431,0,0,1-2.3451-7.46,57.6588,57.6588,0,0,1-.7549-7.7835l1.55,7.6218a30.52,30.52,0,0,0,3.14,7.2984Z" transform="translate(-37.3445 -161.0281)"/><path class="cls-63" d="M340.7287,327.0752s.04-7.9452-.7347-11.7561-4.4-9.4232-5.6605-11.548a7.89,7.89,0,0,1-.93-4.5731,13.1656,13.1656,0,0,0,1.7251,4.4114,26.7282,26.7282,0,0,1,5.6605,11.548,45.8607,45.8607,0,0,1,.7347,11.7561Z" transform="translate(-37.3445 -161.0281)"/><path class="cls-64" d="M255.1952,209.2859l-.0308-5.4444-.0219-3.8888c-.0132-2.3333.7587-9.3378-1.68-10.1018s-8.114.0458-12.9956-2.26-7.3422-6.9586-6.57-13.9631c.6492-5.8909,15.3771-7.0869,24.3025-7.1373s17.8509-.1008,23.5395,1.4226,16.4486,1.7216,17.079,6.9037c.8509,6.9953-2.3684,11.68-8.8552,12.4947s-10.5438.8373-12.1535,3.18c-1.4117,2.0545-1.6008,3.898-1.57,9.3424a10.21,10.21,0,0,0,1.6492,4.6574l.0307,5.4444s-7.307-.7366-11.364-.7136Z" transform="translate(-37.3445 -161.0281)"/><path class="cls-65" d="M255.1644,203.8415l-.0527-9.3331c-.0131-2.3333.7587-9.3378-1.68-10.1018s-8.114.0458-12.9956-2.26-8.1491-6.1763-5.7457-11.6344,14.5526-9.4157,23.478-9.4661,17.8509-.1008,23.54,1.4227,13.82,4.5887,16.2807,9.2415-1.57,9.3424-8.0569,10.1568-10.5439.8373-12.1535,3.18c-1.4117,2.0545-1.6009,3.898-1.57,9.3423a34.4541,34.4541,0,0,0,1.68,10.1018s-7.307-.7365-11.364-.7136Z" transform="translate(-37.3445 -161.0281)"/><path class="cls-66" d="M257.4713,181.2726a3.6167,3.6167,0,0,1-.0176-3.1111c.8026-1.56-2.4605-4.6528-2.4605-4.6528s.0131,2.3333-.7983,2.3379-3.2587-2.315-5.6842-.7457a8.7651,8.7651,0,0,0-3.2192,4.6849,17.1269,17.1269,0,0,1,4.0526-.8007c1.6228-.0091,1.6272.7686,3.25.76S257.4713,181.2726,257.4713,181.2726Z" transform="translate(-37.3445 -161.0281)"/><path class="cls-67" d="M273.66,174.1811s-.7938,3.1156,3.272,4.6482,5.6886,1.5235,5.6886,1.5235a2.871,2.871,0,0,1,1.6184-.7869c.8114-.0046,1.6316,1.5463,1.6316,1.5463s4.86-1.583,4.0394-3.1339-3.2632-3.0928-6.5132-3.8522S275.2738,172.6164,273.66,174.1811Z" transform="translate(-37.3445 -161.0281)"/><path class="cls-68" d="M256.6116,172.7218s3.25.7594,3.2675,3.87-1.5569,11.6756-1.5349,15.5644.8772,11.6619.8772,11.6619l.8114-.0046s-.8641-9.3286-.8772-11.6618,2.3639-12.458,1.5306-16.3423S256.6116,172.7218,256.6116,172.7218Z" transform="translate(-37.3445 -161.0281)"/><path class="cls-69" d="M262.4627,203.0225a57.6559,57.6559,0,0,1-.8554-7.773,57.6673,57.6673,0,0,1,.7675-7.7823l.0439,7.7777a30.5192,30.5192,0,0,0,1.6668,7.7685Z" transform="translate(-37.3445 -161.0281)"/><path class="cls-70" d="M270.5723,202.199s1.5789-7.7869,1.5569-11.6757-2.4913-10.0972-3.3159-12.4259a7.89,7.89,0,0,1-.0263-4.6666,13.1645,13.1645,0,0,0,.8378,4.662,26.7307,26.7307,0,0,1,3.3158,12.4259,45.8581,45.8581,0,0,1-1.5569,11.6757Z" transform="translate(-37.3445 -161.0281)"/></g></g></svg>