<svg xmlns="http://www.w3.org/2000/svg" xmlns:xlink="http://www.w3.org/1999/xlink" viewBox="0 0 442.3479 187.0828"><defs><style>.cls-1{fill:url(#linear-gradient);}.cls-2{fill:url(#radial-gradient);}.cls-3{fill:url(#linear-gradient-2);}.cls-4{fill:url(#linear-gradient-3);}.cls-5{fill:url(#radial-gradient-2);}.cls-6{fill:url(#linear-gradient-4);}.cls-7{fill:url(#linear-gradient-5);}.cls-8{fill:url(#radial-gradient-3);}.cls-9{fill:url(#linear-gradient-6);}.cls-10{fill:url(#linear-gradient-7);}.cls-11{fill:url(#radial-gradient-4);}.cls-12{fill:url(#linear-gradient-8);}.cls-13{fill:url(#linear-gradient-9);}.cls-14{fill:url(#radial-gradient-5);}.cls-15{fill:url(#linear-gradient-10);}.cls-16{fill:url(#linear-gradient-11);}.cls-17{fill:url(#radial-gradient-6);}.cls-18{fill:url(#linear-gradient-12);}.cls-19{fill:url(#linear-gradient-13);}.cls-20{fill:url(#radial-gradient-7);}.cls-21{fill:url(#linear-gradient-14);}.cls-22{fill:url(#linear-gradient-15);}.cls-23{fill:url(#radial-gradient-8);}.cls-24{fill:url(#linear-gradient-16);}.cls-25{fill:url(#linear-gradient-17);}.cls-26{fill:url(#radial-gradient-9);}.cls-27{fill:url(#linear-gradient-18);}.cls-28{fill:url(#linear-gradient-19);}.cls-29{fill:url(#radial-gradient-10);}.cls-30{fill:url(#linear-gradient-20);}.cls-31{fill:url(#linear-gradient-21);}.cls-32{fill:url(#radial-gradient-11);}.cls-33{fill:url(#linear-gradient-22);}.cls-34{fill:url(#linear-gradient-23);}.cls-35{fill:url(#radial-gradient-12);}.cls-36{fill:url(#linear-gradient-24);}.cls-37{fill:url(#linear-gradient-25);}.cls-38{fill:url(#radial-gradient-13);}.cls-39{fill:url(#linear-gradient-26);}.cls-40{fill:url(#linear-gradient-27);}.cls-41{fill:url(#radial-gradient-14);}.cls-42{fill:url(#linear-gradient-28);}.cls-43{fill:url(#linear-gradient-29);}.cls-44{fill:url(#radial-gradient-15);}.cls-45{fill:url(#linear-gradient-30);}.cls-46{fill:url(#linear-gradient-31);}.cls-47{fill:url(#radial-gradient-16);}.cls-48{fill:url(#linear-gradient-32);}.cls-49{fill:url(#linear-gradient-33);}.cls-50{fill:url(#radial-gradient-17);}.cls-51{fill:url(#linear-gradient-34);}</style><linearGradient id="linear-gradient" x1="30.6582" y1="251.7999" x2="78.9991" y2="251.7999" gradientUnits="userSpaceOnUse"><stop offset="0" stop-color="#382f30"/><stop offset="0.5158" stop-color="#946a5e"/><stop offset="0.5917" stop-color="#846056"/><stop offset="0.8666" stop-color="#4d3d3b"/><stop offset="1" stop-color="#382f30"/></linearGradient><radialGradient id="radial-gradient" cx="-55.6472" cy="304.7715" r="72.7295" gradientTransform="translate(68.7383 203.3908) scale(0.25 0.1268)" gradientUnits="userSpaceOnUse"><stop offset="0.4824" stop-color="#8e6c60"/><stop offset="0.621" stop-color="#7e594b"/><stop offset="0.7035" stop-color="#724b3c"/><stop offset="1" stop-color="#4c3b31"/></radialGradient><linearGradient id="linear-gradient-2" x1="54.0441" y1="243.6659" x2="54.0441" y2="251.8662" gradientTransform="translate(0 -45.929) scale(1 1.1675)" gradientUnits="userSpaceOnUse"><stop offset="0.3752" stop-color="#724b3c"/><stop offset="1" stop-color="#4c3b31"/></linearGradient><linearGradient id="linear-gradient-3" x1="77.6582" y1="197.7999" x2="125.9991" y2="197.7999" xlink:href="#linear-gradient"/><radialGradient id="radial-gradient-2" cx="132.3466" cy="134.4097" r="72.7295" gradientTransform="translate(68.7383 170.9908) scale(0.25 0.1268)" xlink:href="#radial-gradient"/><linearGradient id="linear-gradient-4" x1="101.0441" y1="197.4132" x2="101.0441" y2="205.6135" xlink:href="#linear-gradient-2"/><linearGradient id="linear-gradient-5" x1="78.6582" y1="297.7999" x2="126.9991" y2="297.7999" xlink:href="#linear-gradient"/><radialGradient id="radial-gradient-3" cx="136.3464" cy="449.8945" r="72.7295" gradientTransform="translate(68.7383 230.9908) scale(0.25 0.1268)" xlink:href="#radial-gradient"/><linearGradient id="linear-gradient-6" x1="102.0441" y1="283.0664" x2="102.0441" y2="291.2667" xlink:href="#linear-gradient-2"/><linearGradient id="linear-gradient-7" x1="118.6582" y1="242.7999" x2="166.9991" y2="242.7999" xlink:href="#linear-gradient"/><radialGradient id="radial-gradient-4" cx="296.3411" cy="276.3778" r="72.7295" gradientTransform="translate(68.7383 197.9908) scale(0.25 0.1268)" xlink:href="#radial-gradient"/><linearGradient id="linear-gradient-8" x1="142.0441" y1="235.9571" x2="142.0441" y2="244.1574" xlink:href="#linear-gradient-2"/><linearGradient id="linear-gradient-9" x1="159.6582" y1="321.7999" x2="207.9991" y2="321.7999" xlink:href="#linear-gradient"/><radialGradient id="radial-gradient-5" cx="460.3357" cy="525.6108" r="72.7295" gradientTransform="translate(68.7383 245.3908) scale(0.25 0.1268)" xlink:href="#radial-gradient"/><linearGradient id="linear-gradient-10" x1="183.0441" y1="303.6231" x2="183.0441" y2="311.8234" xlink:href="#linear-gradient-2"/><linearGradient id="linear-gradient-11" x1="253.6582" y1="327.7999" x2="301.9991" y2="327.7999" xlink:href="#linear-gradient"/><radialGradient id="radial-gradient-6" cx="836.3232" cy="544.5399" r="72.7295" gradientTransform="translate(68.7383 248.9908) scale(0.25 0.1268)" xlink:href="#radial-gradient"/><linearGradient id="linear-gradient-12" x1="277.0441" y1="308.7623" x2="277.0441" y2="316.9626" xlink:href="#linear-gradient-2"/><linearGradient id="linear-gradient-13" x1="258.6582" y1="281.7999" x2="306.9991" y2="281.7999" xlink:href="#linear-gradient"/><radialGradient id="radial-gradient-7" cx="856.3226" cy="399.4169" r="72.7295" gradientTransform="translate(68.7383 221.3908) scale(0.25 0.1268)" xlink:href="#radial-gradient"/><linearGradient id="linear-gradient-14" x1="282.0441" y1="269.3619" x2="282.0441" y2="277.5622" xlink:href="#linear-gradient-2"/><linearGradient id="linear-gradient-15" x1="359.6582" y1="254.7999" x2="407.9991" y2="254.7999" xlink:href="#linear-gradient"/><radialGradient id="radial-gradient-8" cx="1260.3092" cy="314.236" r="72.7295" gradientTransform="translate(68.7383 205.1908) scale(0.25 0.1268)" xlink:href="#radial-gradient"/><linearGradient id="linear-gradient-16" x1="383.0441" y1="246.2355" x2="383.0441" y2="254.4358" xlink:href="#linear-gradient-2"/><linearGradient id="linear-gradient-17" x1="335.6582" y1="303.7999" x2="383.9991" y2="303.7999" xlink:href="#linear-gradient"/><radialGradient id="radial-gradient-9" cx="1164.3124" cy="468.8235" r="72.7295" gradientTransform="translate(68.7383 234.5908) scale(0.25 0.1268)" xlink:href="#radial-gradient"/><linearGradient id="linear-gradient-18" x1="359.0441" y1="288.2056" x2="359.0441" y2="296.4059" xlink:href="#linear-gradient-2"/><linearGradient id="linear-gradient-19" x1="424.6582" y1="284.7999" x2="472.9991" y2="284.7999" xlink:href="#linear-gradient"/><radialGradient id="radial-gradient-10" cx="1520.3006" cy="408.8814" r="72.7295" gradientTransform="translate(68.7383 223.1908) scale(0.25 0.1268)" xlink:href="#radial-gradient"/><linearGradient id="linear-gradient-20" x1="448.0441" y1="271.9315" x2="448.0441" y2="280.1318" xlink:href="#linear-gradient-2"/><linearGradient id="linear-gradient-21" x1="289.6582" y1="228.7999" x2="337.9991" y2="228.7999" xlink:href="#linear-gradient"/><radialGradient id="radial-gradient-11" cx="980.3185" cy="232.21" r="72.7295" gradientTransform="translate(68.7383 189.5908) scale(0.25 0.1268)" xlink:href="#radial-gradient"/><linearGradient id="linear-gradient-22" x1="313.0441" y1="223.9657" x2="313.0441" y2="232.166" xlink:href="#linear-gradient-2"/><linearGradient id="linear-gradient-23" x1="178.6582" y1="263.7999" x2="226.9991" y2="263.7999" xlink:href="#linear-gradient"/><radialGradient id="radial-gradient-12" cx="536.3332" cy="342.6296" r="72.7295" gradientTransform="translate(68.7383 210.5908) scale(0.25 0.1268)" xlink:href="#radial-gradient"/><linearGradient id="linear-gradient-24" x1="202.0441" y1="253.9443" x2="202.0441" y2="262.1446" xlink:href="#linear-gradient-2"/><linearGradient id="linear-gradient-25" x1="207.6582" y1="219.7999" x2="255.9991" y2="219.7999" xlink:href="#linear-gradient"/><radialGradient id="radial-gradient-13" cx="652.3293" cy="203.8163" r="72.7295" gradientTransform="translate(68.7383 184.1908) scale(0.25 0.1268)" xlink:href="#radial-gradient"/><linearGradient id="linear-gradient-26" x1="231.0441" y1="216.2569" x2="231.0441" y2="224.4572" xlink:href="#linear-gradient-2"/><linearGradient id="linear-gradient-27" x1="226.6582" y1="175.7999" x2="274.9991" y2="175.7999" xlink:href="#linear-gradient"/><radialGradient id="radial-gradient-14" cx="728.3268" cy="65.003" r="72.7295" gradientTransform="translate(68.7383 157.7908) scale(0.25 0.1268)" xlink:href="#radial-gradient"/><linearGradient id="linear-gradient-28" x1="250.0441" y1="178.5695" x2="250.0441" y2="186.7698" xlink:href="#linear-gradient-2"/><linearGradient id="linear-gradient-29" x1="317.6582" y1="188.7999" x2="365.9991" y2="188.7999" xlink:href="#linear-gradient"/><radialGradient id="radial-gradient-15" cx="1092.3148" cy="106.0161" r="72.7295" gradientTransform="translate(68.7383 165.5908) scale(0.25 0.1268)" xlink:href="#radial-gradient"/><linearGradient id="linear-gradient-30" x1="341.0441" y1="189.7044" x2="341.0441" y2="197.9047" xlink:href="#linear-gradient-2"/><linearGradient id="linear-gradient-31" x1="403.6582" y1="214.7999" x2="451.9991" y2="214.7999" xlink:href="#linear-gradient"/><radialGradient id="radial-gradient-16" cx="1436.3034" cy="188.0421" r="72.7295" gradientTransform="translate(68.7383 181.1908) scale(0.25 0.1268)" xlink:href="#radial-gradient"/><linearGradient id="linear-gradient-32" x1="427.0441" y1="211.9742" x2="427.0441" y2="220.1746" xlink:href="#linear-gradient-2"/><linearGradient id="linear-gradient-33" x1="148.6582" y1="185.7999" x2="196.9991" y2="185.7999" xlink:href="#linear-gradient"/><radialGradient id="radial-gradient-17" cx="416.3372" cy="96.5515" r="72.7295" gradientTransform="translate(68.7383 163.7908) scale(0.25 0.1268)" xlink:href="#radial-gradient"/><linearGradient id="linear-gradient-34" x1="172.0441" y1="187.1348" x2="172.0441" y2="195.3351" xlink:href="#linear-gradient-2"/></defs><title>olives</title><g id="olives"><g id="multiple"><path class="cls-1" d="M30.6582,240.5628c0,3.06.0809,9.399.0809,10.9839a8.1485,8.1485,0,0,0,1.25,5.0715,17.9,17.9,0,0,0,8.75,6.3395,52.3156,52.3156,0,0,0,13,2.8527c4,.317,9.75.317,13.2505-.6339a17.4152,17.4152,0,0,0,8-5.0716c1.6107-1.75,3.0824-3.5346,3.5-5.3885a29.8818,29.8818,0,0,0,.5-6.6564c0-2.2188.0084-6.6753.0084-6.6753L66.99,237.6l-34.5012,2.5358Z" transform="translate(-30.6521 -154.9172)"/><path class="cls-2" d="M52.24,230.9435c6.9975-.2465,15.2505,1.2678,20.0006,3.4866s10.5,6.0225,3.5,12.6789S58.99,253.1315,53.49,253.1315a40.6847,40.6847,0,0,1-17.5006-4.4376c-4.5-2.5358-7.75-8.8752-3-12.0449S43.24,231.26,52.24,230.9435Z" transform="translate(-30.6521 -154.9172)"/><path class="cls-3" d="M43.99,243.2383a8.2975,8.2975,0,0,1,4-3.7007c2.75-1.11,4.75-.37,7-.74s7.25-.74,8.75,2.22-1.75,4.4408-3.25,4.8108-3.5,1.85-4.25,2.22-1.5-.74-2.5-.74-1,.74-1.75.74-1.5-1.48-2.25-1.48-1.25.37-1.75.37-.75-1.48-1-1.48-.25,1.11-1,.74A2.839,2.839,0,0,1,43.99,243.2383Z" transform="translate(-30.6521 -154.9172)"/><path class="cls-4" d="M77.6582,186.5628c0,3.06.0809,9.399.0809,10.9839a8.1485,8.1485,0,0,0,1.25,5.0715,17.9,17.9,0,0,0,8.75,6.3395,52.3156,52.3156,0,0,0,13,2.8527c4,.317,9.75.317,13.2505-.6339a17.4152,17.4152,0,0,0,8-5.0716c1.6107-1.75,3.0824-3.5346,3.5-5.3885a29.8818,29.8818,0,0,0,.5-6.6564c0-2.2188.0084-6.6753.0084-6.6753L113.99,183.6l-34.5012,2.5358Z" transform="translate(-30.6521 -154.9172)"/><path class="cls-5" d="M99.24,176.9435c6.9975-.2465,15.2505,1.2678,20.0006,3.4866s10.5,6.0225,3.5,12.6789-16.7506,6.0225-22.2508,6.0225a40.6847,40.6847,0,0,1-17.5006-4.4376c-4.5-2.5358-7.75-8.8752-3-12.0449S90.24,177.26,99.24,176.9435Z" transform="translate(-30.6521 -154.9172)"/><path class="cls-6" d="M90.99,189.2383a8.2975,8.2975,0,0,1,4-3.7007c2.75-1.11,4.75-.37,7-.74s7.25-.74,8.75,2.22-1.75,4.4408-3.25,4.8108-3.5,1.85-4.25,2.22-1.5-.74-2.5-.74-1,.74-1.75.74-1.5-1.48-2.25-1.48-1.25.37-1.75.37-.75-1.48-1-1.48-.25,1.11-1,.74A2.839,2.839,0,0,1,90.99,189.2383Z" transform="translate(-30.6521 -154.9172)"/><path class="cls-7" d="M78.6582,286.5628c0,3.06.0809,9.399.0809,10.9839a8.1485,8.1485,0,0,0,1.25,5.0715,17.9,17.9,0,0,0,8.75,6.3395,52.3156,52.3156,0,0,0,13,2.8527c4,.317,9.75.317,13.2505-.6339a17.4152,17.4152,0,0,0,8-5.0716c1.6107-1.75,3.0824-3.5346,3.5-5.3885a29.8818,29.8818,0,0,0,.5-6.6564c0-2.2188.0084-6.6753.0084-6.6753L114.99,283.6l-34.5012,2.5358Z" transform="translate(-30.6521 -154.9172)"/><path class="cls-8" d="M100.24,276.9435c6.9975-.2465,15.2505,1.2678,20.0006,3.4866s10.5,6.0225,3.5,12.6789-16.7506,6.0225-22.2508,6.0225a40.6847,40.6847,0,0,1-17.5006-4.4376c-4.5-2.5358-7.75-8.8752-3-12.0449S91.24,277.26,100.24,276.9435Z" transform="translate(-30.6521 -154.9172)"/><path class="cls-9" d="M91.99,289.2383a8.2975,8.2975,0,0,1,4-3.7007c2.75-1.11,4.75-.37,7-.74s7.25-.74,8.75,2.22-1.75,4.4408-3.25,4.8108-3.5,1.85-4.25,2.22-1.5-.74-2.5-.74-1,.74-1.75.74-1.5-1.48-2.25-1.48-1.25.37-1.75.37-.75-1.48-1-1.48-.25,1.11-1,.74A2.839,2.839,0,0,1,91.99,289.2383Z" transform="translate(-30.6521 -154.9172)"/><path class="cls-10" d="M118.6582,231.5628c0,3.06.0809,9.399.0809,10.9839a8.1485,8.1485,0,0,0,1.25,5.0715,17.9,17.9,0,0,0,8.75,6.3395,52.3156,52.3156,0,0,0,13,2.8527c4,.317,9.75.317,13.25-.6339a17.4152,17.4152,0,0,0,8-5.0716c1.6107-1.75,3.0824-3.5346,3.5-5.3885a29.8818,29.8818,0,0,0,.5-6.6564c0-2.2188.0084-6.6753.0084-6.6753L154.99,228.6l-34.5012,2.5358Z" transform="translate(-30.6521 -154.9172)"/><path class="cls-11" d="M140.24,221.9435c6.9975-.2465,15.25,1.2678,20.0006,3.4866s10.5,6.0225,3.5,12.6789-16.7506,6.0225-22.2508,6.0225a40.6847,40.6847,0,0,1-17.5006-4.4376c-4.5-2.5358-7.75-8.8752-3-12.0449S131.24,222.26,140.24,221.9435Z" transform="translate(-30.6521 -154.9172)"/><path class="cls-12" d="M131.99,234.2383a8.2975,8.2975,0,0,1,4-3.7007c2.75-1.11,4.75-.37,7-.74s7.25-.74,8.75,2.22-1.75,4.4408-3.25,4.8108-3.5,1.85-4.25,2.22-1.5-.74-2.5-.74-1,.74-1.75.74-1.5-1.48-2.25-1.48-1.25.37-1.75.37-.75-1.48-1-1.48-.25,1.11-1,.74A2.839,2.839,0,0,1,131.99,234.2383Z" transform="translate(-30.6521 -154.9172)"/><path class="cls-13" d="M159.6582,310.5628c0,3.06.0809,9.399.0809,10.9839a8.1485,8.1485,0,0,0,1.25,5.0715,17.9,17.9,0,0,0,8.75,6.3395,52.3156,52.3156,0,0,0,13,2.8527c4,.317,9.75.317,13.25-.6339a17.4152,17.4152,0,0,0,8-5.0716c1.6107-1.75,3.0824-3.5346,3.5-5.3885a29.8818,29.8818,0,0,0,.5-6.6564c0-2.2188.0084-6.6753.0084-6.6753L195.99,307.6l-34.5012,2.5358Z" transform="translate(-30.6521 -154.9172)"/><path class="cls-14" d="M181.24,300.9435c6.9975-.2465,15.25,1.2678,20.0006,3.4866s10.5,6.0225,3.5,12.6789-16.7506,6.0225-22.2508,6.0225a40.6847,40.6847,0,0,1-17.5006-4.4376c-4.5-2.5358-7.75-8.8752-3-12.0449S172.24,301.26,181.24,300.9435Z" transform="translate(-30.6521 -154.9172)"/><path class="cls-15" d="M172.99,313.2383a8.2975,8.2975,0,0,1,4-3.7007c2.75-1.11,4.75-.37,7-.74s7.25-.74,8.75,2.22-1.75,4.4408-3.25,4.8108-3.5,1.85-4.25,2.22-1.5-.74-2.5-.74-1,.74-1.75.74-1.5-1.48-2.25-1.48-1.25.37-1.75.37-.75-1.48-1-1.48-.25,1.11-1,.74A2.839,2.839,0,0,1,172.99,313.2383Z" transform="translate(-30.6521 -154.9172)"/><path class="cls-16" d="M253.6582,316.5628c0,3.06.0809,9.399.0809,10.9839a8.1485,8.1485,0,0,0,1.25,5.0715,17.9,17.9,0,0,0,8.75,6.3395,52.3156,52.3156,0,0,0,13,2.8527c4,.317,9.75.317,13.25-.6339a17.4152,17.4152,0,0,0,8-5.0716c1.6107-1.75,3.0824-3.5346,3.5-5.3885a29.8818,29.8818,0,0,0,.5-6.6564c0-2.2188.0084-6.6753.0084-6.6753L289.99,313.6l-34.5012,2.5358Z" transform="translate(-30.6521 -154.9172)"/><path class="cls-17" d="M275.24,306.9435c6.9975-.2465,15.25,1.2678,20.0006,3.4866s10.5,6.0225,3.5,12.6789-16.7506,6.0225-22.2508,6.0225a40.6847,40.6847,0,0,1-17.5006-4.4376c-4.5-2.5358-7.75-8.8752-3-12.0449S266.24,307.26,275.24,306.9435Z" transform="translate(-30.6521 -154.9172)"/><path class="cls-18" d="M266.99,319.2383a8.2975,8.2975,0,0,1,4-3.7007c2.75-1.11,4.75-.37,7-.74s7.25-.74,8.75,2.22-1.75,4.4408-3.25,4.8108-3.5,1.85-4.25,2.22-1.5-.74-2.5-.74-1,.74-1.75.74-1.5-1.48-2.25-1.48-1.25.37-1.75.37-.75-1.48-1-1.48-.25,1.11-1,.74A2.839,2.839,0,0,1,266.99,319.2383Z" transform="translate(-30.6521 -154.9172)"/><path class="cls-19" d="M258.6582,270.5628c0,3.06.0809,9.399.0809,10.9839a8.1485,8.1485,0,0,0,1.25,5.0715,17.9,17.9,0,0,0,8.75,6.3395,52.3156,52.3156,0,0,0,13,2.8527c4,.317,9.75.317,13.25-.6339a17.4152,17.4152,0,0,0,8-5.0716c1.6107-1.75,3.0824-3.5346,3.5-5.3885a29.8818,29.8818,0,0,0,.5-6.6564c0-2.2188.0084-6.6753.0084-6.6753L294.99,267.6l-34.5012,2.5358Z" transform="translate(-30.6521 -154.9172)"/><path class="cls-20" d="M280.24,260.9435c6.9975-.2465,15.25,1.2678,20.0006,3.4866s10.5,6.0225,3.5,12.6789-16.7506,6.0225-22.2508,6.0225a40.6847,40.6847,0,0,1-17.5006-4.4376c-4.5-2.5358-7.75-8.8752-3-12.0449S271.24,261.26,280.24,260.9435Z" transform="translate(-30.6521 -154.9172)"/><path class="cls-21" d="M271.99,273.2383a8.2975,8.2975,0,0,1,4-3.7007c2.75-1.11,4.75-.37,7-.74s7.25-.74,8.75,2.22-1.75,4.4408-3.25,4.8108-3.5,1.85-4.25,2.22-1.5-.74-2.5-.74-1,.74-1.75.74-1.5-1.48-2.25-1.48-1.25.37-1.75.37-.75-1.48-1-1.48-.25,1.11-1,.74A2.839,2.839,0,0,1,271.99,273.2383Z" transform="translate(-30.6521 -154.9172)"/><path class="cls-22" d="M359.6582,243.5628c0,3.06.0809,9.399.0809,10.9839a8.1485,8.1485,0,0,0,1.25,5.0715,17.9,17.9,0,0,0,8.75,6.3395,52.3156,52.3156,0,0,0,13,2.8527c4,.317,9.75.317,13.25-.6339a17.4152,17.4152,0,0,0,8-5.0716c1.6107-1.75,3.0824-3.5346,3.5-5.3885a29.8818,29.8818,0,0,0,.5-6.6564c0-2.2188.0084-6.6753.0084-6.6753L395.99,240.6l-34.5012,2.5358Z" transform="translate(-30.6521 -154.9172)"/><path class="cls-23" d="M381.24,233.9435c6.9975-.2465,15.25,1.2678,20.0006,3.4866s10.5,6.0225,3.5,12.6789-16.7506,6.0225-22.2508,6.0225a40.6847,40.6847,0,0,1-17.5006-4.4376c-4.5-2.5358-7.75-8.8752-3-12.0449S372.24,234.26,381.24,233.9435Z" transform="translate(-30.6521 -154.9172)"/><path class="cls-24" d="M372.99,246.2383a8.2975,8.2975,0,0,1,4-3.7007c2.75-1.11,4.75-.37,7-.74s7.25-.74,8.75,2.22-1.75,4.4408-3.25,4.8108-3.5,1.85-4.25,2.22-1.5-.74-2.5-.74-1,.74-1.75.74-1.5-1.48-2.25-1.48-1.25.37-1.75.37-.75-1.48-1-1.48-.25,1.11-1,.74A2.839,2.839,0,0,1,372.99,246.2383Z" transform="translate(-30.6521 -154.9172)"/><path class="cls-25" d="M335.6582,292.5628c0,3.06.0809,9.399.0809,10.9839a8.1485,8.1485,0,0,0,1.25,5.0715,17.9,17.9,0,0,0,8.75,6.3395,52.3156,52.3156,0,0,0,13,2.8527c4,.317,9.75.317,13.25-.6339a17.4152,17.4152,0,0,0,8-5.0716c1.6107-1.75,3.0824-3.5346,3.5-5.3885a29.8818,29.8818,0,0,0,.5-6.6564c0-2.2188.0084-6.6753.0084-6.6753L371.99,289.6l-34.5012,2.5358Z" transform="translate(-30.6521 -154.9172)"/><path class="cls-26" d="M357.24,282.9435c6.9975-.2465,15.25,1.2678,20.0006,3.4866s10.5,6.0225,3.5,12.6789-16.7506,6.0225-22.2508,6.0225a40.6847,40.6847,0,0,1-17.5006-4.4376c-4.5-2.5358-7.75-8.8752-3-12.0449S348.24,283.26,357.24,282.9435Z" transform="translate(-30.6521 -154.9172)"/><path class="cls-27" d="M348.99,295.2383a8.2975,8.2975,0,0,1,4-3.7007c2.75-1.11,4.75-.37,7-.74s7.25-.74,8.75,2.22-1.75,4.4408-3.25,4.8108-3.5,1.85-4.25,2.22-1.5-.74-2.5-.74-1,.74-1.75.74-1.5-1.48-2.25-1.48-1.25.37-1.75.37-.75-1.48-1-1.48-.25,1.11-1,.74A2.839,2.839,0,0,1,348.99,295.2383Z" transform="translate(-30.6521 -154.9172)"/><path class="cls-28" d="M424.6582,273.5628c0,3.06.0809,9.399.0809,10.9839a8.1485,8.1485,0,0,0,1.25,5.0715,17.9,17.9,0,0,0,8.75,6.3395,52.3156,52.3156,0,0,0,13,2.8527c4,.317,9.75.317,13.25-.6339a17.4152,17.4152,0,0,0,8-5.0716c1.6107-1.75,3.0824-3.5346,3.5-5.3885a29.8818,29.8818,0,0,0,.5-6.6564c0-2.2188.0084-6.6753.0084-6.6753L460.99,270.6l-34.5012,2.5358Z" transform="translate(-30.6521 -154.9172)"/><path class="cls-29" d="M446.24,263.9435c6.9975-.2465,15.25,1.2678,20.0006,3.4866s10.5,6.0225,3.5,12.6789-16.7506,6.0225-22.2508,6.0225a40.6847,40.6847,0,0,1-17.5006-4.4376c-4.5-2.5358-7.75-8.8752-3-12.0449S437.24,264.26,446.24,263.9435Z" transform="translate(-30.6521 -154.9172)"/><path class="cls-30" d="M437.99,276.2383a8.2975,8.2975,0,0,1,4-3.7007c2.75-1.11,4.75-.37,7-.74s7.25-.74,8.75,2.22-1.75,4.4408-3.25,4.8108-3.5,1.85-4.25,2.22-1.5-.74-2.5-.74-1,.74-1.75.74-1.5-1.48-2.25-1.48-1.25.37-1.75.37-.75-1.48-1-1.48-.25,1.11-1,.74A2.839,2.839,0,0,1,437.99,276.2383Z" transform="translate(-30.6521 -154.9172)"/><path class="cls-31" d="M289.6582,217.5628c0,3.06.0809,9.399.0809,10.9839a8.1485,8.1485,0,0,0,1.25,5.0715,17.9,17.9,0,0,0,8.75,6.3395,52.3156,52.3156,0,0,0,13,2.8527c4,.317,9.75.317,13.25-.6339a17.4152,17.4152,0,0,0,8-5.0716c1.6107-1.75,3.0824-3.5346,3.5-5.3885a29.8818,29.8818,0,0,0,.5-6.6564c0-2.2188.0084-6.6753.0084-6.6753L325.99,214.6l-34.5012,2.5358Z" transform="translate(-30.6521 -154.9172)"/><path class="cls-32" d="M311.24,207.9435c6.9975-.2465,15.25,1.2678,20.0006,3.4866s10.5,6.0225,3.5,12.6789-16.7506,6.0225-22.2508,6.0225a40.6847,40.6847,0,0,1-17.5006-4.4376c-4.5-2.5358-7.75-8.8752-3-12.0449S302.24,208.26,311.24,207.9435Z" transform="translate(-30.6521 -154.9172)"/><path class="cls-33" d="M302.99,220.2383a8.2975,8.2975,0,0,1,4-3.7007c2.75-1.11,4.75-.37,7-.74s7.25-.74,8.75,2.22-1.75,4.4408-3.25,4.8108-3.5,1.85-4.25,2.22-1.5-.74-2.5-.74-1,.74-1.75.74-1.5-1.48-2.25-1.48-1.25.37-1.75.37-.75-1.48-1-1.48-.25,1.11-1,.74A2.839,2.839,0,0,1,302.99,220.2383Z" transform="translate(-30.6521 -154.9172)"/><path class="cls-34" d="M178.6582,252.5628c0,3.06.0809,9.399.0809,10.9839a8.1485,8.1485,0,0,0,1.25,5.0715,17.9,17.9,0,0,0,8.75,6.3395,52.3156,52.3156,0,0,0,13,2.8527c4,.317,9.75.317,13.25-.6339a17.4152,17.4152,0,0,0,8-5.0716c1.6107-1.75,3.0824-3.5346,3.5-5.3885a29.8818,29.8818,0,0,0,.5-6.6564c0-2.2188.0084-6.6753.0084-6.6753L214.99,249.6l-34.5012,2.5358Z" transform="translate(-30.6521 -154.9172)"/><path class="cls-35" d="M200.24,242.9435c6.9975-.2465,15.25,1.2678,20.0006,3.4866s10.5,6.0225,3.5,12.6789-16.7506,6.0225-22.2508,6.0225a40.6847,40.6847,0,0,1-17.5006-4.4376c-4.5-2.5358-7.75-8.8752-3-12.0449S191.24,243.26,200.24,242.9435Z" transform="translate(-30.6521 -154.9172)"/><path class="cls-36" d="M191.99,255.2383a8.2975,8.2975,0,0,1,4-3.7007c2.75-1.11,4.75-.37,7-.74s7.25-.74,8.75,2.22-1.75,4.4408-3.25,4.8108-3.5,1.85-4.25,2.22-1.5-.74-2.5-.74-1,.74-1.75.74-1.5-1.48-2.25-1.48-1.25.37-1.75.37-.75-1.48-1-1.48-.25,1.11-1,.74A2.839,2.839,0,0,1,191.99,255.2383Z" transform="translate(-30.6521 -154.9172)"/><path class="cls-37" d="M207.6582,208.5628c0,3.06.0809,9.399.0809,10.9839a8.1485,8.1485,0,0,0,1.25,5.0715,17.9,17.9,0,0,0,8.75,6.3395,52.3156,52.3156,0,0,0,13,2.8527c4,.317,9.75.317,13.25-.6339a17.4152,17.4152,0,0,0,8-5.0716c1.6107-1.75,3.0824-3.5346,3.5-5.3885a29.8818,29.8818,0,0,0,.5-6.6564c0-2.2188.0084-6.6753.0084-6.6753L243.99,205.6l-34.5012,2.5358Z" transform="translate(-30.6521 -154.9172)"/><path class="cls-38" d="M229.24,198.9435c6.9975-.2465,15.25,1.2678,20.0006,3.4866s10.5,6.0225,3.5,12.6789-16.7506,6.0225-22.2508,6.0225a40.6847,40.6847,0,0,1-17.5006-4.4376c-4.5-2.5358-7.75-8.8752-3-12.0449S220.24,199.26,229.24,198.9435Z" transform="translate(-30.6521 -154.9172)"/><path class="cls-39" d="M220.99,211.2383a8.2975,8.2975,0,0,1,4-3.7007c2.75-1.11,4.75-.37,7-.74s7.25-.74,8.75,2.22-1.75,4.4408-3.25,4.8108-3.5,1.85-4.25,2.22-1.5-.74-2.5-.74-1,.74-1.75.74-1.5-1.48-2.25-1.48-1.25.37-1.75.37-.75-1.48-1-1.48-.25,1.11-1,.74A2.839,2.839,0,0,1,220.99,211.2383Z" transform="translate(-30.6521 -154.9172)"/><path class="cls-40" d="M226.6582,164.5628c0,3.06.0809,9.399.0809,10.9839a8.1485,8.1485,0,0,0,1.25,5.0715,17.9,17.9,0,0,0,8.75,6.3395,52.3156,52.3156,0,0,0,13,2.8527c4,.317,9.75.317,13.25-.6339a17.4152,17.4152,0,0,0,8-5.0716c1.6107-1.75,3.0824-3.5346,3.5-5.3885a29.8818,29.8818,0,0,0,.5-6.6564c0-2.2188.0084-6.6753.0084-6.6753L262.99,161.6l-34.5012,2.5358Z" transform="translate(-30.6521 -154.9172)"/><path class="cls-41" d="M248.24,154.9435c6.9975-.2465,15.25,1.2678,20.0006,3.4866s10.5,6.0225,3.5,12.6789-16.7506,6.0225-22.2508,6.0225a40.6847,40.6847,0,0,1-17.5006-4.4376c-4.5-2.5358-7.75-8.8752-3-12.0449S239.24,155.26,248.24,154.9435Z" transform="translate(-30.6521 -154.9172)"/><path class="cls-42" d="M239.99,167.2383a8.2975,8.2975,0,0,1,4-3.7007c2.75-1.11,4.75-.37,7-.74s7.25-.74,8.75,2.22-1.75,4.4408-3.25,4.8108-3.5,1.85-4.25,2.22-1.5-.74-2.5-.74-1,.74-1.75.74-1.5-1.48-2.25-1.48-1.25.37-1.75.37-.75-1.48-1-1.48-.25,1.11-1,.74A2.839,2.839,0,0,1,239.99,167.2383Z" transform="translate(-30.6521 -154.9172)"/><path class="cls-43" d="M317.6582,177.5628c0,3.06.0809,9.399.0809,10.9839a8.1485,8.1485,0,0,0,1.25,5.0715,17.9,17.9,0,0,0,8.75,6.3395,52.3156,52.3156,0,0,0,13,2.8527c4,.317,9.75.317,13.25-.6339a17.4152,17.4152,0,0,0,8-5.0716c1.6107-1.75,3.0824-3.5346,3.5-5.3885a29.8818,29.8818,0,0,0,.5-6.6564c0-2.2188.0084-6.6753.0084-6.6753L353.99,174.6l-34.5012,2.5358Z" transform="translate(-30.6521 -154.9172)"/><path class="cls-44" d="M339.24,167.9435c6.9975-.2465,15.25,1.2678,20.0006,3.4866s10.5,6.0225,3.5,12.6789-16.7506,6.0225-22.2508,6.0225a40.6847,40.6847,0,0,1-17.5006-4.4376c-4.5-2.5358-7.75-8.8752-3-12.0449S330.24,168.26,339.24,167.9435Z" transform="translate(-30.6521 -154.9172)"/><path class="cls-45" d="M330.99,180.2383a8.2975,8.2975,0,0,1,4-3.7007c2.75-1.11,4.75-.37,7-.74s7.25-.74,8.75,2.22-1.75,4.4408-3.25,4.8108-3.5,1.85-4.25,2.22-1.5-.74-2.5-.74-1,.74-1.75.74-1.5-1.48-2.25-1.48-1.25.37-1.75.37-.75-1.48-1-1.48-.25,1.11-1,.74A2.839,2.839,0,0,1,330.99,180.2383Z" transform="translate(-30.6521 -154.9172)"/><path class="cls-46" d="M403.6582,203.5628c0,3.06.0809,9.399.0809,10.9839a8.1485,8.1485,0,0,0,1.25,5.0715,17.9,17.9,0,0,0,8.75,6.3395,52.3156,52.3156,0,0,0,13,2.8527c4,.317,9.75.317,13.25-.6339a17.4152,17.4152,0,0,0,8-5.0716c1.6107-1.75,3.0824-3.5346,3.5-5.3885a29.8818,29.8818,0,0,0,.5-6.6564c0-2.2188.0084-6.6753.0084-6.6753L439.99,200.6l-34.5012,2.5358Z" transform="translate(-30.6521 -154.9172)"/><path class="cls-47" d="M425.24,193.9435c6.9975-.2465,15.25,1.2678,20.0006,3.4866s10.5,6.0225,3.5,12.6789-16.7506,6.0225-22.2508,6.0225a40.6847,40.6847,0,0,1-17.5006-4.4376c-4.5-2.5358-7.75-8.8752-3-12.0449S416.24,194.26,425.24,193.9435Z" transform="translate(-30.6521 -154.9172)"/><path class="cls-48" d="M416.99,206.2383a8.2975,8.2975,0,0,1,4-3.7007c2.75-1.11,4.75-.37,7-.74s7.25-.74,8.75,2.22-1.75,4.4408-3.25,4.8108-3.5,1.85-4.25,2.22-1.5-.74-2.5-.74-1,.74-1.75.74-1.5-1.48-2.25-1.48-1.25.37-1.75.37-.75-1.48-1-1.48-.25,1.11-1,.74A2.839,2.839,0,0,1,416.99,206.2383Z" transform="translate(-30.6521 -154.9172)"/><path class="cls-49" d="M148.6582,174.5628c0,3.06.0809,9.399.0809,10.9839a8.1485,8.1485,0,0,0,1.25,5.0715,17.9,17.9,0,0,0,8.75,6.3395,52.3156,52.3156,0,0,0,13,2.8527c4,.317,9.75.317,13.25-.6339a17.4152,17.4152,0,0,0,8-5.0716c1.6107-1.75,3.0824-3.5346,3.5-5.3885a29.8818,29.8818,0,0,0,.5-6.6564c0-2.2188.0084-6.6753.0084-6.6753L184.99,171.6l-34.5012,2.5358Z" transform="translate(-30.6521 -154.9172)"/><path class="cls-50" d="M170.24,164.9435c6.9975-.2465,15.25,1.2678,20.0006,3.4866s10.5,6.0225,3.5,12.6789-16.7506,6.0225-22.2508,6.0225a40.6847,40.6847,0,0,1-17.5006-4.4376c-4.5-2.5358-7.75-8.8752-3-12.0449S161.24,165.26,170.24,164.9435Z" transform="translate(-30.6521 -154.9172)"/><path class="cls-51" d="M161.99,177.2383a8.2975,8.2975,0,0,1,4-3.7007c2.75-1.11,4.75-.37,7-.74s7.25-.74,8.75,2.22-1.75,4.4408-3.25,4.8108-3.5,1.85-4.25,2.22-1.5-.74-2.5-.74-1,.74-1.75.74-1.5-1.48-2.25-1.48-1.25.37-1.75.37-.75-1.48-1-1.48-.25,1.11-1,.74A2.839,2.839,0,0,1,161.99,177.2383Z" transform="translate(-30.6521 -154.9172)"/></g></g></svg>