<svg xmlns="http://www.w3.org/2000/svg" width="455" height="189" viewBox="0 0 455 189"><defs><style>.cls-1{fill:#fff;}</style></defs><title>oval</title><g id="oval"><path class="cls-1" d="M256,347.5c-60.3813,0-117.103-9.748-159.7158-27.4492C54.5073,302.6973,31.5,279.95,31.5,256s23.0073-46.6978,64.7842-64.0513C138.8965,174.248,195.6182,164.5,256,164.5s117.1035,9.748,159.7158,27.4487C457.4922,209.3022,480.5,232.0493,480.5,256s-23.0078,46.6973-64.7842,64.0508C373.1025,337.752,316.3818,347.5,256,347.5Z" transform="translate(-28.5 -161.5)"/><path d="M256,167.5c59.9958,0,116.3087,9.6667,158.5652,27.2194,20.181,8.3829,35.9445,18.0651,46.8526,28.7777C472.0891,233.9773,477.5,244.9128,477.5,256s-5.4109,22.0227-16.0822,32.5029c-10.9081,10.7126-26.6716,20.3948-46.8526,28.7777C372.3087,334.8333,315.9958,344.5,256,344.5s-116.3087-9.6667-158.5651-27.2194c-20.1811-8.3829-35.9446-18.0651-46.8527-28.7777C39.9109,278.0227,34.5,267.0872,34.5,256s5.4109-22.0227,16.0822-32.5029c10.9081-10.7126,26.6716-20.3948,46.8527-28.7777C139.6913,177.1667,196.0042,167.5,256,167.5m0-6c-125.6448,0-227.5,42.3091-227.5,94.5S130.3552,350.5,256,350.5,483.5,308.1909,483.5,256,381.6448,161.5,256,161.5Z" transform="translate(-28.5 -161.5)"/></g></svg>