<svg xmlns="http://www.w3.org/2000/svg" width="94.8414" height="49.2476" viewBox="0 0 94.8414 49.2476"><defs><style>.cls-1{fill:#5e0c06;}.cls-2{fill:#c52610;}.cls-3{fill:#dc8b56;}.cls-4{fill:#e2a590;}.cls-5{fill:#d28d63;}</style></defs><title>pepperoni</title><g id="pepperoni"><path class="cls-1" d="M210.1047,248.0008c3.3953-6.054,11.072-6.9106,12-7,4.8249-.465,6.4514,1.6713,10,0,2.0649-.9725,3.1155-2.45,6-3a11.2618,11.2618,0,0,1,4,0c5.5366.7974,9.3592-1.82,17-3a40.0938,40.0938,0,0,1,14,0c2.6324.4959,6.4574,2.004,14,5,5.2439,2.0829,7.8885,3.1418,9,4,4.3692,3.3731,8.5069,9.9366,7,16a17.876,17.876,0,0,1-8,11c-4.4847,2.9829-12.3631,7.1886-26,9a96.157,96.157,0,0,1-37-3,44.9209,44.9209,0,0,1-16-8,19.7,19.7,0,0,1-7-11A13.59,13.59,0,0,1,210.1047,248.0008Z" transform="translate(-208.5793 -231.3762)"/><path class="cls-2" d="M210.1047,245.0008c3.3953-6.054,11.072-6.9106,12-7,4.8249-.465,6.4514,1.6713,10,0,2.0649-.9725,3.1155-2.45,6-3a11.2618,11.2618,0,0,1,4,0c5.5366.7974,9.3592-1.82,17-3a40.0938,40.0938,0,0,1,14,0c2.6324.4959,6.4574,2.004,14,5,5.2439,2.0829,7.8885,3.1418,9,4,4.3692,3.3731,8.5069,9.9366,7,16-.5426,2.1833-1.9915,5.0036-8,9-4.4847,2.9829-12.3631,7.1886-26,9a96.157,96.157,0,0,1-37-3,44.9209,44.9209,0,0,1-16-8c-5.4438-4.3388-6.5946-7.5328-7-9A13.59,13.59,0,0,1,210.1047,245.0008Z" transform="translate(-208.5793 -231.3762)"/><path class="cls-3" d="M246.1047,264.0008c-.1682-1.1766,2.0051-2.7181,4-3a6.3033,6.3033,0,0,1,4,1c1.067.5683,3.2856,2.0165,3,3-.2267.7807-1.9291.9153-3,1C251.0206,266.2446,246.3378,265.6308,246.1047,264.0008Z" transform="translate(-208.5793 -231.3762)"/><path class="cls-3" d="M274.1047,261.0008c.1-.8484,3.9167-1.0531,6-1,.6249.0159,4.8973.1248,5,1,.0892.76-2.9579,2.1464-6,2C276.6033,262.88,274.02,261.7194,274.1047,261.0008Z" transform="translate(-208.5793 -231.3762)"/><path class="cls-4" d="M228.1047,261.0008c-.2106,1.0757,2.2494,2.4552,4,3,.2017.0627,3.3907,1.03,4,0,.53-.8967-.951-3.21-3-4C231.0184,259.1966,228.3087,259.959,228.1047,261.0008Z" transform="translate(-208.5793 -231.3762)"/><path class="cls-4" d="M258.1047,250.0008c-.0726,1.6568,4.5738,2.89,5,3,1.9476.5025,4.7294.7568,5,0,.14-.3914-.9048-1.2663-3-3-2.1444-1.7746-2.5776-1.9312-3-2C260.3221,247.71,258.1534,248.8888,258.1047,250.0008Z" transform="translate(-208.5793 -231.3762)"/><path class="cls-4" d="M246.1047,241.0008c.276.7887,1.6465.9566,2,1,.82.1,2.5638.0455,3-1,.4477-1.0729-.6522-2.78-2-3C247.3884,237.7205,245.729,239.927,246.1047,241.0008Z" transform="translate(-208.5793 -231.3762)"/><path class="cls-4" d="M255.1047,240.0008a1.8359,1.8359,0,0,0,2,0c.4874-.2727.4708-.5418,1-1,1-.8658,1.9627-.6874,2-1,.0611-.5121-2.3988-2.0219-4-1C255.0325,237.685,254.5314,239.3855,255.1047,240.0008Z" transform="translate(-208.5793 -231.3762)"/><path class="cls-5" d="M265.1047,244.0008c.208.0593,3.4891.973,4,0,.2878-.5481-.4038-1.5033-1-2-1.708-1.4232-4.7775-.8707-5,0C263.0185,242.3381,263.3086,242.9232,265.1047,244.0008Z" transform="translate(-208.5793 -231.3762)"/><path class="cls-5" d="M224.1047,250.0008c.5994.7379,2.776.2491,4-1,.8426-.86,1.5145-2.3667,1-3-.5994-.738-2.776-.2492-4,1C224.2621,247.8607,223.59,249.3674,224.1047,250.0008Z" transform="translate(-208.5793 -231.3762)"/><path class="cls-5" d="M282.1047,246.0008c-.1033.8,1.7,1.687,3,2,.6124.1474,1.7423.4195,2,0,.3867-.63-1.1107-2.9463-3-3C283.2406,244.9762,282.18,245.4218,282.1047,246.0008Z" transform="translate(-208.5793 -231.3762)"/><path class="cls-5" d="M295.1047,254.0008c-.2987-1.5749-6.3619-2.3528-7-1-.3183.6749.7677,1.7665,1,2a3.86,3.86,0,0,0,4,1C293.9939,255.6679,295.2514,254.7743,295.1047,254.0008Z" transform="translate(-208.5793 -231.3762)"/><path class="cls-5" d="M220.1047,254.0008a1.6289,1.6289,0,0,0,1,2c1.0846.2813,2.2691-1.3325,2-2C222.8118,253.2739,220.5647,253.0968,220.1047,254.0008Z" transform="translate(-208.5793 -231.3762)"/></g></svg>