<svg xmlns="http://www.w3.org/2000/svg" viewBox="0 0 426.4207 180.6238"><defs><style>.cls-1{fill:#5e0c06;}.cls-2{fill:#c52610;}.cls-3{fill:#dc8b56;}.cls-4{fill:#e2a590;}.cls-5{fill:#d28d63;}</style></defs><title>pepperoni</title><g id="pepperoni"><g id="multiple"><path class="cls-1" d="M40.8567,239.4272c2.8432-5.1168,9.2717-5.8408,10.0489-5.9164,4.04-.3929,5.4024,1.4126,8.374,0,1.7291-.8219,2.6089-2.0706,5.0244-2.5356a9.3482,9.3482,0,0,1,3.35,0c4.6363.674,7.8374-1.5381,14.2358-2.5355a33.27,33.27,0,0,1,11.7237,0c2.2044.4191,5.4075,1.6937,11.7237,4.2259,4.3912,1.76,6.6059,2.6555,7.5366,3.3808,3.6588,2.851,7.1237,8.3984,5.8619,13.5231a15.1129,15.1129,0,0,1-6.6993,9.2972c-3.7555,2.5211-10.3529,6.0757-21.7725,7.6067a79.8022,79.8022,0,0,1-30.984-2.5356,37.4727,37.4727,0,0,1-13.3985-6.7615,16.6806,16.6806,0,0,1-5.8618-9.2972A11.5833,11.5833,0,0,1,40.8567,239.4272Z" transform="translate(-39.5793 -157.3762)"/><path class="cls-2" d="M40.8567,236.8916c2.8432-5.1168,9.2717-5.8408,10.0489-5.9164,4.04-.3929,5.4024,1.4126,8.374,0,1.7291-.8219,2.6089-2.0706,5.0244-2.5355a9.3434,9.3434,0,0,1,3.35,0c4.6363.674,7.8374-1.5382,14.2358-2.5356a33.27,33.27,0,0,1,11.7237,0c2.2044.4191,5.4075,1.6938,11.7237,4.226,4.3912,1.76,6.6059,2.6554,7.5366,3.3807,3.6588,2.851,7.1237,8.3984,5.8619,13.5231-.4544,1.8454-1.6677,4.2291-6.6993,7.6068-3.7555,2.5211-10.3529,6.0758-21.7725,7.6067a79.8,79.8,0,0,1-30.984-2.5356A37.4727,37.4727,0,0,1,45.8811,252.95c-4.5587-3.6671-5.5223-6.3667-5.8618-7.6068A11.5833,11.5833,0,0,1,40.8567,236.8916Z" transform="translate(-39.5793 -157.3762)"/><path class="cls-3" d="M71.0033,252.95c-.1409-.9944,1.679-2.2973,3.35-2.5356a5.2413,5.2413,0,0,1,3.35.8452c.8935.48,2.7514,1.7044,2.5122,2.5356-.19.66-1.6154.7736-2.5122.8452C75.12,254.8468,71.1985,254.328,71.0033,252.95Z" transform="translate(-39.5793 -157.3762)"/><path class="cls-3" d="M94.4506,250.4147c.0841-.717,3.28-.89,5.0245-.8452.5232.0135,4.1009.1055,4.187.8452.0747.6421-2.477,1.8141-5.0244,1.69C96.543,252.0033,94.38,251.0221,94.4506,250.4147Z" transform="translate(-39.5793 -157.3762)"/><path class="cls-4" d="M55.93,250.4147c-.1764.9093,1.8836,2.0752,3.35,2.5356.1689.053,2.8394.8707,3.35,0,.4441-.7579-.7964-2.7133-2.5122-3.3808C58.37,248.89,56.1008,249.5342,55.93,250.4147Z" transform="translate(-39.5793 -157.3762)"/><path class="cls-4" d="M81.0521,241.1176c-.0607,1.4,3.83,2.4426,4.1871,2.5356,1.6309.4247,3.96.64,4.187,0,.1172-.3308-.7577-1.07-2.5122-2.5356-1.7958-1.5-2.1585-1.6322-2.5122-1.69C82.909,239.1816,81.0929,240.1777,81.0521,241.1176Z" transform="translate(-39.5793 -157.3762)"/><path class="cls-4" d="M71.0033,233.5108c.2311.6666,1.3787.8086,1.6748.8452.6864.0849,2.1469.0385,2.5122-.8452a2.169,2.169,0,0,0-1.6748-2.5356C72.0782,230.7384,70.6887,232.6033,71.0033,233.5108Z" transform="translate(-39.5793 -157.3762)"/><path class="cls-4" d="M78.54,232.6656a1.5252,1.5252,0,0,0,1.6748,0c.4082-.23.3943-.4579.8374-.8452.8374-.7317,1.6436-.5809,1.6749-.8452.0511-.4328-2.0088-1.7088-3.35-.8451C78.48,230.7084,78.06,232.1456,78.54,232.6656Z" transform="translate(-39.5793 -157.3762)"/><path class="cls-5" d="M86.914,236.0464c.1741.05,2.9218.8224,3.35,0,.241-.4632-.3382-1.27-.8374-1.69-1.43-1.2028-4.0007-.7359-4.187,0C85.167,234.6412,85.41,235.1356,86.914,236.0464Z" transform="translate(-39.5793 -157.3762)"/><path class="cls-5" d="M52.58,241.1176c.5019.6237,2.3246.2106,3.35-.8452.7056-.7268,1.2682-2,.8374-2.5356-.502-.6237-2.3247-.2106-3.35.8452C52.7122,239.3088,52.15,240.5823,52.58,241.1176Z" transform="translate(-39.5793 -157.3762)"/><path class="cls-5" d="M101.15,237.7368c-.0866.6765,1.4239,1.4259,2.5122,1.69.5128.1246,1.459.3546,1.6748,0,.3238-.5321-.93-2.49-2.5122-2.5356C102.101,236.8708,101.2125,237.2474,101.15,237.7368Z" transform="translate(-39.5793 -157.3762)"/><path class="cls-5" d="M112.0361,244.4984c-.25-1.3311-5.3275-1.9886-5.8618-.8452-.2666.57.6429,1.493.8374,1.69a3.2116,3.2116,0,0,0,3.35.8452C111.1059,245.9074,112.159,245.1521,112.0361,244.4984Z" transform="translate(-39.5793 -157.3762)"/><path class="cls-5" d="M49.2307,244.4984a1.38,1.38,0,0,0,.8374,1.69c.9083.2379,1.9-1.1261,1.6749-1.69C51.4976,243.884,49.6159,243.7343,49.2307,244.4984Z" transform="translate(-39.5793 -157.3762)"/><path class="cls-1" d="M115.8567,293.4272c2.8432-5.1168,9.2717-5.8408,10.0489-5.9164,4.04-.3929,5.4024,1.4126,8.374,0,1.7291-.8219,2.6089-2.0706,5.0244-2.5356a9.3482,9.3482,0,0,1,3.35,0c4.6363.674,7.8374-1.5381,14.2358-2.5355a33.27,33.27,0,0,1,11.7237,0c2.2044.4191,5.4075,1.6937,11.7237,4.2259,4.3912,1.7605,6.6059,2.6555,7.5366,3.3808,3.6588,2.851,7.1237,8.3984,5.8619,13.5231a15.1129,15.1129,0,0,1-6.6993,9.2972c-3.7555,2.5211-10.3529,6.0757-21.7725,7.6067a79.8022,79.8022,0,0,1-30.984-2.5356,37.4727,37.4727,0,0,1-13.3985-6.7615,16.6806,16.6806,0,0,1-5.8618-9.2972A11.5833,11.5833,0,0,1,115.8567,293.4272Z" transform="translate(-39.5793 -157.3762)"/><path class="cls-2" d="M115.8567,290.8916c2.8432-5.1168,9.2717-5.8408,10.0489-5.9164,4.04-.3929,5.4024,1.4126,8.374,0,1.7291-.8219,2.6089-2.0706,5.0244-2.5355a9.3434,9.3434,0,0,1,3.35,0c4.6363.674,7.8374-1.5382,14.2358-2.5356a33.27,33.27,0,0,1,11.7237,0c2.2044.4191,5.4075,1.6938,11.7237,4.226,4.3912,1.76,6.6059,2.6554,7.5366,3.3807,3.6588,2.851,7.1237,8.3984,5.8619,13.5231-.4544,1.8454-1.6677,4.2291-6.6993,7.6068-3.7555,2.5211-10.3529,6.0758-21.7725,7.6067a79.8,79.8,0,0,1-30.984-2.5356,37.4727,37.4727,0,0,1-13.3985-6.7615c-4.5587-3.6671-5.5223-6.3667-5.8618-7.6068A11.5833,11.5833,0,0,1,115.8567,290.8916Z" transform="translate(-39.5793 -157.3762)"/><path class="cls-3" d="M146.0033,306.95c-.1409-.9944,1.679-2.2973,3.35-2.5356a5.2413,5.2413,0,0,1,3.35.8452c.8935.48,2.7514,1.7044,2.5122,2.5356-.19.66-1.6154.7736-2.5122.8452C150.12,308.8468,146.1985,308.328,146.0033,306.95Z" transform="translate(-39.5793 -157.3762)"/><path class="cls-3" d="M169.4506,304.4147c.0841-.717,3.28-.89,5.0245-.8452.5232.0135,4.1009.1055,4.187.8452.0747.6421-2.477,1.8141-5.0244,1.69C171.543,306.0033,169.38,305.0221,169.4506,304.4147Z" transform="translate(-39.5793 -157.3762)"/><path class="cls-4" d="M130.93,304.4147c-.1764.9093,1.8836,2.0752,3.35,2.5356.1689.053,2.8394.8707,3.35,0,.4441-.7579-.7964-2.7133-2.5122-3.3808C133.37,302.89,131.1008,303.5342,130.93,304.4147Z" transform="translate(-39.5793 -157.3762)"/><path class="cls-4" d="M156.0521,295.1176c-.0607,1.4,3.83,2.4426,4.1871,2.5356,1.6309.4247,3.96.64,4.187,0,.1172-.3308-.7577-1.07-2.5122-2.5356-1.7958-1.5-2.1585-1.6322-2.5122-1.69C157.909,293.1816,156.0929,294.1777,156.0521,295.1176Z" transform="translate(-39.5793 -157.3762)"/><path class="cls-4" d="M146.0033,287.5108c.2311.6666,1.3787.8086,1.6748.8452.6864.0849,2.1469.0385,2.5122-.8452a2.169,2.169,0,0,0-1.6748-2.5356C147.0782,284.7384,145.6887,286.6033,146.0033,287.5108Z" transform="translate(-39.5793 -157.3762)"/><path class="cls-4" d="M153.54,286.6656a1.5252,1.5252,0,0,0,1.6748,0c.4082-.23.3943-.4579.8374-.8452.8374-.7317,1.6436-.5809,1.6749-.8452.0511-.4328-2.0088-1.7088-3.35-.8451C153.48,284.7084,153.06,286.1456,153.54,286.6656Z" transform="translate(-39.5793 -157.3762)"/><path class="cls-5" d="M161.914,290.0464c.1741.05,2.9218.8224,3.35,0,.241-.4632-.3382-1.2705-.8374-1.69-1.43-1.2028-4.0007-.7359-4.187,0C160.167,288.6412,160.41,289.1356,161.914,290.0464Z" transform="translate(-39.5793 -157.3762)"/><path class="cls-5" d="M127.58,295.1176c.5019.6237,2.3246.2106,3.35-.8452.7056-.7268,1.2682-2,.8374-2.5356-.502-.6237-2.3247-.2106-3.35.8452C127.7122,293.3088,127.15,294.5823,127.58,295.1176Z" transform="translate(-39.5793 -157.3762)"/><path class="cls-5" d="M176.15,291.7368c-.0866.6765,1.4239,1.4259,2.5122,1.69.5128.1246,1.459.3546,1.6748,0,.3238-.5321-.93-2.49-2.5122-2.5356C177.101,290.8708,176.2125,291.2474,176.15,291.7368Z" transform="translate(-39.5793 -157.3762)"/><path class="cls-5" d="M187.0361,298.4984c-.25-1.3311-5.3275-1.9886-5.8618-.8452-.2666.57.6429,1.493.8374,1.69a3.2116,3.2116,0,0,0,3.35.8452C186.1059,299.9074,187.159,299.1521,187.0361,298.4984Z" transform="translate(-39.5793 -157.3762)"/><path class="cls-5" d="M124.2307,298.4984a1.38,1.38,0,0,0,.8374,1.69c.9083.2379,1.9-1.1261,1.6749-1.69C126.4976,297.884,124.6159,297.7343,124.2307,298.4984Z" transform="translate(-39.5793 -157.3762)"/><path class="cls-1" d="M158.8567,231.4272c2.8432-5.1168,9.2717-5.8408,10.0489-5.9164,4.04-.3929,5.4024,1.4126,8.374,0,1.7291-.8219,2.6089-2.0706,5.0244-2.5356a9.3482,9.3482,0,0,1,3.35,0c4.6363.674,7.8374-1.5381,14.2358-2.5355a33.27,33.27,0,0,1,11.7237,0c2.2044.4191,5.4075,1.6937,11.7237,4.2259,4.3912,1.76,6.6059,2.6555,7.5366,3.3808,3.6588,2.851,7.1237,8.3984,5.8619,13.5231a15.1129,15.1129,0,0,1-6.6993,9.2972c-3.7555,2.5211-10.3529,6.0757-21.7725,7.6067a79.8022,79.8022,0,0,1-30.984-2.5356,37.4727,37.4727,0,0,1-13.3985-6.7615,16.6806,16.6806,0,0,1-5.8618-9.2972A11.5833,11.5833,0,0,1,158.8567,231.4272Z" transform="translate(-39.5793 -157.3762)"/><path class="cls-2" d="M158.8567,228.8916c2.8432-5.1168,9.2717-5.8408,10.0489-5.9164,4.04-.3929,5.4024,1.4126,8.374,0,1.7291-.8219,2.6089-2.0706,5.0244-2.5355a9.3434,9.3434,0,0,1,3.35,0c4.6363.674,7.8374-1.5382,14.2358-2.5356a33.27,33.27,0,0,1,11.7237,0c2.2044.4191,5.4075,1.6938,11.7237,4.226,4.3912,1.76,6.6059,2.6554,7.5366,3.3807,3.6588,2.851,7.1237,8.3984,5.8619,13.5231-.4544,1.8454-1.6677,4.2291-6.6993,7.6068-3.7555,2.5211-10.3529,6.0758-21.7725,7.6067a79.8,79.8,0,0,1-30.984-2.5356,37.4727,37.4727,0,0,1-13.3985-6.7615c-4.5587-3.6671-5.5223-6.3667-5.8618-7.6068A11.5833,11.5833,0,0,1,158.8567,228.8916Z" transform="translate(-39.5793 -157.3762)"/><path class="cls-3" d="M189.0033,244.95c-.1409-.9944,1.679-2.2973,3.35-2.5356a5.2413,5.2413,0,0,1,3.35.8452c.8935.48,2.7514,1.7044,2.5122,2.5356-.19.66-1.6154.7736-2.5122.8452C193.12,246.8468,189.1985,246.328,189.0033,244.95Z" transform="translate(-39.5793 -157.3762)"/><path class="cls-3" d="M212.4506,242.4147c.0841-.717,3.28-.89,5.0245-.8452.5232.0135,4.1009.1055,4.187.8452.0747.6421-2.477,1.8141-5.0244,1.69C214.543,244.0033,212.38,243.0221,212.4506,242.4147Z" transform="translate(-39.5793 -157.3762)"/><path class="cls-4" d="M173.93,242.4147c-.1764.9093,1.8836,2.0752,3.35,2.5356.1689.053,2.8394.8707,3.35,0,.4441-.7579-.7964-2.7133-2.5122-3.3808C176.37,240.89,174.1008,241.5342,173.93,242.4147Z" transform="translate(-39.5793 -157.3762)"/><path class="cls-4" d="M199.0521,233.1176c-.0607,1.4,3.83,2.4426,4.1871,2.5356,1.6309.4247,3.96.64,4.187,0,.1172-.3308-.7577-1.07-2.5122-2.5356-1.7958-1.5-2.1585-1.6322-2.5122-1.69C200.909,231.1816,199.0929,232.1777,199.0521,233.1176Z" transform="translate(-39.5793 -157.3762)"/><path class="cls-4" d="M189.0033,225.5108c.2311.6666,1.3787.8086,1.6748.8452.6864.0849,2.1469.0385,2.5122-.8452a2.169,2.169,0,0,0-1.6748-2.5356C190.0782,222.7384,188.6887,224.6033,189.0033,225.5108Z" transform="translate(-39.5793 -157.3762)"/><path class="cls-4" d="M196.54,224.6656a1.5252,1.5252,0,0,0,1.6748,0c.4082-.23.3943-.4579.8374-.8452.8374-.7317,1.6436-.5809,1.6749-.8452.0511-.4328-2.0088-1.7088-3.35-.8451C196.48,222.7084,196.06,224.1456,196.54,224.6656Z" transform="translate(-39.5793 -157.3762)"/><path class="cls-5" d="M204.914,228.0464c.1741.05,2.9218.8224,3.35,0,.241-.4632-.3382-1.27-.8374-1.69-1.43-1.2028-4.0007-.7359-4.187,0C203.167,226.6412,203.41,227.1356,204.914,228.0464Z" transform="translate(-39.5793 -157.3762)"/><path class="cls-5" d="M170.58,233.1176c.5019.6237,2.3246.2106,3.35-.8452.7056-.7268,1.2682-2,.8374-2.5356-.502-.6237-2.3247-.2106-3.35.8452C170.7122,231.3088,170.15,232.5823,170.58,233.1176Z" transform="translate(-39.5793 -157.3762)"/><path class="cls-5" d="M219.15,229.7368c-.0866.6765,1.4239,1.4259,2.5122,1.69.5128.1246,1.459.3546,1.6748,0,.3238-.5321-.93-2.49-2.5122-2.5356C220.101,228.8708,219.2125,229.2474,219.15,229.7368Z" transform="translate(-39.5793 -157.3762)"/><path class="cls-5" d="M230.0361,236.4984c-.25-1.3311-5.3275-1.9886-5.8618-.8452-.2666.57.6429,1.493.8374,1.69a3.2116,3.2116,0,0,0,3.35.8452C229.1059,237.9074,230.159,237.1521,230.0361,236.4984Z" transform="translate(-39.5793 -157.3762)"/><path class="cls-5" d="M167.2307,236.4984a1.38,1.38,0,0,0,.8374,1.69c.9083.2379,1.9-1.1261,1.6749-1.69C169.4976,235.884,167.6159,235.7343,167.2307,236.4984Z" transform="translate(-39.5793 -157.3762)"/><path class="cls-1" d="M235.8567,310.4272c2.8432-5.1168,9.2717-5.8408,10.0489-5.9164,4.04-.3929,5.4024,1.4126,8.374,0,1.7291-.8219,2.6089-2.0706,5.0244-2.5356a9.3482,9.3482,0,0,1,3.35,0c4.6363.674,7.8374-1.5381,14.2358-2.5355a33.27,33.27,0,0,1,11.7237,0c2.2044.4191,5.4075,1.6937,11.7237,4.2259,4.3912,1.7605,6.6059,2.6555,7.5366,3.3808,3.6588,2.851,7.1237,8.3984,5.8619,13.5231a15.1129,15.1129,0,0,1-6.6993,9.2972c-3.7555,2.5211-10.3529,6.0757-21.7725,7.6067a79.8022,79.8022,0,0,1-30.984-2.5356,37.4727,37.4727,0,0,1-13.3985-6.7615,16.6806,16.6806,0,0,1-5.8618-9.2972A11.5833,11.5833,0,0,1,235.8567,310.4272Z" transform="translate(-39.5793 -157.3762)"/><path class="cls-2" d="M235.8567,307.8916c2.8432-5.1168,9.2717-5.8408,10.0489-5.9164,4.04-.3929,5.4024,1.4126,8.374,0,1.7291-.8219,2.6089-2.0706,5.0244-2.5355a9.3434,9.3434,0,0,1,3.35,0c4.6363.674,7.8374-1.5382,14.2358-2.5356a33.27,33.27,0,0,1,11.7237,0c2.2044.4191,5.4075,1.6938,11.7237,4.226,4.3912,1.76,6.6059,2.6554,7.5366,3.3807,3.6588,2.851,7.1237,8.3984,5.8619,13.5231-.4544,1.8454-1.6677,4.2291-6.6993,7.6068-3.7555,2.5211-10.3529,6.0758-21.7725,7.6067a79.8,79.8,0,0,1-30.984-2.5356,37.4727,37.4727,0,0,1-13.3985-6.7615c-4.5587-3.6671-5.5223-6.3667-5.8618-7.6068A11.5833,11.5833,0,0,1,235.8567,307.8916Z" transform="translate(-39.5793 -157.3762)"/><path class="cls-3" d="M266.0033,323.95c-.1409-.9944,1.679-2.2973,3.35-2.5356a5.2413,5.2413,0,0,1,3.35.8452c.8935.48,2.7514,1.7044,2.5122,2.5356-.19.66-1.6154.7736-2.5122.8452C270.12,325.8468,266.1985,325.328,266.0033,323.95Z" transform="translate(-39.5793 -157.3762)"/><path class="cls-3" d="M289.4506,321.4147c.0841-.717,3.28-.89,5.0245-.8452.5232.0135,4.1009.1055,4.187.8452.0747.6421-2.477,1.8141-5.0244,1.69C291.543,323.0033,289.38,322.0221,289.4506,321.4147Z" transform="translate(-39.5793 -157.3762)"/><path class="cls-4" d="M250.93,321.4147c-.1764.9093,1.8836,2.0752,3.35,2.5356.1689.053,2.8394.8707,3.35,0,.4441-.7579-.7964-2.7133-2.5122-3.3808C253.37,319.89,251.1008,320.5342,250.93,321.4147Z" transform="translate(-39.5793 -157.3762)"/><path class="cls-4" d="M276.0521,312.1176c-.0607,1.4,3.83,2.4426,4.1871,2.5356,1.6309.4247,3.96.64,4.187,0,.1172-.3308-.7577-1.07-2.5122-2.5356-1.7958-1.5-2.1585-1.6322-2.5122-1.69C277.909,310.1816,276.0929,311.1777,276.0521,312.1176Z" transform="translate(-39.5793 -157.3762)"/><path class="cls-4" d="M266.0033,304.5108c.2311.6666,1.3787.8086,1.6748.8452.6864.0849,2.1469.0385,2.5122-.8452a2.169,2.169,0,0,0-1.6748-2.5356C267.0782,301.7384,265.6887,303.6033,266.0033,304.5108Z" transform="translate(-39.5793 -157.3762)"/><path class="cls-4" d="M273.54,303.6656a1.5252,1.5252,0,0,0,1.6748,0c.4082-.23.3943-.4579.8374-.8452.8374-.7317,1.6436-.5809,1.6749-.8452.0511-.4328-2.0088-1.7088-3.35-.8451C273.48,301.7084,273.06,303.1456,273.54,303.6656Z" transform="translate(-39.5793 -157.3762)"/><path class="cls-5" d="M281.914,307.0464c.1741.05,2.9218.8224,3.35,0,.241-.4632-.3382-1.2705-.8374-1.69-1.43-1.2028-4.0007-.7359-4.187,0C280.167,305.6412,280.41,306.1356,281.914,307.0464Z" transform="translate(-39.5793 -157.3762)"/><path class="cls-5" d="M247.58,312.1176c.5019.6237,2.3246.2106,3.35-.8452.7056-.7268,1.2682-2,.8374-2.5356-.502-.6237-2.3247-.2106-3.35.8452C247.7122,310.3088,247.15,311.5823,247.58,312.1176Z" transform="translate(-39.5793 -157.3762)"/><path class="cls-5" d="M296.15,308.7368c-.0866.6765,1.4239,1.4259,2.5122,1.69.5128.1246,1.459.3546,1.6748,0,.3238-.5321-.93-2.49-2.5122-2.5356C297.101,307.8708,296.2125,308.2474,296.15,308.7368Z" transform="translate(-39.5793 -157.3762)"/><path class="cls-5" d="M307.0361,315.4984c-.25-1.3311-5.3275-1.9886-5.8618-.8452-.2666.57.6429,1.493.8374,1.69a3.2116,3.2116,0,0,0,3.35.8452C306.1059,316.9074,307.159,316.1521,307.0361,315.4984Z" transform="translate(-39.5793 -157.3762)"/><path class="cls-5" d="M244.2307,315.4984a1.38,1.38,0,0,0,.8374,1.69c.9083.2379,1.9-1.1261,1.6749-1.69C246.4976,314.884,244.6159,314.7343,244.2307,315.4984Z" transform="translate(-39.5793 -157.3762)"/><path class="cls-1" d="M268.8567,252.4272c2.8432-5.1168,9.2717-5.8408,10.0489-5.9164,4.04-.3929,5.4024,1.4126,8.374,0,1.7291-.8219,2.6089-2.0706,5.0244-2.5356a9.3482,9.3482,0,0,1,3.35,0c4.6363.674,7.8374-1.5381,14.2358-2.5355a33.27,33.27,0,0,1,11.7237,0c2.2044.4191,5.4075,1.6937,11.7237,4.2259,4.3912,1.76,6.6059,2.6555,7.5366,3.3808,3.6588,2.851,7.1237,8.3984,5.8619,13.5231a15.1129,15.1129,0,0,1-6.6993,9.2972c-3.7555,2.5211-10.3529,6.0757-21.7725,7.6067a79.8022,79.8022,0,0,1-30.984-2.5356,37.4727,37.4727,0,0,1-13.3985-6.7615,16.6806,16.6806,0,0,1-5.8618-9.2972A11.5833,11.5833,0,0,1,268.8567,252.4272Z" transform="translate(-39.5793 -157.3762)"/><path class="cls-2" d="M268.8567,249.8916c2.8432-5.1168,9.2717-5.8408,10.0489-5.9164,4.04-.3929,5.4024,1.4126,8.374,0,1.7291-.8219,2.6089-2.0706,5.0244-2.5355a9.3434,9.3434,0,0,1,3.35,0c4.6363.674,7.8374-1.5382,14.2358-2.5356a33.27,33.27,0,0,1,11.7237,0c2.2044.4191,5.4075,1.6938,11.7237,4.226,4.3912,1.76,6.6059,2.6554,7.5366,3.3807,3.6588,2.851,7.1237,8.3984,5.8619,13.5231-.4544,1.8454-1.6677,4.2291-6.6993,7.6068-3.7555,2.5211-10.3529,6.0758-21.7725,7.6067a79.8,79.8,0,0,1-30.984-2.5356,37.4727,37.4727,0,0,1-13.3985-6.7615c-4.5587-3.6671-5.5223-6.3667-5.8618-7.6068A11.5833,11.5833,0,0,1,268.8567,249.8916Z" transform="translate(-39.5793 -157.3762)"/><path class="cls-3" d="M299.0033,265.95c-.1409-.9944,1.679-2.2973,3.35-2.5356a5.2413,5.2413,0,0,1,3.35.8452c.8935.48,2.7514,1.7044,2.5122,2.5356-.19.66-1.6154.7736-2.5122.8452C303.12,267.8468,299.1985,267.328,299.0033,265.95Z" transform="translate(-39.5793 -157.3762)"/><path class="cls-3" d="M322.4506,263.4147c.0841-.717,3.28-.89,5.0245-.8452.5232.0135,4.1009.1055,4.187.8452.0747.6421-2.477,1.8141-5.0244,1.69C324.543,265.0033,322.38,264.0221,322.4506,263.4147Z" transform="translate(-39.5793 -157.3762)"/><path class="cls-4" d="M283.93,263.4147c-.1764.9093,1.8836,2.0752,3.35,2.5356.1689.053,2.8394.8707,3.35,0,.4441-.7579-.7964-2.7133-2.5122-3.3808C286.37,261.89,284.1008,262.5342,283.93,263.4147Z" transform="translate(-39.5793 -157.3762)"/><path class="cls-4" d="M309.0521,254.1176c-.0607,1.4,3.83,2.4426,4.1871,2.5356,1.6309.4247,3.96.64,4.187,0,.1172-.3308-.7577-1.07-2.5122-2.5356-1.7958-1.5-2.1585-1.6322-2.5122-1.69C310.909,252.1816,309.0929,253.1777,309.0521,254.1176Z" transform="translate(-39.5793 -157.3762)"/><path class="cls-4" d="M299.0033,246.5108c.2311.6666,1.3787.8086,1.6748.8452.6864.0849,2.1469.0385,2.5122-.8452a2.169,2.169,0,0,0-1.6748-2.5356C300.0782,243.7384,298.6887,245.6033,299.0033,246.5108Z" transform="translate(-39.5793 -157.3762)"/><path class="cls-4" d="M306.54,245.6656a1.5252,1.5252,0,0,0,1.6748,0c.4082-.23.3943-.4579.8374-.8452.8374-.7317,1.6436-.5809,1.6749-.8452.0511-.4328-2.0088-1.7088-3.35-.8451C306.48,243.7084,306.06,245.1456,306.54,245.6656Z" transform="translate(-39.5793 -157.3762)"/><path class="cls-5" d="M314.914,249.0464c.1741.05,2.9218.8224,3.35,0,.241-.4632-.3382-1.27-.8374-1.69-1.43-1.2028-4.0007-.7359-4.187,0C313.167,247.6412,313.41,248.1356,314.914,249.0464Z" transform="translate(-39.5793 -157.3762)"/><path class="cls-5" d="M280.58,254.1176c.5019.6237,2.3246.2106,3.35-.8452.7056-.7268,1.2682-2,.8374-2.5356-.502-.6237-2.3247-.2106-3.35.8452C280.7122,252.3088,280.15,253.5823,280.58,254.1176Z" transform="translate(-39.5793 -157.3762)"/><path class="cls-5" d="M329.15,250.7368c-.0866.6765,1.4239,1.4259,2.5122,1.69.5128.1246,1.459.3546,1.6748,0,.3238-.5321-.93-2.49-2.5122-2.5356C330.101,249.8708,329.2125,250.2474,329.15,250.7368Z" transform="translate(-39.5793 -157.3762)"/><path class="cls-5" d="M340.0361,257.4984c-.25-1.3311-5.3275-1.9886-5.8618-.8452-.2666.57.6429,1.493.8374,1.69a3.2116,3.2116,0,0,0,3.35.8452C339.1059,258.9074,340.159,258.1521,340.0361,257.4984Z" transform="translate(-39.5793 -157.3762)"/><path class="cls-5" d="M277.2307,257.4984a1.38,1.38,0,0,0,.8374,1.69c.9083.2379,1.9-1.1261,1.6749-1.69C279.4976,256.884,277.6159,256.7343,277.2307,257.4984Z" transform="translate(-39.5793 -157.3762)"/><path class="cls-1" d="M205.8567,171.4272c2.8432-5.1168,9.2717-5.8408,10.0489-5.9164,4.04-.3929,5.4024,1.4126,8.374,0,1.7291-.8219,2.6089-2.0706,5.0244-2.5356a9.3482,9.3482,0,0,1,3.35,0c4.6363.674,7.8374-1.5381,14.2358-2.5355a33.27,33.27,0,0,1,11.7237,0c2.2044.4191,5.4075,1.6937,11.7237,4.2259,4.3912,1.76,6.6059,2.6555,7.5366,3.3808,3.6588,2.851,7.1237,8.3984,5.8619,13.5231a15.1129,15.1129,0,0,1-6.6993,9.2972c-3.7555,2.5211-10.3529,6.0757-21.7725,7.6067a79.8022,79.8022,0,0,1-30.984-2.5356,37.4727,37.4727,0,0,1-13.3985-6.7615,16.6806,16.6806,0,0,1-5.8618-9.2972A11.5833,11.5833,0,0,1,205.8567,171.4272Z" transform="translate(-39.5793 -157.3762)"/><path class="cls-2" d="M205.8567,168.8916c2.8432-5.1168,9.2717-5.8408,10.0489-5.9164,4.04-.3929,5.4024,1.4126,8.374,0,1.7291-.8219,2.6089-2.0706,5.0244-2.5355a9.3434,9.3434,0,0,1,3.35,0c4.6363.674,7.8374-1.5382,14.2358-2.5356a33.27,33.27,0,0,1,11.7237,0c2.2044.4191,5.4075,1.6938,11.7237,4.226,4.3912,1.76,6.6059,2.6554,7.5366,3.3807,3.6588,2.851,7.1237,8.3984,5.8619,13.5231-.4544,1.8454-1.6677,4.2291-6.6993,7.6068-3.7555,2.5211-10.3529,6.0758-21.7725,7.6067a79.8,79.8,0,0,1-30.984-2.5356,37.4727,37.4727,0,0,1-13.3985-6.7615c-4.5587-3.6671-5.5223-6.3667-5.8618-7.6068A11.5833,11.5833,0,0,1,205.8567,168.8916Z" transform="translate(-39.5793 -157.3762)"/><path class="cls-3" d="M236.0033,184.95c-.1409-.9944,1.679-2.2973,3.35-2.5356a5.2413,5.2413,0,0,1,3.35.8452c.8935.48,2.7514,1.7044,2.5122,2.5356-.19.66-1.6154.7736-2.5122.8452C240.12,186.8468,236.1985,186.328,236.0033,184.95Z" transform="translate(-39.5793 -157.3762)"/><path class="cls-3" d="M259.4506,182.4147c.0841-.717,3.28-.89,5.0245-.8452.5232.0135,4.1009.1055,4.187.8452.0747.6421-2.477,1.8141-5.0244,1.69C261.543,184.0033,259.38,183.0221,259.4506,182.4147Z" transform="translate(-39.5793 -157.3762)"/><path class="cls-4" d="M220.93,182.4147c-.1764.9093,1.8836,2.0752,3.35,2.5356.1689.053,2.8394.8707,3.35,0,.4441-.7579-.7964-2.7133-2.5122-3.3808C223.37,180.89,221.1008,181.5342,220.93,182.4147Z" transform="translate(-39.5793 -157.3762)"/><path class="cls-4" d="M246.0521,173.1176c-.0607,1.4,3.83,2.4426,4.1871,2.5356,1.6309.4247,3.96.64,4.187,0,.1172-.3308-.7577-1.07-2.5122-2.5356-1.7958-1.5-2.1585-1.6322-2.5122-1.69C247.909,171.1816,246.0929,172.1777,246.0521,173.1176Z" transform="translate(-39.5793 -157.3762)"/><path class="cls-4" d="M236.0033,165.5108c.2311.6666,1.3787.8086,1.6748.8452.6864.0849,2.1469.0385,2.5122-.8452a2.169,2.169,0,0,0-1.6748-2.5356C237.0782,162.7384,235.6887,164.6033,236.0033,165.5108Z" transform="translate(-39.5793 -157.3762)"/><path class="cls-4" d="M243.54,164.6656a1.5252,1.5252,0,0,0,1.6748,0c.4082-.23.3943-.4579.8374-.8452.8374-.7317,1.6436-.5809,1.6749-.8452.0511-.4328-2.0088-1.7088-3.35-.8451C243.48,162.7084,243.06,164.1456,243.54,164.6656Z" transform="translate(-39.5793 -157.3762)"/><path class="cls-5" d="M251.914,168.0464c.1741.05,2.9218.8224,3.35,0,.241-.4632-.3382-1.27-.8374-1.69-1.43-1.2028-4.0007-.7359-4.187,0C250.167,166.6412,250.41,167.1356,251.914,168.0464Z" transform="translate(-39.5793 -157.3762)"/><path class="cls-5" d="M217.58,173.1176c.5019.6237,2.3246.2106,3.35-.8452.7056-.7268,1.2682-2,.8374-2.5356-.502-.6237-2.3247-.2106-3.35.8452C217.7122,171.3088,217.15,172.5823,217.58,173.1176Z" transform="translate(-39.5793 -157.3762)"/><path class="cls-5" d="M266.15,169.7368c-.0866.6765,1.4239,1.4259,2.5122,1.69.5128.1246,1.459.3546,1.6748,0,.3238-.5321-.93-2.49-2.5122-2.5356C267.101,168.8708,266.2125,169.2474,266.15,169.7368Z" transform="translate(-39.5793 -157.3762)"/><path class="cls-5" d="M277.0361,176.4984c-.25-1.3311-5.3275-1.9886-5.8618-.8452-.2666.57.6429,1.493.8374,1.69a3.2116,3.2116,0,0,0,3.35.8452C276.1059,177.9074,277.159,177.1521,277.0361,176.4984Z" transform="translate(-39.5793 -157.3762)"/><path class="cls-5" d="M214.2307,176.4984a1.38,1.38,0,0,0,.8374,1.69c.9083.2379,1.9-1.1261,1.6749-1.69C216.4976,175.884,214.6159,175.7343,214.2307,176.4984Z" transform="translate(-39.5793 -157.3762)"/><path class="cls-1" d="M354.8567,290.4272c2.8432-5.1168,9.2717-5.8408,10.0489-5.9164,4.04-.3929,5.4024,1.4126,8.374,0,1.7291-.8219,2.6089-2.0706,5.0244-2.5356a9.3482,9.3482,0,0,1,3.35,0c4.6363.674,7.8374-1.5381,14.2358-2.5355a33.27,33.27,0,0,1,11.7237,0c2.2044.4191,5.4075,1.6937,11.7237,4.2259,4.3912,1.7605,6.6059,2.6555,7.5366,3.3808,3.6588,2.851,7.1237,8.3984,5.8619,13.5231a15.1129,15.1129,0,0,1-6.6993,9.2972c-3.7555,2.5211-10.3529,6.0757-21.7725,7.6067a79.8022,79.8022,0,0,1-30.984-2.5356,37.4727,37.4727,0,0,1-13.3985-6.7615,16.6806,16.6806,0,0,1-5.8618-9.2972A11.5833,11.5833,0,0,1,354.8567,290.4272Z" transform="translate(-39.5793 -157.3762)"/><path class="cls-2" d="M354.8567,287.8916c2.8432-5.1168,9.2717-5.8408,10.0489-5.9164,4.04-.3929,5.4024,1.4126,8.374,0,1.7291-.8219,2.6089-2.0706,5.0244-2.5355a9.3434,9.3434,0,0,1,3.35,0c4.6363.674,7.8374-1.5382,14.2358-2.5356a33.27,33.27,0,0,1,11.7237,0c2.2044.4191,5.4075,1.6938,11.7237,4.226,4.3912,1.76,6.6059,2.6554,7.5366,3.3807,3.6588,2.851,7.1237,8.3984,5.8619,13.5231-.4544,1.8454-1.6677,4.2291-6.6993,7.6068-3.7555,2.5211-10.3529,6.0758-21.7725,7.6067a79.8,79.8,0,0,1-30.984-2.5356,37.4727,37.4727,0,0,1-13.3985-6.7615c-4.5587-3.6671-5.5223-6.3667-5.8618-7.6068A11.5833,11.5833,0,0,1,354.8567,287.8916Z" transform="translate(-39.5793 -157.3762)"/><path class="cls-3" d="M385.0033,303.95c-.1409-.9944,1.679-2.2973,3.35-2.5356a5.2413,5.2413,0,0,1,3.35.8452c.8935.48,2.7514,1.7044,2.5122,2.5356-.19.66-1.6154.7736-2.5122.8452C389.12,305.8468,385.1985,305.328,385.0033,303.95Z" transform="translate(-39.5793 -157.3762)"/><path class="cls-3" d="M408.4506,301.4147c.0841-.717,3.28-.89,5.0245-.8452.5232.0135,4.1009.1055,4.187.8452.0747.6421-2.477,1.8141-5.0244,1.69C410.543,303.0033,408.38,302.0221,408.4506,301.4147Z" transform="translate(-39.5793 -157.3762)"/><path class="cls-4" d="M369.93,301.4147c-.1764.9093,1.8836,2.0752,3.35,2.5356.1689.053,2.8394.8707,3.35,0,.4441-.7579-.7964-2.7133-2.5122-3.3808C372.37,299.89,370.1008,300.5342,369.93,301.4147Z" transform="translate(-39.5793 -157.3762)"/><path class="cls-4" d="M395.0521,292.1176c-.0607,1.4,3.83,2.4426,4.1871,2.5356,1.6309.4247,3.96.64,4.187,0,.1172-.3308-.7577-1.07-2.5122-2.5356-1.7958-1.5-2.1585-1.6322-2.5122-1.69C396.909,290.1816,395.0929,291.1777,395.0521,292.1176Z" transform="translate(-39.5793 -157.3762)"/><path class="cls-4" d="M385.0033,284.5108c.2311.6666,1.3787.8086,1.6748.8452.6864.0849,2.1469.0385,2.5122-.8452a2.169,2.169,0,0,0-1.6748-2.5356C386.0782,281.7384,384.6887,283.6033,385.0033,284.5108Z" transform="translate(-39.5793 -157.3762)"/><path class="cls-4" d="M392.54,283.6656a1.5252,1.5252,0,0,0,1.6748,0c.4082-.23.3943-.4579.8374-.8452.8374-.7317,1.6436-.5809,1.6749-.8452.0511-.4328-2.0088-1.7088-3.35-.8451C392.48,281.7084,392.06,283.1456,392.54,283.6656Z" transform="translate(-39.5793 -157.3762)"/><path class="cls-5" d="M400.914,287.0464c.1741.05,2.9218.8224,3.35,0,.241-.4632-.3382-1.2705-.8374-1.69-1.43-1.2028-4.0007-.7359-4.187,0C399.167,285.6412,399.41,286.1356,400.914,287.0464Z" transform="translate(-39.5793 -157.3762)"/><path class="cls-5" d="M366.58,292.1176c.5019.6237,2.3246.2106,3.35-.8452.7056-.7268,1.2682-2,.8374-2.5356-.502-.6237-2.3247-.2106-3.35.8452C366.7122,290.3088,366.15,291.5823,366.58,292.1176Z" transform="translate(-39.5793 -157.3762)"/><path class="cls-5" d="M415.15,288.7368c-.0866.6765,1.4239,1.4259,2.5122,1.69.5128.1246,1.459.3546,1.6748,0,.3238-.5321-.93-2.49-2.5122-2.5356C416.101,287.8708,415.2125,288.2474,415.15,288.7368Z" transform="translate(-39.5793 -157.3762)"/><path class="cls-5" d="M426.0361,295.4984c-.25-1.3311-5.3275-1.9886-5.8618-.8452-.2666.57.6429,1.493.8374,1.69a3.2116,3.2116,0,0,0,3.35.8452C425.1059,296.9074,426.159,296.1521,426.0361,295.4984Z" transform="translate(-39.5793 -157.3762)"/><path class="cls-5" d="M363.2307,295.4984a1.38,1.38,0,0,0,.8374,1.69c.9083.2379,1.9-1.1261,1.6749-1.69C365.4976,294.884,363.6159,294.7343,363.2307,295.4984Z" transform="translate(-39.5793 -157.3762)"/><path class="cls-1" d="M387.8567,234.4272c2.8432-5.1168,9.2717-5.8408,10.0489-5.9164,4.04-.3929,5.4024,1.4126,8.374,0,1.7291-.8219,2.6089-2.0706,5.0244-2.5356a9.3482,9.3482,0,0,1,3.35,0c4.6363.674,7.8374-1.5381,14.2358-2.5355a33.27,33.27,0,0,1,11.7237,0c2.2044.4191,5.4075,1.6937,11.7237,4.2259,4.3912,1.76,6.6059,2.6555,7.5366,3.3808,3.6588,2.851,7.1237,8.3984,5.8619,13.5231a15.1129,15.1129,0,0,1-6.6993,9.2972c-3.7555,2.5211-10.3529,6.0757-21.7725,7.6067a79.8022,79.8022,0,0,1-30.984-2.5356,37.4727,37.4727,0,0,1-13.3985-6.7615,16.6806,16.6806,0,0,1-5.8618-9.2972A11.5833,11.5833,0,0,1,387.8567,234.4272Z" transform="translate(-39.5793 -157.3762)"/><path class="cls-2" d="M387.8567,231.8916c2.8432-5.1168,9.2717-5.8408,10.0489-5.9164,4.04-.3929,5.4024,1.4126,8.374,0,1.7291-.8219,2.6089-2.0706,5.0244-2.5355a9.3434,9.3434,0,0,1,3.35,0c4.6363.674,7.8374-1.5382,14.2358-2.5356a33.27,33.27,0,0,1,11.7237,0c2.2044.4191,5.4075,1.6938,11.7237,4.226,4.3912,1.76,6.6059,2.6554,7.5366,3.3807,3.6588,2.851,7.1237,8.3984,5.8619,13.5231-.4544,1.8454-1.6677,4.2291-6.6993,7.6068-3.7555,2.5211-10.3529,6.0758-21.7725,7.6067a79.8,79.8,0,0,1-30.984-2.5356,37.4727,37.4727,0,0,1-13.3985-6.7615c-4.5587-3.6671-5.5223-6.3667-5.8618-7.6068A11.5833,11.5833,0,0,1,387.8567,231.8916Z" transform="translate(-39.5793 -157.3762)"/><path class="cls-3" d="M418.0033,247.95c-.1409-.9944,1.679-2.2973,3.35-2.5356a5.2413,5.2413,0,0,1,3.35.8452c.8935.48,2.7514,1.7044,2.5122,2.5356-.19.66-1.6154.7736-2.5122.8452C422.12,249.8468,418.1985,249.328,418.0033,247.95Z" transform="translate(-39.5793 -157.3762)"/><path class="cls-3" d="M441.4506,245.4147c.0841-.717,3.28-.89,5.0245-.8452.5232.0135,4.1009.1055,4.187.8452.0747.6421-2.477,1.8141-5.0244,1.69C443.543,247.0033,441.38,246.0221,441.4506,245.4147Z" transform="translate(-39.5793 -157.3762)"/><path class="cls-4" d="M402.93,245.4147c-.1764.9093,1.8836,2.0752,3.35,2.5356.1689.053,2.8394.8707,3.35,0,.4441-.7579-.7964-2.7133-2.5122-3.3808C405.37,243.89,403.1008,244.5342,402.93,245.4147Z" transform="translate(-39.5793 -157.3762)"/><path class="cls-4" d="M428.0521,236.1176c-.0607,1.4,3.83,2.4426,4.1871,2.5356,1.6309.4247,3.96.64,4.187,0,.1172-.3308-.7577-1.07-2.5122-2.5356-1.7958-1.5-2.1585-1.6322-2.5122-1.69C429.909,234.1816,428.0929,235.1777,428.0521,236.1176Z" transform="translate(-39.5793 -157.3762)"/><path class="cls-4" d="M418.0033,228.5108c.2311.6666,1.3787.8086,1.6748.8452.6864.0849,2.1469.0385,2.5122-.8452a2.169,2.169,0,0,0-1.6748-2.5356C419.0782,225.7384,417.6887,227.6033,418.0033,228.5108Z" transform="translate(-39.5793 -157.3762)"/><path class="cls-4" d="M425.54,227.6656a1.5252,1.5252,0,0,0,1.6748,0c.4082-.23.3943-.4579.8374-.8452.8374-.7317,1.6436-.5809,1.6749-.8452.0511-.4328-2.0088-1.7088-3.35-.8451C425.48,225.7084,425.06,227.1456,425.54,227.6656Z" transform="translate(-39.5793 -157.3762)"/><path class="cls-5" d="M433.914,231.0464c.1741.05,2.9218.8224,3.35,0,.241-.4632-.3382-1.27-.8374-1.69-1.43-1.2028-4.0007-.7359-4.187,0C432.167,229.6412,432.41,230.1356,433.914,231.0464Z" transform="translate(-39.5793 -157.3762)"/><path class="cls-5" d="M399.58,236.1176c.5019.6237,2.3246.2106,3.35-.8452.7056-.7268,1.2682-2,.8374-2.5356-.502-.6237-2.3247-.2106-3.35.8452C399.7122,234.3088,399.15,235.5823,399.58,236.1176Z" transform="translate(-39.5793 -157.3762)"/><path class="cls-5" d="M448.15,232.7368c-.0866.6765,1.4239,1.4259,2.5122,1.69.5128.1246,1.459.3546,1.6748,0,.3238-.5321-.93-2.49-2.5122-2.5356C449.101,231.8708,448.2125,232.2474,448.15,232.7368Z" transform="translate(-39.5793 -157.3762)"/><path class="cls-5" d="M459.0361,239.4984c-.25-1.3311-5.3275-1.9886-5.8618-.8452-.2666.57.6429,1.493.8374,1.69a3.2116,3.2116,0,0,0,3.35.8452C458.1059,240.9074,459.159,240.1521,459.0361,239.4984Z" transform="translate(-39.5793 -157.3762)"/><path class="cls-5" d="M396.2307,239.4984a1.38,1.38,0,0,0,.8374,1.69c.9083.2379,1.9-1.1261,1.6749-1.69C398.4976,238.884,396.6159,238.7343,396.2307,239.4984Z" transform="translate(-39.5793 -157.3762)"/><path class="cls-1" d="M301.8567,189.4272c2.8432-5.1168,9.2717-5.8408,10.0489-5.9164,4.04-.3929,5.4024,1.4126,8.374,0,1.7291-.8219,2.6089-2.0706,5.0244-2.5356a9.3482,9.3482,0,0,1,3.35,0c4.6363.674,7.8374-1.5381,14.2358-2.5355a33.27,33.27,0,0,1,11.7237,0c2.2044.4191,5.4075,1.6937,11.7237,4.2259,4.3912,1.76,6.6059,2.6555,7.5366,3.3808,3.6588,2.851,7.1237,8.3984,5.8619,13.5231a15.1129,15.1129,0,0,1-6.6993,9.2972c-3.7555,2.5211-10.3529,6.0757-21.7725,7.6067a79.8022,79.8022,0,0,1-30.984-2.5356,37.4727,37.4727,0,0,1-13.3985-6.7615,16.6806,16.6806,0,0,1-5.8618-9.2972A11.5833,11.5833,0,0,1,301.8567,189.4272Z" transform="translate(-39.5793 -157.3762)"/><path class="cls-2" d="M301.8567,186.8916c2.8432-5.1168,9.2717-5.8408,10.0489-5.9164,4.04-.3929,5.4024,1.4126,8.374,0,1.7291-.8219,2.6089-2.0706,5.0244-2.5355a9.3434,9.3434,0,0,1,3.35,0c4.6363.674,7.8374-1.5382,14.2358-2.5356a33.27,33.27,0,0,1,11.7237,0c2.2044.4191,5.4075,1.6938,11.7237,4.226,4.3912,1.76,6.6059,2.6554,7.5366,3.3807,3.6588,2.851,7.1237,8.3984,5.8619,13.5231-.4544,1.8454-1.6677,4.2291-6.6993,7.6068-3.7555,2.5211-10.3529,6.0758-21.7725,7.6067a79.8,79.8,0,0,1-30.984-2.5356,37.4727,37.4727,0,0,1-13.3985-6.7615c-4.5587-3.6671-5.5223-6.3667-5.8618-7.6068A11.5833,11.5833,0,0,1,301.8567,186.8916Z" transform="translate(-39.5793 -157.3762)"/><path class="cls-3" d="M332.0033,202.95c-.1409-.9944,1.679-2.2973,3.35-2.5356a5.2413,5.2413,0,0,1,3.35.8452c.8935.48,2.7514,1.7044,2.5122,2.5356-.19.66-1.6154.7736-2.5122.8452C336.12,204.8468,332.1985,204.328,332.0033,202.95Z" transform="translate(-39.5793 -157.3762)"/><path class="cls-3" d="M355.4506,200.4147c.0841-.717,3.28-.89,5.0245-.8452.5232.0135,4.1009.1055,4.187.8452.0747.6421-2.477,1.8141-5.0244,1.69C357.543,202.0033,355.38,201.0221,355.4506,200.4147Z" transform="translate(-39.5793 -157.3762)"/><path class="cls-4" d="M316.93,200.4147c-.1764.9093,1.8836,2.0752,3.35,2.5356.1689.053,2.8394.8707,3.35,0,.4441-.7579-.7964-2.7133-2.5122-3.3808C319.37,198.89,317.1008,199.5342,316.93,200.4147Z" transform="translate(-39.5793 -157.3762)"/><path class="cls-4" d="M342.0521,191.1176c-.0607,1.4,3.83,2.4426,4.1871,2.5356,1.6309.4247,3.96.64,4.187,0,.1172-.3308-.7577-1.07-2.5122-2.5356-1.7958-1.5-2.1585-1.6322-2.5122-1.69C343.909,189.1816,342.0929,190.1777,342.0521,191.1176Z" transform="translate(-39.5793 -157.3762)"/><path class="cls-4" d="M332.0033,183.5108c.2311.6666,1.3787.8086,1.6748.8452.6864.0849,2.1469.0385,2.5122-.8452a2.169,2.169,0,0,0-1.6748-2.5356C333.0782,180.7384,331.6887,182.6033,332.0033,183.5108Z" transform="translate(-39.5793 -157.3762)"/><path class="cls-4" d="M339.54,182.6656a1.5252,1.5252,0,0,0,1.6748,0c.4082-.23.3943-.4579.8374-.8452.8374-.7317,1.6436-.5809,1.6749-.8452.0511-.4328-2.0088-1.7088-3.35-.8451C339.48,180.7084,339.06,182.1456,339.54,182.6656Z" transform="translate(-39.5793 -157.3762)"/><path class="cls-5" d="M347.914,186.0464c.1741.05,2.9218.8224,3.35,0,.241-.4632-.3382-1.27-.8374-1.69-1.43-1.2028-4.0007-.7359-4.187,0C346.167,184.6412,346.41,185.1356,347.914,186.0464Z" transform="translate(-39.5793 -157.3762)"/><path class="cls-5" d="M313.58,191.1176c.5019.6237,2.3246.2106,3.35-.8452.7056-.7268,1.2682-2,.8374-2.5356-.502-.6237-2.3247-.2106-3.35.8452C313.7122,189.3088,313.15,190.5823,313.58,191.1176Z" transform="translate(-39.5793 -157.3762)"/><path class="cls-5" d="M362.15,187.7368c-.0866.6765,1.4239,1.4259,2.5122,1.69.5128.1246,1.459.3546,1.6748,0,.3238-.5321-.93-2.49-2.5122-2.5356C363.101,186.8708,362.2125,187.2474,362.15,187.7368Z" transform="translate(-39.5793 -157.3762)"/><path class="cls-5" d="M373.0361,194.4984c-.25-1.3311-5.3275-1.9886-5.8618-.8452-.2666.57.6429,1.493.8374,1.69a3.2116,3.2116,0,0,0,3.35.8452C372.1059,195.9074,373.159,195.1521,373.0361,194.4984Z" transform="translate(-39.5793 -157.3762)"/><path class="cls-5" d="M310.2307,194.4984a1.38,1.38,0,0,0,.8374,1.69c.9083.2379,1.9-1.1261,1.6749-1.69C312.4976,193.884,310.6159,193.7343,310.2307,194.4984Z" transform="translate(-39.5793 -157.3762)"/><path class="cls-1" d="M111.8567,184.4272c2.8432-5.1168,9.2717-5.8408,10.0489-5.9164,4.04-.3929,5.4024,1.4126,8.374,0,1.7291-.8219,2.6089-2.0706,5.0244-2.5356a9.3482,9.3482,0,0,1,3.35,0c4.6363.674,7.8374-1.5381,14.2358-2.5355a33.27,33.27,0,0,1,11.7237,0c2.2044.4191,5.4075,1.6937,11.7237,4.2259,4.3912,1.76,6.6059,2.6555,7.5366,3.3808,3.6588,2.851,7.1237,8.3984,5.8619,13.5231a15.1129,15.1129,0,0,1-6.6993,9.2972c-3.7555,2.5211-10.3529,6.0757-21.7725,7.6067a79.8022,79.8022,0,0,1-30.984-2.5356,37.4727,37.4727,0,0,1-13.3985-6.7615,16.6806,16.6806,0,0,1-5.8618-9.2972A11.5833,11.5833,0,0,1,111.8567,184.4272Z" transform="translate(-39.5793 -157.3762)"/><path class="cls-2" d="M111.8567,181.8916c2.8432-5.1168,9.2717-5.8408,10.0489-5.9164,4.04-.3929,5.4024,1.4126,8.374,0,1.7291-.8219,2.6089-2.0706,5.0244-2.5355a9.3434,9.3434,0,0,1,3.35,0c4.6363.674,7.8374-1.5382,14.2358-2.5356a33.27,33.27,0,0,1,11.7237,0c2.2044.4191,5.4075,1.6938,11.7237,4.226,4.3912,1.76,6.6059,2.6554,7.5366,3.3807,3.6588,2.851,7.1237,8.3984,5.8619,13.5231-.4544,1.8454-1.6677,4.2291-6.6993,7.6068-3.7555,2.5211-10.3529,6.0758-21.7725,7.6067a79.8,79.8,0,0,1-30.984-2.5356,37.4727,37.4727,0,0,1-13.3985-6.7615c-4.5587-3.6671-5.5223-6.3667-5.8618-7.6068A11.5833,11.5833,0,0,1,111.8567,181.8916Z" transform="translate(-39.5793 -157.3762)"/><path class="cls-3" d="M142.0033,197.95c-.1409-.9944,1.679-2.2973,3.35-2.5356a5.2413,5.2413,0,0,1,3.35.8452c.8935.48,2.7514,1.7044,2.5122,2.5356-.19.66-1.6154.7736-2.5122.8452C146.12,199.8468,142.1985,199.328,142.0033,197.95Z" transform="translate(-39.5793 -157.3762)"/><path class="cls-3" d="M165.4506,195.4147c.0841-.717,3.28-.89,5.0245-.8452.5232.0135,4.1009.1055,4.187.8452.0747.6421-2.477,1.8141-5.0244,1.69C167.543,197.0033,165.38,196.0221,165.4506,195.4147Z" transform="translate(-39.5793 -157.3762)"/><path class="cls-4" d="M126.93,195.4147c-.1764.9093,1.8836,2.0752,3.35,2.5356.1689.053,2.8394.8707,3.35,0,.4441-.7579-.7964-2.7133-2.5122-3.3808C129.37,193.89,127.1008,194.5342,126.93,195.4147Z" transform="translate(-39.5793 -157.3762)"/><path class="cls-4" d="M152.0521,186.1176c-.0607,1.4,3.83,2.4426,4.1871,2.5356,1.6309.4247,3.96.64,4.187,0,.1172-.3308-.7577-1.07-2.5122-2.5356-1.7958-1.5-2.1585-1.6322-2.5122-1.69C153.909,184.1816,152.0929,185.1777,152.0521,186.1176Z" transform="translate(-39.5793 -157.3762)"/><path class="cls-4" d="M142.0033,178.5108c.2311.6666,1.3787.8086,1.6748.8452.6864.0849,2.1469.0385,2.5122-.8452a2.169,2.169,0,0,0-1.6748-2.5356C143.0782,175.7384,141.6887,177.6033,142.0033,178.5108Z" transform="translate(-39.5793 -157.3762)"/><path class="cls-4" d="M149.54,177.6656a1.5252,1.5252,0,0,0,1.6748,0c.4082-.23.3943-.4579.8374-.8452.8374-.7317,1.6436-.5809,1.6749-.8452.0511-.4328-2.0088-1.7088-3.35-.8451C149.48,175.7084,149.06,177.1456,149.54,177.6656Z" transform="translate(-39.5793 -157.3762)"/><path class="cls-5" d="M157.914,181.0464c.1741.05,2.9218.8224,3.35,0,.241-.4632-.3382-1.27-.8374-1.69-1.43-1.2028-4.0007-.7359-4.187,0C156.167,179.6412,156.41,180.1356,157.914,181.0464Z" transform="translate(-39.5793 -157.3762)"/><path class="cls-5" d="M123.58,186.1176c.5019.6237,2.3246.2106,3.35-.8452.7056-.7268,1.2682-2,.8374-2.5356-.502-.6237-2.3247-.2106-3.35.8452C123.7122,184.3088,123.15,185.5823,123.58,186.1176Z" transform="translate(-39.5793 -157.3762)"/><path class="cls-5" d="M172.15,182.7368c-.0866.6765,1.4239,1.4259,2.5122,1.69.5128.1246,1.459.3546,1.6748,0,.3238-.5321-.93-2.49-2.5122-2.5356C173.101,181.8708,172.2125,182.2474,172.15,182.7368Z" transform="translate(-39.5793 -157.3762)"/><path class="cls-5" d="M183.0361,189.4984c-.25-1.3311-5.3275-1.9886-5.8618-.8452-.2666.57.6429,1.493.8374,1.69a3.2116,3.2116,0,0,0,3.35.8452C182.1059,190.9074,183.159,190.1521,183.0361,189.4984Z" transform="translate(-39.5793 -157.3762)"/><path class="cls-5" d="M120.2307,189.4984a1.38,1.38,0,0,0,.8374,1.69c.9083.2379,1.9-1.1261,1.6749-1.69C122.4976,188.884,120.6159,188.7343,120.2307,189.4984Z" transform="translate(-39.5793 -157.3762)"/></g></g></svg>