<svg xmlns="http://www.w3.org/2000/svg" xmlns:xlink="http://www.w3.org/1999/xlink" width="471.7171" height="481.001" viewBox="0 0 471.7171 481.001"><defs><style>.cls-1{fill:#fff;}.cls-2,.cls-6{fill:#333;}.cls-3{fill:#f7931e;}.cls-4,.cls-5{fill:none;}.cls-4,.cls-5,.cls-7{stroke-miterlimit:10;}.cls-4{stroke-width:8px;stroke:url(#linear-gradient);}.cls-5{stroke:#f7931e;stroke-width:4px;}.cls-6{fill-rule:evenodd;}.cls-7{stroke:#000;}</style><linearGradient id="linear-gradient" x1="20.1415" y1="279.1092" x2="491.8585" y2="279.1092" gradientUnits="userSpaceOnUse"><stop offset="0" stop-color="#fff"/><stop offset="1" stop-color="#fff"/></linearGradient></defs><title>pizza_logo</title><g id="piece_border"><path class="cls-1" d="M235.9567,17l-.2629,202.8393.0161,20.7274L37.0759,138.0121,35.2443,118.45C75.346,57.81,150.21,17.0138,235.9567,17m6.0078-6.001L235.9557,11c-42.3426.0068-83.9155,9.9168-120.2242,28.6585C80.3963,57.8977,50.8336,83.9989,30.24,115.14l-1.1663,1.7637.1971,2.1053,1.8316,19.5621.3059,3.2668,2.9154,1.5052,198.634,102.5546,8.76,4.5229-.0077-9.8589-.0161-20.7275.2629-202.8268.0078-6.0088Z" transform="translate(-20.1415 -10.999)"/></g><g id="crst"><path class="cls-2" d="M256,452.5459c-112.9424,0-204.8281-80.3887-204.8281-179.1992a162.07,162.07,0,0,1,26.4463-88.12L257.69,276.31l.2363-182.1533c112.0937.9433,202.9023,80.9643,202.9023,179.19C460.8281,372.1572,368.9424,452.5459,256,452.5459Z" transform="translate(-20.1415 -10.999)"/><path class="cls-3" d="M259.9231,96.1791a226.408,226.408,0,0,1,75.194,13.9582,205.91,205.91,0,0,1,64.4968,38.0905,177.3448,177.3448,0,0,1,43.3587,56.3268,157.1584,157.1584,0,0,1,0,137.584,177.3441,177.3441,0,0,1-43.3587,56.3269,205.9118,205.9118,0,0,1-64.4968,38.09,230.7043,230.7043,0,0,1-158.2342,0,205.9129,205.9129,0,0,1-64.4968-38.09,177.3441,177.3441,0,0,1-43.3587-56.3269,157.0378,157.0378,0,0,1-15.8558-68.792A159.92,159.92,0,0,1,78.3293,187.828l175.5591,88.8,5.797,2.9322.0084-6.4964.2293-176.8842M256,92.147l-.0717.0007-.2345,180.91L76.924,182.6346c-17.6452,26.6782-27.7524,57.66-27.7524,90.712,0,100.0739,92.6,181.2,206.8284,181.2s206.8284-81.1258,206.8284-181.2S370.2281,92.147,256,92.147Z" transform="translate(-20.1415 -10.999)"/><path class="cls-3" d="M259.9514,74.2473A254.3389,254.3389,0,0,1,344.86,89.9319a231.3119,231.3119,0,0,1,72.4529,42.79,199.2859,199.2859,0,0,1,48.7229,63.2971,176.5243,176.5243,0,0,1,17.8227,77.3276c0,56.8319-20.3019,108.8953-57.166,146.6C385.7221,461.8506,326.6975,484,256,484S126.278,461.8506,85.3075,419.9462c-36.8641-37.7044-57.166-89.7678-57.166-146.6a179.7877,179.7877,0,0,1,28.5046-96.4861l197.2423,99.767,5.797,2.9321.0084-6.4963.2576-198.816M256,70.2183l-.0433.0005-.2629,202.8393L55.2443,171.6688C35.4685,201.5728,24.1415,236.3,24.1415,273.3466,24.1415,385.5313,102.3377,488,256,488S487.8585,385.5313,487.8585,273.3466,384.052,70.2183,256,70.2183Z" transform="translate(-20.1415 -10.999)"/><path class="cls-4" d="M256,70.2183l-.0433.0005-.2629,202.8393L55.2442,171.6688C35.4685,201.5728,24.1415,236.3,24.1415,273.3466,24.1415,385.5313,102.3377,488,256,488S487.8585,385.5313,487.8585,273.3466,384.052,70.2183,256,70.2183Z" transform="translate(-20.1415 -10.999)"/><path class="cls-2" d="M256,452.5459c-112.9424,0-204.8281-80.3887-204.8281-179.1992a162.07,162.07,0,0,1,26.4463-88.12L257.69,276.31l.2363-182.1533c112.0937.9433,202.9023,80.9643,202.9023,179.19C460.8281,372.1572,368.9424,452.5459,256,452.5459Z" transform="translate(-20.1415 -10.999)"/><path class="cls-3" d="M259.9231,96.1791a226.408,226.408,0,0,1,75.194,13.9582,205.91,205.91,0,0,1,64.4968,38.0905,177.3448,177.3448,0,0,1,43.3587,56.3268,157.1584,157.1584,0,0,1,0,137.584,177.3441,177.3441,0,0,1-43.3587,56.3269,205.9118,205.9118,0,0,1-64.4968,38.09,230.7043,230.7043,0,0,1-158.2342,0,205.9129,205.9129,0,0,1-64.4968-38.09,177.3441,177.3441,0,0,1-43.3587-56.3269,157.0378,157.0378,0,0,1-15.8558-68.792A159.92,159.92,0,0,1,78.3293,187.828l175.5591,88.8,5.797,2.9322.0084-6.4964.2293-176.8842M256,92.147l-.0717.0007-.2345,180.91L76.924,182.6346c-17.6452,26.6782-27.7524,57.66-27.7524,90.712,0,100.0739,92.6,181.2,206.8284,181.2s206.8284-81.1258,206.8284-181.2S370.2281,92.147,256,92.147Z" transform="translate(-20.1415 -10.999)"/><path class="cls-3" d="M259.9514,74.2473A254.3389,254.3389,0,0,1,344.86,89.9319a231.3119,231.3119,0,0,1,72.4529,42.79,199.2859,199.2859,0,0,1,48.7229,63.2971,176.5243,176.5243,0,0,1,17.8227,77.3276c0,56.8319-20.3019,108.8953-57.166,146.6C385.7221,461.8506,326.6975,484,256,484S126.278,461.8506,85.3075,419.9462c-36.8641-37.7044-57.166-89.7678-57.166-146.6a179.7877,179.7877,0,0,1,28.5046-96.4861l197.2423,99.767,5.797,2.9321.0084-6.4963.2576-198.816M256,70.2183l-.0433.0005-.2629,202.8393L55.2443,171.6688C35.4685,201.5728,24.1415,236.3,24.1415,273.3466,24.1415,385.5313,102.3377,488,256,488S487.8585,385.5313,487.8585,273.3466,384.052,70.2183,256,70.2183Z" transform="translate(-20.1415 -10.999)"/></g><g id="skewed"><path class="cls-5" d="M235.6938,219.8393,235.9567,17C150.21,17.0138,75.346,57.81,35.2442,118.45Z" transform="translate(-20.1415 -10.999)"/><path class="cls-5" d="M235.6938,219.8393l.2344-180.91C159.457,38.9517,92.6931,75.3358,56.924,129.4158Z" transform="translate(-20.1415 -10.999)"/><path class="cls-6" d="M235.6938,219.8393l.2344-180.91C159.457,38.9517,92.6931,75.3358,56.924,129.4158Z" transform="translate(-20.1415 -10.999)"/><ellipse class="cls-7" cx="167.1156" cy="70.6322" rx="18.4433" ry="16.1579"/><ellipse class="cls-7" cx="182.9241" cy="152.5761" rx="18.4433" ry="16.1579"/><ellipse class="cls-7" cx="96.4267" cy="114.5899" rx="24.4319" ry="21.4044"/><ellipse class="cls-5" cx="167.1156" cy="63.4291" rx="18.4433" ry="16.1579"/><ellipse class="cls-5" cx="182.9241" cy="138.1698" rx="18.4433" ry="16.1579"/><ellipse class="cls-5" cx="96.4267" cy="99.3227" rx="24.4319" ry="21.4044"/><ellipse class="cls-7" cx="304.9017" cy="329.8846" rx="23.4606" ry="20.5535"/><ellipse class="cls-7" cx="308.1166" cy="151.918" rx="25.2581" ry="22.1283"/><ellipse class="cls-7" cx="393.9439" cy="219.6445" rx="18.4433" ry="16.1579"/><ellipse class="cls-7" cx="84.4445" cy="241.1525" rx="23.7972" ry="20.8485"/><ellipse class="cls-7" cx="386.9439" cy="320.8176" rx="18.4433" ry="16.1579"/><ellipse class="cls-7" cx="295.7059" cy="246.1071" rx="27.2734" ry="23.8939"/><ellipse class="cls-7" cx="117.6409" cy="336.9125" rx="33.2027" ry="29.0885"/><ellipse class="cls-7" cx="209.0412" cy="307.7739" rx="24.1826" ry="21.1861"/><ellipse class="cls-7" cx="241.3258" cy="389.5584" rx="27.4672" ry="24.0637"/><ellipse class="cls-5" cx="304.9017" cy="322.5545" rx="23.4606" ry="20.5535"/><ellipse class="cls-5" cx="308.1166" cy="140.0803" rx="25.2581" ry="22.1283"/><ellipse class="cls-5" cx="393.9439" cy="208.1195" rx="18.4433" ry="16.1579"/><ellipse class="cls-5" cx="84.4445" cy="229.9995" rx="23.7972" ry="20.8485"/><ellipse class="cls-5" cx="386.9439" cy="310.7332" rx="18.4433" ry="16.1579"/><ellipse class="cls-5" cx="295.7059" cy="233.325" rx="27.2734" ry="23.8939"/><ellipse class="cls-5" cx="117.6409" cy="326.5385" rx="33.2027" ry="29.0885"/><ellipse class="cls-5" cx="209.0412" cy="294.5514" rx="24.1826" ry="21.1861"/><ellipse class="cls-5" cx="241.3258" cy="380.9765" rx="27.4672" ry="24.0637"/><polyline class="cls-5" points="15.617 106.844 16.934 127.013 215.568 229.568 215.552 208.84"/></g></svg>