<svg id="skewed" xmlns="http://www.w3.org/2000/svg" xmlns:xlink="http://www.w3.org/1999/xlink" width="463.7171" height="475.0002" viewBox="0 0 463.7171 475.0002"><defs><style>.cls-1{fill:url(#linear-gradient);}.cls-2{fill:none;stroke:#f7931e;stroke-width:2px;}.cls-2,.cls-5{stroke-miterlimit:10;}.cls-3{fill:#f7931e;}.cls-4{opacity:0.5;}.cls-5{stroke:#000;}</style><linearGradient id="linear-gradient" x1="256" y1="83.2183" x2="256" y2="501" gradientUnits="userSpaceOnUse"><stop offset="0.3417" stop-opacity="0"/><stop offset="1" stop-opacity="0.5"/></linearGradient></defs><title>pizza_logo</title><path class="cls-1" d="M256,83.2183l-.0433.0005-.2629,202.8393L55.2442,184.6688C35.4685,214.5728,24.1415,249.3,24.1415,286.3466,24.1415,398.5313,102.3377,501,256,501S487.8585,398.5313,487.8585,286.3466,384.052,83.2183,256,83.2183Z" transform="translate(-24.1414 -25.9998)"/><path class="cls-2" d="M255.6938,229.8393,255.9567,27C170.21,27.0138,95.346,67.81,55.2442,128.45Z" transform="translate(-24.1414 -25.9998)"/><path class="cls-2" d="M255.6938,229.8393l.2344-180.91c-76.4712.0228-143.2351,36.4069-179.0042,90.4869Z" transform="translate(-24.1414 -25.9998)"/><path class="cls-3" d="M257.9541,72.2253a256.5941,256.5941,0,0,1,87.6008,15.8312,233.3031,233.3031,0,0,1,73.076,43.161,201.2752,201.2752,0,0,1,49.206,63.932,178.5085,178.5085,0,0,1,18.0217,78.1971c0,57.3576-20.5044,109.9175-57.736,147.9978C386.7672,463.6424,327.2481,486,256,486S125.2329,463.6424,83.8774,421.3444c-37.2316-38.08-57.736-90.64-57.736-147.9978,0-34.7817,10.296-69.0017,29.7963-99.0857L254.7911,274.8428l2.8985,1.466.0042-3.2481.26-200.8354M256,70.2183l-.0433.0005-.2629,202.8393L55.2443,171.6689C35.4686,201.5728,24.1414,236.3,24.1414,273.3466,24.1414,385.5313,102.3377,488,256,488S487.8586,385.5313,487.8586,273.3466,384.052,70.2183,256,70.2183Z" transform="translate(-24.1414 -25.9998)"/><path class="cls-3" d="M257.9257,94.1546a228.6434,228.6434,0,0,1,77.8863,14.1073,207.9018,207.9018,0,0,1,65.12,38.4615,179.334,179.334,0,0,1,43.8419,56.9616,159.1587,159.1587,0,0,1,0,139.3232A179.3318,179.3318,0,0,1,400.9318,399.97a207.902,207.902,0,0,1-65.12,38.4616,232.7024,232.7024,0,0,1-159.624,0,207.902,207.902,0,0,1-65.12-38.4616,179.3318,179.3318,0,0,1-43.8419-56.9616,159.0237,159.0237,0,0,1-16.0547-69.6616,162.0676,162.0676,0,0,1,26.4466-88.12l177.1729,89.6157,2.8985,1.4661.0042-3.2482.2319-178.9061M256,92.1469l-.0717.0008-.2345,180.91L76.924,182.6346c-17.6453,26.6782-27.7524,57.66-27.7524,90.712,0,100.0738,92.6,181.2,206.8284,181.2s206.8284-81.126,206.8284-181.2-92.6-181.2-206.8284-181.2Z" transform="translate(-24.1414 -25.9998)"/><g class="cls-4"><ellipse class="cls-5" cx="183.1156" cy="65.6314" rx="18.4433" ry="16.1579"/><ellipse class="cls-5" cx="198.9241" cy="147.5752" rx="18.4433" ry="16.1579"/><ellipse class="cls-5" cx="101.4381" cy="103.718" rx="18.4433" ry="16.1579"/><ellipse class="cls-5" cx="147.5464" cy="123.3383" rx="18.4433" ry="16.1579"/></g><ellipse class="cls-2" cx="183.1156" cy="58.4283" rx="18.4433" ry="16.1579"/><ellipse class="cls-2" cx="198.9241" cy="133.169" rx="18.4433" ry="16.1579"/><ellipse class="cls-2" cx="101.4381" cy="92.193" rx="18.4433" ry="16.1579"/><ellipse class="cls-2" cx="147.5464" cy="114.6946" rx="18.4433" ry="16.1579"/><g class="cls-4"><ellipse class="cls-5" cx="281.9189" cy="96.1547" rx="18.4433" ry="16.1579"/><ellipse class="cls-5" cx="335.9314" cy="142.3202" rx="18.4433" ry="16.1579"/><ellipse class="cls-5" cx="389.9439" cy="204.6437" rx="18.4433" ry="16.1579"/><ellipse class="cls-5" cx="280.6016" cy="166.5571" rx="18.4433" ry="16.1579"/><ellipse class="cls-5" cx="75.0906" cy="206.952" rx="18.4433" ry="16.1579"/><ellipse class="cls-5" cx="281.9189" cy="234.6513" rx="18.4433" ry="16.1579"/><ellipse class="cls-5" cx="389.9439" cy="280.8168" rx="18.4433" ry="16.1579"/><ellipse class="cls-5" cx="313.536" cy="307.362" rx="18.4433" ry="16.1579"/><ellipse class="cls-5" cx="119.8814" cy="337.3696" rx="18.4433" ry="16.1579"/><ellipse class="cls-5" cx="69.8211" cy="275.0461" rx="18.4433" ry="16.1579"/><ellipse class="cls-5" cx="210.7805" cy="291.2041" rx="18.4433" ry="16.1579"/><ellipse class="cls-5" cx="143.5942" cy="258.8882" rx="18.4433" ry="16.1579"/><ellipse class="cls-5" cx="317.4881" cy="356.9899" rx="18.4433" ry="16.1579"/><ellipse class="cls-5" cx="246.3497" cy="373.1479" rx="18.4433" ry="16.1579"/><ellipse class="cls-5" cx="173.8939" cy="373.1479" rx="18.4433" ry="16.1579"/></g><ellipse class="cls-2" cx="281.9189" cy="90.3922" rx="18.4433" ry="16.1579"/><ellipse class="cls-2" cx="335.9314" cy="133.6765" rx="18.4433" ry="16.1579"/><ellipse class="cls-2" cx="389.9439" cy="193.1187" rx="18.4433" ry="16.1579"/><ellipse class="cls-2" cx="280.6016" cy="156.4727" rx="18.4433" ry="16.1579"/><ellipse class="cls-2" cx="75.0906" cy="198.3082" rx="18.4433" ry="16.1579"/><ellipse class="cls-2" cx="281.9189" cy="223.1263" rx="18.4433" ry="16.1579"/><ellipse class="cls-2" cx="389.9439" cy="270.7324" rx="18.4433" ry="16.1579"/><ellipse class="cls-2" cx="313.536" cy="298.7182" rx="18.4433" ry="16.1579"/><ellipse class="cls-2" cx="119.8814" cy="331.6071" rx="18.4433" ry="16.1579"/><ellipse class="cls-2" cx="69.8211" cy="266.4024" rx="18.4433" ry="16.1579"/><ellipse class="cls-2" cx="210.7805" cy="281.1197" rx="18.4433" ry="16.1579"/><ellipse class="cls-2" cx="143.5942" cy="247.3632" rx="18.4433" ry="16.1579"/><ellipse class="cls-2" cx="317.4881" cy="348.3462" rx="18.4433" ry="16.1579"/><ellipse class="cls-2" cx="246.3497" cy="367.3854" rx="18.4433" ry="16.1579"/><ellipse class="cls-2" cx="173.8939" cy="364.5041" rx="18.4433" ry="16.1579"/><polyline class="cls-2" points="31.617 101.844 32.934 122.012 231.568 224.567 231.552 203.839"/></svg>