<svg id="new" xmlns="http://www.w3.org/2000/svg" xmlns:xlink="http://www.w3.org/1999/xlink" viewBox="0 0 290.0655 457.5015"><defs><style>.cls-1{fill:#fff;}.cls-2,.cls-3{fill:#f5c38e;}.cls-10,.cls-11,.cls-12,.cls-3,.cls-6,.cls-7,.cls-8,.cls-9{stroke:#000;stroke-miterlimit:10;}.cls-4{fill:url(#linear-gradient);}.cls-5{fill:url(#linear-gradient-2);}.cls-6{fill:none;}.cls-7{fill:#5e0c06;}.cls-8{fill:url(#linear-gradient-3);}.cls-9{fill:url(#linear-gradient-4);}.cls-10{fill:url(#linear-gradient-5);}.cls-11{fill:url(#linear-gradient-6);}.cls-12{fill:#c52610;}</style><linearGradient id="linear-gradient" x1="240.6216" y1="82.1437" x2="234.307" y2="443.9048" gradientUnits="userSpaceOnUse"><stop offset="0" stop-color="#e1d4c1"/><stop offset="0.6549" stop-color="#af7b60"/></linearGradient><linearGradient id="linear-gradient-2" x1="234.0597" y1="63.6128" x2="423.6628" y2="452.3569" gradientUnits="userSpaceOnUse"><stop offset="0.3557" stop-color="#f8f1a7"/><stop offset="1" stop-color="#d78858"/></linearGradient><linearGradient id="linear-gradient-3" x1="224.4193" y1="93.8561" x2="224.4193" y2="123.0961" gradientUnits="userSpaceOnUse"><stop offset="0.268" stop-color="#c52610"/><stop offset="0.4954" stop-color="#c22610"/><stop offset="0.6608" stop-color="#b92510"/><stop offset="0.8065" stop-color="#a92411"/><stop offset="0.9401" stop-color="#932212"/><stop offset="1" stop-color="#862112"/></linearGradient><linearGradient id="linear-gradient-4" x1="302.7178" y1="135.9161" x2="302.7178" y2="175.1083" xlink:href="#linear-gradient-3"/><linearGradient id="linear-gradient-5" x1="345.5" y1="207.8735" x2="345.5" y2="255.1921" xlink:href="#linear-gradient-3"/><linearGradient id="linear-gradient-6" x1="373.6244" y1="119.7175" x2="373.6244" y2="141.9361" xlink:href="#linear-gradient-3"/></defs><title>pizza_logo</title><g id="outer_stroke"><path class="cls-1" d="M226.1512,33.3947A109.3071,109.3071,0,0,1,243,35c14.9467,2.2679,16.7547,5.793,32,7,4.5127.3573,8.2045.65,11.9.65A63.0713,63.0713,0,0,0,296,42c7.4563-1.0613,11.7169-2.8571,16.0386-2.8571A14.8034,14.8034,0,0,1,317,40c2.2677.7859,2.3859,1.3369,11,8,7.9919,6.1817,11.9879,9.2727,15,11,8.8881,5.0969,10.8133,2.4533,21,7,5.14,2.2941,13.6609,6.0973,20,15,2.0319,2.8535,8.741,12.2758,7,23a17.4813,17.4813,0,0,1-.9685,3.616c-.01.1276-.0148.2509-.0315.384-1,8,0,12,2,20s5,11,6,20-2,13-3,21,4,10,3,16-1,9,0,14-1,9-4,14-2,10-1,15,2,22-3,36c-4.69,13.1325-16.4189,23.625-18.68,32.3034A24.7446,24.7446,0,0,0,371,300a23.8706,23.8706,0,0,0,.4756,5.2359q.0315.153.0644.3059c.6878,3.1352,1.8339,5.4061,2.3069,8.657A30.2933,30.2933,0,0,1,375,325c-1,10-12,25-16,33s-3,20-5,28-2,12,0,21,7,18,8,28a47.8415,47.8415,0,0,1,.1757,8.2289,1.8418,1.8418,0,0,1-.144,1.72A97.1776,97.1776,0,0,0,361,457c0,9,2,18,1,23-.4037,2.0187-1.4592,2.8962-2.5747,2.8962-1.6474,0-3.4253-1.9149-3.4253-4.8962,0-5,1-15,1-26a43.1451,43.1451,0,0,0-.6767-7.326C349.8746,441.5145,350.1694,431.6868,345,421c-5.2669-10.8885-9.5435-8.8277-18-21-7.5936-10.93-10.1006-21.1642-13-33-4.1887-17.0991-1.9239-20.1649-5-38a194.2982,194.2982,0,0,0-8.9037-32.618c-.0273.2171-.058.4262-.0963.618-.4581,2.29-1.7552,3.5314-2.9308,3.5314-1.3907,0-2.6111-1.7379-2.0692-5.5314.3111-2.1781.7191-5.3251,1.0431-8.8975-.0146-.0343-.0284-.0682-.0431-.1025-2.8385-6.6541-10-20-27-43a195.4244,195.4244,0,0,0-14-17s-1.2611-1.0184-3.0485-2.6979A17.1078,17.1078,0,0,0,249,227c-4,7-8,29-8,40s5,37,4,43c-.45,2.6971-2.1111,4.1816-3.7138,4.1816-1.9626,0-3.8367-2.2273-3.2862-7.1816,1-9,0-29-1-44s3-27,5-40a58.98,58.98,0,0,0,.6009-10.9238c-.2068-.3578-.4143-.7157-.6009-1.0762a67.9276,67.9276,0,0,0-5-6c-7.6239-8.76-11.4357-13.14-16-17-7.1243-6.0249-10.9464-9.2571-17-11-2.4864-.7159-4.8834-1.0463-8-3-4.6089-2.8892-4.1959-5.1939-8-7a9.08,9.08,0,0,0-4.1061-.9347c-.9434,0-1.8173.1061-2.72.1061A7.6049,7.6049,0,0,1,177,165c-2.8869-1.7247-2.7466-3.468-6-5a12.8065,12.8065,0,0,0-5.0452-1.3348,5.9167,5.9167,0,0,0-1.1481.1067C163.9083,167.1348,163,176.6088,163,182c0,3.3574-1.2329,4.7774-2.59,4.7774-1.8764,0-3.99-2.7151-3.41-6.7774.6835-4.7844,2.3008-12.84,3.5757-21.2905C158.5,156.7448,159.0665,151.0311,158,150c-1.2833-1.2409-2.4235-.2335-5-2-2.44-1.673-2.2033-3.1155-4-4a3.6924,3.6924,0,0,0-1.668-.3938c-1.8961,0-3.7208,1.3459-6.332,1.3938-.0479.0009-.095.0013-.1427.0013-4.1968,0-7.4018-3.3977-9.8573-6.0013-3.7178-3.9419-3.9287-6.5535-9-18-4.1167-9.2918-4.3349-8.3773-5-11-2.7384-10.799,2.3607-20.7885,3-22,4.5809-8.6811,10.5763-9.0029,36-23,9.4308-5.1922,7.3283-4.4445,26-15,22.7549-12.8637,26.043-14.0677,30-15a61.23,61.23,0,0,1,14.1512-1.6053m0-4a64.8847,64.8847,0,0,0-15.0687,1.7119c-4.3886,1.0341-7.5415,2.1209-31.0511,15.4113-10.0741,5.6951-14.1919,8.1528-17.1985,9.9474-2.5892,1.5454-4.46,2.662-8.7622,5.0306-7.5238,4.1424-13.2893,7.0554-17.9218,9.3961-11.2294,5.6738-15.8773,8.0223-19.6867,15.2412-1.0874,2.0606-6.3589,12.9431-3.34,24.85a14.9044,14.9044,0,0,0,1.531,3.8553c.6286,1.2148,1.68,3.248,3.6892,7.7818,1.46,3.2966,2.5181,5.8646,3.3679,7.9279,2.1577,5.2389,3.2407,7.8686,6.3793,11.1963,2.7255,2.89,6.8443,7.2568,12.7672,7.2568l.215-.002a15.4855,15.4855,0,0,0,4.8414-.9916,11.53,11.53,0,0,1,1.3018-.3894c.068.093.1546.2183.2246.32a11.8809,11.8809,0,0,0,3.298,3.3612,10.5847,10.5847,0,0,0,4.0088,1.74c.0285.2093.0553.4168.0784.5961a17.5763,17.5763,0,0,0,1.5524,6.0573c-.6163,3.9375-1.2918,7.7512-1.896,11.1629-.5989,3.3813-1.1161,6.3016-1.4415,8.5793a11.0473,11.0473,0,0,0,2.2534,8.8474,6.7787,6.7787,0,0,0,5.1165,2.4957c3.28,0,6.59-2.7141,6.59-8.7774,0-3.6476.4467-9.8132,1.3624-18.7822.2872.1108.5982.2432.9337.4011a5.0638,5.0638,0,0,1,1.9889,1.6255,14.0164,14.0164,0,0,0,3.6635,3.1895,11.6323,11.6323,0,0,0,6.2255,1.7376c.5643,0,1.0963-.0314,1.5657-.0592.409-.0242.7954-.047,1.1542-.047a5.1034,5.1034,0,0,1,2.3906.5482,5.8538,5.8538,0,0,1,2.3378,2.0378,19.6933,19.6933,0,0,0,5.2532,4.7378,24.5032,24.5032,0,0,0,7.6256,3.0816c.4648.12.9268.2392,1.3922.3732,5.2311,1.506,8.6708,4.415,15.5238,10.21,4.33,3.662,8.0844,7.9756,15.5638,16.57,2.2861,2.6268,4.1024,4.7138,4.5217,5.32q.0615.1167.1251.2333a54.4616,54.4616,0,0,1-.5812,9.2145c-.55,3.5749-1.2769,7.1807-1.98,10.6678-1.8736,9.2938-3.8112,18.904-3.0576,30.2066,1.4088,21.1323,1.7694,36.5071,1.0156,43.2922-.5579,5.0211.9028,7.838,2.2266,9.3169a6.7057,6.7057,0,0,0,5.0351,2.3064c3.7714,0,6.921-3.094,7.6594-7.524.5945-3.5672-.2918-10.76-1.7872-22.2011C246.0973,280.3381,245,271.9431,245,267c0-11.1208,4.0722-31.9013,7.4136-37.91a199.1921,199.1921,0,0,1,13.37,16.2876c16.7587,22.6736,23.535,35.4256,26.1811,41.3745-.2442,2.5145-.5545,5.0938-.9242,7.6823-.6215,4.3508.574,6.793,1.6863,8.0756a5.691,5.691,0,0,0,4.3428,2.0215,5.87,5.87,0,0,0,1.5373-.2037,186.8773,186.8773,0,0,1,6.4516,25.3521,141.1144,141.1144,0,0,1,1.9167,17.0493,104.6187,104.6187,0,0,0,3.14,21.2226c2.9958,12.2292,5.583,22.7907,13.6,34.33a52.29,52.29,0,0,0,10.3741,11.3092,23.4757,23.4757,0,0,1,7.31,9.15,71.3747,71.3747,0,0,1,3.9071,10.7065c1.6439,5.44,3.2075,10.6152,7.346,13.6615A36.4314,36.4314,0,0,1,353,452c0,6.4555-.3535,12.6121-.6375,17.5589C352.168,472.9463,352,475.8717,352,478c0,4.9885,3.2615,8.8962,7.4253,8.8962,2.4332,0,5.5948-1.6007,6.497-6.1117.6826-3.4126.264-7.7592-.2208-12.792C365.3567,464.4114,365,460.7083,365,457a61.3546,61.3546,0,0,1,.6443-8.5449c.0967-.7592.1959-1.5379.2854-2.3383a5.7544,5.7544,0,0,0,.2733-3.2113,52.6587,52.6587,0,0,0-.2229-8.3035c-.6411-6.4113-2.7281-12.2389-4.7464-17.8746a90.3776,90.3776,0,0,1-3.329-10.5951c-1.8634-8.3854-1.8676-11.788-.0241-19.1622a74.2763,74.2763,0,0,0,1.5367-11.1845c.5117-5.78,1.0408-11.7575,3.16-15.9968,1.0742-2.1483,2.7862-5.0015,4.5986-8.0224,4.901-8.1683,11-18.3339,11.8038-26.3684A33.8393,33.8393,0,0,0,377.7717,313.4a33.9026,33.9026,0,0,0-1.3781-5.3891c-.3563-1.1159-.6929-2.17-.9465-3.3258l-.0537-.2554A19.874,19.874,0,0,1,375,300.0536a20.8589,20.8589,0,0,1,.2377-2.9147c.9539-3.414,4.0282-7.736,7.28-12.3075,4.039-5.6783,8.6168-12.1141,11.25-19.4861,5.1708-14.4784,4.3319-32.2469,3.1553-38.13-1.052-5.26-1.59-8.661.5077-12.1575,3.2256-5.376,5.79-10.354,4.4923-16.8425-.9074-4.5368-.9028-7.0015.0233-12.5579.6711-4.0266-.6056-6.8817-1.6314-9.1759a11.3959,11.3959,0,0,1-1.3451-6.9856,50.8679,50.8679,0,0,1,1.5-7.07c1.0934-4.1342,2.224-8.4092,1.5064-14.8675a44.556,44.556,0,0,0-3.5382-13.052,52.9629,52.9629,0,0,1-2.5567-7.4764c-1.9345-7.738-2.8179-11.272-1.9128-18.5234a21.554,21.554,0,0,0,.9805-3.8656c1.33-8.1926-1.2572-16.9272-7.69-25.9611-6.9714-9.7907-16.1462-13.8857-21.6279-16.3325a44.5665,44.5665,0,0,0-11.3112-3.4652A24.9174,24.9174,0,0,1,344.99,55.53c-2.7723-1.59-6.7044-4.6313-14.5383-10.6908-2.6422-2.0437-4.4806-3.5093-5.8229-4.5794-3.1526-2.5132-4.104-3.2718-6.3188-4.0394a18.8651,18.8651,0,0,0-6.2713-1.0776,37.5354,37.5354,0,0,0-8.5394,1.3164c-2.2909.529-4.8876,1.1286-8.0629,1.5806a59.1251,59.1251,0,0,1-8.5361.61c-3.5369,0-7.0869-.2811-11.5815-.6369A63.5326,63.5326,0,0,1,258.86,34.6971a91.1226,91.1226,0,0,0-15.26-3.6518,112.45,112.45,0,0,0-17.4488-1.6506Z" transform="translate(-112.2009 -29.3947)"/></g><g id="outline"><path class="cls-2" d="M360.1133,446.1484a9.7218,9.7218,0,0,1-3.294-.6826c-4.8125-1.8642-6.291-6.7793-8.1621-13.001a73.78,73.78,0,0,0-4.1074-11.247,26.6357,26.6357,0,0,0-8.2-10.2989,48.5834,48.5834,0,0,1-9.76-10.6337c-7.6474-11.0069-10.163-21.2754-13.0752-33.1661a100.4532,100.4532,0,0,1-3.0468-20.6113,145.8655,145.8655,0,0,0-1.961-17.4228A200.465,200.465,0,0,0,295.54,286.1963c-2.43-5.6953-9.1611-18.8428-26.9419-42.8994a196.8136,196.8136,0,0,0-13.96-16.9517c-.3228-.2554-9.0752-7.3745-13.082-15.1152a72.6215,72.6215,0,0,0-4.9161-5.8819c-7.6172-8.7524-11.4292-13.1323-15.9629-16.9663-7.0073-5.9257-10.8657-9.1884-16.8154-10.9013-.4961-.1426-.9888-.27-1.4839-.398a21.2631,21.2631,0,0,1-6.6435-2.6587,16.1747,16.1747,0,0,1-4.3994-3.9843,9.2446,9.2446,0,0,0-3.5494-2.9878,8.5151,8.5151,0,0,0-3.892-.8863c-.4668,0-.9161.0269-1.36.0528-.4541.0268-.9028.0532-1.3589.0532a8.063,8.063,0,0,1-4.4306-1.2422,10.5326,10.5326,0,0,1-2.8086-2.4707,8.4476,8.4476,0,0,0-3.148-2.5064,11.7007,11.7007,0,0,0-4.8389-1.2929,4.7706,4.7706,0,0,0-1.7636.3056,5.2316,5.2316,0,0,1-1.9.4126c-3.1294,0-3.626-3.8662-3.9888-6.6889a7.5924,7.5924,0,0,0-.6431-2.8291,2.5028,2.5028,0,0,0-1.5922-.6441,7.1837,7.1837,0,0,1-3.3428-1.3032,8.5183,8.5183,0,0,1-2.398-2.4639,3.7762,3.7762,0,0,0-1.54-1.5,3.2075,3.2075,0,0,0-1.4468-.3423,8.1714,8.1714,0,0,0-2.5376.585,12.1627,12.1627,0,0,1-3.7856.8086l-.1519.0015c-4.4136,0-7.77-3.56-10.2212-6.1582-2.6948-2.8575-3.5713-4.9859-5.6894-10.1285-.8574-2.0825-1.9248-4.6738-3.4038-8.0122-2.0518-4.6308-3.1343-6.7226-3.7808-7.9726a11.6067,11.6067,0,0,1-1.2471-3.107c-2.7041-10.6645,2.06-20.4941,3.0425-22.3564,3.2891-6.2319,7.3408-8.2793,18.17-13.751,4.6573-2.353,10.4537-5.2817,18.0313-9.4536,4.3555-2.3979,6.248-3.5273,8.8672-5.0908,2.9917-1.7857,7.0888-4.2315,17.1279-9.9063C204.8,36.5361,207.9351,35.4438,211.8853,34.5132a61.4463,61.4463,0,0,1,14.2656-1.6187,109.6373,109.6373,0,0,1,16.9243,1.6109,87.0209,87.0209,0,0,1,14.7344,3.53,67.2407,67.2407,0,0,0,17.23,3.4659c4.5732.3623,8.1845.6484,11.86.6484a62.5346,62.5346,0,0,0,9.03-.645c3.3232-.4732,5.9971-1.09,8.3564-1.6353a34.5234,34.5234,0,0,1,7.753-1.2265,15.2149,15.2149,0,0,1,5.125.8842c1.6474.5718,2.2031,1.0142,5.2832,3.47,1.3515,1.0776,3.2,2.5512,5.8584,4.6074,7.9638,6.16,11.9609,9.251,14.9433,10.9619a28.1325,28.1325,0,0,0,10.4239,3.7554,41.5356,41.5356,0,0,1,10.5312,3.2217c5.1563,2.3012,13.7852,6.1528,20.2031,15.1665,5.88,8.2558,8.2637,16.1186,7.086,23.37a19.4909,19.4909,0,0,1-1.99,5.9419,17.2223,17.2223,0,0,0-2.0049,7.0185c-.1992,2.4546-.1,4.8824,2.9834,15.8238,2.11,7.4926,3.3077,10.7934,4.0235,12.7656a11.6416,11.6416,0,0,1,.9951,4.3476,21.3518,21.3518,0,0,1-2.2207,10.6163c-1.2295,2.85-2.3906,5.5415-1.7832,10.3432a20.5483,20.5483,0,0,0,1.6914,5.9463,13.2206,13.2206,0,0,1,1.3115,7.1553,22.5787,22.5787,0,0,1-1.0976,5.2275,15.9811,15.9811,0,0,0-.9034,6.6929,11.3734,11.3734,0,0,0,1.087,4.2388,8.7725,8.7725,0,0,1,.915,3.7885c.1,3.6123-1.3916,5.8487-2.97,8.2163a21.1237,21.1237,0,0,0-3.0508,5.9405c-.9893,3.3164-.4443,5.354.459,8.73a63.5379,63.5379,0,0,1,1.5556,7.05c.5332,3.41,1.9629,15.4521-2.0205,27.2373a30.3468,30.3468,0,0,1-4.8134,9.1054,59.7321,59.7321,0,0,0-7.2,12.9317c-3.2549,7.5976-4.8877,11.41-4.96,16.81a25.4622,25.4622,0,0,0,1.5635,9.0762,23.5055,23.5055,0,0,1,1.4355,9.9522c-.4365,6.1855-2.7832,10.7636-5.0527,15.19a40.8473,40.8473,0,0,1-6.6484,9.59,24.2094,24.2094,0,0,0-5.3321,8.3653A48.7467,48.7467,0,0,0,354.5,368.0156c-.0576,1.7969-.01,3.3555.0313,4.7295a23.4794,23.4794,0,0,1-1.0586,9.417,14.9227,14.9227,0,0,1-2.3057,4.4541,8.8177,8.8177,0,0,0-1.6816,3.5049c-1.0137,4.0684.1826,7.7568,2.9863,15.7129a67.9273,67.9273,0,0,0,3.1455,7.6543A19.2643,19.2643,0,0,1,357.49,418.9a23.7493,23.7493,0,0,1,.4336,7.3057,17.6314,17.6314,0,0,0,.56,6.6669,37.2,37.2,0,0,0,2.9023,7.2959c1.1914,2.4122,1.9786,4.0059.9942,5.1563A2.8448,2.8448,0,0,1,360.1133,446.1484Z" transform="translate(-112.2009 -29.3947)"/><path d="M226.1512,33.3947A109.2934,109.2934,0,0,1,243,35c14.9466,2.2678,16.7547,5.793,32,7,4.5127.3573,8.2046.65,11.9.65A63.0709,63.0709,0,0,0,296,42c7.4562-1.0613,11.7169-2.8574,16.0386-2.8571A14.8059,14.8059,0,0,1,317,40c2.2678.7859,2.3858,1.3369,11,8,7.9919,6.1818,11.9879,9.2727,15,11,8.8881,5.0969,10.8134,2.4533,21,7,5.14,2.2942,13.6609,6.0974,20,15,2.0318,2.8535,8.741,12.2758,7,23-.943,5.8089-3.4716,6.4943-4,13-.2134,2.6278-.0243,5.2659,3,16,4.1721,14.8081,4.8405,13.4377,5,17,.4468,9.9776-5.2138,11.41-4,21,.8032,6.3453,3.4559,7.0955,3,13-.3829,4.96-2.4317,6.7225-2,12,.3614,4.418,1.9029,4.4755,2,8,.1647,5.9766-4.208,7.9888-6,14-1.5966,5.3559.7007,7.6961,2,16,.3285,2.0989,2.17,14.6628-2,27-3.0788,9.1091-6.0958,8.2163-12,22-3.2842,7.6673-4.9263,11.501-5,17-.1149,8.5814,3.6,10.4926,3,19-.4291,6.0854-2.7128,10.5393-5,15-5.1684,10.08-8.7533,9.6429-12,18a50.6779,50.6779,0,0,0-3,16c-.19,5.9138.7389,8.9131-1,14-1.5794,4.62-3.069,4.2621-4,8-1.07,4.2968.2719,8.2563,3,16,3.0579,8.68,4.0183,8.1558,5,13,1.414,6.9776-.6351,7.7859,1,14,1.7839,6.7794,5.4147,10.3468,4,12a2.4188,2.4188,0,0,1-1.8869.6489A9.277,9.277,0,0,1,357,445c-7.1753-2.7807-6.6509-12.9416-12-24-5.2669-10.8885-9.5435-8.8277-18-21-7.5936-10.93-10.1006-21.1642-13-33-4.1887-17.0991-1.9239-20.1648-5-38a200.2234,200.2234,0,0,0-13-43c-2.8384-6.654-10-20-27-43a195.4244,195.4244,0,0,0-14-17s-8.9952-7.263-13-15a67.9276,67.9276,0,0,0-5-6c-7.6238-8.76-11.4358-13.14-16-17-7.1243-6.0248-10.9464-9.2572-17-11-2.4864-.7158-4.8834-1.0463-8-3-4.609-2.8893-4.1959-5.1939-8-7a9.0813,9.0813,0,0,0-4.1061-.9346c-.9434,0-1.8173.1061-2.72.1061A7.6051,7.6051,0,0,1,177,165c-2.8869-1.7246-2.7466-3.468-6-5a12.8107,12.8107,0,0,0-5.0513-1.3411A5.2743,5.2743,0,0,0,164,159a4.6984,4.6984,0,0,1-1.7157.3773c-4.1021,0-2.9924-8.1281-4.2843-9.3773-1.2833-1.2408-2.4236-.2334-5-2-2.44-1.673-2.2033-3.1155-4-4a3.6922,3.6922,0,0,0-1.668-.3937c-1.896,0-3.7208,1.3458-6.332,1.3937-.048.0009-.095.0013-.1427.0013-4.1968,0-7.4018-3.3978-9.8573-6.0013-3.7178-3.9419-3.9287-6.5535-9-18-4.1167-9.2918-4.3349-8.3773-5-11-2.7384-10.799,2.3607-20.7884,3-22,4.5809-8.6811,10.5764-9.0028,36-23,9.4308-5.1922,7.3282-4.4445,26-15,22.7549-12.8637,26.043-14.0677,30-15a61.2346,61.2346,0,0,1,14.1512-1.6053m0-1a61.9289,61.9289,0,0,0-14.38,1.6319c-3.9966.9417-7.1581,2.0413-30.2628,15.1029-10.0432,5.6776-14.1434,8.1249-17.1372,9.9118-2.6154,1.561-4.5049,2.6889-8.853,5.0827-7.5706,4.168-13.3623,7.0944-18.0161,9.4458-10.9325,5.5238-15.0232,7.5907-18.386,13.9635-.9976,1.89-5.8344,11.87-3.0849,22.7125a12.1141,12.1141,0,0,0,1.2874,3.2141c.6441,1.2449,1.7222,3.3285,3.7676,7.9452,1.4766,3.3329,2.5426,5.9212,3.3992,8.0009,2.08,5.0506,3.0294,7.3557,5.7876,10.28,2.5136,2.6652,5.9562,6.3152,10.5848,6.3152l.1613-.0015a12.5643,12.5643,0,0,0,3.9359-.8347,7.85,7.85,0,0,1,2.3775-.5588,2.6829,2.6829,0,0,1,1.2263.2909,3.3465,3.3465,0,0,1,1.35,1.3351,8.9581,8.9581,0,0,0,2.5265,2.5924,7.7194,7.7194,0,0,0,3.5471,1.3845,2.0266,2.0266,0,0,1,1.3233.51,10.2065,10.2065,0,0,1,.4944,2.5332c.3646,2.8374.9157,7.1252,4.485,7.1252a5.7166,5.7166,0,0,0,2.0845-.4478,4.2856,4.2856,0,0,1,1.58-.2706,11.2077,11.2077,0,0,1,4.6252,1.2458,7.9228,7.9228,0,0,1,2.9827,2.38,11.0832,11.0832,0,0,0,2.93,2.5736,8.5313,8.5313,0,0,0,4.6869,1.313c.4758,0,.94-.0274,1.3888-.0539.4544-.0269.8837-.0522,1.3311-.0522a8.0407,8.0407,0,0,1,3.6772.838,8.7255,8.7255,0,0,1,3.3763,2.8521,16.6073,16.6073,0,0,0,4.5214,4.0918,21.6636,21.6636,0,0,0,6.7834,2.719c.4911.127.9794.2531,1.4711.3947,5.8479,1.6836,9.4516,4.7311,16.6309,10.8026,4.506,3.8106,8.311,8.1826,15.8915,16.8929,2.7675,3.18,4.5959,5.2808,4.8662,5.8031,3.9378,7.6078,12.381,14.602,13.2067,15.2753a198.0236,198.0236,0,0,1,13.8772,16.8595c17.7524,24.018,24.4638,37.1236,26.8844,42.798A199.9923,199.9923,0,0,1,308.0145,329.17a143.6866,143.6866,0,0,1,1.9544,17.37,100.8641,100.8641,0,0,0,3.06,20.6983c2.9247,11.939,5.4506,22.25,13.15,33.3326a49.0417,49.0417,0,0,0,9.8482,10.7309,26.2224,26.2224,0,0,1,8.0729,10.134,73.3608,73.3608,0,0,1,4.0778,11.1725c1.911,6.353,3.42,11.3711,8.461,13.3245a10.3539,10.3539,0,0,0,3.4745.7164,3.31,3.31,0,0,0,2.6467-.9987c1.1989-1.401.3078-3.2052-.9257-5.7023a36.7036,36.7036,0,0,1-2.867-7.2023,16.99,16.99,0,0,1-.5443-6.5047,24.2093,24.2093,0,0,0-.4428-7.4394,19.6821,19.6821,0,0,0-1.9119-5.53,67.4767,67.4767,0,0,1-3.125-7.6039c-2.7684-7.8583-3.9511-11.4981-2.9728-15.426a8.291,8.291,0,0,1,1.603-3.3333,15.37,15.37,0,0,0,2.3729-4.5849,24.2189,24.2189,0,0,0,1.0851-9.5932c-.0438-1.4339-.089-2.9168-.0318-4.6983a48.2065,48.2065,0,0,1,2.9326-15.67,23.7844,23.7844,0,0,1,5.24-8.2148,41.2725,41.2725,0,0,0,6.7182-9.691c2.2931-4.4722,4.6642-9.0966,5.1077-15.386a23.9315,23.9315,0,0,0-1.4575-10.14,25.03,25.03,0,0,1-1.54-8.9164c.071-5.3009,1.6913-9.0836,4.9193-16.62a59.3693,59.3693,0,0,1,7.1477-12.8374,30.7756,30.7756,0,0,0,4.8805-9.2361c4.0212-11.8973,2.5785-24.0374,2.0406-27.4748a64.0493,64.0493,0,0,0-1.5665-7.103c-.88-3.29-1.4114-5.2761-.4632-8.4567a20.7454,20.7454,0,0,1,2.9878-5.8056c1.6237-2.4358,3.1574-4.7366,3.0535-8.5076a9.3058,9.3058,0,0,0-.9571-3.9761,10.95,10.95,0,0,1-1.0458-4.0779,15.3605,15.3605,0,0,1,.8832-6.507,22.9825,22.9825,0,0,0,1.1171-5.3345,13.7967,13.7967,0,0,0-1.3484-7.3876,19.85,19.85,0,0,1-1.6565-5.815c-.5906-4.6663.5445-7.2973,1.7462-10.0829a22.0505,22.0505,0,0,0,2.2607-10.8362,12.0126,12.0126,0,0,0-1.0242-4.4963c-.713-1.9657-1.9064-5.2558-4.0123-12.73-3.06-10.86-3.1608-13.2465-2.9658-15.6479a16.8,16.8,0,0,1,1.957-6.8418,19.9156,19.9156,0,0,0,2.0333-6.0788c1.199-7.3853-1.2142-15.3727-7.1725-23.74-6.4971-9.1246-15.2044-13.011-20.4068-15.3331a41.9624,41.9624,0,0,0-10.6421-3.2563,27.72,27.72,0,0,1-10.2682-3.6981c-2.9522-1.6929-6.94-4.7776-14.8848-10.9229-2.6561-2.0545-4.5044-3.528-5.854-4.6039-3.0644-2.4429-3.7021-2.9513-5.4311-3.55a15.9116,15.9116,0,0,0-5.2888-.9123,35.3958,35.3958,0,0,0-7.8648,1.2395c-2.35.5425-5.0126,1.1575-8.3148,1.6276a62.056,62.056,0,0,1-8.9588.64c-3.6551,0-7.2569-.2851-11.817-.6461A66.8375,66.8375,0,0,1,257.96,37.5587a87.4305,87.4305,0,0,0-14.81-3.5474,109.9917,109.9917,0,0,0-16.9988-1.6166Z" transform="translate(-112.2009 -29.3947)"/><path class="cls-3" d="M154,118s-8-4-10-11,3-12-1-20-12.1618-6.5834-15-5c-3.4942,1.9494-11,11-11,11" transform="translate(-112.2009 -29.3947)"/></g><g id="crust_sadow"><path class="cls-2" d="M360.1133,446.1484a9.7218,9.7218,0,0,1-3.294-.6826c-4.8125-1.8642-6.291-6.7793-8.1621-13.001a73.78,73.78,0,0,0-4.1074-11.247,26.6357,26.6357,0,0,0-8.2-10.2989,48.5834,48.5834,0,0,1-9.76-10.6337c-7.6474-11.0069-10.163-21.2754-13.0752-33.1661a100.4532,100.4532,0,0,1-3.0468-20.6113,145.8655,145.8655,0,0,0-1.961-17.4228A200.465,200.465,0,0,0,295.54,286.1963c-2.43-5.6953-9.1611-18.8428-26.9419-42.8994a196.8136,196.8136,0,0,0-13.96-16.9517c-.3228-.2554-9.0752-7.3745-13.082-15.1152a72.6215,72.6215,0,0,0-4.9161-5.8819c-7.6172-8.7524-11.4292-13.1323-15.9629-16.9663-7.0073-5.9257-10.8657-9.1884-16.8154-10.9013-.4961-.1426-.9888-.27-1.4839-.398a21.2631,21.2631,0,0,1-6.6435-2.6587,16.1747,16.1747,0,0,1-4.3994-3.9843,9.2446,9.2446,0,0,0-3.5494-2.9878,8.5151,8.5151,0,0,0-3.892-.8863c-.4668,0-.9161.0269-1.36.0528-.4541.0268-.9028.0532-1.3589.0532a8.063,8.063,0,0,1-4.4306-1.2422,10.5326,10.5326,0,0,1-2.8086-2.4707,8.4476,8.4476,0,0,0-3.148-2.5064,11.7007,11.7007,0,0,0-4.8389-1.2929,4.7706,4.7706,0,0,0-1.7636.3056,5.2316,5.2316,0,0,1-1.9.4126c-3.1294,0-3.626-3.8662-3.9888-6.6889a7.5924,7.5924,0,0,0-.6431-2.8291,2.5028,2.5028,0,0,0-1.5922-.6441,7.1837,7.1837,0,0,1-3.3428-1.3032,8.5183,8.5183,0,0,1-2.398-2.4639,3.7762,3.7762,0,0,0-1.54-1.5,3.2075,3.2075,0,0,0-1.4468-.3423,8.1714,8.1714,0,0,0-2.5376.585,12.1627,12.1627,0,0,1-3.7856.8086l-.1519.0015c-4.4136,0-7.77-3.56-10.2212-6.1582-2.6948-2.8575-3.5713-4.9859-5.6894-10.1285-.8574-2.0825-1.9248-4.6738-3.4038-8.0122-2.0518-4.6308-3.1343-6.7226-3.7808-7.9726a11.6067,11.6067,0,0,1-1.2471-3.107c-2.7041-10.6645,2.06-20.4941,3.0425-22.3564,3.2891-6.2319,7.3408-8.2793,18.17-13.751,4.6573-2.353,10.4537-5.2817,18.0313-9.4536,4.3555-2.3979,6.248-3.5273,8.8672-5.0908,2.9917-1.7857,7.0888-4.2315,17.1279-9.9063C204.8,36.5361,207.9351,35.4438,211.8853,34.5132a61.4463,61.4463,0,0,1,14.2656-1.6187,109.6373,109.6373,0,0,1,16.9243,1.6109,87.0209,87.0209,0,0,1,14.7344,3.53,67.2407,67.2407,0,0,0,17.23,3.4659c4.5732.3623,8.1845.6484,11.86.6484a62.5346,62.5346,0,0,0,9.03-.645c3.3232-.4732,5.9971-1.09,8.3564-1.6353a34.5234,34.5234,0,0,1,7.753-1.2265,15.2149,15.2149,0,0,1,5.125.8842c1.6474.5718,2.2031,1.0142,5.2832,3.47,1.3515,1.0776,3.2,2.5512,5.8584,4.6074,7.9638,6.16,11.9609,9.251,14.9433,10.9619a28.1325,28.1325,0,0,0,10.4239,3.7554,41.5356,41.5356,0,0,1,10.5312,3.2217c5.1563,2.3012,13.7852,6.1528,20.2031,15.1665,5.88,8.2558,8.2637,16.1186,7.086,23.37a19.4909,19.4909,0,0,1-1.99,5.9419,17.2223,17.2223,0,0,0-2.0049,7.0185c-.1992,2.4546-.1,4.8824,2.9834,15.8238,2.11,7.4926,3.3077,10.7934,4.0235,12.7656a11.6416,11.6416,0,0,1,.9951,4.3476,21.3518,21.3518,0,0,1-2.2207,10.6163c-1.2295,2.85-2.3906,5.5415-1.7832,10.3432a20.5483,20.5483,0,0,0,1.6914,5.9463,13.2206,13.2206,0,0,1,1.3115,7.1553,22.5787,22.5787,0,0,1-1.0976,5.2275,15.9811,15.9811,0,0,0-.9034,6.6929,11.3734,11.3734,0,0,0,1.087,4.2388,8.7725,8.7725,0,0,1,.915,3.7885c.1,3.6123-1.3916,5.8487-2.97,8.2163a21.1237,21.1237,0,0,0-3.0508,5.9405c-.9893,3.3164-.4443,5.354.459,8.73a63.5379,63.5379,0,0,1,1.5556,7.05c.5332,3.41,1.9629,15.4521-2.0205,27.2373a30.3468,30.3468,0,0,1-4.8134,9.1054,59.7321,59.7321,0,0,0-7.2,12.9317c-3.2549,7.5976-4.8877,11.41-4.96,16.81a25.4622,25.4622,0,0,0,1.5635,9.0762,23.5055,23.5055,0,0,1,1.4355,9.9522c-.4365,6.1855-2.7832,10.7636-5.0527,15.19a40.8473,40.8473,0,0,1-6.6484,9.59,24.2094,24.2094,0,0,0-5.3321,8.3653A48.7467,48.7467,0,0,0,354.5,368.0156c-.0576,1.7969-.01,3.3555.0313,4.7295a23.4794,23.4794,0,0,1-1.0586,9.417,14.9227,14.9227,0,0,1-2.3057,4.4541,8.8177,8.8177,0,0,0-1.6816,3.5049c-1.0137,4.0684.1826,7.7568,2.9863,15.7129a67.9273,67.9273,0,0,0,3.1455,7.6543A19.2643,19.2643,0,0,1,357.49,418.9a23.7493,23.7493,0,0,1,.4336,7.3057,17.6314,17.6314,0,0,0,.56,6.6669,37.2,37.2,0,0,0,2.9023,7.2959c1.1914,2.4122,1.9786,4.0059.9942,5.1563A2.8448,2.8448,0,0,1,360.1133,446.1484Z" transform="translate(-112.2009 -29.3947)"/><path d="M226.1512,33.3947A109.2934,109.2934,0,0,1,243,35c14.9466,2.2678,16.7547,5.793,32,7,4.5127.3573,8.2046.65,11.9.65A63.0709,63.0709,0,0,0,296,42c7.4562-1.0613,11.7169-2.8574,16.0386-2.8571A14.8059,14.8059,0,0,1,317,40c2.2678.7859,2.3858,1.3369,11,8,7.9919,6.1818,11.9879,9.2727,15,11,8.8881,5.0969,10.8134,2.4533,21,7,5.14,2.2942,13.6609,6.0974,20,15,2.0318,2.8535,8.741,12.2758,7,23-.943,5.8089-3.4716,6.4943-4,13-.2134,2.6278-.0243,5.2659,3,16,4.1721,14.8081,4.8405,13.4377,5,17,.4468,9.9776-5.2138,11.41-4,21,.8032,6.3453,3.4559,7.0955,3,13-.3829,4.96-2.4317,6.7225-2,12,.3614,4.418,1.9029,4.4755,2,8,.1647,5.9766-4.208,7.9888-6,14-1.5966,5.3559.7007,7.6961,2,16,.3285,2.0989,2.17,14.6628-2,27-3.0788,9.1091-6.0958,8.2163-12,22-3.2842,7.6673-4.9263,11.501-5,17-.1149,8.5814,3.6,10.4926,3,19-.4291,6.0854-2.7128,10.5393-5,15-5.1684,10.08-8.7533,9.6429-12,18a50.6779,50.6779,0,0,0-3,16c-.19,5.9138.7389,8.9131-1,14-1.5794,4.62-3.069,4.2621-4,8-1.07,4.2968.2719,8.2563,3,16,3.0579,8.68,4.0183,8.1558,5,13,1.414,6.9776-.6351,7.7859,1,14,1.7839,6.7794,5.4147,10.3468,4,12a2.4188,2.4188,0,0,1-1.8869.6489A9.277,9.277,0,0,1,357,445c-7.1753-2.7807-6.6509-12.9416-12-24-5.2669-10.8885-9.5435-8.8277-18-21-7.5936-10.93-10.1006-21.1642-13-33-4.1887-17.0991-1.9239-20.1648-5-38a200.2234,200.2234,0,0,0-13-43c-2.8384-6.654-10-20-27-43a195.4244,195.4244,0,0,0-14-17s-8.9952-7.263-13-15a67.9276,67.9276,0,0,0-5-6c-7.6238-8.76-11.4358-13.14-16-17-7.1243-6.0248-10.9464-9.2572-17-11-2.4864-.7158-4.8834-1.0463-8-3-4.609-2.8893-4.1959-5.1939-8-7a9.0813,9.0813,0,0,0-4.1061-.9346c-.9434,0-1.8173.1061-2.72.1061A7.6051,7.6051,0,0,1,177,165c-2.8869-1.7246-2.7466-3.468-6-5a12.8107,12.8107,0,0,0-5.0513-1.3411A5.2743,5.2743,0,0,0,164,159a4.6984,4.6984,0,0,1-1.7157.3773c-4.1021,0-2.9924-8.1281-4.2843-9.3773-1.2833-1.2408-2.4236-.2334-5-2-2.44-1.673-2.2033-3.1155-4-4a3.6922,3.6922,0,0,0-1.668-.3937c-1.896,0-3.7208,1.3458-6.332,1.3937-.048.0009-.095.0013-.1427.0013-4.1968,0-7.4018-3.3978-9.8573-6.0013-3.7178-3.9419-3.9287-6.5535-9-18-4.1167-9.2918-4.3349-8.3773-5-11-2.7384-10.799,2.3607-20.7884,3-22,4.5809-8.6811,10.5764-9.0028,36-23,9.4308-5.1922,7.3282-4.4445,26-15,22.7549-12.8637,26.043-14.0677,30-15a61.2346,61.2346,0,0,1,14.1512-1.6053m0-1a61.9289,61.9289,0,0,0-14.38,1.6319c-3.9966.9417-7.1581,2.0413-30.2628,15.1029-10.0432,5.6776-14.1434,8.1249-17.1372,9.9118-2.6154,1.561-4.5049,2.6889-8.853,5.0827-7.5706,4.168-13.3623,7.0944-18.0161,9.4458-10.9325,5.5238-15.0232,7.5907-18.386,13.9635-.9976,1.89-5.8344,11.87-3.0849,22.7125a12.1141,12.1141,0,0,0,1.2874,3.2141c.6441,1.2449,1.7222,3.3285,3.7676,7.9452,1.4766,3.3329,2.5426,5.9212,3.3992,8.0009,2.08,5.0506,3.0294,7.3557,5.7876,10.28,2.5136,2.6652,5.9562,6.3152,10.5848,6.3152l.1613-.0015a12.5643,12.5643,0,0,0,3.9359-.8347,7.85,7.85,0,0,1,2.3775-.5588,2.6829,2.6829,0,0,1,1.2263.2909,3.3465,3.3465,0,0,1,1.35,1.3351,8.9581,8.9581,0,0,0,2.5265,2.5924,7.7194,7.7194,0,0,0,3.5471,1.3845,2.0266,2.0266,0,0,1,1.3233.51,10.2065,10.2065,0,0,1,.4944,2.5332c.3646,2.8374.9157,7.1252,4.485,7.1252a5.7166,5.7166,0,0,0,2.0845-.4478,4.2856,4.2856,0,0,1,1.58-.2706,11.2077,11.2077,0,0,1,4.6252,1.2458,7.9228,7.9228,0,0,1,2.9827,2.38,11.0832,11.0832,0,0,0,2.93,2.5736,8.5313,8.5313,0,0,0,4.6869,1.313c.4758,0,.94-.0274,1.3888-.0539.4544-.0269.8837-.0522,1.3311-.0522a8.0407,8.0407,0,0,1,3.6772.838,8.7255,8.7255,0,0,1,3.3763,2.8521,16.6073,16.6073,0,0,0,4.5214,4.0918,21.6636,21.6636,0,0,0,6.7834,2.719c.4911.127.9794.2531,1.4711.3947,5.8479,1.6836,9.4516,4.7311,16.6309,10.8026,4.506,3.8106,8.311,8.1826,15.8915,16.8929,2.7675,3.18,4.5959,5.2808,4.8662,5.8031,3.9378,7.6078,12.381,14.602,13.2067,15.2753a198.0236,198.0236,0,0,1,13.8772,16.8595c17.7524,24.018,24.4638,37.1236,26.8844,42.798A199.9923,199.9923,0,0,1,308.0145,329.17a143.6866,143.6866,0,0,1,1.9544,17.37,100.8641,100.8641,0,0,0,3.06,20.6983c2.9247,11.939,5.4506,22.25,13.15,33.3326a49.0417,49.0417,0,0,0,9.8482,10.7309,26.2224,26.2224,0,0,1,8.0729,10.134,73.3608,73.3608,0,0,1,4.0778,11.1725c1.911,6.353,3.42,11.3711,8.461,13.3245a10.3539,10.3539,0,0,0,3.4745.7164,3.31,3.31,0,0,0,2.6467-.9987c1.1989-1.401.3078-3.2052-.9257-5.7023a36.7036,36.7036,0,0,1-2.867-7.2023,16.99,16.99,0,0,1-.5443-6.5047,24.2093,24.2093,0,0,0-.4428-7.4394,19.6821,19.6821,0,0,0-1.9119-5.53,67.4767,67.4767,0,0,1-3.125-7.6039c-2.7684-7.8583-3.9511-11.4981-2.9728-15.426a8.291,8.291,0,0,1,1.603-3.3333,15.37,15.37,0,0,0,2.3729-4.5849,24.2189,24.2189,0,0,0,1.0851-9.5932c-.0438-1.4339-.089-2.9168-.0318-4.6983a48.2065,48.2065,0,0,1,2.9326-15.67,23.7844,23.7844,0,0,1,5.24-8.2148,41.2725,41.2725,0,0,0,6.7182-9.691c2.2931-4.4722,4.6642-9.0966,5.1077-15.386a23.9315,23.9315,0,0,0-1.4575-10.14,25.03,25.03,0,0,1-1.54-8.9164c.071-5.3009,1.6913-9.0836,4.9193-16.62a59.3693,59.3693,0,0,1,7.1477-12.8374,30.7756,30.7756,0,0,0,4.8805-9.2361c4.0212-11.8973,2.5785-24.0374,2.0406-27.4748a64.0493,64.0493,0,0,0-1.5665-7.103c-.88-3.29-1.4114-5.2761-.4632-8.4567a20.7454,20.7454,0,0,1,2.9878-5.8056c1.6237-2.4358,3.1574-4.7366,3.0535-8.5076a9.3058,9.3058,0,0,0-.9571-3.9761,10.95,10.95,0,0,1-1.0458-4.0779,15.3605,15.3605,0,0,1,.8832-6.507,22.9825,22.9825,0,0,0,1.1171-5.3345,13.7967,13.7967,0,0,0-1.3484-7.3876,19.85,19.85,0,0,1-1.6565-5.815c-.5906-4.6663.5445-7.2973,1.7462-10.0829a22.0505,22.0505,0,0,0,2.2607-10.8362,12.0126,12.0126,0,0,0-1.0242-4.4963c-.713-1.9657-1.9064-5.2558-4.0123-12.73-3.06-10.86-3.1608-13.2465-2.9658-15.6479a16.8,16.8,0,0,1,1.957-6.8418,19.9156,19.9156,0,0,0,2.0333-6.0788c1.199-7.3853-1.2142-15.3727-7.1725-23.74-6.4971-9.1246-15.2044-13.011-20.4068-15.3331a41.9624,41.9624,0,0,0-10.6421-3.2563,27.72,27.72,0,0,1-10.2682-3.6981c-2.9522-1.6929-6.94-4.7776-14.8848-10.9229-2.6561-2.0545-4.5044-3.528-5.854-4.6039-3.0644-2.4429-3.7021-2.9513-5.4311-3.55a15.9116,15.9116,0,0,0-5.2888-.9123,35.3958,35.3958,0,0,0-7.8648,1.2395c-2.35.5425-5.0126,1.1575-8.3148,1.6276a62.056,62.056,0,0,1-8.9588.64c-3.6551,0-7.2569-.2851-11.817-.6461A66.8375,66.8375,0,0,1,257.96,37.5587a87.4305,87.4305,0,0,0-14.81-3.5474,109.9917,109.9917,0,0,0-16.9988-1.6166Z" transform="translate(-112.2009 -29.3947)"/><path class="cls-4" d="M357.7549,445.7734c-.333-.0947-.6533-.1972-.9356-.3076-4.8125-1.8642-6.291-6.7793-8.1621-13.001a73.78,73.78,0,0,0-4.1074-11.247,26.6357,26.6357,0,0,0-8.2-10.2989,48.5834,48.5834,0,0,1-9.76-10.6337c-7.6474-11.0069-10.163-21.2754-13.0752-33.1661a100.4625,100.4625,0,0,1-3.0468-20.6113,145.8458,145.8458,0,0,0-1.961-17.4228A200.465,200.465,0,0,0,295.54,286.1963c-2.43-5.6953-9.1611-18.8418-26.9419-42.8994a196.8136,196.8136,0,0,0-13.96-16.9517c-.3228-.2554-9.0752-7.3745-13.082-15.1152a72.0518,72.0518,0,0,0-4.8926-5.855c-7.6411-8.78-11.4527-13.1592-15.9864-16.9932-7.0053-5.9248-10.8642-9.188-16.8154-10.9013-.4961-.1426-.9888-.27-1.4844-.3985a21.2461,21.2461,0,0,1-6.643-2.6582,16.1747,16.1747,0,0,1-4.3994-3.9843,9.2446,9.2446,0,0,0-3.5494-2.9878,8.5151,8.5151,0,0,0-3.892-.8863c-.4668,0-.9161.0269-1.36.0528-.4541.0268-.9028.0532-1.3589.0532a8.062,8.062,0,0,1-4.4306-1.2422,10.5326,10.5326,0,0,1-2.8086-2.4707,8.4476,8.4476,0,0,0-3.148-2.5064,11.7007,11.7007,0,0,0-4.8389-1.2929,4.7706,4.7706,0,0,0-1.7636.3056,5.2316,5.2316,0,0,1-1.9.4126c-3.1294,0-3.626-3.8662-3.9888-6.6889a7.5924,7.5924,0,0,0-.6431-2.8291,2.5028,2.5028,0,0,0-1.5922-.6441,7.1837,7.1837,0,0,1-3.3428-1.3032,8.5251,8.5251,0,0,1-2.398-2.4639,3.7762,3.7762,0,0,0-1.54-1.5,3.208,3.208,0,0,0-1.4473-.3423,8.1717,8.1717,0,0,0-2.5371.585,12.1627,12.1627,0,0,1-3.7856.8086l-.1519.0015c-4.4136,0-7.77-3.56-10.2212-6.1582-2.6948-2.8575-3.5713-4.9859-5.6889-10.1275-.8575-2.0825-1.9253-4.6743-3.4043-8.0132-2.0518-4.6308-3.1343-6.7226-3.7808-7.9726a11.6232,11.6232,0,0,1-1.2471-3.107c-2.0019-7.895.1578-15.4072,1.6231-19.1831l.0317-.081.0572-.0659c2.4682-2.8384,6.9877-7.8116,9.5292-9.23a11.98,11.98,0,0,1,5.5328-1.2915,10.9782,10.9782,0,0,1,10.1582,6.5044c2.331,4.6616,1.7021,8.334,1.0942,11.8857-.4634,2.7056-.9,5.2608-.0605,8.2007,1.9169,6.71,9.6645,10.6509,9.7426,10.69,13.6182,7.044,37.563,24.3555,55.0469,36.9961l3.5225,2.5459c18.3994,13.2886,44.5571,38.64,65.09,63.0835,19.7637,23.5288,44.8467,58.104,52.1045,89.2085,2.3213,9.9473,2.6846,25.1963,3.0693,41.34.3125,13.1084.6348,26.663,1.94,39.7236.45,4.5029,4.06,10.2275,7.8838,16.2871,4.7627,7.5518,10.1611,16.11,11.1162,24.707a44.4263,44.4263,0,0,0,4.3476,13.6348l.4737.999Z" transform="translate(-112.2009 -29.3947)"/><path d="M133.2889,80.7718A10.438,10.438,0,0,1,143,87c4,8-1,13,1,20s10,11,10,11c14.5,7.5,40.5,26.5,58.5,39.5s44,38,65,63,45,59,52,89c4.1183,17.65,2.0222,51.22,5,81,1.0238,10.2388,17.282,25.54,19,41a45.2821,45.2821,0,0,0,4.3921,13.7924c-.3168-.0908-.6227-.1883-.8921-.2927-7.1752-2.7807-6.6509-12.9416-12-24-5.2669-10.8885-9.5435-8.8278-18-21-7.5936-10.93-10.1006-21.1642-13-33-4.1887-17.0991-1.9239-20.1649-5-38a200.2217,200.2217,0,0,0-13-43c-2.8384-6.6541-10-20-27-43a195.4244,195.4244,0,0,0-14-17s-8.9952-7.263-13-15a67.9067,67.9067,0,0,0-5-6c-7.6238-8.76-11.4357-13.14-16-17-7.1243-6.0248-10.9464-9.2571-17-11-2.4864-.7159-4.8834-1.0463-8-3-4.609-2.8892-4.1959-5.1939-8-7a9.08,9.08,0,0,0-4.1061-.9346c-.9434,0-1.8173.1061-2.72.1061A7.6054,7.6054,0,0,1,177,165c-2.8868-1.7247-2.7466-3.468-6-5a12.8108,12.8108,0,0,0-5.0514-1.3411A5.2738,5.2738,0,0,0,164,159a4.6984,4.6984,0,0,1-1.7157.3773c-4.1021,0-2.9924-8.1281-4.2843-9.3773-1.2833-1.2409-2.4235-.2335-5-2-2.44-1.673-2.2033-3.1155-4-4a3.6924,3.6924,0,0,0-1.668-.3938c-1.896,0-3.7208,1.3459-6.332,1.3938-.0479.0009-.095.0013-.1427.0013-4.1968,0-7.4018-3.3977-9.8573-6.0013-3.7178-3.9419-3.9287-6.5535-9-18-4.1166-9.2918-4.3349-8.3773-5-11-1.9394-7.6482.05-14.8734,1.6044-18.8787C121.0024,88.3633,125.5121,83.388,128,82a11.47,11.47,0,0,1,5.2889-1.2282m0-1a12.5071,12.5071,0,0,0-5.7761,1.3549c-2.4774,1.3821-6.6222,5.8411-9.6631,9.3384l-.1144.1317-.0632.1627c-1.4869,3.8312-3.6774,11.4573-1.6414,19.4863a12.1115,12.1115,0,0,0,1.2874,3.214c.6441,1.2449,1.7222,3.3284,3.7676,7.9452,1.4766,3.3329,2.5426,5.9212,3.3991,8.0009,2.08,5.0506,3.0295,7.3558,5.7877,10.28,2.5135,2.6651,5.9559,6.3152,10.5848,6.3152l.1615-.0015a12.5643,12.5643,0,0,0,3.9357-.8347,7.8476,7.8476,0,0,1,2.3775-.5589,2.6842,2.6842,0,0,1,1.2263.2909,3.348,3.348,0,0,1,1.35,1.3352,8.9567,8.9567,0,0,0,2.5265,2.5924,7.7194,7.7194,0,0,0,3.5471,1.3845,2.027,2.027,0,0,1,1.3233.51,10.2055,10.2055,0,0,1,.4944,2.5332c.3646,2.8373.9157,7.1252,4.485,7.1252a5.7166,5.7166,0,0,0,2.0845-.4478,4.2847,4.2847,0,0,1,1.58-.2706,11.2123,11.2123,0,0,1,4.6254,1.2458,7.9226,7.9226,0,0,1,2.9827,2.38,11.0791,11.0791,0,0,0,2.93,2.5735,8.5305,8.5305,0,0,0,4.687,1.3131c.4758,0,.94-.0274,1.3886-.054.4545-.0268.8838-.0522,1.3312-.0522a8.0428,8.0428,0,0,1,3.6772.838,8.7257,8.7257,0,0,1,3.3763,2.8522,16.6089,16.6089,0,0,0,4.5214,4.0918,21.6611,21.6611,0,0,0,6.7833,2.7189c.4912.127.9794.2531,1.4712.3947,5.8479,1.6837,9.4516,4.7312,16.6309,10.8026,4.5059,3.8105,8.3107,8.1824,15.891,16.8925,2.7684,3.1809,4.5964,5.2814,4.8667,5.8036,3.9377,7.6073,12.38,14.6012,13.2067,15.2752a198.0566,198.0566,0,0,1,13.8772,16.86c17.7526,24.0182,24.4639,37.1237,26.8844,42.7979A199.9956,199.9956,0,0,1,308.0145,329.17a143.7114,143.7114,0,0,1,1.9544,17.37,100.8639,100.8639,0,0,0,3.06,20.6984c2.9248,11.9393,5.4506,22.25,13.15,33.3326a49.0382,49.0382,0,0,0,9.8482,10.7308A26.2228,26.2228,0,0,1,344.1,421.4354a73.357,73.357,0,0,1,4.0778,11.1725c1.911,6.353,3.42,11.371,8.461,13.3245.2754.1067.5953.2119.978.3216l2.1267.6095-.9475-1.9991a43.9689,43.9689,0,0,1-4.3019-13.4746c-.9681-8.7116-6.3989-17.3219-11.19-24.9187-3.79-6.0089-7.37-11.6845-7.8084-16.0706-1.3041-13.0418-1.6269-26.5872-1.939-39.6867-.3853-16.17-.7493-31.4429-3.0822-41.4411-7.28-31.2-32.4093-65.8458-52.2081-89.4159-20.5565-24.472-46.75-49.8571-65.18-63.1675l-3.5222-2.5456c-17.4966-12.65-41.459-29.9742-55.1039-37.0319-.0876-.0441-7.6456-3.9035-9.4979-10.3865-.8086-2.83-.3805-5.3311.0728-7.9789.6215-3.6309,1.2642-7.3854-1.14-12.1936a11.4587,11.4587,0,0,0-10.6055-6.781Z" transform="translate(-112.2009 -29.3947)"/></g><g id="cheese"><path class="cls-5" d="M359.4248,483.3965c-1.8877,0-3.9248-2.0635-3.9248-5.3965,0-2.0283.165-4.9072.3564-8.24.2872-4.9922.6436-11.2041.6436-17.76,0-8.6758-3.1621-17.4072-5.9512-25.11-.7256-2.0039-1.4111-3.8955-2.0234-5.7314-1.8027-5.4082-4.6768-8.5752-8.3164-12.585a89.4512,89.4512,0,0,1-7.6182-9.2861c-5.91-8.4433-7.5957-16.23-9.7295-26.0879-.42-1.9365-.8574-3.958-1.3486-6.0869-1.4981-6.4912-1.7559-12.6934-2.0059-18.6914-.2529-6.0674-.4912-11.7979-1.9892-17.2891-1.0645-3.9023-2.1485-6.8476-3.1055-9.4472a54.7048,54.7048,0,0,1-3.91-16.6426c-1.587-19.0361-3.8692-28.6885-6.7852-28.6885a1.4342,1.4342,0,0,0-.5313.11c-3.04,1.2168-2.7783,8.0127-2.5683,13.4736a36.2627,36.2627,0,0,1-.127,7.16c-.5429,2.7177-2.1093,3.9336-3.4209,3.9336a2.2087,2.2087,0,0,1-1.6982-.8145c-.8975-1.0352-1.2051-2.9131-.8662-5.2871.9873-6.9111,2.9658-23.9375.02-32.7715a29.0406,29.0406,0,0,0-5.5527-9.9072,29.2055,29.2055,0,0,1-4.4327-7.0537c-1.0175-2.375-1.47-5.6114-1.9482-9.0381-.95-6.794-2.0264-14.4951-7.835-17.7222a13.4854,13.4854,0,0,0-6.6338-1.63c-7.8584,0-15.82,5.42-18.6889,10.4409C245.498,234.1357,241.5,256.1826,241.5,267c0,5.1709,1.1123,13.6807,2.188,21.91,1.2056,9.2246,2.3442,17.9365,1.8052,21.1718-.5269,3.16-2.55,4.6-4.2071,4.6a3.2513,3.2513,0,0,1-2.4272-1.1406c-1.1983-1.3389-1.68-3.6816-1.356-6.5967.9947-8.9511.0044-28.8193-1.0019-43.9111-.7222-10.8359,1.1684-20.2139,2.9966-29.2822.7109-3.5254,1.4458-7.1724,2.0083-10.8272,2.0507-13.33-1.292-26.8042-3.9849-35.78-3.1309-10.4356-8.2813-17.0166-17.7783-22.7149a11.1274,11.1274,0,0,0-5.6519-1.8716c-2.3022,0-4.0088,1.1294-5.66,2.2212-1.5479,1.0239-3.01,1.9907-4.8428,1.9907a5.5221,5.5221,0,0,1-1.7466-.2949c-6.0278-2.0093-5.4277-6.0981-4.5195-12.2871l.1826-1.2578c.5293-3.7051-2.7315-4.957-6.86-6.5425-3.0176-1.1587-6.4375-2.4721-8.9985-5.0332a8.5768,8.5768,0,0,0-6.1035-2.7065c-4.6358,0-8.4405,3.9565-9.0459,9.4082l-.3057,2.7314C165.12,160.3408,163.5,174.7788,163.5,182c0,3.8911-1.5962,5.2773-3.09,5.2773a3.3481,3.3481,0,0,1-2.4727-1.2885,7.5834,7.5834,0,0,1-1.4326-6.06c.3174-2.2192.83-5.1123,1.4233-8.4624,1.2881-7.272,2.8911-16.3223,3.5738-24.5083,1.1152-13.3862.8232-21.4014-.9761-26.8-.7881-2.3643-1.9878-2.6675-2.9453-2.6675a10.53,10.53,0,0,0-2.7862.5679,10.7046,10.7046,0,0,1-2.874.5786,3.3545,3.3545,0,0,1-1.0786-.1631,3.9082,3.9082,0,0,1-2.9731-3.1494c-.06-.8359.2392-2.4375,2.9077-3.772,2.1875-1.0937,2.3759-2.435,2.6152-4.1338a8.2616,8.2616,0,0,1,1.1924-3.6962,2.703,2.703,0,0,1,2.3423-1.4117,6.7359,6.7359,0,0,1,1.3178.1778,7.68,7.68,0,0,0,1.544.2A4.7333,4.7333,0,0,0,162.7,101.6c.9419-.7065,1.9956-1.5249,3.1079-2.3882,3.688-2.8638,7.8687-6.1094,10.9683-7.6592,3.5674-1.7837,13.603-5.21,17.9555-5.21a4.5581,4.5581,0,0,1,1.4263.1836,8.9783,8.9783,0,0,0,2.749.4023c1.3067,0,5.72-.3,7.6455-4.1518,2.583-5.166,13.7676-9.1734,21.6661-9.1734a17.08,17.08,0,0,1,5.957.9287,12.2417,12.2417,0,0,0,4.2388.8741c4.559,0,6.7924-3.7222,9.1567-7.6631,1.8291-3.0484,3.9917-4.53,6.6118-4.53,2.271,0,4.9229,1.1055,8.1074,3.38C269.7393,71.9136,276.5137,74.5,283,74.5c1.4912,0,3.2314-.14,5.0723-.2871,2.1582-.1729,4.3906-.3521,6.6357-.3521,3.9649,0,9.5947.503,12.6992,4.8487,3.5576,4.9809,9.6241,10.9184,18.32,10.9179a20.15,20.15,0,0,0,2.2168-.1245,12.6619,12.6619,0,0,0,7.8448-3.7934c1.9267-1.7007,3.7461-3.3072,7.5459-3.3072a15.767,15.767,0,0,1,1.7207.1006c4.9521.55,8.9951,4.01,12.5625,7.0635C360.7119,92.2139,363.3838,94.5,366,94.5a2.7413,2.7413,0,0,0,2.0322-.6372c.7461-.7549.73-2.2129.7129-3.6231-.0234-1.9589-.0488-4.1792,2.1338-4.7246a3.4682,3.4682,0,0,1,.8418-.1113c2.23,0,2.8369,2.4473,3.54,5.2813a21.8586,21.8586,0,0,0,2.168,6.0576c1.1309,1.8852,3.6309,2.7392,6.0488,3.5654,3.5909,1.2271,7.6612,2.6172,7.0186,7.7539-.9883,7.9072.0068,11.8872,1.9893,19.8169a56.5725,56.5725,0,0,0,2.705,7.9351,41.0884,41.0884,0,0,1,3.3067,12.1308c.6455,5.8086-.3535,9.5865-1.4121,13.586a54.42,54.42,0,0,0-1.5889,7.5312,14.7637,14.7637,0,0,0,1.623,8.8482c.9629,2.1528,1.8721,4.186,1.3741,7.1718-.9873,5.9243-.9883,8.8946-.003,13.82,1.0537,5.27-1.1152,9.4453-4.0615,14.3554-2.9,4.834-1.9473,9.6-.9385,14.645,1.1172,5.585,1.9073,22.4707-3.0195,36.2657-2.47,6.916-6.8984,13.1416-10.8057,18.6347-4.1162,5.7871-7.6718,10.7852-8.1679,15.253-.4795,4.3154.6816,8.3779,1.9111,12.68,1.2822,4.4853,2.6084,9.123,2.0889,14.3144-.7246,7.2539-6.6006,17.0469-11.3223,24.916-1.8477,3.08-3.5937,5.9893-4.7275,8.2578-2.417,4.834-2.9756,11.1475-3.5166,17.2539a71.9082,71.9082,0,0,1-1.4453,10.6436c-1.9854,7.9424-1.9854,11.8242.0029,20.77a92.9174,92.9174,0,0,0,3.45,11.0156c1.9472,5.4375,3.9609,11.06,4.5586,17.043a50.4767,50.4767,0,0,1-.3242,13.0723A64.8848,64.8848,0,0,0,361.5,457c0,3.877.3809,7.835.7178,11.3281.458,4.7569.8535,8.8643.2724,11.77C362.0771,482.1631,360.9316,483.3965,359.4248,483.3965Z" transform="translate(-112.2009 -29.3947)"/><path d="M254.1833,63.7127c2.1185,0,4.6636,1.0351,7.8167,3.2873,7,5,14,8,21,8,3.2308,0,7.5266-.6391,11.7078-.6391,4.8779,0,9.6.87,12.2922,4.6391,4.5712,6.4,10.8133,11.1274,18.7279,11.1274A20.5587,20.5587,0,0,0,328,90c8.4029-.9337,8.0885-7.0976,15.3347-7.0975A15.1,15.1,0,0,1,345,83c9,1,15,12,21,12s1-8,5-9a2.9685,2.9685,0,0,1,.7206-.0963c3.1657,0,2.475,6.4222,5.2794,11.0963,3,5,14,3,13,11s0,12,2,20,5,11,6,20-2,13-3,21,4,10,3,16-1,9,0,14-1,9-4,14-2,10-1,15,2,22-3,36-18,25-19,34,5,17,4,27-12,25-16,33-3,20-5,28-2,12,0,21,7,18,8,28-1,13-1,22,2,18,1,23c-.4037,2.0187-1.4592,2.8962-2.5747,2.8962-1.6474,0-3.4253-1.9149-3.4253-4.8962,0-5,1-15,1-26s-5-22-8-31-9-12-16-22-8-19-11-32-1-25-4-36-6-14-7-26c-.9508-11.41-2.8051-29.146-7.2831-29.146A1.9226,1.9226,0,0,0,303,276c-5,2-2,16-3,21-.4581,2.29-1.7552,3.5314-2.9308,3.5314-1.3907,0-2.6111-1.7379-2.0692-5.5314,1-7,3-24,0-33s-7-10-10-17-1-22-10-27a14.0119,14.0119,0,0,0-6.8767-1.6927c-7.7629,0-16.0684,5.3466-19.1233,10.6927-4,7-8,29-8,40s5,37,4,43c-.45,2.6971-2.1111,4.1816-3.7138,4.1816-1.9626,0-3.8367-2.2273-3.2862-7.1816,1-9,0-29-1-44s3-27,5-40-1-26-4-36-8-17-18-23a11.5361,11.5361,0,0,0-5.9093-1.9426c-4.615,0-6.9128,4.2118-10.5021,4.2118A4.988,4.988,0,0,1,202,166c-6-2-5-6-4-13s-10-6-16-12a9.0848,9.0848,0,0,0-6.4572-2.853c-4.569,0-8.8695,3.7935-9.5428,9.853-1,9-3,26-3,34,0,3.3574-1.2329,4.7774-2.59,4.7774-1.8764,0-3.99-2.7151-3.41-6.7774,1-7,4-21,5-33s1-21-1-27c-.7814-2.3441-2.02-3.0091-3.4193-3.0091-1.8364,0-3.9479,1.1463-5.6605,1.1463A2.8958,2.8958,0,0,1,151,118c-3-1-4-4,0-6s2-5,4-8a2.1861,2.1861,0,0,1,1.9263-1.189c.8291,0,1.7468.378,2.8617.378A5.1855,5.1855,0,0,0,163,102c4-3,10-8,14-10,3.5674-1.7837,13.4973-5.1582,17.7317-5.1579A4.15,4.15,0,0,1,196,87a9.3837,9.3837,0,0,0,2.9073.4283c2.9452,0,6.46-1.1627,8.0927-4.4283,2.3818-4.7637,12.9574-8.8967,21.2186-8.8967A16.6977,16.6977,0,0,1,234,75a12.6248,12.6248,0,0,0,4.4144.9057c4.8417,0,7.214-3.9531,9.5856-7.9057,1.6487-2.7478,3.5987-4.2875,6.1833-4.2873m0-1c-2.8106,0-5.1137,1.5609-7.0409,4.7728-2.29,3.8159-4.4521,7.42-8.7282,7.42a11.7582,11.7582,0,0,1-4.0632-.842,17.5707,17.5707,0,0,0-6.1325-.96c-8.2081,0-19.4089,4.0411-22.113,9.45-1.798,3.596-5.9643,3.8755-7.1983,3.8755a8.4586,8.4586,0,0,1-2.5911-.377,5.039,5.039,0,0,0-1.5845-.2091c-4.42,0-14.5749,3.4614-18.1789,5.2634-3.1439,1.5719-7.345,4.8336-11.0515,7.7113-1.11.8617-2.161,1.6779-3.1013,2.3831a4.16,4.16,0,0,1-2.612.989,7.2993,7.2993,0,0,1-1.4451-.19,7.2091,7.2091,0,0,0-1.4166-.1877,3.2006,3.2006,0,0,0-2.7584,1.6343,8.6717,8.6717,0,0,0-1.2715,3.904c-.2356,1.6741-.3912,2.78-2.3436,3.7563-2.9286,1.4642-3.2514,3.2941-3.1831,4.2545a4.3907,4.3907,0,0,0,3.3141,3.5886,3.9063,3.9063,0,0,0,1.2364.1885,11.0527,11.0527,0,0,0,3.016-.599,10.2024,10.2024,0,0,1,2.6445-.5473c.8384,0,1.7876.2763,2.4706,2.3253,1.777,5.3308,2.0617,13.2862.9521,26.6007-.68,8.1633-2.2812,17.201-3.5677,24.4629-.5942,3.3541-1.1074,6.2509-1.4256,8.4788a8.0738,8.0738,0,0,0,1.55,6.4575,3.8352,3.8352,0,0,0,2.85,1.4614c1.7356,0,3.59-1.5178,3.59-5.7775,0-7.1934,1.6178-21.6147,2.6883-31.1577l.3056-2.7319c.6538-5.8845,4.7955-8.9634,8.5489-8.9634a8.0879,8.0879,0,0,1,5.75,2.56c2.6363,2.6363,6.1089,3.97,9.1727,5.1463,4.4817,1.721,6.9954,2.8485,6.5445,6.0052l-.1827,1.2558c-.9108,6.2075-1.5689,10.6925,4.8564,12.8343a6.0263,6.0263,0,0,0,1.9048.3205c1.9828,0,3.5767-1.0543,5.1182-2.0739,1.5891-1.0511,3.2324-2.1379,5.3839-2.1379a10.6555,10.6555,0,0,1,5.3948,1.8c9.3789,5.6273,14.4654,12.1257,17.5567,22.43,2.6788,8.93,6.0048,22.3308,3.9694,35.5606-.56,3.6435-1.2944,7.2839-2.0042,10.8045-1.8348,9.1007-3.7321,18.5113-3.0052,29.4141,1.0047,15.071,1.9945,34.9078,1.0039,43.8231-.4355,3.92.5646,5.9617,1.48,6.9849a3.7439,3.7439,0,0,0,2.8,1.3071c2.2751,0,4.2078-2.0632,4.7-5.0172.5514-3.3084-.5921-12.0569-1.8027-21.319C243.11,280.6317,242,272.1383,242,267c0-10.7619,3.965-32.6731,7.8682-39.5038,2.8118-4.92,10.8181-10.1889,18.2551-10.1889a12.9939,12.9939,0,0,1,6.391,1.5669c5.5905,3.1057,6.6485,10.6755,7.582,17.3543.4837,3.4607.9406,6.7294,1.9845,9.1655a29.5884,29.5884,0,0,0,4.4994,7.1666,28.274,28.274,0,0,1,5.4711,9.7556c2.9111,8.7332.9409,25.6671-.0412,32.5424-.4615,3.23.28,4.875.9829,5.6856a2.7328,2.7328,0,0,0,2.0762.9872c1.5154,0,3.3125-1.3405,3.9114-4.3353a35.8141,35.8141,0,0,0,.1367-7.2781c-.1936-5.024-.4586-11.9045,2.2541-12.99a.94.94,0,0,1,.3455-.0746c.3564,0,2.2231.4574,3.9827,9.4858a188.614,188.614,0,0,1,2.3038,18.7434,55.1545,55.1545,0,0,0,3.9391,16.7747c.9535,2.5893,2.0342,5.524,3.0927,9.4053,1.4829,5.437,1.72,11.14,1.9719,17.1785.2508,6.021.51,12.247,2.0185,18.7832.49,2.1247.9256,4.1356,1.3466,6.08,2.1458,9.913,3.8407,17.7429,9.8086,26.2685a89.9848,89.9848,0,0,0,7.6576,9.3358c3.6,3.9659,6.4434,7.0985,8.2129,12.4069.6139,1.8417,1.3,3.7372,2.0271,5.7439C352.854,434.7245,356,443.4116,356,452c0,6.5416-.3562,12.7458-.6425,17.7309C355.1657,473.0722,355,475.9578,355,478c0,3.6419,2.2971,5.8962,4.4253,5.8962,1.7629,0,3.0919-1.3832,3.5553-3.7.5956-2.9779.1967-7.12-.2653-11.916C362.38,464.7986,362,460.8525,362,457a64.5055,64.5055,0,0,1,.6687-8.9138,50.9225,50.9225,0,0,0,.3264-13.1857c-.6045-6.045-2.6285-11.6963-4.5857-17.1617a92.5005,92.5005,0,0,1-3.4332-10.9557c-1.9671-8.8523-1.9683-12.6916-.006-20.5405a72.2631,72.2631,0,0,0,1.4588-10.7215c.5364-6.0594,1.091-12.3251,3.4654-17.0739,1.1257-2.2514,2.8665-5.1526,4.7094-8.2243,4.747-7.9115,10.6547-17.7576,11.3913-25.1234.5286-5.2866-.8106-9.9713-2.1058-14.5018-1.2157-4.2528-2.364-8.27-1.8954-12.4873.4821-4.3385,4.0024-9.2875,8.0785-15.0179,3.9262-5.52,8.3763-11.7756,10.8693-18.7562,4.9618-13.8928,4.1644-30.9048,3.0389-36.5324-.9895-4.9477-1.9242-9.6209.8769-14.2894,3.0023-5.0039,5.2123-9.2644,4.1231-14.7106-.9709-4.8547-.97-7.7865.0058-13.6395.5224-3.1345-.46-5.3325-1.4108-7.4581a14.3454,14.3454,0,0,1-1.5833-8.5822,54.0149,54.0149,0,0,1,1.5765-7.4653c1.07-4.046,2.0808-7.8677,1.4251-13.7692a41.4841,41.4841,0,0,0-3.3393-12.2623,56.17,56.17,0,0,1-2.6844-7.87c-1.9673-7.869-2.9548-11.8187-1.9779-19.6333.6925-5.54-3.7685-7.0644-7.3529-8.289-2.44-.8338-4.7448-1.6212-5.7819-3.35a21.4974,21.4974,0,0,1-2.1119-5.9205c-.7216-2.9112-1.4032-5.6609-4.0248-5.6613a3.9924,3.9924,0,0,0-.9633.1261c-2.5661.6416-2.5351,3.2853-2.5124,5.2156.0153,1.3075.0311,2.6595-.568,3.2658A2.3258,2.3258,0,0,1,366,94c-2.4311,0-5.1635-2.3382-8.0565-4.8137-3.6223-3.1-7.728-6.613-12.8331-7.18a16.1714,16.1714,0,0,0-1.7757-.1036c-3.9891,0-5.9652,1.7448-7.8763,3.4321a12.2423,12.2423,0,0,1-7.5688,3.6715,19.651,19.651,0,0,1-2.1617.1213c-8.4842,0-14.4247-5.8234-17.9142-10.7086-3.2381-4.5335-9.0306-5.0578-13.1059-5.0579-2.2652,0-4.5071.18-6.675.3536C286.2013,73.8613,284.4714,74,283,74c-6.3788,0-13.0578-2.5559-20.4188-7.8137-3.2718-2.3371-6.0187-3.4732-8.3978-3.4736Z" transform="translate(-112.2009 -29.3947)"/></g><g id="droopy"><path class="cls-6" d="M320,257s12,13,27,13,24-13,24-13" transform="translate(-112.2009 -29.3947)"/><path class="cls-6" d="M276,179c8,4,21,12,35,11s23-17,23-17" transform="translate(-112.2009 -29.3947)"/><path class="cls-6" d="M205,128s13,7,23,7,20-7,20-7" transform="translate(-112.2009 -29.3947)"/><path class="cls-6" d="M309,226a38.7632,38.7632,0,0,1,11-15c10-8,26-6,26-6" transform="translate(-112.2009 -29.3947)"/></g><g id="slices"><path class="cls-7" d="M223,99c-14.9324-1.4221-23,8-21,15s8,13,23,14,21-6,22-12S244,101,223,99Z" transform="translate(-112.2009 -29.3947)"/><path class="cls-8" d="M223,94c-14.9324-1.4221-23,8-21,15s8,13,23,14,21-6,22-12S244,96,223,94Z" transform="translate(-112.2009 -29.3947)"/><path class="cls-7" d="M300,141c15-1,32,7,31,21s-17,17-28,18-25-5-28-15C271.8919,154.64,280.8072,142.28,300,141Z" transform="translate(-112.2009 -29.3947)"/><path class="cls-9" d="M300,136c15-1,32,7,31,21s-17,17-28,18-25-5-28-15C271.8919,149.64,280.8072,137.28,300,136Z" transform="translate(-112.2009 -29.3947)"/><path class="cls-7" d="M317,234c0,15,15.0409,24.593,27,26,17,2,30-12,30-24s-12-22-25-23C335.6976,211.9767,317,217,317,234Z" transform="translate(-112.2009 -29.3947)"/><path class="cls-10" d="M317,229c0,15,15.0409,24.593,27,26,17,2,30-12,30-24s-12-22-25-23C335.6976,206.9767,317,212,317,229Z" transform="translate(-112.2009 -29.3947)"/><path class="cls-7" d="M372,124c-12.522,1.7889-15,10-11,16s11,7,18,5,11-7,8-14C384.2146,124.5007,379,123,372,124Z" transform="translate(-112.2009 -29.3947)"/><path class="cls-11" d="M372,120c-12.522,1.7889-15,10-11,16s11,7,18,5,11-7,8-14C384.2146,120.5007,379,119,372,120Z" transform="translate(-112.2009 -29.3947)"/><path class="cls-7" d="M267,185c4,6,5,13-2,17s-13-1-17-7c-3.5082-5.2623-4.8215-16.0446,3-18C259,175,263.8621,180.2932,267,185Z" transform="translate(-112.2009 -29.3947)"/><path class="cls-12" d="M266,181c4,6,5,13-2,17s-13-1-17-7c-3.5082-5.2623-4.8215-16.0446,3-18C258,171,262.8621,176.2932,266,181Z" transform="translate(-112.2009 -29.3947)"/></g></svg>